/* XPM */
static char *nether_portal_03[] = {
/* columns rows colors chars-per-pixel */
"16 16 249 2 ",
"   c #37009E",
".  c #3D009E",
"X  c #2F00A4",
"o  c #3400A1",
"O  c #3700A1",
"+  c #3701A1",
"@  c #3400A2",
"#  c #3500A3",
"$  c #3700A3",
"%  c #3202A6",
"&  c #3A00A2",
"*  c #3800A5",
"=  c #3900A6",
"-  c #3B00A6",
";  c #3A03A6",
":  c #3B02A7",
">  c #3D00A6",
",  c #3300AB",
"<  c #3500A9",
"1  c #3700AB",
"2  c #3500AD",
"3  c #3600AE",
"4  c #3800AA",
"5  c #3900AA",
"6  c #3800AB",
"7  c #3D00A9",
"8  c #3D00AA",
"9  c #3C00AE",
"0  c #3C02AF",
"q  c #3904AC",
"w  c #3A07AC",
"e  c #3D0AAF",
"r  c #3505B3",
"t  c #3900B1",
"y  c #3B00B1",
"u  c #3B02B1",
"i  c #3C00B0",
"p  c #3C00B2",
"a  c #3E00B2",
"s  c #3E00B3",
"d  c #3E02B2",
"f  c #3B05B3",
"g  c #3900B6",
"h  c #3E01B4",
"j  c #3F02B5",
"k  c #3F00B6",
"l  c #3F04B4",
"z  c #3A00B9",
"x  c #3807B8",
"c  c #4000A7",
"v  c #4700A4",
"b  c #4604A6",
"n  c #4300A8",
"m  c #4100AB",
"M  c #4300AA",
"N  c #4700A9",
"B  c #4402AA",
"V  c #4000AC",
"C  c #4000AE",
"Z  c #4000AF",
"A  c #4501AE",
"S  c #4005AF",
"D  c #4305AE",
"F  c #4800AC",
"G  c #4A00AD",
"H  c #4A00AF",
"J  c #4000B1",
"K  c #4300B0",
"L  c #4100B3",
"P  c #4500B0",
"I  c #4401B0",
"U  c #4600B0",
"Y  c #4401B3",
"T  c #4204B1",
"R  c #4404B3",
"E  c #4100B4",
"W  c #4000B6",
"Q  c #4400B4",
"!  c #4400B7",
"~  c #4403B7",
"^  c #4A00B1",
"/  c #4B00B7",
"(  c #4A07B6",
")  c #4C06B4",
"_  c #4808B7",
"`  c #4000B9",
"'  c #4003B8",
"]  c #4302B8",
"[  c #4700B8",
"{  c #4504B8",
"}  c #4605B9",
"|  c #4404BA",
" . c #4404BC",
".. c #4902B8",
"X. c #4D01B9",
"o. c #4B04B8",
"O. c #4906B8",
"+. c #4901BC",
"@. c #4803BE",
"#. c #4B03BE",
"$. c #4C01BD",
"%. c #4D01BD",
"&. c #4F05BC",
"*. c #4E06BF",
"=. c #4408BF",
"-. c #5300B3",
";. c #5502B6",
":. c #5005B7",
">. c #5900B3",
",. c #510AB2",
"<. c #570EB3",
"1. c #5103BB",
"2. c #5405B8",
"3. c #5506BA",
"4. c #5000BC",
"5. c #5000BD",
"6. c #5001BE",
"7. c #5400BC",
"8. c #5402BC",
"9. c #5400BE",
"0. c #5207BC",
"q. c #5507BF",
"w. c #5905BB",
"e. c #5804BE",
"r. c #5308BB",
"t. c #520CBA",
"y. c #550ABC",
"u. c #5B0CBF",
"i. c #600DBF",
"p. c #4E00C2",
"a. c #4907C0",
"s. c #5000C2",
"d. c #5307C1",
"f. c #5403C4",
"g. c #5603C5",
"h. c #5207C4",
"j. c #5706C7",
"k. c #5902C2",
"l. c #5C00C1",
"z. c #5B07C1",
"x. c #5A05C2",
"c. c #5109C2",
"v. c #5408C2",
"b. c #5708C3",
"n. c #520AC6",
"m. c #5F0BC1",
"M. c #5809C4",
"N. c #580CC6",
"B. c #5C0CC5",
"V. c #5F0DC7",
"C. c #5704C8",
"Z. c #5C01CA",
"A. c #5906C8",
"S. c #5C04C8",
"D. c #530EC9",
"F. c #570ACC",
"G. c #5808C9",
"H. c #5C0BCA",
"J. c #5B0FC9",
"K. c #5B10C3",
"L. c #5D10C2",
"P. c #5F14C9",
"I. c #5F0CD6",
"U. c #6106C7",
"Y. c #600BC0",
"T. c #640FC2",
"R. c #670BC6",
"E. c #660CC4",
"W. c #680AC3",
"Q. c #6B0DC3",
"!. c #6106CD",
"~. c #6A06CA",
"^. c #6309CA",
"/. c #640BC9",
"(. c #6508CB",
"). c #670CCB",
"_. c #650ECE",
"`. c #6F0FC9",
"'. c #6C0FCF",
"]. c #6011C2",
"[. c #6314C7",
"{. c #6A10C7",
"}. c #6B19C6",
"|. c #6711CA",
" X c #6910CA",
".X c #6910CC",
"XX c #691ACB",
"oX c #6D1ACA",
"OX c #6E19CF",
"+X c #7212CB",
"@X c #721CC9",
"#X c #7118CC",
"$X c #7719CF",
"%X c #7B1CCE",
"&X c #620FD1",
"*X c #6D0DD0",
"=X c #730BD4",
"-X c #6E13D0",
";X c #6A16D0",
":X c #6812D5",
">X c #6E1AD2",
",X c #7116D3",
"<X c #7A17D2",
"1X c #7E15D1",
"2X c #701CD2",
"3X c #751BD5",
"4X c #7B19D0",
"5X c #7B1DD3",
"6X c #7B1AD9",
"7X c #781FD9",
"8X c #7D1FD8",
"9X c #7E1EDA",
"0X c #7F1BDD",
"qX c #6F21CD",
"wX c #7F20D2",
"eX c #7D23D3",
"rX c #7820D6",
"tX c #7823D9",
"yX c #7C24DA",
"uX c #7C28D8",
"iX c #7F1EE1",
"pX c #831ACE",
"aX c #8019DA",
"sX c #8423D5",
"dX c #8129D3",
"fX c #8228D5",
"gX c #8321D8",
"hX c #8022D8",
"jX c #8121DA",
"kX c #8721DA",
"lX c #8027DB",
"zX c #8725DC",
"xX c #8426DE",
"cX c #8626DF",
"vX c #8B26DA",
"bX c #8729DF",
"nX c #8A2CDA",
"mX c #8B28DD",
"MX c #993ADC",
"NX c #802BE0",
"BX c #8A2CE2",
"VX c #8C32E2",
"CX c #8B30E5",
"ZX c #9139E7",
"AX c #953CE4",
"SX c #9935ED",
"DX c #9C38EA",
"FX c #9F3BF5",
"GX c #B35EF7",
/* pixels */
"I %.b.Z.5Xt.z G.z y P.l.7. .y #X",
"VX<.&XMX|.0 . l. .F (.F y y qX<X",
"pX2XGXiXv O C.fX6Xb.#X6X1 e l.vX",
"(.ZX.Xv  .I.#XN.e.0 L.xXe.I : u.",
"%.G.v m p.U.F.1  .m m t.E.l.I y ",
"I m : h.nXN.1 m y (.m r %..Xh.1 ",
"L.I b.ZX(.: O N.h.eX,Xm 0 Z.tXG.",
">X7.~.=Xm X %.7.xX{.DX5XI 0 7.+X",
"(.%.7.E.-.: I y E.BXnX*X7.( 7.6X",
"7.0 =.uXQ.I O y %.<.E.FX].1 : Z.",
"t.y 0 %.6XXXy F  .b.fXrXI   p.h.",
"tXxX%.y 7.6X#X>.h.xXBX( I -.bX-X",
"-.uX'.7.I G.xXVX2X%XN. .%.<XsX7.",
"m y uXaX%.O b.XX].%.m h.!.}.m : ",
"y 0 %.xXxX .O 7.I : %.-X-Xy O I ",
"0 I m i.SXE.%..XF.( eXXX0 O _ 7."
};
