/* XPM */
static char *aztec_png[] = {
/* columns rows colors chars-per-pixel */
"16 16 156 2 ",
"   c #010005",
".  c #080500",
"X  c #030D05",
"o  c #0A0B03",
"O  c #040509",
"+  c #08070C",
"@  c #0B0A08",
"#  c #04100C",
"$  c #0B180F",
"%  c #040311",
"&  c #000E13",
"*  c #0B051D",
"=  c #070A1B",
"-  c #0B0A18",
";  c #110C13",
":  c #061113",
">  c #0E1316",
",  c #0F171A",
"<  c #14141C",
"1  c #121C1B",
"2  c #020123",
"3  c #0E0F2E",
"4  c #110C20",
"5  c #131720",
"6  c #1A1625",
"7  c #161F24",
"8  c #181C27",
"9  c #111E2E",
"0  c #0A183B",
"q  c #152324",
"w  c #1C293C",
"e  c #202924",
"r  c #252734",
"t  c #282536",
"y  c #2A2E39",
"u  c #303437",
"i  c #39373A",
"p  c #411D0D",
"a  c #43200E",
"s  c #4E240F",
"d  c #4C2B0E",
"f  c #4B2212",
"g  c #4C2F13",
"h  c #4E3010",
"j  c #4B3712",
"k  c #494A38",
"l  c #363147",
"z  c #3D3A55",
"x  c #253A65",
"c  c #3E4146",
"v  c #3D4A52",
"b  c #464D46",
"n  c #404F4C",
"m  c #474656",
"M  c #484B54",
"N  c #5A5D52",
"B  c #505A59",
"V  c #52635D",
"C  c #485067",
"Z  c #5B586B",
"A  c #46567A",
"S  c #5D5974",
"D  c #5B6161",
"F  c #53616C",
"G  c #5E6C6F",
"H  c #5C617E",
"J  c #576D78",
"K  c #5E7270",
"L  c #656764",
"P  c #616D63",
"I  c #66676B",
"U  c #636969",
"Y  c #6A746B",
"T  c #60627B",
"R  c #646A7A",
"E  c #716F7D",
"W  c #677371",
"Q  c #6C7175",
"!  c #647E7F",
"~  c #6C7A7D",
"^  c #7A7C71",
"/  c #717B7D",
"(  c #78827A",
")  c #82847F",
"_  c #938D73",
"`  c #3B5C8F",
"'  c #6E7585",
"]  c #707F84",
"[  c #7B7B83",
"{  c #7A7B8D",
"}  c #69799B",
"|  c #6D7CA3",
" . c #807F8F",
".. c #6D8683",
"X. c #768081",
"o. c #7C8282",
"O. c #7A8388",
"+. c #7D8B8C",
"@. c #7F9097",
"#. c #808487",
"$. c #8B8996",
"%. c #82879A",
"&. c #808C98",
"*. c #859C96",
"=. c #819299",
"-. c #8C9C9B",
";. c #979A93",
":. c #94999D",
">. c #A49F9B",
",. c #AFAC9B",
"<. c #8587A0",
"1. c #8792A4",
"2. c #8E91A4",
"3. c #8692A8",
"4. c #979FA2",
"5. c #9A95AB",
"6. c #9699AC",
"7. c #8C8FB0",
"8. c #9598B9",
"9. c #98A0A2",
"0. c #A4A2A5",
"q. c #A2ACAE",
"w. c #A6AEB1",
"e. c #A3AABC",
"r. c #A6B6B5",
"t. c #AEBAB6",
"y. c #A8B0BB",
"u. c #AEB9BF",
"i. c #B5B7B4",
"p. c #B0BABB",
"a. c #BFC1B6",
"s. c #DDD692",
"d. c #C0C3B0",
"f. c #ECE6B6",
"g. c #ADA6C5",
"h. c #ADB7C1",
"j. c #AFB7CA",
"k. c #AFBDC8",
"l. c #BFBFC1",
"z. c #B4BEC8",
"x. c #B8C5CB",
"c. c #BDC4D4",
"v. c #BFC9D2",
"b. c #C3CAC3",
"n. c gray79",
"m. c #CFD4CE",
"M. c #C4C6D2",
"N. c #C4CDD6",
"B. c #C6C9D8",
"V. c #CACCD8",
"C. c #D6D6D4",
"Z. c #DEE0C8",
"A. c #DEE1D8",
"S. c #E3E5D7",
"D. c #E8EAD5",
"F. c #F9FFD9",
/* pixels */
"h f f f d d h h h d d d f g a h ",
"a M $.M.N.V.B.N.c.j.x.u.t.y.* a ",
"p <.M 1.{ 2.B.v.c.x.z.u.r.& = p ",
"f | H 0.) [ 8.3.7.%.k.h.- e + g ",
"d 5.6.x S g.2.i.9. .-.z t > q d ",
"s w . F ! 3.w.i J ;.D > r & > s ",
"s l : R 5.A N.T m 6 k c O % @ s ",
"h 7 &.# & ; :.D 2 O X       % h ",
"h =.C   5 } y < u   $ 0 o     h ",
"d   , 3 e.' 4 8 L B     O 1   d ",
"d 9 N ` T ~ n v F.Z.C.p.l.n.a.d ",
"d X.O.+.#./ Q ..S.f.b.d.w.h :.d ",
"s K U Q o.X.] o.D.A.s.,.>._ w.s ",
"f b W E I Y Z (         m.q.*.f ",
"g P V C G ^             i.4.@.g ",
"h f f f d d h h h d d d g g a h "
};
