/* XPM */
static char *bouquet_png[] = {
/* columns rows colors chars-per-pixel */
"48 48 251 2 ",
"   c #000000",
".  c #060A04",
"X  c #0D0A05",
"o  c #010B0A",
"O  c #0C0D0A",
"+  c #080404",
"@  c #130B05",
"#  c #140E0B",
"$  c #1B0D06",
"%  c #0B120B",
"&  c #1C140C",
"*  c #1A130A",
"=  c #071918",
"-  c #1A1814",
";  c #0C0F12",
":  c #24190E",
">  c #27150B",
",  c #351D0B",
"<  c #35150A",
"1  c #251B12",
"2  c #291F14",
"3  c #2C1D1D",
"4  c #391D16",
"5  c #300F0C",
"6  c #16211A",
"7  c #0F2411",
"8  c #34230C",
"9  c #39240E",
"0  c #2B2116",
"q  c #2D241A",
"w  c #27271D",
"e  c #332316",
"r  c #3F2411",
"t  c #31261C",
"y  c #34291E",
"u  c #3C2C1D",
"i  c #3E2811",
"p  c #283010",
"a  c #001D23",
"s  c #091F21",
"d  c #271F20",
"f  c #002226",
"g  c #002429",
"h  c #002B2C",
"j  c #0A2627",
"k  c #1A2C29",
"l  c #01322E",
"z  c #0A332E",
"x  c #13352E",
"c  c #1B352D",
"v  c #1F382F",
"b  c #002E30",
"n  c #013432",
"m  c #093734",
"M  c #143432",
"N  c #153831",
"B  c #1A3932",
"V  c #1E3A3B",
"C  c #112F30",
"Z  c #282A23",
"A  c #342B22",
"S  c #3B2D22",
"D  c #352929",
"F  c #23352C",
"G  c #2B332C",
"H  c #25382E",
"J  c #2E392C",
"K  c #3D3124",
"L  c #3B352A",
"P  c #3D3A2C",
"I  c #35352A",
"U  c #2C3433",
"Y  c #243A32",
"T  c #2C3C31",
"R  c #2A3938",
"E  c #333B32",
"W  c #373734",
"Q  c #242E3D",
"!  c #441C10",
"~  c #462312",
"^  c #482B10",
"/  c #433324",
"(  c #4B3325",
")  c #43352B",
"_  c #443B2D",
"`  c #4C3C2C",
"'  c #4E3828",
"]  c #533C2D",
"[  c #57372A",
"{  c #4B3E32",
"}  c #473B3A",
"|  c #573F33",
" . c #67312A",
".. c #781D06",
"X. c #3F461D",
"o. c #374438",
"O. c #2B4138",
"+. c #534D0F",
"@. c #4C432D",
"#. c #56442E",
"$. c #484236",
"%. c #534333",
"&. c #594535",
"*. c #5B4B3B",
"=. c #564838",
"-. c #435024",
";. c #624E3D",
":. c #64513E",
">. c #69523E",
",. c #71563F",
"<. c #57652B",
"1. c #013C42",
"2. c #102B4C",
"3. c #0A4549",
"4. c #174647",
"5. c #064E53",
"6. c #055358",
"7. c #164F53",
"8. c #274A46",
"9. c #384C47",
"0. c #39534C",
"q. c #265451",
"w. c #315D58",
"e. c #294C52",
"r. c #15576C",
"t. c #24556C",
"y. c #13676A",
"u. c #25676B",
"i. c #376665",
"p. c #2A6E71",
"a. c #357577",
"s. c #3E7267",
"d. c #36685D",
"f. c #434D45",
"g. c #5D4E42",
"h. c #514A4B",
"j. c #4A5449",
"k. c #5F5043",
"l. c #55554A",
"z. c #4A5C58",
"x. c #585F57",
"c. c #645344",
"v. c #6A5643",
"b. c #6D5946",
"n. c #6C5B4B",
"m. c #65594A",
"M. c #735D4B",
"N. c #745843",
"B. c #685B54",
"V. c #6F524F",
"C. c #486357",
"Z. c #526057",
"A. c #78624E",
"S. c #6F6253",
"D. c #68645B",
"F. c #736455",
"G. c #7B6653",
"H. c #7E6955",
"J. c #7B6B5B",
"K. c #746659",
"L. c #797057",
"P. c #4E576B",
"I. c #5A7A77",
"U. c #4C7370",
"Y. c #656D66",
"T. c #67786A",
"R. c #787267",
"E. c #6D7071",
"W. c #665C66",
"Q. c #801C37",
"!. c #9C2117",
"~. c #C8393D",
"^. c #A15C07",
"/. c #AA761E",
"(. c #DE413B",
"). c #895C55",
"_. c #836E5B",
"`. c #856C56",
"'. c #84715E",
"]. c #8A735C",
"[. c #94785C",
"{. c #916856",
"}. c #847363",
"|. c #8B7662",
" X c #8D7864",
".X c #8C7B6A",
"XX c #857969",
"oX c #937C65",
"OX c #937E6A",
"+X c #967B63",
"@X c #8A7973",
"#X c #AC1D5B",
"$X c #76813F",
"%X c #6E8A7B",
"&X c #988A18",
"*X c #C0A20F",
"=X c #D6C708",
"-X c #8F816E",
";X c #94816D",
":X c #9B836C",
">X c #948272",
",X c #9C8672",
"<X c #9C8974",
"1X c #958E7F",
"2X c #A2866B",
"3X c #A38B74",
"4X c #A68A76",
"5X c #B78A76",
"6X c #A6917C",
"7X c #AB9179",
"8X c #B7957C",
"9X c #908B56",
"0X c #CA947C",
"qX c #3F7C81",
"wX c #1B5A97",
"eX c #4D7C80",
"rX c #737680",
"tX c #528A89",
"yX c #668D8C",
"uX c #74948D",
"iX c #79A797",
"pX c #73A18F",
"aX c #478DBC",
"sX c #918F83",
"dX c #A79685",
"fX c #B89A85",
"gX c #AB8D91",
"hX c #84AB98",
"jX c #88B29E",
"kX c #BAA587",
"lX c #BBA69B",
"zX c #92AAB1",
"xX c #B8ACAD",
"cX c #929EB3",
"vX c #CB9B86",
"bX c #D39E88",
"nX c #D78285",
"mX c #D7A588",
"MX c #DCB290",
"NX c #C6A58A",
"BX c #E3A88D",
"VX c #D6BDAD",
"CX c #CEC6BF",
"ZX c #A4B7CB",
"AX c #D2D4D5",
"SX c #E4D9D9",
"DX c #EDD3CE",
"FX c #D4E7EC",
"GX c #E6EBEB",
"HX c #F0EFEE",
"JX c #C1D2E3",
/* pixels */
"9 8 > , > , , , , , 8 8 , , , , , , , , , 8 8 8 8 8 8 8 8 , , , , , , , , , , , , , , ! < , ! ~ ",
", a a f a a a a f f f a a a a a a a a a a a a f f f f f a f                                   i ",
", a a a a a f f a a a a a a a a a a a f a f f f f h f h h h                                   ^ ",
", a f f f f f f f f f f f f f f f f f f f f h h h h f b h h                                   , ",
", h h h h h h h f f h h h h h h h h b f h h h h h h b n b b                                   , ",
"8 h h h h h h h h h g h h h h h h h h h b b b n b n b n b b                                   8 ",
", h h h h h h h h h h z h z n n n n z n n n n n n m n n n n                                   i ",
", n z z z z z z z z n n m n z n n n n n n n n n n z n n n n                                   8 ",
"i z z x B x B B Y @.T Y Y B N m z z z z z m z n n n z n n m                                   8 ",
", N c c B c c c U { *.=.o.T F T Y B x N x N N B N x N N B B                                   8 ",
", c c F H c G L R L &.&.#.E E T T T Y H H v T Y v O.8.w.d.s.                                  8 ",
", H H F U _ U #.P E _ &.#.#.@.I H E H T F H T 0.C.I.%XpXpXyX                                  8 ",
"8 H F H k R G _ ` I U ] #.#.] ( I T I H o.C.T.%XpXpXjXhXiXiX                                  8 ",
"8 I @.=.E R U E @.P I ) ( _ ` ] _ J o.j.T.uXhXhXhXhXiXjXjXhX                                  , ",
"8 &.$.&.&.#.W W E E { ] ` ] ` ` ] ,.T.dXNXkXhXjXiXhXjXjXpXiX                                  , ",
"8 &.&.{ &.&.] G Z G ` ] ] ] ' | {.5XMXMXMXmXmXmXkXhXjXiXiXiX                                  , ",
"8 &.&.&.] ` { ` ) I G G A K &.{.5XmXMXmXmXmXmX9XvXdXsXuXuXyX              1                   , ",
"8 ` ] ] ] ( ( / _ ` _ K S ] m.>X0XvX7XfXBXbX$XvX=X&X%XuXuXU.              1 q                 8 ",
"8 ( ` / K A S L L Z K S ;._.R.XXOX4X8XfXfX0Xp !.+.+.nXY.U.y.1 1 1 1 1 1 * * 0 q               , ",
"8 / / ( ( ( / I A A q { J.OX<X>X<X5X5XD.0X~.&X@ u (.!.s.u.e.: 2 2 * q 1 * * : e q             , ",
", A K A y y S S u u ( J.<X1XsXdX3X8XD.4Xx./.X.*X^.X ).w.q.8.`./ &.=.q * # + X 0 K             , ",
", w Z = - * - Z w A l.|.<X-XOX:X<X<Xj.f.!.o...% <.&XQ.#X8.V &.;.]. X:.y 2 : + 2 K K.          , ",
", . X . o % * - 6 $.z.Y.Y.R.E.I.I.8.V k k +.^ . 7 -.<.0.B j |.M.M.OXn.:X:X:X*.1 e c. X        , ",
", X . O o % O ; U I.I.uXE.T.I.tXU.Y j j = ; j -.X.L.O.9.j f 3XH.].G.G.M.|. X:X: 1 u }._.      , ",
"i o @ @ .     * Y w.u.tXeXyXyXuXN C.j = ; ; O j 8 0.R N h 6 :X XoX`.|.|.].].3X X2 e / OXO     8 ",
"8 o o o o   o = G 3.5.y.y.a.tXI.i.m = = o   j - W U k x Z k [.].G.A.A.oXM._.:XoXq e e *. X    8 ",
",       o o ; n 3.5.6.r.a.qXa.i.r.7.4.o o j C W } S.6 6 * + <X2XA.c.c.oX_.2XoX'.OX: e / M.OX  8 ",
",           = N i.u.y.y.a.p.U.u.u.7.4.s   = s - W }.@ %     G.M.v.v.M.v.b.n.oX`.M.2 e y y }. X8 ",
"8         ; h 4.1.5.p.tXu.5.3.m m k k     N j   }.VX5       :XoXc.H._.].OX:X XoX XOXy e y / b.i ",
",         = 1.6.q.u.7.sXlX@Xh F c Z F     =   l.B.7X3 #     ;.c.b.c.b.K.N.|.v.H.H.<X2 e y y A.8 ",
"8 . % ; 6 f.z.Z.C.0.9.[ ).4X8.q.q.o.E     m.>X;XOXdXkX8X:X2X<X3X_. X:XOX].kX4X|.].].6XS * e G.8 ",
"8 .   . - P o.o.o.q.i.wXP.3XsXl.$.L K v.K.'.3X<XfX6XfX6XG.M.2XM.].G.[.'.7XoX+X4X`.6X].S @ 2 _.8 ",
",       - P o.j.f.j.e.r.P.VXFXAXxX*.A.|.K.OX].].oX].3X<X|. X|._.OX:XA.+XoX[.:X<X`.oX_..X}.A.n.8 ",
",   X * Z P _ _ f.l.0.2.{.SXFXFXGXAX X`.H.:X X].'.G._.G.$.K.>XJ.6X<XM.K.n.'. XOX].b.*.;X7X].n., ",
", X X & I * X - z.Z.Z.Q  .cXcXZXZXGXSX`. X:XK. X>X X XJ.=.m.n.k.m._.] g.R.` =.` c.*.k.*.S.}.*., ",
", @ # q { * X O l.m.=.u ] xXgXP.JXGXHXAX`.n.@  X7X<X:XoX` g.K.K.K.B.K.K.&.*.*.*.*.c.c.g.*.) n., ",
"< & 1 ` v.: $ * ;.: # | 2XdXgXgXzXJXFXGX.X: : _.].v.:X:XOXc.K.K.S.K.J.}. X{ *.$.&.{ &.*.n.&.q , ",
"> * 0 &.,.$ $ c._.L h.gXW.I.AXg.V.rXxXbXK u q q q e ) c._.K.:X6Xn.K.c.J.XX}.&.) &.=.N.&.c.v.&.8 ",
",   + ~ < q *.} W.xXDXaXwXt.DXB.3 c.J.e e A e q u A u ` *._.:X8XG.K.B.J.K.XXM.&.*.) *.k.*.;.&., ",
">   q 0 q : : } J.gXgX@Xt.P.K.W - q 0 e q u q 1 A e A 0 / :.G.fXNXK.}.K.J. X;X.Xm.&.@.) K *.g., ",
", A 0 * * * Z D 3 3 @ + >.}.1 0 A u e u 0 e A u q q 0 q S =.H.NX7Xn.K.J.J.}..X.Xe ;.&.g.:.&.` , ",
", A 0 * : 1 D 3 L n.c.* / e 2 A S A u u e e q q 0 1 q u q { A.:X3Xm.m.b.>X>XdX<XJ.c.=.` *.c.*., ",
", 2 q * # d d 1 K &.u 2 0 q A e A A A S e 1 1 * * 1 1 2 u q &.]. X$.=.c.K..X<X;X.X.XdXc.S.B.v., ",
"< 0   o o d & S 1 2 2 q 2 1 1 q 0 1 1 e 0 0 0 1 q 0 1 e u 0 _ M.:.n.n.S.S.H.*.}.J.J.-X6X&.g.k., ",
"8 1 # &   # e q e e e 2 2 1 0 q 1 1 1 * & 1 A q S 0 1 e 0 1 1 ` S ;.:.n.g.c.G._. X<X;XdX_.M.M.! ",
"8 q q 0 A 0 u u q u A A q 1 1 e * 2 q * 1 1 0 2 0 2 2 e q : * * K u { &.A.b.n.].<X<X6X6X;X;.c.4 ",
"8 e u A u u A q A q A e q 1 1 1 0 2 y 2 1 1 q q 0 0 0 q * * 1 * 1 e @ ` c./ c.].3X;.n.=.c.*.*., ",
"i , , , , , , , , , , 8 , 8 8 8 8 8 8 8 8 , , , , 9 , , , , , , , 8 8 8 8 8 8 8 9 , , , , , ~ ^ "
};
