/* XPM */
static char *burning_skull_png[] = {
/* columns rows colors chars-per-pixel */
"64 64 141 2 ",
"   c #0E0A09",
".  c #130E0B",
"X  c #180808",
"o  c #13100C",
"O  c #181908",
"+  c #0E1617",
"@  c #172A18",
"#  c #283218",
"$  c #0C172F",
"%  c #142B30",
"&  c #2B3130",
"*  c #2A1822",
"=  c #40271E",
"-  c #77281A",
";  c #184918",
":  c #164D28",
">  c #285B28",
",  c #2E4F2C",
"<  c #386D32",
"1  c #226822",
"2  c #485536",
"3  c #4C7430",
"4  c #515D14",
"5  c #08184D",
"6  c #0E2B4F",
"7  c #29324E",
"8  c #081868",
"9  c #0C3070",
"0  c #283A69",
"q  c #2D4856",
"w  c #384841",
"e  c #375466",
"r  c #1F545E",
"t  c #546F50",
"y  c #5A7143",
"u  c #69724E",
"i  c #586969",
"p  c #4A6F74",
"a  c #787C66",
"s  c #6B7470",
"d  c #525454",
"f  c #9E290A",
"g  c #D71E09",
"h  c #F01708",
"j  c #E41A09",
"k  c #E42D0F",
"l  c #F75708",
"z  c #F86808",
"x  c #F87A08",
"c  c #CF520A",
"v  c #A16B2C",
"b  c #58890D",
"n  c #6E980E",
"m  c #548B31",
"M  c #6C9434",
"N  c #58A838",
"B  c #75A838",
"V  c #75A828",
"C  c #58904A",
"Z  c #489840",
"A  c #71944C",
"S  c #77A84E",
"D  c #778878",
"F  c #68A759",
"G  c #388840",
"H  c #81A810",
"J  c #8D8236",
"K  c #AD9E36",
"L  c #8FA925",
"P  c #B1BC26",
"I  c #BEC339",
"U  c #F3D60A",
"Y  c #F8E808",
"T  c #F2F00C",
"R  c #ECE12E",
"E  c #88964E",
"W  c #88A843",
"Q  c #88B841",
"!  c #91AD55",
"~  c #A9B958",
"^  c #8D9075",
"/  c #A9B769",
"(  c #A29F70",
")  c #B0C868",
"_  c #DBD84F",
"`  c #F0EA52",
"'  c #D9D673",
"]  c #F0AD61",
"[  c #0A3789",
"{  c #094893",
"}  c #1B4887",
"|  c #175AA8",
" . c #4376B6",
".. c #768989",
"X. c #5587C2",
"o. c #6599CE",
"O. c #909589",
"+. c #869999",
"@. c #98A890",
"#. c #B8BA98",
"$. c #AAAF91",
"%. c #97AAA9",
"&. c #B1B8A9",
"*. c #A8A8A8",
"=. c #B8C8AE",
"-. c #BEC09F",
";. c #C9C997",
":. c #EDD08F",
">. c #EEEC88",
",. c #C8C8A8",
"<. c #D9C7A8",
"1. c #C8D8A8",
"2. c #D8D8A7",
"3. c #C8C8B9",
"4. c #D8C8B9",
"5. c #C8D8B9",
"6. c #D8D8B8",
"7. c #E9D8B6",
"8. c #D8E8B7",
"9. c #E9E9B6",
"0. c #83B0D7",
"q. c #B7C8C9",
"w. c #A7CFE7",
"e. c #BADDEA",
"r. c #D4D8C9",
"t. c #D9DCCE",
"y. c #E8D8C9",
"u. c #D8E8CD",
"i. c #E1EDC6",
"p. c #E8E8C8",
"a. c #F8E8C8",
"s. c #E8F8C8",
"d. c #E8E8D9",
"f. c #F8E8D9",
"g. c #E8F8D8",
"h. c #F8F8D8",
"j. c #D2E8EB",
"k. c #EDF3E0",
"l. c #F5F5E6",
"z. c #F4F8E9",
"x. c #CBB598",
/* pixels */
". . . . . . . . . . . . . . . . . . . . . . . . . . . . . . o o . . . . . . . . . . . . . . . . . . . . . . . . .       o o o o ",
". 6 9 7 6 6 7 6 $ 9 6 6 7 6 6 7 6 6 6 6 6 6 6 6 6 6 7 6 6 0 6 7 7 6 7 7 & & & 7 7 & % & % & & & & 6 e 7 e e e e e e q 7 7 6 q o ",
". 5 5 6 6 6 7 7 7 0 6 6 6 0 6 6 6 6 6 6 6 6 6 6 6 6 6 6 6 7 6 6 % 7 % & & 7 % 7 7 & & h h & & % & 6 q q q q e q q q q q 7 7 q o ",
". 5 6 6 6 6 7 6 6 7 7 6 6 6 6 $ 6 9 6 6 6 9 6 6 6 6 6 6 6 6 6 7 7 7 % % % & % 7 7 6 7 h k & & & % 6 7 q q & q 7 q q 7 q q 7 7 o ",
". 6 6 6 6 6 6 6 0 6 6 6 9 6 6 5 6 0 6 6 6 6 6 5 6 6 $ 6 6 6 7 6 % 7 7 % % & % % 7 h h T T & % % % 7 7 7 7 7 % % 6 6 6 r 7 6 q   ",
". 6 0 6 7 6 6 6 7 7 9 0 9 9 9 6 6 0 6 6 6 6 6 5 6 5 6 6 h j % $ 6 % % & $ 7 % 7 & h h Y Y % % 7 % 6 6 6 % 7 6 6 6 6 6 r 7 6 6   ",
". 6 6 6 7 6 0 0 0 9 r 9 9 9 0 0 9 6 6 6 6 9 6 5 6 5 6 6 j h 6 7 6 6 % % & 7 7 % & l l T Y % % % % % % $ $ 6 $ 6 % 6 7 % % 7 6   ",
". 6 9 9 9 9 0 9 9 9 9 9 9 9 0 0 0 9 9 9 9 6 9 6 9 6 0 h Y T % % 6 $ 7 $ h h 7 & & l l T Y $ 7 % % % % % $ % $ 6 6 6 6 6 6 $ 6   ",
". 0 6 9 9 9 9 9 9 9 9 9 9 9 9 9 9 9 9 6 9 6 9 6 6 6 9 x Y Y % % 6 % 7 7 h h 6 $ 6 l l Y R % % 7 % % $ % $ % $ $ $ 6 6 6 $ $ 6   ",
". 6 9 0 9 9 9 9 9 9 9 9 9 9 9 9 9 9 9 9 9 9 6 9 6 6 6 z Y Y $ 7 $ = h h h h 7 6 7 l l Y R 7 7 6 6 $ 7 % 6 % 6 $ 6 6 6 6 6 6 6   ",
". 0 9 9 9 9 9 9 9 9 9 9 9 9 [ 9 [ 9 9 9 9 9 9 9 9 6 6 z Y U % % % * h h Y Y & 7 6 T Y z.z.z l 7 6 h h h 6 6 6 6 6 6 6 6 $ 6 6   ",
". 9 9 9 9 { 9 9 9 9 9 9 9 [ [ [ [ [ 9 9 9 9 9 6 6 9 0 Y z.h.z $ $ $ z z Y Y 7 & & T T h.z.T T 7 % h h k 6 6 6 6 $ 6 6 $ 6 5 6   ",
". 9 9 9 9 9 [ [ 9 9 [ 9 9 { 9 9 { [ [ 9 9 9 9 9 6 6 7 Y h.h.z $ $ 7 z z Y Y 6.l c Y T z.z.Y U & 7 h k h % 6 6 6 6 6 5 6 6 6 6 . ",
". 9 9 9 9 9 9 { { [ { { { { { { [ { [ 9 9 9 9 9 6 z z Y z.z.Y % 6 p x z Y Y u.#.K h.z.z.z.T h h h Y Y ` 6 6 6 6 6 6 6 6 6 6 6 . ",
". 9 9 9 9 [ } { X. .e.w.j.j.j.w.{ [ [ 9 9 9 9 9 5 z l T z.z.Y 7 &.6.z z Y Y &.*.$.u.z.h.z.T h h h T Y ` 6 6 6 6 6 6 9 6 6 6 6 o ",
". 9 9 9 9 9 [ { X. .j.w.z.j.q.w.{ [ 9 [ 9 9 9 6 6 Y ` l.z.z.T 6.u.:.x x Y Y +.$.d.g.d.p._ x k k k Y Y ` $ 6 6 6 6 6 9 6 6 6 6 o ",
". 9 9 9 [ 9 [ { o.o.j.j.z.j.q.e.{ { [ [ 9 9 9 6 6 z z T z._ r.u.p.9.T Y h.z.z z z.d.d.d.u.p.z z l Y Y Y 6 6 6 6 6 6 6 6 6 6 6 . ",
". 9 9 9 9 [ [ { o.o.j.e.w.e.e.z.{ { [ [ 9 9 6 8 5 z x Y ' 3.r.r.d.9.Y Y z.z.l l 3.p.d.p.p.p.z z l Y Y Y 6 6 6 6 6 6 % 6 6 6 6 . ",
"o 9 9 9 9 [ } {  .X.j.e.w.e.j.d.{ { [ [ 9 9 8 5 5 5 $ 6 q.r.d.:.l l T T z.h.T T q.h.p.u.p.r.z l l Y Y Y $.r 6 6 6 6 6 6 6 $ 6 . ",
". 9 9 9 9 9 [ {  .0.e.e.0.z.j.w.{ [ [ [ [ 9 9 6 5 5 5 &.q.d.d.7.l l T T z.z.T T q.h.p.h.6.2.z z z T Y Y %.$.6 % 6 6 6 $ $ $ $ . ",
". 9 9 9 9 [ [ [  .o.w.w.w.0.j.e.| [ [ 9 9 9 6 8 6 5 = 3.u.h.h.9.` R z.z.h.z.T T 5.h.d.7.p.6.5.z z T Y Y ..O.+.6 6 $ 6 6 6 6 $ . ",
". 9 9 9 [ [ [ [  .X.0.o.X.o. .0.| { [ [ 9 9 6 5 9 6 *.r.u.h.z.d.Y >.z.z.h.h.T T p.g.p.p.p.u.6.T T z.g.g.z l z r $ $ $ 6 6 6 6 . ",
". 9 9 9 9 9 9 9 | X.X.X.o.o.o.X.{ { 9 9 9 9 8 6 g g q.p.p.p.z.f.z l T T T R z z d.h.p.p.p.p.5.2.` z.z.z.z z z s 6 $ 6 $ $ $ 6 . ",
". 6 9 6 9 9 9 9 { { { | { { { { { [ [ 9 9 9 9 5 g g r.d.f.g.h.y.l l T T T R x z d.d.z.h.f.9.6.2.` z.z.z.l l z s 6 $ $ 5 6 $ $ . ",
". 6 9 0 7 6 $ $ 6 r 9 { { { 6 9 { [ [ 9 9 9 9 6 z z u.d.h.g.d.h.h.&.%.&.&.=.r.h.g.z.p.p.9.6.6.5.` z.z.z.Y T Y s 6 6 $ 6 6 6 6 . ",
". 9 9 6 + $ $ $ $ $ 6 9 } 9 6 $ 9 9 9 9 9 8 8 6 z z r.d.h.z.f.z.z.&.d.h.h.h.h.a.s.h.9.6.6.9.8.5.R z.z.z.Y Y Y s 6 $ $ 6 6 6 6 . ",
". 9 6 $ $ $ $ + $ $ $ $ $ r $ % $ 9 9 9 8 6 8 6 z z &.g.p.p.p.z.z.h.g.d.h.p.h.h.g.p.p.9.7.u.y.3.;.z.z.z.Y Y Y i 6 $ 6 5 6 6 6 . ",
". 6 6 $ + $ % % $ $ $ $ + $ $ $ $ % 9 9 9 9 6 5 z z #.u.d.8.6.p.g.d.g.f.f.a.p.7.7.9.2.p.7.6.5.,.=.z.z.z.R T Y i 6 $ $ 6 5 6 6 . ",
"o $ $ $ $ o $ $ + $ + $ $ + $ $   + $ 5 9 8 6 5 Y T $.f.p.6.5.r.a.p.h.h.g.p.7.6.7.u.r.6.p.,.#.$.d.z.z.z.Y T Y i 6 6 6 6 6 6 6 o ",
"o $ $ $ + + + + $ $ + + $ + + + + $ $ 6 5 6 6 6 Y T ,.p.6.6.3.$.#.9.6.2.1.<.$.$.,.$.3.r.5.6.=.O.u.z.z.z.R R Y i 6 $ 5 $ 6 6 $ o ",
"o + + + + + + + + + + + + + $ $ $ $ $ 6 5 6 z l R 2.p.,.t d d ^ $.#.2.2.$.O.$.t & & & 4 $.=.$.&._ T Y Y l l z t 6 5 6 5 5 5 6 . ",
"o + $ $ +   + + +   $ + % % $ $ + + $ $ 5 6 z l _ 2.#.d w & a & s $.r.2.^ $.d & & & & c c f 6.&.L Y Y Y z z z i 6 6 6 $ 5 5 5 . ",
". + $ + + + + $ + + + + $ $ + + % $ $ $ 5 5 Y Y g.6.d & d K L & + $.d.u.#.D d w & + o z z z J x.%.Y T Y z l z p 6 $ $ $ $ 6 5 o ",
". + + + + + + $ + + + $ + + + + + + $ $ $ 5 T T k.1.^ @.&.T Y o & ^ d.g.=.$.a d & % o & i s @.3.$.s i i i s i e 6 $ $ % 5 5 6 o ",
". o + + + + + + + + + o $ + + + + + $ $ $ 5 z z Y ' / 2.,.z z d & *.z.6.=.=.t ^ 2 w o & #.*.=.5.#.i i i s s s p $ $ $ $ $ 6 6 o ",
". + + + + + + + + $ + + + + + + + + % $ $ $ l l U 6.5.=.] z z +.,.$.f.d.5.6.O.a y d 7 ^ 6.3.&.r.#.s i s D D ..p $ $ $ $ $ % % o ",
". + + @ + + + + o + $ + + + % + + + + + $ $ % % 6 3.7.,.=.3.3.$.&.i.t.,.4.&.6.^ ^ ^ a $.,.,.$.r.$.s - s s ..s 6 $ % $ $ $ $ $ . ",
". + + o + + @ o + + + % + + + @ + + $ +   + + + 6 =.2.#.,.$.@.6.&.r.+ + r.3.3.p.=.^ O.O.#.#.p.6.#.a J D ..s s % $ % $ $ % % % . ",
". @ @ @ @ @ + + + O . o + O + + + + @ + + + + $ q &.2.#.#.6.;.^ $.+.& & * 3.3.#.p.p.5.$.$.r.p.=.3.&.K &.*.s e % 6 $ $ $ $ % $ . ",
". + + + + + + + + o + + + @   + + + @ % + $ @ % s @.&.&.=.&.#.$.r.d * u $ & =.&.,.#.6.5.6.8.5.2.%.&.5.=.O.s % % % $ $ $ $ % $ . ",
". + + + o o   o o O @ O + @ + O @ + + + @ % % % & @.^ s a s @.$.#.& & @.i 7 =.$.@.( D @.*.&.,.5.&.=.$.i i % % $ % % $ % $ $ % . ",
". @   +   @ + + + o + O o o O + @ o % % @ % % % @ @.^ O.@.s s $.2.s & O.d d &.&.s d D s @.O.=.,.$.$.i s s % % % % $ % % % % % . ",
". @ + @ # # & @ @ @ @ & + + + o + @ O + @ + % + + p &.@.$.$.s $.6.d i d d d ,.#.@.@.@.$.O.@.$.$.O.s J D e % % % % % $ $ $ % % o ",
". & @ & @ # @ , O # # @ @ % # % + & @ + % % % % + % t ..+.@.$.$.$.r.* r.D % 6.$.,.O.$.@.....s e i $.*.f f % % % % % % % + $ % o ",
"o & & & # & @ @ @ # @ & & @ & # @ & % % @ , % & + , % , i i *.g g a r.#.t.t.,.3.&.$.+.s % & ..s s %.$.f f % % + % + + + @ + $ o ",
"o , , & @ O + @ % , & @ , ; @ & & # ; % , @ # % & & , , , , , g g v $.5.6.5.<.,.#.O.D & $ = D s s $./ K R % % % + % % + + $ $ . ",
"o # + X % @ @ @ @ & @ % @ + @ @ @ & , & , > , , , , , % , g g Y Y a 3.,.=.$.#.&.^ O.s w 5 i $.@.D $.$.I T % $ % % % % % % $ @ o ",
"o @ & & & & % & , & & & % # % % , % , , , > > , , % , , , g g T T s 3.#.&.&.$.=.^ ..d 6 i #.$.O.^ z.z.Y _ & % % % % % % + % % o ",
"o , , , , & , , & , & , & , , , , , , > , < > , , , , , > l l Y T ^ ^ D s D s ^ s u a i ..r.$.O.K T ` l l , % , & , , > , 1 > . ",
"o B B B M M m m m m m m m M M M m m m m C m m 3 , 4 1 m B l l Y T O.=.=.O.6.i q.i u s @.=.6.@.^ U T ` l l ; % > , , , , > > > . ",
"o < 3 < < m m m 3 m M b m b n b m B B m M M 3 m m 3 m m m l l Y T a r.3.O.6.s ,.d a ( O.u.=.^ a D u < < < , > < , > , , , > < . ",
"o M V M < < > 1 < t 3 3 3 m m m m m m 3 m N N N N m N m m l z T Y ^ 3.( $.r.O.r.^ s $.,.6.%.a s s , > 2 3 t < , , , , , , , 4 . ",
". 3 m C M A m C m m m M m M b b b b b b m 3 m m C m m m m Y T z.z.z l 3.3.#.s =.O.#.$.,.r.a s s : ; : : < t < < , , , > , u m . ",
". W ! ! ! ! ! A M S B W L M M M M M M M B B B B M B m M m Y T z.z.z z $.$.r.$.$.5.#.$.#.#.D t 3 3 < < < < > > , , , , , M B W . ",
". S A S ! M M M B B V V n M M M M M M B H B V M M M J l l T Y z.z.` T ....5.( $.@.,.#.#.$.a > 3 < < , , < , > , > , m m m B B . ",
". C C s m b b b b n b n n n M M n b H n n n n n n H B z l Y T z.z.T T a a &.$.O.&.$.#.$.t , : > < < < < < m S B L L V V L P M . ",
". M m M B W W Q W W M M m m m m m m m m M m 3 M 3 M W Y U z.z.z.z.T Y ....3.3.r.u #.$.u : : : : < G Z S B B B B Q L W H P P L o ",
". B m m m m m M M V M M m M m m m B B Q W Q M B M M W T U z.z.z.z.T Y +.+.r.d.=.;.$.O.2 , 2 2 t u M M B B B B B W S S W ! S S o ",
". M u m m 3 m m M M m M N m m m W Q B B W Q Q W Q W ! R U z.z.z.z.T R D D 3.2.#.$.! , 2 u u A u u M V L B B B B B B W W E ! ! o ",
". S S S A S ! W M M M m m M M m M m M M M M M M E E E l l T Y T T l l 4 4 A ! E ( ! ) ~ ~ ! ! E W ! B S B W B B B M B A A A A o ",
". ! ! ! S ! S M M M M M m m M M M m m M M M M M E A E l l Y R ` ` l l ! ) ) / ) / / ! / / ! ! ! ! ~ W M S S W M W W ! S A A A . ",
"o A S S M A m m m C m m m m m ! S ! S M S ! S Q M V V M V M W M E Q ! ~ ! ! ~ ~ ! ! ! ~ I Q W P L P P Q M A m M m m m m m L V . ",
"o 4 , 3 < m C N C C Z C G m S F F A S ! W W Q M m V V V V M V V B ! ! ! ! ! W ~ ! ! ! Q P I R P P P P L M 3 m m 3 3 m 3 m M V . ",
". .         . . . . . . . . . . . . . . . . . . . . . o . . . . . . o o . . . . . . . . o o o o . . . . o o o o . . . . o o . . "
};
