/* XPM */
static char *cavebird_png[] = {
/* columns rows colors chars-per-pixel */
"48 48 253 2 ",
"   c #030202",
".  c #0B0500",
"X  c #0E0B03",
"o  c #080B08",
"O  c #110600",
"+  c #130C02",
"@  c #170C05",
"#  c #151204",
"$  c #1C1303",
"%  c #1D1A0B",
"&  c #191708",
"*  c #1A1B17",
"=  c #0C1109",
"-  c #240D02",
";  c #2C0E02",
":  c #300F02",
">  c #241403",
",  c #2D1302",
"<  c #241A05",
"1  c #2C1B03",
"2  c #231C0B",
"3  c #291C0B",
"4  c #231708",
"5  c #311302",
"6  c #381A04",
"7  c #241C13",
"8  c #361F1C",
"9  c #1B211B",
"0  c #0C201F",
"q  c #29230A",
"w  c #32220B",
"e  c #38260B",
"r  c #2C3100",
"t  c #232213",
"y  c #2C2414",
"u  c #2B261C",
"i  c #28291B",
"p  c #342511",
"a  c #342A15",
"s  c #342C1B",
"d  c #3B2A16",
"f  c #3B331B",
"g  c #313205",
"h  c #132A2B",
"j  c #1C2C2B",
"k  c #1A2625",
"l  c #1B363A",
"z  c #0B2729",
"x  c #232D2B",
"c  c #2A2C26",
"v  c #352C25",
"b  c #2D312D",
"n  c #26322D",
"m  c #34332D",
"M  c #3C342B",
"N  c #3B3426",
"B  c #243231",
"V  c #2E3332",
"C  c #293838",
"Z  c #343532",
"A  c #3B3A36",
"S  c #3B3D3B",
"D  c #363937",
"F  c #282F30",
"G  c #531F00",
"H  c #431800",
"J  c #532300",
"K  c #422D15",
"L  c #4D3B1C",
"P  c #493518",
"I  c #543B1C",
"U  c #543715",
"Y  c #462B08",
"T  c #672A00",
"R  c #763100",
"E  c #4B3B24",
"W  c #433A2C",
"Q  c #4A3C2B",
"!  c #443727",
"~  c #523C26",
"^  c #453C35",
"/  c #432D23",
"(  c #3D423B",
")  c #2D4435",
"_  c #18423D",
"`  c #5D431C",
"'  c #474B05",
"]  c #65451A",
"[  c #5E670C",
"{  c #616A0C",
"}  c #727B11",
"|  c #6B7214",
" . c #494129",
".. c #554125",
"X. c #5B4323",
"o. c #54422B",
"O. c #5A462C",
"+. c #5A4A29",
"@. c #4D4234",
"#. c #43413D",
"$. c #4A443C",
"%. c #4A453A",
"&. c #5C4A33",
"*. c #564737",
"=. c #5A5239",
"-. c #624622",
";. c #654A24",
":. c #644C2B",
">. c #684C28",
",. c #6B522C",
"<. c #66512C",
"1. c #76562A",
"2. c #624D35",
"3. c #6B5433",
"4. c #685539",
"5. c #745B34",
"6. c #735B3C",
"7. c #795C37",
"8. c #774F25",
"9. c #7B613B",
"0. c #78603C",
"q. c #243841",
"w. c #0F5255",
"e. c #37534C",
"r. c #304F4D",
"t. c #366E70",
"y. c #424343",
"u. c #4A4741",
"i. c #4A4B47",
"p. c #524C43",
"a. c #574F46",
"s. c #5B5348",
"d. c #465858",
"f. c #565855",
"g. c #4B5445",
"h. c #665846",
"j. c #745F41",
"k. c #665E54",
"l. c #50645C",
"z. c #7C6443",
"x. c #786647",
"c. c #6C645A",
"v. c #766858",
"b. c #776F50",
"n. c #486967",
"m. c #576C68",
"M. c #537470",
"N. c #636766",
"B. c #646868",
"V. c #766D65",
"C. c #76736A",
"Z. c #687874",
"A. c #787B75",
"S. c #62736D",
"D. c #8B3B00",
"F. c #9A4300",
"G. c #854205",
"H. c #85673A",
"J. c #95713D",
"K. c #916C3A",
"L. c #835E38",
"P. c #836A44",
"I. c #846C4B",
"U. c #896C47",
"Y. c #8C724A",
"T. c #957549",
"R. c #897556",
"E. c #947D5C",
"W. c #987B55",
"Q. c #826D56",
"!. c #887867",
"~. c #927E68",
"^. c #857C73",
"/. c #836E64",
"(. c #AD794F",
"). c #CF7D42",
"_. c #7F8616",
"`. c #6B837C",
"'. c #7C837A",
"]. c #ABB02B",
"[. c #91941D",
"{. c #BFC32D",
"}. c #CED231",
"|. c #D1D632",
" X c #C9CF30",
".X c #9C815C",
"XX c #9F8055",
"oX c #A5845A",
"OX c #B88652",
"+X c #9C8362",
"@X c #988667",
"#X c #8A8478",
"$X c #958779",
"%X c #9B9178",
"&X c #A48866",
"*X c #B69767",
"=X c #A28E79",
"-X c #A79478",
";X c #B89A79",
":X c #BB8B64",
">X c #BEAA7E",
",X c #C7AB7C",
"<X c #D49B70",
"1X c #4D7D83",
"2X c #768E91",
"3X c #7397A7",
"4X c #58888A",
"5X c #8C8F8E",
"6X c #8A8984",
"7X c #978D84",
"8X c #9B948A",
"9X c #8C8F90",
"0X c #8D9090",
"qX c #849197",
"wX c #999894",
"eX c #8C928E",
"rX c #AB9C8C",
"tX c #A69788",
"yX c #B59C87",
"uX c #A49B94",
"iX c #AB9E94",
"pX c #A79D98",
"aX c #B9A389",
"sX c #A9A29A",
"dX c #B4A394",
"fX c #B9A898",
"gX c #A9A181",
"hX c #B8ABA5",
"jX c #BFB3A6",
"kX c #AAADAB",
"lX c #8DA4AA",
"zX c #C7A789",
"xX c #C7AC96",
"cX c #CBB49B",
"vX c #C3B39D",
"bX c #D6B697",
"nX c #D4AF91",
"mX c #E1B99B",
"MX c #C2AFA3",
"NX c #C9B6A7",
"BX c #D7BBA6",
"VX c #C4B7B0",
"CX c #E4BEA4",
"ZX c #C09F82",
"AX c #F5C395",
"SX c #DBC5A8",
"DX c #D9C8B3",
"FX c #C9C1B6",
"GX c #E8C6AA",
"HX c #E6C9B3",
"JX c #F3CDB3",
"KX c #B3BDC6",
"LX c #F1D7C2",
/* pixels */
"1 1 - , - , , - , , , , , : : , 5 ; ; : 5 1 , 1 1 1 1 , 1 5 > 5 , , - , , , , , , : ; : : ; ; 5 ",
", b 0 j j h h B V V #.u.p.u.p.S $.#.#.#.$.a.a.a.a.a.p.h.a.$.$.p.u.i.$.b S m D D m V A i m $.s., ",
", z z 0 k j B j z h #.u.$.A u.p.p.p.p.c.v.V.#X~./.!.V.v.#.S u.p.u.u.p.A Z c b V b S x i 7 m s., ",
", b l j h z h j D B h x j S s.k.c.#X$XrXyXBXcXxXyXrXtXyXd.A.$Xc.f.s.S V A A m x x Z V j c 7 S , ",
", j Z x x m Z ^ #.S S C S f.#X6XfXxXSXSXHXBXBXcXxXBXBXGXCXHXvXrXC.N.e.A A Z S V V V Z c x u.i , ",
", k x B b B b Z Z D ( s.c.^.yXcXBXcXMXBXJXBXHX=XR.c.zXGXJXHXMXwXqX0Xk.d.Z S V A V b A $.S $.#., ",
", k k k B b Z j Z b p.V.#XdXMXrXfX6XfXNXJXR.x.4.&.I.h.j.hX3XlX3X2X .6.Q v C A B #.A Z u.u.Z b , ",
", V j j j j x A ^ s.$XdXfXuXfXfXfXsXMX-Xv.z.5.,.V.b.b.4.I.#Xh.v.h.4.6.4.a.d.r.l l C C l l C p., ",
"6 c b c c B A b c.#XuX8XuX6XuXMXNXhXNXx.4.9.H.I.R..X4.o.4.^.h.6.2.6.6.*.Q Q Q i 9 l q.9 ^ S p., ",
", x j c m A #.v.S.A.hXiX0XsXMXNXDXNXNXY.7.I.Y.x.oXR.j.:.j.R.9.6.6.6.U.4.2.~ 6.Q i 7 M o t * a.1 ",
", m m m m S s.#XiXhXiX6XiXiXiXfXhXpXkXU.j.j.z.j.&X~.6.6.R.W.z.:.3.7.U.&.$.3.X.P ! * # 3 $ $ + , ",
", A A A ^ u./.tXiXMXuXsX7X6X2X3X8XKXkXz.z.U.9.z.W.&XP.9.2.oX0.T.X.7.h.v.O.I.&.Q o.d 3 $ > X X > ",
", h b A ^ c.^.rXfXfXxXvXxXv.v.VXsXhXBX:.I.Y.9.P.R.&XQ.5.&.Y.3.2.X.Q.^.*.W ^ d W 7.:.K < . X . , ",
"1 B V h C V.6XyXpX6XdXvX8XuXQ 3 hXhXfXI.z.I.4.z.Y.+XE.0.&.z.o.k.o.h.Q o.W m P >.1.-.p + + # X ; ",
"1 ( #.M f.C.6X7X^.eX7XaXfXiXv.7 8X~ tXx.R.R.j.I.T.@X~.9.&.5.O.*.2.4.h.W ^ &.;.,.I v u * + # X $ ",
"1 p.W *.C.Z.A.7X8X#XfXhXiXsX8XW W W dXx.E.+Xz.x.+X@XE.5.4.a.X.~ a.Q k.Q ^ Q o.*.~ &.W i & + # , ",
", Z m u.V.C.5X6XuXiXiXiXrXdXtX/ / v *.R.&X+Xx..XW..X&Xo.X.wXh.Q :.@.o.$.*.o.W 6.4.@.v v y & 9 , ",
"1 x b f.^.tX$X7XrXdXMXMXfXfXNX/.v y / s +XE.I.E.oXR.Y.*.A.#Xz.N Q 4.*.c.Q Q =.v v  . .*.& X . , ",
"1 D e.v.$XA.uXwXiXvXcXfXcXBXcXzXo.!.8   W.I.R.+X*XR.P.k.a.k.9.v.k.$.M W W Q W M M Q W W i &   , ",
", b p.C.#X$X7X8XyXyXxXcXnXBXCXbXNXBXY.(.AXW E.&XW.W.I.O.z.^.h.@.W M v $.I @.^ Q O.6.8.>.` 7 % , ",
": B ( N.^.~.=X;XzXzXcXBXcXGXCXJXJXJX-XAX<XG.W oX&XT.H.:.7.o.O.Q W @.&.Q Q ~ z.z.<.3.H.3.Q y y , ",
", D ( c.$X&X=XyXzXnXGXBXCXGXJXLXJXCX*X:X).M W W.W.H.H.,.9.o.~ Q Q W ^ Q k. .:.,.5.7.5.3.4.y ! , ",
": m f.+X;X;XaXzXaXyXBXnXCXGXJXBXfXMX&X-X@X@.W Q R.H.P...6.*.3.6.#Xv.7.6.3.N &.:.6.4.0.4.4.P * > ",
", %.x.yXyX8XtXzXaXNXnXMXHXMXBXCXJXCX+X+X~.W.W.N Q z.o.&.~ 7.5.V.o.4.4.*.5.L.Q.a.U.4.@.z.&.W c , ",
"6 $ K %X8X-XiX$X=XyXfXyXzXcXzXBXCXJXR.+XP.I..X .N 6.o.,.3.2.O.X.>.:.Q L 4.5.I.Q o.x.0.P.oX4.s , ",
", $ q tX;XaXyXaXZXyXyXnXbXmXmXnXnXBXP.Y.I.I..XW.U.7.~ ;.o.7.&.Q ;.O.3.W.Y.z.O.P I.z.<.Q *X! 4 , ",
": $ L =X;XyX-X=XzXA.Z.$X8X$XrXnXnXnX3.U.9.H.Y.U.P.2.~ ` :.~ Q Q O.Q T.oXW.oX&X1.OXoXW.4.R.=.m $ ",
", < a $XyXrX-X;X$XA.^.tXzXbXyXtXBXBX3.7.5.K.K.J.P.3.Q :.,.;.3.7.4.&.J.oXoX.XW.J.I (.O.o.* 4.s , ",
", q y +X7XA.S.N.Z.1X#X'.@X8XyX2XkXlX0.1.5.:.H.K.Y.-.I 1.X.:.:.J.5.W.oXU.T.T.U.6 * K 6 6 k.P A 1 ",
", X q  .C.2XM.r.w.w.M.m.2XM.m.m.c.l.6.` O.5.7.K.J.I X.5.1.1.1.5.P.+XT.r r i.* r 6 r U 6 g N X 1 ",
", q + y =.t.n.r.r.d.r.k.d.8X#Xl.m.`.) a L o.3.9.X.-.X.5.3.,.7.1.H.T.6 D o       r 6 D K O.i i , ",
", $ + f P `.w.w.e.e.e.m.S.Z.m.Z.r.l.6XP d Q d ....X.>.>.<.,.I U.1.H.G @ f.f.x k   [ * u.p u.y $ ",
", q + 2 t _ C n.e.l.n.wXuXhX6Xl.'.dXsXP ..d L ` P ;...,.Q ..;.-.1.H X N.N.9Xu.u.  |.r 6XF.p 9 , ",
", $ # < ( l r.4XuXuXM.e.`.jXS.'.MXGXHXrX` I d ` >.:.X.P ;.;.X.7.O {   N.9X9Xu.u.u.  |.|.].| # , ",
", # t X # 2X2Xt.v.sXsXM.6X^.rXcXGXGXBX$XzXX.P ` ;.] ;.>.,.;.-.,.H   N.N.5X5Xu.u.u.u.  F.D.J # , ",
"- X # * o m.M.4X2XlXFXDX#X#XaXjXFXHXcXJXHXL P P ` -.8.1.;.X.1.H - N.9X5X9X9Xu.u.u.u.e.. R J # , ",
"; % # o = D g.'.wXlX3Xm.7X%X,X;X;XSXSXHXHXGXw K U U U -.7.-.-.    N.0X5X0Xu.e.e.u.u.u.. T 2 t , ",
"- # # X #   $ f s 6X`.`.s.gX:.-XfXvXFXSXLXHX+.P L P U I >.>.5 G B.B.5X9X5Xu.  u.u.  u.  J q + , ",
", + X # $ # . 2 a  .O.b .X+X8X-XtXfXcXNXDXGXa d P U ` ] -.-.5 G B.9X0X9X5X5Xu.u.u.u.D   | q 2 , ",
"- # . % # .   + t M @XaX$XtXdX$XvXdXfXvXDX-Xs 2 7 K ,.-.>.1.-.  B.9X0X9X5X9Xu.u.S S c k } q y , ",
"; + #   X X $ c %.c.$X@XdXjXNXfXuXdXjXvXDXSX,Xa 3 P y -.,.8.1.J [ |.|.|.|.|.|.( S M & } { + % , ",
"- % % # & * t i v W =.R.>X,XfXaXVXDXSXSXbXaX,Xt & + 2 P e d ] ] J F.F.|.0.|.|.{.]._.} { ' q 7 - ",
"; X 2 q 2 a a c c k b i.l.@XSXbXNXNXSXzXbX*X*XU.! 3 & K U 8.U p { |. X|.|.].].[.T G 6 ; . . < , ",
"; y s i i i t i t c c i D p.c.R.P.zXE..X*X.XP..Xd o.p e P d w 3 3 { D.F.D.T ; . .   O . . O O , ",
"1 + q t t % 2 % y i i i 2 < q f  .5.Q ..2.5.K.T.,.s ;.d < < > 3 $ > G R R   . . + q < $ $ > . , ",
"1 $ 2 y s y f + . $ < $ # % < < q o.L q d X.5.U.T.d e < p & + + $ $ X . + + + $ $ 1 2 2 1 q 1 ; ",
", < + > + w 1 6 O O w w w $ < < < 1 s f f P L K e 3 a w X   X $ 6 w O + 1 < # 2 y d q p f P w , ",
"6 , , - $ , , > , , , , , 1 1 1 1 1 1 1 1 , , , , 5 , , , , , , , 1 1 > 1 , , , 6 , , , , ; , 6 "
};
