/* XPM */
static char *creebet_png[] = {
/* columns rows colors chars-per-pixel */
"32 16 192 2 ",
"   c black",
".  c #000A16",
"X  c #3E190C",
"o  c #00230F",
"O  c #173A14",
"+  c #010822",
"@  c #411D0D",
"#  c #43200E",
"$  c #4E240F",
"%  c #4D2C0E",
"&  c #4B2412",
"*  c #4C2B14",
"=  c #4C3612",
"-  c #4D3A15",
";  c #1C4C16",
":  c #1F5518",
">  c #385A33",
",  c #675A3D",
"<  c #715F3B",
"1  c #6C592F",
"2  c #577C39",
"3  c #74603D",
"4  c #766321",
"5  c #011C53",
"6  c #003862",
"7  c #30595F",
"8  c #02436D",
"9  c #00487B",
"0  c #415740",
"q  c #6B5F45",
"w  c #43604E",
"e  c #5B6240",
"r  c #746443",
"t  c #7C6A47",
"y  c #76694C",
"u  c #7A6C51",
"i  c #7F7051",
"p  c #556C66",
"a  c #806D4D",
"s  c #837557",
"d  c #31902D",
"f  c #13A90F",
"g  c #44B437",
"h  c #48C739",
"j  c #508247",
"k  c #4D9249",
"l  c #51964E",
"z  c #4F934C",
"x  c #61844A",
"c  c #5FBD50",
"v  c #4CB341",
"b  c #63B955",
"n  c #6C8275",
"m  c #67A166",
"M  c #5DCC52",
"N  c #67CD56",
"B  c #64D452",
"V  c #70DC5D",
"C  c #79CE68",
"Z  c #6EC965",
"A  c #80866C",
"S  c #AC9A6A",
"D  c #B39E6F",
"F  c #A69A77",
"G  c #8CA262",
"H  c #ADA17E",
"J  c #B3A47C",
"K  c #B9A77B",
"L  c #BFA979",
"P  c #B8A373",
"I  c #C2AC78",
"U  c #83DD71",
"Y  c #0039AD",
"T  c #013CBE",
"R  c #005C9B",
"E  c #004597",
"W  c #006C9D",
"Q  c #005CA7",
"!  c #0160A2",
"~  c #0167BA",
"^  c #007EB5",
"/  c #1D75B5",
"(  c #013BC3",
")  c #0142C4",
"_  c #004FC2",
"`  c #0159C9",
"'  c #0256C9",
"]  c #0069CC",
"[  c #0474C3",
"{  c #0171CE",
"}  c #007ACB",
"|  c #0179C5",
" . c #0068D3",
".. c #0067D0",
"X. c #599DB3",
"o. c #4594B1",
"O. c #67A8AA",
"+. c #0487CC",
"@. c #1A9ECF",
"#. c #0284D4",
"$. c #0788D1",
"%. c #1989D6",
"&. c #0D97D1",
"*. c #1998D7",
"=. c #0C8DCD",
"-. c #2A8AD3",
";. c #2C95D2",
":. c #3B97D7",
">. c #3889CE",
",. c #3C91E1",
"<. c #328CE2",
"1. c #439DD2",
"2. c #4999D7",
"3. c #529DDE",
"4. c #468EDA",
"5. c #45A3D8",
"6. c #55A5DA",
"7. c #6FA4CE",
"8. c #6BB2D5",
"9. c #79B7D9",
"0. c #6EB0CF",
"q. c #59A6E0",
"w. c #65B0E1",
"e. c #7ABAE3",
"r. c #6CADE3",
"t. c #A99F82",
"y. c #98A887",
"u. c #AEA383",
"i. c #A4A088",
"p. c #BAAA84",
"a. c #BDAD8B",
"s. c #B6A786",
"d. c #B8AF95",
"f. c #B3B39D",
"g. c #B8B399",
"h. c #AEAC97",
"j. c #9AB8BA",
"k. c #ADB6A1",
"l. c #C4AE83",
"z. c #C0AE8A",
"x. c #C6B287",
"c. c #D4BE94",
"v. c #D7BC8D",
"b. c #94D388",
"n. c #94CC90",
"m. c #A3CF9B",
"M. c #AED0A8",
"N. c #BFC5BB",
"B. c #BDD3B9",
"V. c #D8C59E",
"C. c #C2C0AB",
"Z. c #D7C5A3",
"A. c #DDCDAC",
"S. c #C6C9BC",
"D. c #CDCDBC",
"F. c #C9C9B8",
"G. c #D0CFBD",
"H. c #D5D2BE",
"J. c #E0D2B5",
"K. c #C1E2BA",
"L. c #93B7C1",
"P. c #86BAD7",
"I. c #94BFD8",
"U. c #88B9C7",
"Y. c #8DBFE7",
"T. c #9CC5DC",
"R. c #95C4D8",
"E. c #AECCDC",
"W. c #A2C5DC",
"Q. c #B0D0DF",
"!. c #B5C1C1",
"~. c #8BC2E6",
"^. c #95C5E4",
"/. c #A5CBE5",
"(. c #ADD0E3",
"). c #AFD3E9",
"_. c #B7D5E6",
"`. c #B9CFE4",
"'. c #CBD1C4",
"]. c #D5D3C2",
"[. c #D8D6C3",
"{. c #DCDACC",
"}. c #D4D6CC",
"|. c #CDDAD9",
" X c #DFDED2",
".X c #D5D9D8",
"XX c #E0DDCE",
"oX c #DAE1D7",
"OX c #C5DCE6",
"+X c #C6E0ED",
"@X c #D5E3ED",
"#X c #D9E4E8",
/* pixels */
"% X X & & & & & & % % % % = = = = = % % % % % % & & * * # # - = ",
"X h.y i ) T ) T T ( ) ( ( ( _ ' ` 2.OX/.^.^.Y./.)._._.L.[.[.v.# ",
"& f.y s ] ] { ..` ' ' {  . .4.I.(.9.*.<.,.@X_.e.^._.(.oX[.XXc.@ ",
"& g.u t } #.%.W.|.E.P.%.%.:.`.@X_./.^.~.~./._.+X#X(.(.oX{.XXV.& ",
"* d.s r -.$.%.#.#.#.3.q.6.6.q.r.~.~.m.f v m.}.U C k @X|. X{.V.% ",
"% g.u a %.#.2.2.6.6.5.5.q.w.w.Y.e.e.d M g Z k V b }.~.OX{.{.Z.$ ",
"= g.y r -.+.;.1.1.=.&.:.6.5.(.@XOXT.h : > b.l ; > .Xe.|.oX{.J.$ ",
"= d.y 1 ;.&.&.:.$.@.T.9.#XR.W o.U.o.h ;   N g   O C OXO.{.{.A.- ",
"% f.y y 2.1.+.;.6.0.P.8.W.(.(._.0.X.b.b b.; ; '.k M X.E.[.{.Z.= ",
"% f.u < ~ ~ [ } =.| } :.:.6.T.0.I.I.m.z >     : B B.~ #XH.{.c.% ",
"% f.q 3 } >.+.L.y.A p 7 j.Q E >.[ Y K.m         c l / 7.H.[.c.% ",
"= i., t R 9 ! n e o N.w 0 + . 5 6 8 B U O b.M.; d N ~ ^ G.[.c.% ",
"* F , 4 C.N.S.2 x y.x j G S.D.D.}.D.G.D..Xk.!..X.XD.D.'.}.'.l.$ ",
"* F H a.H H u.s.s.J J P p.z.D P P P L I I L l.L x.l.L l.l.L l.& ",
"& i.i.t.F t.u.F F d.u.J D J p.S s.S K K K p.a.K a.J a.p.z.J s.* ",
"% X X & & & & & & % % % % = = = = = % % % % % % & & * * # # - = "
};
