/* XPM */
static char *earth_png[] = {
/* columns rows colors chars-per-pixel */
"32 32 7 1 ",
"  c #482714",
". c #995933",
"X c #603720",
"o c #A27844",
"O c #784B2B",
"+ c #B5874F",
"@ c #180D07",
/* pixels */
" .............................. ",
"  XXXXXXXXXXXXXXXXXXXXXXXXXX    ",
"                    XX          ",
"   ooO++oooo+o+o+++o+oooooooo   ",
" XXoO++oooooo+o+++++o+ooooooo   ",
" XXooooooooooooo+++o+o+oooooo   ",
"  Xoooooooooooooooo+o+o+ooooo   ",
"   o+oOX             XXX Oo+o   ",
" XX+o+X X             XX  o++ X ",
"XXXo+o X XX           XX  o++XXX",
"XX +o+  XXXXX             o+oXXX",
"   o++  XXXXX             +o+ XX",
"   o++  XOXXX          XXXo++   ",
" XXo+o   XXX          XXXX+o+ X ",
" XXooo                XXXXoooXX ",
" XXooo                 XXXoooXX ",
" XXooo                 XXXoooXX ",
" XXooo                  X oooXX ",
" XXoooXX               X  oooX  ",
" XXoooXXX     X       XXX oooXX ",
" XXoooXXX          X XXXXXoooXX ",
"   ooo X X      X X XXOXXXoooXX ",
" XXooo  X     XX X XXOOOXXooo X ",
" XX+oo   X   XXXX X XXOXXXooo   ",
" XXoooO       XXXXXXXXXXXOooo   ",
" X oooo++oooooooooo+++ooooooo   ",
"   oooo++o+o+ooooo++++++ooooo   ",
"   oooooo+o+o++ooo+++++++oooo  @",
"@  ooooooo+o+++ooo++oo+++oooo  @",
"@    X  XXX    XXXXX   XX  X   @",
"@      XXXXX  XXXXXXXX XXX     @",
"@@@@@@@@@@@@@@@@@@@@@@@@@@@@@@@@"
};
