/* XPM */
static char *endboss_png[] = {
/* columns rows colors chars-per-pixel */
"48 48 239 2 ",
"   c black",
".  c #0E0C0C",
"X  c #120F0D",
"o  c #14110E",
"O  c #0C1A16",
"+  c #151312",
"@  c #1A1614",
"#  c #1C1916",
"$  c #1D1B1A",
"%  c #171A17",
"&  c #0F1D0D",
"*  c #221D1C",
"=  c #281F1F",
"-  c #09271A",
";  c #17241A",
":  c #0E2D16",
">  c #24211E",
",  c #29271E",
"<  c #22361E",
"1  c #1F1D20",
"2  c #201F22",
"3  c #192721",
"4  c #242222",
"5  c #2A2524",
"6  c #29272A",
"7  c #2C2A2C",
"8  c #2B2827",
"9  c #322D2B",
"0  c #352C27",
"q  c #35312E",
"w  c #37372C",
"e  c #2C2C31",
"r  c #353233",
"t  c #3B3533",
"y  c #3D3A3B",
"u  c #393737",
"i  c #302F2D",
"p  c #5B361A",
"a  c #4D2E15",
"s  c #483728",
"d  c #4C3D33",
"f  c #443D3B",
"g  c #483939",
"h  c #533D33",
"j  c #543E38",
"k  c #523827",
"l  c #274A25",
"z  c #395237",
"x  c #1E4125",
"c  c #51451D",
"v  c #71561A",
"b  c #46413E",
"n  c #4A433C",
"m  c #5C4335",
"M  c #53443B",
"N  c #5C4439",
"B  c #584839",
"V  c #5B4D2D",
"C  c #63462A",
"Z  c #685828",
"A  c #735E29",
"S  c #684C37",
"D  c #6C5737",
"F  c #745A34",
"G  c #704B38",
"H  c #786638",
"J  c #796423",
"K  c #7F6D1D",
"L  c #3E3D42",
"P  c #4A3E43",
"I  c #3C4F61",
"U  c #4D4443",
"Y  c #4D494A",
"T  c #494546",
"R  c #534544",
"E  c #544944",
"W  c #52464B",
"Q  c #554B4B",
"!  c #5A4D4C",
"~  c #5A4944",
"^  c #5D514D",
"/  c #56544B",
"(  c #574C52",
")  c #5C5352",
"_  c #5B5756",
"`  c #4B524F",
"'  c #654C45",
"]  c #645444",
"[  c #64554D",
"{  c #6A5948",
"}  c #745845",
"|  c #635554",
" . c #645A55",
".. c #6B5B53",
"X. c #645D5B",
"o. c #6B5D5A",
"O. c #6A5757",
"+. c #725B53",
"@. c #6B6148",
"#. c #7A6747",
"$. c #7B704C",
"%. c #6D615C",
"&. c #6D6454",
"*. c #7B6254",
"=. c #73635D",
"-. c #766756",
";. c #7C735B",
":. c #465464",
">. c #595B68",
",. c #4E5E74",
"<. c #5C6373",
"1. c #5D6068",
"2. c #6C6362",
"3. c #6E696C",
"4. c #696567",
"5. c #726563",
"6. c #746A65",
"7. c #736C6A",
"8. c #7B6B64",
"9. c #79716A",
"0. c #656878",
"q. c #746E73",
"w. c #786F72",
"e. c #757272",
"r. c #7A7678",
"t. c #6F727B",
"y. c #6C5F60",
"u. c #916A28",
"i. c #97702A",
"p. c #866C3A",
"a. c #89713A",
"s. c #927232",
"d. c #8F6716",
"f. c #815E46",
"g. c #826748",
"h. c #887547",
"j. c #957C4B",
"k. c #836A57",
"l. c #887657",
"z. c #947D59",
"x. c #837364",
"c. c #887A6A",
"v. c #947D66",
"b. c #837974",
"n. c #877C77",
"m. c #856D65",
"M. c #96822B",
"N. c #94835D",
"B. c #97865A",
"V. c #91814A",
"C. c #A18D5B",
"Z. c #A28D51",
"A. c #978667",
"S. c #9C9166",
"D. c #8C8273",
"F. c #8D857B",
"G. c #938574",
"H. c #9C8C72",
"J. c #9C8D7D",
"K. c #958777",
"L. c #9B9278",
"P. c #8E8068",
"I. c #A58E64",
"U. c #A69568",
"Y. c #A39373",
"T. c #A79679",
"R. c #B39B77",
"E. c #A28C78",
"W. c #AAA37B",
"Q. c #676D83",
"!. c #6E7187",
"~. c #757888",
"^. c #777B92",
"/. c #857F82",
"(. c #7E8399",
"). c #7F8489",
"_. c #898686",
"`. c #9B8D82",
"'. c #928B86",
"]. c #9C9385",
"[. c #99948D",
"{. c #868997",
"}. c #9A9592",
"|. c #999897",
" X c #A49484",
".X c #AB9B84",
"XX c #A49B8C",
"oX c #AB9C8C",
"OX c #A59686",
"+X c #B39D88",
"@X c #A39D9C",
"#X c #A69C93",
"$X c #B19D90",
"%X c #ACA283",
"&X c #ABA18B",
"*X c #B3A388",
"=X c #ACA294",
"-X c #A4A29E",
";X c #ACA49C",
":X c #B2A393",
">X c #B5A899",
",X c #BEB39D",
"<X c #888CA2",
"1X c #9699A6",
"2X c #A5A4A2",
"3X c #AAA6A2",
"4X c #ADA9A5",
"5X c #ADACAA",
"6X c #A5A6AC",
"7X c #B4ACA4",
"8X c #B3ADAA",
"9X c #B3A9A5",
"0X c #B4B1AD",
"qX c #BAB4AD",
"wX c #BBB3A7",
"eX c #A9ABB3",
"rX c #B5B4B3",
"tX c #BBB6B2",
"yX c #BCB9B5",
"uX c #BCBBBB",
"iX c #B4B5BA",
"pX c #C2BDB9",
"aX c #C1BBAF",
"sX c #C3AF9B",
"dX c #C4C1BE",
"fX c #BBBDC2",
"gX c #B7B8C1",
"hX c #C5C4C3",
"jX c #CAC9C6",
"kX c #CDCCCA",
"lX c #C6C6C6",
"zX c #D1CECD",
"xX c #D2D1CE",
"cX c #D5D3D3",
"vX c #DCDADA",
"bX c #E1DDDD",
"nX c #E4E2E3",
"mX c #EBE8E9",
"MX c #F6F3F3",
/* pixels */
"                                                                                                ",
"  3.e. .' m.[ 6 1 4 6 r r 6 6 $ 4 6 ( L 6 r r 9 r 6 > * $ 4 4 4 4 $ $ $ $ 4 ) ( W P ( ( o.5.5.  ",
"  3.n.| [ ~ ~ n 6 4 $ ` r r 1 6 6 r 4 Y u 6 T 5 r 5 $ @ * > 4 $ $ y @ @ $ * ( ! W W P ( y.o...  ",
"  4.e.o.j | N S t % 4 4 r Y L L r 6 6 6 y 6 6 Y 4 4 * $ $ 5 8 y ) @ @ @ . $ ! ( Q P W ( 5.| )   ",
"  4.b.o.[ [ +.' } 6 % 4 $ y T e u Y T e y T 4 y 9 r > $ t y 8 # $ @ . @ @ @ | | ! Q T Q 5.[ !   ",
"  w.b.5.=.{ +.+.' D $ 4 6 6 Y 9 6 6 5 r 6 Y r b Q 5 b Q T 4 $ % $ @ . @ @ X 8.o.) T T R 5.5.!   ",
"  w.r.~ 5.m { m.+.D s n &.;.$.-...-.G.x.G.x.-.].S.A.&.$.@.;.@.@.B V ] V Z { *XJ.F.W P R ' o.!   ",
"  r.'.x.j N m +.*.*.S ] $.c.j.h.A..XT.H.Y.%XU.,X>XY..XB.*XC.W.M.U.H H H Z $.T.oX:XG.R R =.6.|   ",
"  w.2X5Xh h m } S C } @.H H D H $.H p.D z.B.A.l.c.D c Z B.H B.j.C.R.V.H z.l.U.*X>XOXx.^ ! ! W   ",
"  w.5XyX=.S N S j *.S H l.H #.h.*XB.H H g.H $.z.$.#.c Z F H S.I.a.I.B.h.h.g.T.:X*X`.J.[ o.| !   ",
"  w.8XyX[ N k.*.C S k F B.p.h.I.$X>XV.H H B.l.h.Y.B.A l.Z C.x..XH.s.A V.p.F .X>XR. X:X8.o.| )   ",
"  /.9XyX8.h } } C } m l.I.h.*X$X{.{.>XU.$.j.H B.a.h.A.A N.].* . D.B.V.B.K B.$X.X*XOX:XG.o.o.[   ",
"  @X8X8X..h } f.G G m } h..XOX{.<X<X<XA.R.H p.p.A.h.h.j.OX$ $ @ o z.J C H j.Y.A..XoXOXOX8.5.8.  ",
"  8X8XyX=.h m g.S g.S C j.x.~.^.{.{.<X<XsXj.A.j.F B.I.x.@ $ @ # # o R.Z.Z H T.:XoX X>X:XG.=.o.  ",
"  8X8XyX=.N S #.C #.m C B.5.^.(.fX@X1X1X6XJ S v h.U.T.H.$ $ @ @ o @ B.h.A G A.U.:XJ..X:XoX....  ",
"  8X9X0Xo.h S } } f...hX_.0.^.^.nXxX{.iXzXI.s.a.*Xz.OX> @ # O # : ; ; A.C.H Y.T.+XT.H.D.:X....  ",
"  ;X;X;X..h { } } g ' c.iX!.!.(.gXhXiXjXcXR.xX=Xl.Y.E.@ - @ % $ # q l , U.Z *X+X.X X.XG.=X=.R   ",
"  qXtXyX%.N { { +.fX:.c. X0.!.{.<X_ kXkXcXcXR.B H.C '.o O # > ; o 4 ; ` A.F *X>XOXT.OX&XtX9.!   ",
"  wXwXqX[ M { { S uXiXJ.q.6X{.{.cX@XnXcXcX_.s ..h.&.; # * * < @ @ 9 w z H.h..XY.Y.T.W.L.qX'.E   ",
"  8X7XpX{ s B ;.} fXfXbX>.0.iXfXMX2.@XrX'.pX`.A..Xn.; @ 3 > $ @ O > T $ v.B.Y.A.*XN.%XS.qX].~   ",
"  yXqXpX[ s B +.*.hXlXnXvXQ.{.1X_.8Xr.jXhXuX`.%XY.] * * u @ @ @ < 4 w @ K.A.T.H.B.L.%Xc.&X XR   ",
"  0X9XyX{ s s } } rXrXbX>.0.^.(._.MXkXjXhX{. Xx.l.%.8 $ > @ - # & > l %  Xl.J.oXL.&XT.J.>X=X^   ",
"  8XqXyXB g B @.k.fXM g :.<.!.^.kX_.eX1X6X{.v.-.C 6.4 @ # o @ ; x 0 9 b :Xl.P.P.L.W.%XOX>XOX!   ",
"  8X9XyXB B g N G fXQ oX>.0.^.(.r.vX3.hXjX^.>XP.G.x.6 @ $ O @ O # t 7.* oXH c.c.'.~.T.G.:X].!   ",
"  3XdX0X{ { k ' k.fXfXbX>.0.^.<XQ.R uXjXhX{.$X9XOXF.3 * g @ O ` q n.* 4 oX$.z.G.aXqXOX=XwXG.Q   ",
"  9XqXtX] N m m #._.{.rXnX<.^.<Xw.u hXjXhX{.J.:X`.x.* @ * * . 8 8.* . o OXh.c.OXkX>XJ.oXT.9.R   ",
"  ;X0XyX] s m ] l.iXuXnXcXQ.^.^.}.5XmXjXuXuX$X>Xc.x.4 o X g = [ * ! # :  Xj.}.cXjX_.OXJ.oX=.T   ",
"  @XyXyXM s B B -.rXeXmX:.,.^.!.bX[.bXzXuX{. XJ.].{ @ X X * ' X . o 9.< H.B.xXxXkX~.J.OXqX=.Q   ",
"  8.8XqXB B M S =.6X{.kXmXbX~.<XnXnXhXzXhX{. XoX].-.5 . X @ g X X . l & T.jXxXjXhX~.].].9Xo.g   ",
"  5.9XtXE g ..{ ..{.1XcXkXmXhXcXvX_ 8XjXhX{.-.@.*.-.0 X X * j X @ @ o > A.v.jXkXq.~.].G.`.Q R   ",
"  r.;X8X^ g E [ =.<.{.6X3XhX{.0.~.) dXjXkXuX`.J.c.B p a a s a p u.i.i.i.v.l.F.jXjX0.].n.b.T g   ",
"  7.'.9X[ M M { 8.<.1.qX6X:.!.!.{.{.|.jXhXuXJ.J.c...p p p a p i.i.d.u.d.K.l.;.jXcX~.L.l.6.~ P   ",
"  w._.@X^ s g B ..<.4...:.I 0.^.~.0.~.{.{._.x. X;.] n E b.n c.=X XD.a.u.n.$.6.hXkX0.A.A.X...g   ",
"  T X.[.&.M g ~ +.>.>.oX` ` _.6X_.4.b 5X3.g x.K.c.] r.}.e.-Xr.}.e.|.4Xa.F.z.J.hXjXq.#XL...! g   ",
"  6.7.e.) g g h ..>.2.:Xy e.5X8Xb T |.|.T E *.v.l.' }.e.}.7.yX3X}.'.'.'.+.z.#XxX_.q.;X=XQ ) g   ",
"  ! 7.w.4.q s R ..t.r. X7.rX0Xy g _ rX5X9 q %.n.x.+.7.[.r.}.X._.e.tXr.@Xb.K.jXkX_.q.P.D.9.) T   ",
"  ) 4.4...5 t E ^ {.8X4Xq q -X0X5Xy 9 -X3X6Xr y 6X5X}.g g 4X5X'...g 8X0X0Xq kX/ kX>.OX&.7...Q   ",
"  ) %.4.r.5 g ) q Q n 6X0XrXg ) }.5X5X( T Y @X4Xg T T 6X6X_ X._ -X3X|.t 0 8 tXxXjX3.}.;.E ! g   ",
"  %._ 3.| 9 g r.6XtXr.'.X.6X-XrXt n 6 -X4Xb y t -X6X|.y y b 4X4X}.9 0 rXrX3XE yXy n.F.-.E T g   ",
"  X.X.3.7.t 2 4 b 4X5X0X4.E ) |.5X5Xt q q }.rX3Xg r 9 -X6X3Xq q g 4XrX3X$ t t _.4X}.6.&.n T !   ",
"  ) 4._ b.) _./.* # 9 6X0XdX|.5 * 8 0XtXrX5 > $ 5XrX0XQ > * t rXtX-X* @ t rX5X5XE @ @ ^ T T P   ",
"  T Q Q ) T T Y }.;XOXD.c.'.F.#X4X'.'.F.9.}.-X}.x.'.#XF.=XJ.}.F.c.D.D.D.D.F.}...e.X.) ) n R g   ",
"  T ) ) ^ Q 4.b.o.4XtX0XqXpXpX9XyXqX9X].yXqX9XqX0X4X;X9X9X9X#X;X9XqX;X4X4X=X}.n.5...E R g E g   ",
"  X.) R ^ ! E o.) 5.8XpXqX0X8X0X8X9X3X=X9X;X9X4X3X;X8X;X9X;X;X9XwX9X9X=X9X}.5.o.o.| E ! E g g   ",
"  Q Q Q Q ) Q ......n.8XtX8XyXqX4X9X;X=XqXqX9X9X;X0X9X8X$X9XtX;XwX;X;X0X}.4...%...! ! ~ R R R   ",
"  E Q R W T Q ) ! ^ 6.o.F.pX8X;XqX9X8X`.9XqX>X9X$X=X;XF.OXD.OX;X=XJ.3Xb.6.! | | ! ^ ! Q R R Q   ",
"  / ! Q T ! Q ) R ..| ! X.9.4XyX0XtX;X=X8XwXqX=X#X;X;X#X4X@X}.#X8X'.7.7.^ ! ! 5.R E E R ! W P   ",
"                                                                                                "
};
