/* XPM */
static char *graham_png[] = {
/* columns rows colors chars-per-pixel */
"16 32 147 2 ",
"   c #020202",
".  c #0E0500",
"X  c #0A0A06",
"o  c #0B0B0A",
"O  c #07040B",
"+  c #100E0B",
"@  c #0F100B",
"#  c #1E1301",
"$  c #12120B",
"%  c #200F05",
"&  c #221C10",
"*  c #211E19",
"=  c #25200D",
"-  c #521E1C",
";  c #54201D",
":  c #572B22",
">  c #5B2E24",
",  c #54262C",
"<  c #662B26",
"1  c #682827",
"2  c #632A2E",
"3  c #6A2A2D",
"4  c #66362A",
"5  c #73322E",
"6  c #692C33",
"7  c #6E3434",
"8  c #6D3339",
"9  c #743434",
"0  c #723F32",
"q  c #7D3935",
"w  c #73353A",
"e  c #7A3A3E",
"r  c #7E343A",
"t  c #6A481B",
"y  c #534522",
"u  c #4F4732",
"i  c #5F5230",
"p  c #744133",
"a  c #784537",
"s  c #7A4738",
"d  c #7D4B3C",
"f  c #755E32",
"g  c #7D3C42",
"h  c #743B44",
"j  c #5A5140",
"k  c #7C414A",
"l  c #6C5E43",
"z  c #823E3A",
"x  c #85413D",
"c  c #8A443F",
"v  c #886231",
"b  c #813E43",
"n  c #823F49",
"m  c #8B4640",
"M  c #8A4943",
"N  c #844148",
"B  c #88434A",
"V  c #895846",
"C  c #895244",
"Z  c #96585D",
"A  c #975E58",
"S  c #A65456",
"D  c #BE675E",
"F  c #B3665E",
"G  c #AC7E5C",
"H  c #A65D66",
"J  c #AE5A67",
"K  c #B25C65",
"L  c #A56366",
"P  c #A4606D",
"I  c #AB6468",
"U  c #B7616A",
"Y  c #BE696E",
"T  c #A8786C",
"R  c #B4777F",
"E  c #FD5255",
"W  c #FF565B",
"Q  c #FA6B5B",
"!  c #F77154",
"~  c #F9755E",
"^  c #F47459",
"/  c #FD5C62",
"(  c #FC5366",
")  c #FF6563",
"_  c #FE636C",
"`  c #F66C62",
"'  c #FD7067",
"]  c #F67A63",
"[  c #FC766B",
"{  c #FF6776",
"}  c #B28858",
"|  c #B58555",
" . c #BB935F",
".. c #808378",
"X. c #868A79",
"o. c #C4955F",
"O. c #C49A5C",
"+. c #CA9D5B",
"@. c #F6855D",
"#. c #C7A05B",
"$. c #C49867",
"%. c #CA9D63",
"&. c #CCA366",
"*. c #CEA962",
"=. c #CBA369",
"-. c #D2A663",
";. c #D1A76D",
":. c #D3AA6C",
">. c #CFAA73",
",. c #D1A978",
"<. c #DAB076",
"1. c #FF6E81",
"2. c #BC878D",
"3. c #BA8581",
"4. c #B8BEBE",
"5. c #CC8082",
"6. c #EC8D8B",
"7. c #EAA097",
"8. c #E4B29B",
"9. c #D5AFAE",
"0. c #DDAEA4",
"q. c #EFA3A3",
"w. c #E0A8A9",
"e. c #F0A5A0",
"r. c #FFA7A9",
"t. c #B6C0BF",
"y. c #F1DE8D",
"u. c #EBDB90",
"i. c #EFDA99",
"p. c #F2DD94",
"a. c #F2DD9B",
"s. c #F8DB95",
"d. c #FAE79B",
"f. c #F4E195",
"g. c #C0C4B6",
"h. c #D7CBBB",
"j. c #D9D0B1",
"k. c #F2E0A0",
"l. c #BDBEC0",
"z. c #B5C1C2",
"x. c #BBC4C3",
"c. c #BCC8C4",
"v. c #B6C5CA",
"b. c #C0C6C4",
"n. c #C8C7C5",
"m. c #C1CAC9",
"M. c #CDD5D4",
/* pixels */
"m B x 7 > - - ; : > 1 3 7 g k m ",
"k                             k ",
", X X               @ @ X @ $ h ",
"2 X X X X X X X X X X X X X X N ",
"6 X X X X X X + X q.r.+ @ @ X n ",
"8 X X X X X X X 6.7.e.@ @ X X N ",
"w X X X X X ..X.0.n.M.$ $ $ X b ",
"6 X X X   v.z.x.c.z.M.X X @ X b ",
"w X X X . p.Y U S J 5.X X $ X b ",
"m X X y.y.y.p.f.K F H X X X X m ",
"m X X X . y.a.s.d.D Z X X X X c ",
"z X X X X X k.a.a.# $ X X @ X x ",
"w X X X X X _ _ E % $ X X X X z ",
"0   X X X X _ _ W W 1.X X X X d ",
"p O X X X X { ~ k.! { X X X X d ",
"p O X X X X / ] p.Q { X X X X s ",
"a X   X X X ( ^ p.Q ) X X X X s ",
"C   X X X X / [ a.@.[ X X X X p ",
"m   X   X X u.i.a.] ` X X X X w ",
"m   X X X X j.h.9.w.8.X X X X z ",
"x X X X X X c.x.x.x.g.X X X X m ",
"z X   X X z.x.x.z.@ X X X X X c ",
"q X X X X m.$ O b.@ X X X X X c ",
"q O X X   x.$ X c.X X X X X X c ",
"g X X X   4.R 2.x.@ X X X X X b ",
"e X X X X f l.n.I L A X X X X g ",
"e j l u i y t v L T A $ & = * b ",
"e >.=.O.=.%.O.$.P 3.G =.*.<.=.b ",
"w =.=.O.=.%. .} | o.=.=.-.:.-.e ",
"w =.;.,.+.%.+.%.%.=.=.#.+.%.+.g ",
"d :.:.:.:.:.:.:.:.:.:.:.:.:.:.V ",
"M M N r q 5 < 4 4 3 3 < 2 8 w x "
};
