/* XPM */
static char *lowmist_png[] = {
/* columns rows colors chars-per-pixel */
"64 32 217 2 ",
"   c #05030B",
".  c #040208",
"X  c #050413",
"o  c #0C0B13",
"O  c #02021E",
"+  c #0C0B1A",
"@  c #131216",
"#  c #14121C",
"$  c #1C181C",
"%  c #150E17",
"&  c #20181F",
"*  c #020424",
"=  c #04052A",
"-  c #0A072B",
";  c #06092C",
":  c #0C0A2D",
">  c #080726",
",  c #120C2E",
"<  c #110B23",
"1  c #0E102F",
"2  c #171E24",
"3  c #181C24",
"4  c #1B1727",
"5  c #060B31",
"6  c #0B0D32",
"7  c #140F31",
"8  c #0C1134",
"9  c #091139",
"0  c #111132",
"q  c #151536",
"w  c #141334",
"e  c #1A1435",
"r  c #1C1A35",
"t  c #151538",
"y  c #1B1739",
"u  c #171939",
"i  c #191A39",
"p  c #1A1C3A",
"a  c #1D1A3A",
"s  c #261D2B",
"d  c #221C36",
"f  c #231C3B",
"g  c #172125",
"h  c #182125",
"j  c #182225",
"k  c #1E203D",
"l  c #1F243F",
"z  c #2A2B26",
"x  c #25222B",
"c  c #2A242D",
"v  c #2D2A2B",
"b  c #272527",
"n  c #342B2F",
"m  c #34352D",
"M  c #36382B",
"N  c #25213B",
"B  c #2A223D",
"V  c #2D2838",
"C  c #342C34",
"Z  c #342E3D",
"A  c #342B3A",
"S  c #3B3434",
"D  c #3A3934",
"F  c #39343B",
"G  c #383736",
"H  c #2F3427",
"J  c #41373C",
"K  c #454438",
"L  c #54553D",
"P  c #4E5134",
"I  c #261F40",
"U  c #242441",
"Y  c #2A2342",
"T  c #2E2A44",
"R  c #292D49",
"E  c #252945",
"W  c #312D44",
"Q  c #332D4C",
"!  c #35324D",
"~  c #38334A",
"^  c #3D3A4C",
"/  c #393544",
"(  c #3A3552",
")  c #3E3954",
"_  c #3F3B58",
"`  c #353050",
"'  c #2F334E",
"]  c #433C42",
"[  c #4A3E4B",
"{  c #433B49",
"}  c #413C55",
"|  c #423D5A",
" . c #483E56",
".. c #4A434C",
"X. c #4A4546",
"o. c #534C4D",
"O. c #53474F",
"+. c #5A524E",
"@. c #5B5A49",
"#. c #46425D",
"$. c #49445D",
"%. c #494455",
"&. c #544B54",
"*. c #534B5B",
"=. c #574B53",
"-. c #5D555D",
";. c #5B5656",
":. c #625C57",
">. c #645B5B",
",. c #635758",
"<. c #625B4C",
"1. c #636444",
"2. c #66605C",
"3. c #6B625D",
"4. c #676858",
"5. c #70625E",
"6. c #4A4662",
"7. c #4D4B64",
"8. c #464260",
"9. c #514E66",
"0. c #524F69",
"q. c #55526A",
"w. c #59556E",
"e. c #5A596F",
"r. c #585364",
"t. c #5D5A72",
"y. c #675C63",
"u. c #625F75",
"i. c #6A6466",
"p. c #746A65",
"a. c #756C6A",
"s. c #786B69",
"d. c #7B7466",
"f. c #7D7769",
"g. c #646276",
"h. c #666379",
"j. c #69667C",
"k. c #6B697E",
"l. c #6C6B74",
"z. c #776A75",
"x. c #7E7471",
"c. c #717078",
"v. c #837A69",
"b. c #857C74",
"n. c #867678",
"m. c #967F76",
"M. c #89856E",
"N. c #898275",
"B. c #959078",
"V. c #A08C77",
"C. c #6E6C82",
"Z. c #706E83",
"A. c #747286",
"S. c #767489",
"D. c #78778B",
"F. c #7C7B8D",
"G. c #7A7283",
"H. c #7E7E91",
"J. c #847C88",
"K. c #807E91",
"L. c #917D80",
"P. c #88828A",
"I. c #948485",
"U. c #9D898D",
"Y. c #868493",
"T. c #888695",
"R. c #8B8997",
"E. c #8D8B9A",
"W. c #908F97",
"Q. c #908F98",
"!. c #9D8C90",
"~. c #93929B",
"^. c #98979F",
"/. c #99989F",
"(. c #A48A8F",
"). c #AB9798",
"_. c #A48F96",
"`. c #B2A19D",
"'. c #9D9CA4",
"]. c #A49FA5",
"[. c #B79FA3",
"{. c #A3A2AA",
"}. c #ADABAD",
"|. c #A4A3A6",
" X c #B8A6A7",
".X c #B5B3B2",
"XX c #BDB9B7",
"oX c #BEBAB8",
"OX c #BAB7B5",
"+X c #C2ACAB",
"@X c #C1BDBB",
"#X c #C9B2B1",
"$X c #C4C1BE",
"%X c #C6C3C0",
"&X c #C9C5C1",
"*X c #CDC9C6",
"=X c #D2CEC9",
"-X c #D5D1CC",
";X c #DAD6CC",
":X c #DDD9CE",
">X c #DFDBD0",
",X c #E3DECB",
"<X c #E3DFD3",
"1X c #E6E1CE",
"2X c #E6E1D4",
"3X c #EBE6D5",
"4X c #EEE9D6",
"5X c #ECE6D9",
"6X c #EEE9D9",
"7X c #F2EDDC",
"8X c #F6F1DE",
"9X c #F3EEE1",
"0X c #F7F1E1",
"qX c #FBF5E2",
"wX c #FEF9E6",
"eX c #FDF7E8",
"rX c #FEFAE9",
/* pixels */
"3 3 h g 2 2 2 3 3 2 2 g 2 2 2 2 3 3 3 3 2 3 3 h h h h h g g 2 2 2 2 g h 3 3 3 3 3 3 2 g 2 2 2 2 3 3 3 3 2 2 2 2 h h 2 g 2 g 3 3 ",
"2 ' R R R R R U U N U p U N p p p p q q q e k q q 8 6 u 6 6 6 : 6 6 6 6 6 6 6 6 6 5 6 6 6 8 8 6 8 6 6 5 ; 8 8 6 5 5 q ; 5 5 8 h ",
"2 E E U U k p p p p p p p p q q q : q q q q u q 6 8 8 6 6 6 q 6 ; 6 5 5 5 5 5 5 6 5 6 5 5 6 6 ; 9 8 5 9 6 9 5 5 ; ; - ; ; ; ; h ",
"h U U k p k p k u q p p y q q q q 7 6 , : q q 6 : : 6 : ; 6 6 ; ; ; 6 ; 6 6 6 ; 6 ; 5 5 5 ; : : ; 6 8 ; 5 ; ; ; ; - ; ; * ; ; 2 ",
"h k k p p p p p p u q e q q 7 7 q q q : q , : : u : 6 6 : 6 - : - - - - ; - - ; - - ; ; : - ; * - - ; - * 6 - * : * * * ; - * 2 ",
"h p u p q q q u 7 q q q 7 e 6 : : : q : q q : : : : - : - : - ; - - - - - - - - q f ; - - - * ; - 5 * - - - - * ; * * * : ; = h ",
"h q q q q u q q 6 6 : 7 q 6 : 6 q : : - - q - : - - - - - - - - - - - - - - - p b.s.A   O * * * * * * * * - * * * * * * * * ; h ",
"2 p q q q q q q q q q , q 7 : , : u : , : : 6 : - : : - 6 - - 6 - - - 6 6 - : I.).n.y.S 3 O * * - y b.O.X * * - * * O * * * * h ",
"h p p e e e y e e q q q e q q p : y : : 7 : : : : : - : : - - - - - : : - * z.[.(.n.>.-.O.c X > v.V.m.o.n #   O * * ; O * ; * 2 ",
"2 p e e y e e e e q e q 7 , e 7 e 7 , , q f e , , , : : , - : : - - - : - f ).(.L.n.p.;.=.[ A 4 c n.:.3.,.A %   . - : * > : : 2 ",
"2 f f f f p p e p e y e f e e p f e 7 q p N d e 7 q q , 7 7 e q , , , , , x.p.d.x.x.2.o.o.,.J A F # ] 3.3.;.D A   .   > > : , 3 ",
"2 Y Y U f N f f f p p f f B e d d e Y / B.M.+.x e e e e f e e e 7 7 , e 2.4.@.d.@.P @.>.=.=.] A F ] b =.:.s.2.X.n n &   X : , 3 ",
"2 Y U Y f f f I B { d.d.;.....B A y.M.N.N.N.X.A s B ;./ / d e d B d N f.L 4.X.@ m @.1.<.H S D v b v v v +.3.s.+.X.J S n $   < 2 ",
"3 Y Y Y Y Y W { s.v.p.,...] o.:.d.b.b.I.).n.=.C f.b 4 B Y N ..B B f N G V f e , X   o K K S M z m 3 3 x m +.K L K K m c c @ o 2 ",
"3 Q Q Q ) >.3.p.s.y.,...X.>.3.p.x.x.b.J.z.x.;.B.N.+ o + Y f B Y W ^ s.s.;.T B B f f p e y y V D M z z $ @ m L L 1.X.W ! r # @ g ",
"3 ( } ,.p.p.>.>.>.i.=.o.>.>.y.i.X.p.;.3.d.M.N.`...# 4 o d %.M.v.M.N.b.b.f.-.;.o./ F f f f f p f B D H m m G V f p p f p f f f 3 ",
"3 | %.*.*.*.=.=.*.%.=.-.-.>.-.r.Z x *.>.I.`.+X+Xi.o.] ] :.2.=.i.x.-.F c ! ^ ..W N + U Y U Y Y U U T T W T Y U Y Y T Q T T Q ( g ",
"3 6.#.#.8.#.#.| #.#.| | | | _ _ _ Z z.!.).+X#X).v.M.-.} ( ( ( i.y...[ s [ r.Z V *.W ! ! ( Q ! T Q ! Q Q ` ! ! ! ( ! ( ) ( ) ( g ",
"g q.0.q.q.9.9.0.7.7.0.7.7.7.7.6.7.~ y._.).+X#Xu.| %.| } #.B V V ! | ! Z ] Z ~ | | | | | W _ | ) ) _ ) ) ) ) } ) | | } ! ( } ! g ",
"g t.w.w.w.w.w.q.w.t.w.w.w.t.w.e.w.9.%.U.).+X[.w.q.9.q.q.0.7.%.9.0.0.7.#.} %.7.6.7.6.6.6.6.6.%.7.6.8.6.%.6.#.6.6.| #.%.#.) ) T g ",
"g k.j.h.h.h.h.h.h.h.h.j.h.h.h.j.g.u. .I. X XG.u.h.u.g.u.t.u.u.t.t.t.t.t.t.t.t.w.w.w.q.w.7.q.q.7.7.q.9.q.q.9.9.%.^ #.W 7.7.7.9.2 ",
"g S.S.S.A.A.A.A.A.A.A.A.Z.Z.Z.Z.C.C.h.I. X XA.C.C.C.C.C.C.C.k.k.k.k.k.k.j.j.j.h.j.h.h.h.u.9.h.u.9.7.t.t.t.t.e.w.t.9.$.t.e.e.e.2 ",
"g K.D.D.D.D.D.H.H.D.D.D.D.D.D.D.D.D.D.P.[.K.D.D.D.D.D.S.D.S.S.S.S.S.S.S.S.A.S.A.S.A.A.A.A.A.A.Z.A.k.7.C.h.^ g.A.u.g.k.k.k.k.k.2 ",
"h E.R.R.E.E.E.E.E.E.E.E.E.E.E.E.E.E.E.E.E.E.E.E.E.E.E.T.R.T.R.T.T.R.T.T.T.T.T.T.T.T.T.T.T.T.T.D.r.A.D.D.D.D.T.g.%.D.D.D.D.D.D.h ",
"h '.'.'.'.'.{.{.{.{.{.{.{.{.{.{.{.{.{.{.{.{.{.|.{.|.].'.'.].'.'.'.'.'.'.'.'.'.'.'.'.'.'.^./.^.^.~.P.l.W.~.W.c.l.Q.~.Q.~.~.R.E.3 ",
"h &X$X%X%X&X*X*X=X=X-X=X-X-X-X-X-X-X-X=X=X=X*X*X*X*X*X*X*X*X&X&X&X%X&X$X@XoXoXoX@X@X@X@X@XXXXXoXXXoXOX.X.X}.|..X.X}.}.}.}.}.}.3 ",
"h eXrXeXeXeXeXrXrXrXrXrXrXrXrXrXrXrXrXrXrXrXrXwXwXeXeXeXeXeXeXeXeX0X0X0X9X9X6X6X7X7X7X7X6X6X5X5X5X3X2X2X2X<X<X>X:X:X:X;X;X;X;X3 ",
"h wXwXwXwXrXrXrXwXwXwXwXwXwXwXwXwXwXwXwXwXwXwXwXwXwXwXwXwXwXwXwXwXwXwXwXwXwXwXeXeXeXeXeXeX8X8X7X7X7X7X7X7X7X6X6X4X4X4X3X6X3X3X2 ",
"3 eXeXeXeXeXeXeXeXeXeXeXeXeXeXeXeXeXeXeX8XeXeXeXeXeXeXeXeXeXeXeXwXeXwXeXeXeXeXeXeXeX8X7X8X8X8X7X7X7X6X7X4X4X3X3X3X4X4X4X4X3X3X$ ",
"3 8X8X7X0X0X8XeX8X8X0X0X7X8X7X7X8X8X8X8X8X7X7X8X8X8X8X8X8X8X8X0X0X8X0X0X0X0X0X0X0X7X7X7X7X7X7X5X6X4X6X3X3X3X3X2X3X1X1X,X1X1X1Xg ",
"3 5X6X6X6X3X3X3X3X6X4X6X5X6X7X6X7X7X7X7X7X7X7X4X4X3X4X4X4X4X4X4X3X3X4X4X6X6X3X3X3X3X3X3X1X1X1X,X1X,X1X,X,X,X,X,X,X,X,X,X,X,X,X3 ",
"3 3 3 h h h g g g g 2 3 3 3 3 3 3 3 g h h 2 3 h h g g 2 2 h h 2 2 h h h h h g g g 2 2 3 3 3 3 3 3 3 3 h h 2 3 h g 2 2 2 2 2 g h "
};
