/* XPM */
static char *orb_png[] = {
/* columns rows colors chars-per-pixel */
"64 64 247 2 ",
"   c #020206",
".  c #05050A",
"X  c #08070B",
"o  c #06090D",
"O  c #0A0A0D",
"+  c #0A0506",
"@  c #1D0E07",
"#  c #120D0E",
"$  c #14120C",
"%  c #1D150B",
"&  c #060B12",
"*  c #0C0D12",
"=  c #070B17",
"-  c #110F12",
";  c #110E1A",
":  c #061015",
">  c #0D1215",
",  c #0D141A",
"<  c #0D191D",
"1  c #041119",
"2  c #131215",
"3  c #1A1414",
"4  c #151916",
"5  c #1C1916",
"6  c #13151A",
"7  c #19161A",
"8  c #14191C",
"9  c #1B1A1C",
"0  c #200F08",
"q  c #200F07",
"w  c #211307",
"e  c #211308",
"r  c #241A0A",
"t  c #291C0A",
"y  c #231A14",
"u  c #221D1B",
"i  c #271A16",
"p  c #341E15",
"a  c #301F0F",
"s  c #1D221C",
"d  c #1D2012",
"f  c #29230D",
"g  c #25221C",
"h  c #2A231C",
"j  c #2C2717",
"k  c #34241A",
"l  c #362719",
"z  c #393718",
"x  c #2E331C",
"c  c #0C1422",
"v  c #081728",
"b  c #131523",
"n  c #141C23",
"m  c #1B1D22",
"M  c #131C2B",
"N  c #181E29",
"B  c #0B1C33",
"V  c #011A36",
"C  c #09152A",
"Z  c #221F23",
"A  c #152125",
"S  c #1C2224",
"D  c #15222B",
"F  c #1B242B",
"G  c #1C292C",
"H  c #0C233B",
"J  c #072238",
"K  c #132334",
"L  c #1D2C34",
"P  c #1A2B3B",
"I  c #172738",
"U  c #07222D",
"Y  c #232323",
"T  c #292522",
"R  c #262926",
"E  c #2C2B26",
"W  c #23252A",
"Q  c #242A2B",
"!  c #2C2C2C",
"~  c #2B262A",
"^  c #332C23",
"/  c #312E2A",
"(  c #392C25",
")  c #2E312D",
"_  c #283229",
"`  c #33322C",
"'  c #3C352C",
"]  c #3A3628",
"[  c #252C32",
"{  c #2B2E33",
"}  c #232B39",
"|  c #253135",
" . c #2B3334",
".. c #23333A",
"X. c #2C3A3D",
"o. c #2B3638",
"O. c #323532",
"+. c #3A3631",
"@. c #353A35",
"#. c #3C3B34",
"$. c #343B3C",
"%. c #373939",
"&. c #442B1A",
"*. c #49351A",
"=. c #503516",
"-. c #423524",
";. c #423A2C",
":. c #4B3C26",
">. c #523D27",
",. c #433C32",
"<. c #433F3A",
"1. c #39423C",
"2. c #39442A",
"3. c #5B5315",
"4. c #4C4615",
"5. c #726A0D",
"6. c #484629",
"7. c #55462A",
"8. c #585328",
"9. c #4B453B",
"0. c #4D4A3B",
"q. c #464338",
"w. c #544A34",
"e. c #544C3C",
"r. c #584936",
"t. c #5B5338",
"y. c #4C5233",
"u. c #67552B",
"i. c #66563A",
"p. c #725C33",
"a. c #654F30",
"s. c #78653A",
"d. c #6A6433",
"f. c #6A461D",
"g. c #082744",
"h. c #132B44",
"j. c #1A2E42",
"k. c #14324B",
"l. c #1B334B",
"z. c #1B3344",
"x. c #1E3B53",
"c. c #163756",
"v. c #0C3553",
"b. c #222E41",
"n. c #223244",
"m. c #2C3D44",
"M. c #23354A",
"N. c #273A4B",
"B. c #353D44",
"V. c #233D54",
"C. c #263D56",
"Z. c #113E68",
"A. c #443D42",
"S. c #29434B",
"D. c #3B4545",
"F. c #374648",
"G. c #2C435C",
"H. c #254258",
"J. c #364758",
"K. c #3A5153",
"L. c #2A4964",
"P. c #364C64",
"I. c #3A536B",
"U. c #365978",
"Y. c #1E4351",
"T. c #424441",
"R. c #494B46",
"E. c #524E45",
"W. c #4B5248",
"Q. c #5A5A4C",
"!. c #565648",
"~. c #464F52",
"^. c #4A5654",
"/. c #555A57",
"(. c #645A45",
"). c #6B5C4A",
"_. c #5C6659",
"`. c #5A6049",
"'. c #686449",
"]. c #766848",
"[. c #686958",
"{. c #766C54",
"}. c #7B7357",
"|. c #767054",
" X c #435768",
".X c #445D79",
"XX c #515C60",
"oX c #48646B",
"OX c #4D6479",
"+X c #6A6B63",
"@X c #777565",
"#X c #6F786E",
"$X c #857D0B",
"%X c #87693A",
"&X c #88753A",
"*X c #856C46",
"=X c #867657",
"-X c #8B7745",
";X c #A07D45",
":X c #857D64",
">X c #867E71",
",X c #7C8272",
"<X c #8F861F",
"1X c #998659",
"2X c #92874D",
"3X c #AB925B",
"4X c #AB8C5D",
"5X c #B6A255",
"6X c #998A68",
"7X c #99906D",
"8X c #888977",
"9X c #938D77",
"0X c #969478",
"qX c #A28D67",
"wX c #A79469",
"eX c #B49D6B",
"rX c #A59875",
"tX c #B19B72",
"yX c #BAA473",
"uX c #BCA97A",
"iX c #B5A777",
"pX c #C4A66E",
"aX c #C4AB77",
"sX c #CCB677",
"dX c #C3A648",
"fX c #4E6884",
"gX c #7E8480",
"hX c #BAA984",
"jX c #91978B",
"kX c #C2AD84",
"lX c #C8B588",
"zX c #C9BB97",
"xX c #D3BD94",
"cX c #D3BD89",
"vX c #D8C699",
"bX c #DCC28E",
"nX c #E4CC94",
"mX c #D9CAA4",
"MX c #E6D4AA",
"NX c #F2DEB4",
"BX c #E8D8B1",
"VX c #F1E3BA",
"CX c #FBE197",
"ZX c #FDF5D7",
"AX c #F6E9C6",
"SX c #FEFFF9",
"DX c #FDF8E3",
/* pixels */
"t w e w w e w e w w w w w w w w e % % % w w w w w r w w w w t w w w % % % w w w w w w r w w w w e e e e e e e e @ @ w @ w w e t ",
"w fXfXOXfXfXOXP..X X6 o W G.P.l.h.v.Z.Z.P , 6 6 N N..Xc.z.G.G.P G.G.G.L.G.M.} 6 , 9 o o 9 * ! N * 6 6 2 o o * o * * 6 6 6 6 m t ",
"w .XP.G.I.P.J.b 6 } 9 * b.l.M.J B C C C c N C K c.P.V.V.L.I.B P x.h.P V.I , o * o o   o 2 o 6 o 6 o * o X * o o * o * * * * 6 t ",
"e J.J.G.P.- K I [ o 9 o - N c.G.g.V B C B V H h.C.U.C.x.G.I c.j.z.h.l.N * o o * o o o * o X * , o * * o o   o o o X o * * * * @ ",
"@  XB.J.b 9 N P.6 2 * W * N L.G.V.J.M.H k.c.g.H V.OXL.P.G.l.l.I l.h.B g.o o   o o o 2 o o o F   o o o   o o o X o o o o * 6 * e ",
"e G.C.L.H * 2 K 9 2 * * X 7 K P.N.M.n.C.l.l.x.l.h.L.H.l.V.V.K K M K J & o o   o   * o o   o W * * 6 o X o o o o * & o * * , W @ ",
"e I.I.P.G.F 2 [ o 6 6 * { * N.G.C.z.n.M.l.l.h.h.V l.L.k.k.G.c H m N h.o o   o       & * 2 o > 6 $ o 7 o o o o X o X o o o * b % ",
"e .XI.I.N N.2 * * 6 2 6 * * o J.P b.n.P j.h.h.P j.h.k.k.x.k.C x.M N ; o     o   o > o * 2 Q o o * * o X X X o S o o o X o , ; @ ",
"0 c.l.P F 2 9 - X o 9 * o * o M.z.n.M.G.V.V.n.P K M I g.v.h.D J c o o   o o o   o >   2 6 R F 6 o o o 6   * , X 6 6 o f 9 * Y @ ",
"e H B N Y * X * o o o o o * C 1 C H V.x.x.M.P o K K I H V H M ; &     o       * * o 6 , ! <.E m * f 6 2 o 3 ) $ 6 6 o o S o ! e ",
"e I M 6 - * * 2 * X 2 * 5 C V V J V k.J.x.V.c o o o N & C C M o o o o o     N , *   o D S E O._ _ 2 2.o * o * y 6 W o * 9 * 6 @ ",
"w K N N.[ 2 2 * 2 o o 2 o 2 H.c.k.g.G.l.L.m &   o o o   o o C & > o o o     6 > o o o < t.E 8.S j j 9 5 o ^ ) W 6 | K Y 6 Y o @ ",
"w N M.W } ; 2 o > m > d * c v.x.U.g.g.H               o o   * & o * 6 o   1 o : & * * 6 1.E w.` 6.f 6.^ * h o 9 9 ! { Q * * 9 0 ",
"e b.b * - 2 2 9 * * 2 * M & & c g.V & &   o o o   o o X     G o o o ,   o , * & > o * 4.` {.g 4.5.h r 2 W { 9 3 o * o m 9 9 9 q ",
"q 6 > m 6 9 2 * 2 2 s * o & * ; & & o o   o   o   o o o o o > & o , & o   o * & > F X.O.` x g f z o 9 * 6 +., 2 f o   o O.W 9 q ",
"w 6 N b u ! 6 4 G 4 * S o & , o o o   o X o   o o X   o o o o * o , o   * o > o & [ 8.%.[.3.g 5.g ^ - d.o 2 o Y 6 3 4   2 m ;.q ",
"e 6 * m m 2 7 2 2 * * o o o o o * o *   o     o o o *     o * o o m o * > o 6 & * A X./ 8.5.h $X4.p.+ @.o > _ s * o o o * E m w ",
"e } * ; 6 X & & * 4 > U o o o o 2 o 2 o o X o o             < o : o o > o o o * o S _ `.` w.*.8.1.;.u - _ o o r o s * $ 6 3 7 w ",
"e N o 6 6 1 & 5 2 * o ,   o o * 6 6 2 o o X # o     X   o   , & : o o & * o * o o  . .` 5.[.g 3.l z $ 5 o * + S * o o 6 Y ! 7 w ",
"w & * 2 6 * 6 2 6 9 * N o       X   * X * o X   X       o > v 6 2 o o o o o o o o G O.%.z s.9 ' 3.W y o * 2 9 * o o o , o 2 6 w ",
"w N W m 2 * o o o 6 , o o         o o X *               & < & o o   o o o o * > o N D.d.[ +Xx <X].9.u 2 * 2 o 6 o o s o - X o w ",
"e 6 - 2 o o 6 o o * X o o o > o o o o o o o     o       > o , & o o > 2 o o > > * m Q X.^.y.<X'.9X-.5 m - * 2 o   o o W 2 - 9 w ",
"e 6 6 * - * 2   o * * o o o o   o     o X X o     o     > < > * o 6 , 6 > o 6 > 6 D.Q  .$.Q 4.0XwX$Xl * h o 7   o o * m * * X w ",
"w 6 2 S 6 o o X X * o # - o o       X     o o     X     > o > S > 6 6 g 2 > 6 * 6 @.O.Q  .S 5 [.wX:X3 o o o     o o o o - - o e ",
"w 6 D S 6 * o o 6 o o 2 o o o o   X o o   o   o     o   < > > , , 6 6 > 9 6 2 > S O.R  .S 6 u 6X3X].2 & o o X o 2 o     - * * w ",
"e 6 6 6 o o o & o * o o     o o     * o     o o       o * , > 6 > 6 6 s R 6 A 2 S Q Y Y Q 6 u w.*Xi.2 o o o o o o X o * o * * w ",
"e - * o * , D * > & & o o   o o o     o o o   o     o > > > 6 s 2 > x 9 4.S S 2 F 9 Y 6 N m u :Xr.=X2 * o # +   o X X o o o 6 w ",
"r * F 6 > 6 ; { : o , * o > * o *   o o o o     X o o > > 6 2 6 6 6 S 4 s 6 9 6 6 9 9  . .W g rX>.).# * o X +       X o * o * w ",
"w m * * * * o > * o o o   o o X         * o o * * o o A , 6 6 6 > 6 s z 5 2 9 N  .>X>XrXrXT.h rX*X-.2 * * o +   o o o o o X o r ",
"w N o X * o * o o o   & o o   o o   & o * o o & * > * > > > * 6 > h 9 9 o 2 o @.[.wXlXkXlX/.h pXpXq.# 6 o o o     o o o o * * w ",
"w 2 * * o * * o   o o o o o * o * o o * * o o * * o > , 6 > < , 6 Y 2 2 - 2 2 W.@XtXhXhXmX+X^ pXqX).g * * o o o *   o X o * o w ",
"w 9 6 * 9 2 o o o 6 * o o o X o * o o o o o o o o o o o 6 > * * 2 9 # 2 2 5 @.].qXuXvXlXvX>Xy eX).R.o * 6 o X o o o o o o 2 * w ",
"w 6 W D.* > * * 6 & * o * o o o o o X   o o o o o o o > > * o * o f # 2 W E ].qX6XzXmXmXvX:X3 y l e.9 * m o o o o o o o o * * e ",
"w 2 6 6 * * * o   o v : * X * o o * o o o o o o o o o > * * o o o u g T ' (.:XwXhXlXmXzXnXrXy wXwXh 9 2 * o X o * X * o * o * e ",
"r - 7 * > * * N * , , D & ; o o o 2 o o o o 2 o X X o * o o * - # ' @.q.t.=X6XtXkXhXmXBXnX6X^ &.wX,.* * X 3 2 o o o o   2 - - e ",
"r m 2 W 6 N 6 A 6 , , N A o * > > * > * o o o o o * o X o > 2 Y ! q.9.,.(.6XhXlXxXzXvXVXvXsX^ k =XT > * * X X o o o X o 6 X o e ",
"w 2 2 > 6 * > N S S , , , Q * 2 o * o o o o o o X o o 6 S Q E ,.W.0.e.r.=XkXvXmXMXvXvXvXBX9X3 7.uXy * * o o - o X o * o o o 7 w ",
"w 6 , m 6 * 6 , I 6 & : | , v > * o o o o o o * > 6 S ! O.! ` ! ,.:.p.(.tXvXAXZXVXMXmXMXmXxXe ].+X' 6 6 X * # - o o * o * o * w ",
"w 2 F 6 , 6 6 > < S v < v D , 6 o X X o * < N 2  .Q Y ` R.W.9.9.q.r.t.=XeXNXDXSXZXNXmXvXMXnX@ &X}.9.6 2 o o 3 * 2 - * 2 * o - w ",
"w 6 6 6 [ , * * 6 6 N , c 6 & > o o > * * 6 6 9 D.` Y O.Q.+.+.] ,.] i.=XaXAXSXSXSXVXmXvXvXMXa # p.9.7 m o o   o 7 o * 2 - o * e ",
"w 2 2 N N [ * , 6 > > 6 , * * o 2 * * 2 9 Q | X.D.q.Q.@.Q.O.;.^ h -.e.=XkXNXDXSXZXBXvXcXmXnXi &.k 7.9 2 * * + * o 2 - o o 7 [ w ",
"w * * 9 m.6 6 2 o > > , 6 > 6 2 6 2 2 ) $.| m.^._.!.q.q.e.T Y T ;.].i.=XwXbXNXAXNXmXvXyXMXMXi ;X>.@X3 - X * X o o 2 o o * - 9 w ",
"r o m N , , > * * o * 6 S N Q S S S 9  .$.1.D.$.D.F.R.@.-.T ` E '.{.(.s.1XyXbXbXnXvXlXMXdXxXl cX-.=X9 2 o 9 o 2 * 3 7 u u A.Z w ",
"w * N m N > > & > * , N D X.m.L Q Q S s @.@.F.R.E.O.Q.6.w.' ( l h 7.w.p.s.1XtXyXuXuX-XuXaXvXl zX*XE.2 - 2 - X * 3 i k k l k y e ",
"w * 6 o o & * N > < > F N P m. .O.R , m Y E ' !.(.i.i.].}.(.w.@.'.].w.2Xp.s.1X4X5X5X6Xs.|.3Xk aXi E.# * o - X f.&.>.=.&.l u m w ",
"w , 2 * 2 < C > D A , N F | G S  .) ` +./ Y 9 ! +.E Y Y E ;.|.1X'.].s.2X&X&X5X&X1X2Xu.-Xp.i.i s.&.(.# 2 o *.# p l y p k - o 9 t ",
"w - 2 * - 2 * D L K D K S.1.F.K.S.F.F.1.Q./.W.i.|.e.' Y 9 ! Y ].-X9XzXvXcXpX1X5.s.$Xa.w.7.p.y &.wXi.# o X o o &.k p p 3 - o 7 w ",
"w v c , 6 o > J P M.N.Y.S.S.oXI.K.D.W.R.'.'.e.'.7.u.8.s.u.R 2 E.T '.].+.qXsXCXcXsXs.].,.a.-.% >.=X' # - o 3 o X - y # 3 o * # w ",
"e D ; 2 , , , 6 N P L z.M.S.oXoX_.K.1.0.!.d.Q.'.0.a.7.7.i k 2 9 Y Y Y <.|.Q.).=XnXyX8.&Xu.r.h >.=.^ - 2 * o # o * 2 2 X o u 7 e ",
"e 6 9 6 2 * * m S N , Q Q ! $.[ D.1.O._.0.t.y.s.1X1X1X=.O.=X2 m S o T @.` R.+.q.e.1X1X;.:.u.h p.r % 2 # 9 X + 2 * 2 # 2 o - - w ",
"e 6 o - 6 X * * 6 6 m Q Q g S S Y E q.` Q.;.w.p.s.-X1X3X:X*X! h ' E Y / @.` ! ) E.,.w.&X@.:.y y y 2 o o o o # o o - 2 * o * Y e ",
"e X - , * * > 6 * 2 9 Q W $.E S Q h T ' E.E ,.q.(.p.s.s.].>.t.T ].].=Xi.rX!.,.! <.+.%.` *X+.y ^ u k 0.2 o # # * o - # 2 2 2 9 w ",
"e ; o o * * 6 N Q m 9 9 q.$.Q ! ) Y ! h q.(.2 Y %.T q.1Xe.3 6.g (.-X3XeXaXaXuXe.T ^ ' @.0.9 5 l $ k %Xu.h 2 # # o * - * X 9 9 e ",
"e 6 * * * * F F P D Q L D.1.! Y O.Y T Y '.!.`.@.Q ) (.t.(.' z ^ p.1XyXyXpXlXbXtX}.s.:.T E.9 # 2 3 3 4.s.p.:.# o o o o - 2 2 - e ",
"e ; * o - 9 N L D W X.F.m.X.X.Y E +.E T.W.R./ Q.E.O.` ] Y ! ] s.=XwXwXpXwXyXyX=XwX4X,.^ 3 9 2 * # 3 # y 3 3 - - o 2 o o W - 2 r ",
"e 6 * - # 6 6 G F F | | L [ Y _ @.h Q ^.R.$ D.#X|.'._.e.[.@X].1X7XiX}.wX6XhXtX6X6X6X%X;.2 2 2 o 2 % 3 2 u - # - - - 2 o # o 2 e ",
"@ 6 c 6 - 2 6 N 9 m F | $. .@.@. .7 m.^.| | _ @.#XW.@X9.[.}.Q.].].:X8XrX6X7XeXhX=X@Xt./.9 T # 3 7 # h 2 * u 2 9 7 2 o 2 u ! 9 @ ",
"@ 2 2 2 2 6 6 6 2 6 6 6 Q S 9 7 9 m O.D.~.O.F.'.] e._.[.R.E.{./.( (.(.[.0X8X,X:X}.8X7X8X2 Y 3 o o T 2 * * h :.3 y :.2 9 T y Y e ",
"@ b 2 2 2 7 9 2 2 N 6 6 6 2 2 3 2 2 m X.F.{ u Q Q 2 ! 1.T.T.E i i i @.:.,X9X0.8X#X,X9X8X9 9 $.6 7 9 X F m h 9 2 3 l 5 - - 9 2 % ",
"@ b Z 2 2 6 2 2 2 6 6 N 6 6 - 2 2 Q 2 6 9 2 S J.2 2 7 4 W T 6 3 9 W ^.0.+X/.+X#XjX[.+X@XB.Y R.!.9 ~ X [ F S 7 Y 9 k 2 9 W m 9 w ",
"e M 2 6 6 b m 6 7 2 7 m ! m 2 3  .H.H. XoXN 2 m Q  .Y Q n.$.! B.^.W $.S.F.@.+X~.@X[.@XgXT.B.W.m Y ! t.q.F { - S S 7 2 <.S S ! r ",
"e 6 6 6 b b 9 7 2 9 2 9 S 9 9 9 9 W F N N m Y R J.F.K.m. .Y X.! Y K N.z.~.R.XX/.{.%.W.@X/.D.$.R.! B.$.) | 9 3 W m T 9 m W O.$.r ",
"w Y 6 6 b 6 2 2 3 g 3 7 2 3 Y | B.9 2 2 2 Z 2 2 9 s S 6 L Z g ! 9 m J.{ | Q.T.J.F. .W./././.W.R.R.@.B./.D W 3 W m { y R.T.m $.t ",
"e e e e e e e e w w w w w w w w w w w w w w w w w w w w e e e e w w w w w w w w w w w q w w w w e e e e @ e @ @ e @ @ @ e w r f "
};
