/* XPM */
static char *plant_png[] = {
/* columns rows colors chars-per-pixel */
"16 16 144 2 ",
"   c #000F05",
".  c #000F0A",
"X  c #051405",
"o  c #05140A",
"O  c #051B0A",
"+  c #05210F",
"@  c #14270A",
"#  c #14390F",
"$  c #0F2C14",
"%  c #14271B",
"&  c #143914",
"*  c #392C05",
"=  c #362C0A",
"-  c #392C0F",
";  c #143627",
":  c #411D0D",
">  c #43200E",
",  c #4E240F",
"<  c #4C2B0E",
"1  c #4B2212",
"2  c #4C2F13",
"3  c #4E3010",
"4  c #2C400F",
"5  c #2C520A",
"6  c #214414",
"7  c #314D14",
"8  c #36700F",
"9  c #2C4D2C",
"0  c #31482C",
"q  c #365827",
"w  c #315E2C",
"e  c #274031",
"r  c #365839",
"t  c #2C7721",
"y  c #4F4A0F",
"u  c #46551B",
"i  c #6C7F0F",
"p  c #485B2C",
"a  c #49673B",
"s  c #5D693B",
"d  c #69772C",
"f  c #7D6F3B",
"g  c #4F6347",
"h  c #40794E",
"j  c #50774A",
"k  c #427156",
"l  c #727546",
"z  c #627D55",
"x  c #892705",
"c  c #8C310A",
"v  c #993605",
"b  c #903901",
"n  c #B82C01",
"m  c #AC3101",
"M  c #9B470A",
"N  c #904E14",
"B  c #AC420A",
"V  c #BC4D0A",
"C  c #7F8854",
"Z  c #798169",
"A  c #77916C",
"S  c #7DA170",
"D  c #BE882C",
"F  c #B38A4E",
"G  c #BD9145",
"H  c #CCA24D",
"J  c #D5B14F",
"K  c #D8B95E",
"L  c #CEA765",
"P  c #CEAB63",
"I  c #D7AD6A",
"U  c #D8AA6E",
"Y  c #CAB160",
"T  c #D6B46F",
"R  c #D2BE68",
"E  c #C0AD77",
"W  c #CDAF70",
"Q  c #CBAC78",
"!  c #CFBA72",
"~  c #C9B079",
"^  c #D8B770",
"/  c #D0B971",
"(  c #D5BB79",
")  c #D9BD7B",
"_  c #D3C57F",
"`  c #B9BDBD",
"'  c #C9BE88",
"]  c #B2C2A5",
"[  c #B1C0B0",
"{  c #BBCAB6",
"}  c #B1CFBE",
"|  c #BACEBB",
" . c #CEC58E",
".. c #D3C183",
"X. c #DAC586",
"o. c #D7C38A",
"O. c #D6C690",
"+. c #DDC996",
"@. c #D0C199",
"#. c #DBC699",
"$. c #D6CD9D",
"%. c #DBCA9D",
"&. c #DCD49B",
"*. c #D2CBA2",
"=. c #D8CDA5",
"-. c #CFD0A8",
";. c #DAD1A7",
":. c #D8D3AC",
">. c #DACEB1",
",. c #CFDAB7",
"<. c #C5D6BA",
"1. c #D3D2B7",
"2. c #DAD7B2",
"3. c #E3DFB2",
"4. c #B5C9C2",
"5. c #B8C9C7",
"6. c #B6CFCB",
"7. c #BAD0C0",
"8. c #B5D1C8",
"9. c #BCDACE",
"0. c #C5D5C7",
"q. c #C2D8C0",
"w. c #C7D6C9",
"e. c #C7DACD",
"r. c #CCDBCF",
"t. c #D0DDCA",
"y. c #C4DBD6",
"u. c #CFDED2",
"i. c #D4D9D2",
"p. c #D1E1CF",
"a. c #D8E1CC",
"s. c #C2E3D7",
"d. c #CBE0D0",
"f. c #CAE6DB",
"g. c #CFE8D8",
"h. c #D3E1D3",
"j. c #D2EAD7",
"k. c #D7E7D8",
"l. c #DAE4D9",
"z. c #D6EAD9",
"x. c #DBEADA",
"c. c #D8E8E4",
"v. c #D7ECEC",
"b. c #DDF5F2",
/* pixels */
"3 1 1 1 < < 3 3 3 < < < 1 2 > 3 ",
"> h.u.e.r.d.r.| { 7.w.5.6.4.7.> ",
": z.z.a.p.u.h.d.y.0.j y.} } } : ",
"1 k.k.c.k.z.g.t.d.u.s.s 8.} 8.2 ",
"< t.h.x.h.k.k.d.s.7.q.f 9.e.0.< ",
"1 j.i.z.k.z.u.w.w q C ] z a { , ",
"1 c.l.d k.f.9 6 S # u A & l 5., ",
"3 l.l.c.b.v.p 4 8 $ O o e [ ` 3 ",
"3 3.O.#.) E ,.i 5   O $ h [ <.3 ",
"< X...o.= - y N 7   t r 0 1.1.< ",
"< +._ ( b x v * .   o k g ;.>.< ",
"< J H U M m V @     + ; Z =.2.< ",
", I G D c n B F X O . % -.:.:., ",
"1 P ^ T L W ~ Q Y ! _ %.;.$.*.1 ",
"2 ( ..@.' o. ...o./ R K +.&.;.2 ",
"3 1 1 1 < < 3 3 3 < < < 2 2 > 3 "
};
