/* XPM */
static char *pond_png[] = {
/* columns rows colors chars-per-pixel */
"48 64 246 2 ",
"   c #1C1A18",
".  c #3E190C",
"X  c #271D1B",
"o  c #26261B",
"O  c #373019",
"+  c #2B2927",
"@  c #352C29",
"#  c #383428",
"$  c #393638",
"%  c #2D2E33",
"&  c #1F2321",
"*  c #421D0D",
"=  c #44210E",
"-  c #4D250F",
";  c #4D2C0E",
":  c #4B2413",
">  c #4B2C13",
",  c #472714",
"<  c #4C3412",
"1  c #4B3719",
"2  c #5B311A",
"3  c #633C16",
"4  c #463A28",
"5  c #423C3C",
"6  c #453C36",
"7  c #57362C",
"8  c #653426",
"9  c #693A36",
"0  c #773635",
"q  c #6D2825",
"w  c #641813",
"e  c #38422A",
"r  c #37411C",
"t  c #54452D",
"y  c #494339",
"u  c #58493B",
"i  c #4C4A29",
"p  c #654A38",
"a  c #695837",
"s  c #6F4D2C",
"d  c #716733",
"f  c #794A12",
"g  c #3E3C43",
"h  c #393C46",
"j  c #443E44",
"k  c #6A3D40",
"l  c #3E4148",
"z  c #3F4150",
"x  c #43444C",
"c  c #494547",
"v  c #554B48",
"b  c #59554A",
"n  c #434551",
"m  c #4C4C53",
"M  c #474B55",
"N  c #534D56",
"B  c #4E5357",
"V  c #53545C",
"C  c #585556",
"Z  c #495042",
"A  c #644B47",
"S  c #7B4A47",
"D  c #685647",
"F  c #785B48",
"G  c #665A57",
"H  c #775655",
"J  c #5B6451",
"K  c #796749",
"L  c #6A655A",
"P  c #78695A",
"I  c #786F4F",
"U  c #585D6B",
"Y  c #575B67",
"T  c #53596A",
"R  c #645E64",
"E  c #5A6169",
"W  c #5C6474",
"Q  c #5B657C",
"!  c #596379",
"~  c #696566",
"^  c #756A66",
"/  c #7A7369",
"(  c #636B7C",
")  c #6B6E7B",
"_  c #666A74",
"`  c #716F73",
"'  c #6B727B",
"]  c #787677",
"[  c #873938",
"{  c #8A3630",
"}  c #923A0B",
"|  c #8B7032",
" . c #996933",
".. c #844B4B",
"X. c #954A46",
"o. c #845955",
"O. c #985657",
"+. c #8F514C",
"@. c #A25954",
"#. c #866847",
"$. c #957A45",
"%. c #876A58",
"&. c #957755",
"*. c #877552",
"=. c #A47456",
"-. c #857B6D",
";. c #877867",
":. c #857C74",
">. c #91716A",
",. c #AE716A",
"<. c #9F5E61",
"1. c #9B823B",
"2. c #A5883C",
"3. c #C8A53A",
"4. c #98824D",
"5. c #978657",
"6. c #948B5D",
"7. c #AC9253",
"8. c #BEA558",
"9. c #968569",
"0. c #87837A",
"q. c #968A78",
"w. c #9A9279",
"e. c #8D8767",
"r. c #A68968",
"t. c #AA9569",
"y. c #B88979",
"u. c #A7967A",
"i. c #B29471",
"p. c #ABA47D",
"a. c #B7A473",
"s. c #CAB170",
"d. c #C9997B",
"f. c #5C6A82",
"g. c #636D83",
"h. c #666F86",
"j. c #667184",
"k. c #6B7384",
"l. c #6C768A",
"z. c #6E798B",
"x. c #66748C",
"c. c #717684",
"v. c #737B8C",
"b. c #777B87",
"n. c #6E7D95",
"m. c #737D92",
"M. c #7D7F91",
"N. c #827D84",
"B. c #7B828D",
"V. c #7A8393",
"C. c #798599",
"Z. c #7D88A5",
"A. c #888988",
"S. c #938C86",
"D. c #9A9487",
"F. c #858A96",
"G. c #8C9499",
"H. c #989996",
"J. c #8E908D",
"K. c #A49988",
"L. c #A39D93",
"P. c #B49983",
"I. c #AAA38A",
"U. c #B7A989",
"Y. c #BCB28B",
"T. c #ABA393",
"R. c #AAA599",
"E. c #B6AA97",
"W. c #BCB495",
"Q. c #BCB49B",
"!. c #BCB799",
"~. c #8892A5",
"^. c #AAA9A3",
"/. c #B7AEA1",
"(. c #BAB6A6",
"). c #BBBAB3",
"_. c #9EA1A4",
"`. c #C49684",
"'. c #C4A886",
"]. c #C6B78A",
"[. c #C2B59C",
"{. c #C5BA9C",
"}. c #CCBD9B",
"|. c #C7B994",
" X c #CCB096",
".X c #C2B6A2",
"XX c #C4BBA2",
"oX c #CABDA3",
"OX c #C3BDAB",
"+X c #CFBCAD",
"@X c #CCBDAB",
"#X c #BEC0BB",
"$X c #CCC29D",
"%X c #C6C19A",
"&X c #D2C39C",
"*X c #D4C99E",
"=X c #DACC9B",
"-X c #DDD29E",
";X c #E3D69C",
":X c #CCC3A3",
">X c #CCC5AB",
",X c #CDC8AB",
"<X c #D3C5A4",
"1X c #D6CAA4",
"2X c #DBCCA3",
"3X c #D3C6AB",
"4X c #D4CBAD",
"5X c #DBCEAB",
"6X c #D8C7A3",
"7X c #DCD1A4",
"8X c #DDD2AC",
"9X c #D8D2AD",
"0X c #CAC5B3",
"qX c #CEC9B4",
"wX c #C4C4BB",
"eX c #CDCBBB",
"rX c #C5C3B6",
"tX c #D3CDB4",
"yX c #D9CEB3",
"uX c #D2CEBA",
"iX c #D1C6B3",
"pX c #D6D1B4",
"aX c #DCD4B4",
"sX c #DFD9B5",
"dX c #D5D1BC",
"fX c #DCD5BA",
"gX c #DFD8BA",
"hX c #E1D4A4",
"jX c #E2D4AC",
"kX c #E4DAAC",
"lX c #E8DBA8",
"zX c #E2D5B3",
"xX c #E3DAB4",
"cX c #E1D7B9",
"vX c #E1DABB",
"bX c #E9DAB3",
"nX c #E0CEA7",
"mX c #E8E2B8",
"MX c #F0E3B1",
"NX c #CCCCC2",
"BX c #C5C9C3",
"VX c #D0CEC2",
"CX c #D7D4C1",
"ZX c #CED0C6",
"AX c #E2DCC3",
"SX c #EDEACD",
/* pixels */
"= ; . . . . : : : : : : : : : : : : = ; ; ; ; ; ; - = * ; ; ; = : : : : > > > > = = = = , 1 < = ",
"; zXjXaXyX4X3X0XrXrXOXOX1X5XaX2X6X1X3X1X1X1X2X2X1X1X3X0X3X4X5X4X4XqX0XrXrXrXrX#X#XrXeXrX0XrXrX> ",
"* jXzXaXaX4X3X0X0XqX0X,XaXaXaX5X2X2X1X2X2X2X5X2X1X1XyXiX3X5XaX4X4XyX0XrXrXrXrX#XrXeXeXqXyXuXeX< ",
"; jXaXaXfXyXyX,X4XzXyX5XaXaXaXaX8XjX5X5X2X2X2X2X2X5X5X5X4XaXaXaXaXyXyXyXqX0XrXrXuXdXdXfXfXfXfX< ",
". aXaXaXcXfXyX5X5XjX5X5X8XzXcXfXaX5X5X5X8X2X2X5XzXzXaXaXaXaXfXvXcXaXaXaXyXyXyXyXaXaXgXAXAXvXCX= ",
". yXzXcXvXcXcXzXzXzX5XyXjXaXaXaXaXaXaXzXzXzXaXaXzXzXfXfXvXvXgXvXfXfXfXaXaXaXaXaXfXvXAXAXAXfXVX= ",
". yXzXxXvXvXvXfXfXzXzXyXyXaX8X8XaXaXzXzXvXAXvXvXvXvXcXvXvXfXgXvXfXgXgXaXaXaXgXfXdXfXCXCXCXVXNX= ",
". zXzX8XaXxXxXcXfXyXyXyX4X5XaXaXaX8X8X8XaXgXfXfXgXvXvXvXvXvXvXcXxXgXvXaXaXfXgXgXuXuXCXVXVXVXVX= ",
": fXaXaXxXxXaXfXuXyXuXyXaXaXaXzXzXjX8X8XaXfXgXsXgXvXvXvXvXvXfXcXfXgXfXfXfXaXgXgXfXdXuXVXVXVXdX* ",
": uXaXaXxXaXdXeXdXaXzXcXcXaXzXjXzXxXzXaX8XaXfXgXvXvXvXxXvXcXcXvXgXgXfXgXgXvXvXvXfXfXfXgXfXfXfX= ",
": uXfXaXyXuXdXfXxXxXzXxXxXxXxXzXzXzXxX8X8XaXfXfXfXaXaXaXvXvXcXgXgXfXgXvXvXvXvXvXvXfXvXgXaXaXfX* ",
": NXuXuXeXeXfXxXxXxXzXxXxXkXxXzXzXzXjX8XaXfXaXaXaXaXfXfXfXgXfXfXgXgXgXgXvXvXfXgXgXvXfXfXfXfXfX* ",
": ZXNXNXNXNXfXzXaXaXaXaXaXaXaXaXzXaX8X8XpXpXpXpXyXaXfXfXfXfXfXfXfXvXgXsXgXaXaXfXgXgXfXfXuXuXNX> ",
"* ZXVXNXNXNXdXdXuXuXuXuXuXuXuXuXaXpXyXyXyXyXyXpXpXpXyXdXfXfXdXaXaXsXsXgXfXfXaXfXfXdXuXeXrXBXBX> ",
": NXVXVXdXdXNXNXNXeXeXuXeXeXeXeXyXyXyXyXeXeXyXyXyXyXyXyXpXaXaXpXpXpXpXyXuXuXeXeXeXeXrXrXBXBXBX: ",
": VXdXVXdXdXdXdXeXuXuXuXeXeXyXyXyXyXyXyXyXyXyXyX4XaXaXpXpXpXpXyXyXyXeXeXeXeXrXrXrXrXrXrXrXrXrX= ",
"> fXaXdXeXdXdXdXdXfXfXdXpXdXfXfXfXfXpXaX8X8X8X8X8X8X8XaXaXpXpXaXpXyXyXeXeXqXeXeXeXeXeXeXeXeXuX; ",
"> aXfXaXaXgXaXaXaXfXfXfXfXfXvXvXvXgXaX7X2X2X2X2X8X8X8XsXaXaX8X4XyXpXpXpXdXdXfXaXaXdXdXfXaXaXaX; ",
"> xXfXxXvXvXvXgXgXvXgXgXvXvXvXvXaXpX1X$X}.{.}.&X2XjXsX4X4XpXaX).>XaXaXaXpXpXaX8X8XaX8X7X7X1X4X; ",
"> xXvXvXvXvXvXvXxXxXxXxXvXmXvXaX,XoXoX.XQ.Q..X{.&X;XkX1X{.xXaX(.(.aX8X4XpXyX,X9X4X4X,X,XqX0XeX; ",
"; 1XxXmXxXxXvXxXkX2X7X8XaXxX5X,X{.oXXX[.Q.[.[.[.=X;XkX8X{.8X:XXX/.aX9X(.yX4X).,XyXyX,X,XyXpXyX- ",
"; {.1X5XhXhXkXxXkX=X}.}.$X*X$X}.}.oX.X.X{.[.[.$X7XxXvXmX$XW.*X%X>X4XOX(.pX4XXXaXmXxX9X8XaX9X~ - ",
"; XX.X[.{.[.}.8XkXjX7X1X|.|.}.$XjX2X1X:X&X&X&XhXxXvX8XlXE.D.MX!.Q.H.H.XXxX4X{.mXSXmXmXsXaX*.~ - ",
"; (.(.(.(./.(.XX1X8XxXxX8X=XhXhX7X2X7XhXlXkXkXSXAXkX7X1XE.L.E.XXH.] ).pXaXQ.:XMXK.I.XXXX*XN.` * ",
"< (.(./.(.(.OX,X$X*X8XxXxX7X1X:X{.{.$X&X7XkXxXAXaX=X-X*XE.Q.7XA.E.:XQ.8XMXQ.:X9.G V N M V _ A.- ",
"< aX4X4X,X,X4X7X*X7X8X4X1X{.[..XXXoXXX{.&XhXlXkX7XU.u.-XXX:X7Xb.~ :XR.E.:X{.u.v n n z M M Y ` - ",
"> xXxXxXsXxXkXkXxXaX4X,XoX{.[.XXXXXXoX1X2X-X;X-XhX*X*XT.D.V.H.h.Q D.) z._ G.M.j n B N M n V ~ - ",
"= 8XaXaXaXaX8X8XaXpX4X3X1X1X1X1X:XoX2X8XhXlXlXhX7XhX1XF.M ' G.k.Q C.Q h.Q Z.) 5 n c M c n V M - ",
"< 7XjXxXbXkX8XzX8X5X3X5X5X5X2X2X1X1X1XhXhX:XQ.Q.2X2XF.B.c.x B.` U C.) Y l.~.z.V x x x l x Y M > ",
"> 5X,X0X,X4XkXbX8XaX4X5X5XyX5X3X2XjXbX:XA.v.l.z.F.v.k.A.F.V x M h.C.) M l.C.z.) V x g x M Y M < ",
"< _.G.F.F.C.H.,XzXbXzXzXyXzXzX5XbXjXE.n.x.v.v.v.h.j.B.B.C.` M E ) v.k.Y C.C._ V c x M B x V M < ",
"< V.C.C.C.C.n.C.G.^.3XbXcXyX:XiX[.s 7 L C.v.v.c.k.k.v.v.m.v.x g ) z.k.W ~.k.V R c l M M x V T < ",
"; G.F.C.C.C.V.n.x.x.V.).OXF.V.~.4 , '.&.` C.v.c.v.v.c.b.b.m.Y $ l.l.] ~ ) _ z.` v x x n x L C > ",
"; G.H.G.V.z.j.j.h.k.z.v.z.v.C.l.O #. Xi.~ m.b.c.v.k.c.c.v.m.l.g ' V.E x _ k.l.` V M N G D p G < ",
"; l.l.m.k.) Q W Q Q ' ' k.z.m.j 8 ,.r.&.] V.b.c.l.l.k.) k.l.m.j k.V.M U Z.m.U ) U n x l M ^ ~ = ",
"; k.B.B.h.W W U W U E W ) j.W O s =.d.>.W c.k.' v.v.k.) k.x.n.M V k.h m.m.( _ c.Y x x x M G H < ",
"; v.B.G.H.b._ U T U T U W ) v t ..#.,.G j.k.j.k.c.k.) Q f.f.x.c.$ g h.l.v.R Y U n g l l K c %.; ",
"; l.h.v.F.B.k.) U W U _ ) N %.U.u.K.) W c.k.x.l.j.) Q Q Q j.z.c.$ U ) h.~ v x g x g l l g c =.; ",
"; Q f.Q Q ) ! f.U ! U U T G E.3XoX/.f.h.' ) h.h.j.) ! Q f.z.v.) $ Q W U v c h M C c $ j D %.A ; ",
"; ) ` _ ) ] ' _ _ ) ` ] _ A.OX0X X X] _ _ _ ) ) ' ] ] ` c.c.z.m.g l U c v $ $ j x c F F p &.%.; ",
"; I.K.U.w.u.I.I.p.p.U.&XT.A.(.OXOXU.L.L.D.w.q.q.9.-.9.9.;.q.0.u.b $ P Y T x g @ Y g #.D ;.H P ; ",
"; ].Q.|.|.a.a.U.a.a.'.[.D.S.XXE./.[.E.u.U.u.9.w.u.r.r.4.4.7.t.7.6.% 7.e.L L B x 5 c F a G P %.; ",
"; L.u.P.L.u.U.p.[.U.'.U.] D.qXE.L.OX3Xu.9.w.r.;.9.9.5.&.&.2.7.7.8.% 8.s.a.t.6.b x $ y p a A v ; ",
"; L.q.0.u.6.r.E.I.L.E.H.b.H.OXE..X).R.:.-.-./ P P P %.#.&.;.6.r.4.$ 5.t.8.7.7.6.4.L 5.#.%.A 5 ; ",
"< D.T.0.w.D.t.t.K.u.s.S.~ H.(.^.eXrX] Y / b v C L K D D K H.NX^.S.b *.i.4.4.4.4.$.5.w.F 5 j $ ; ",
"< D.p.-.E.'.u.t. XE.L...q K.BX>.o.P.K./ -.q.^ G b v D u S.rXNX).^.I / K 5.I | 4.d 4.*.*.j $ j ; ",
"< -.0.e.W.E.p.a.K.:...X.{ %.).`.{ O.'.-.L L *.L u u u ^ S.C rXC L.S.C d b &.| | a K &. .D j N ; ",
"< 5.q.u./ 9.U.u.0.^ [ [ [ q ..oXy.[ y.-.$ u u p t 7 u v 0.R.C L.).P y i G u i # 4 f p 6 G c @ ; ",
"> -.^ 7.*.*.b.) r.~ @.O.X.X.0 S U.y.X.,.6 # t A p y # 5 ` C C C ` b t 7 s y K 6 o @ 4 #.5 c $ - ",
"> r.s.8.&.2.t.I b 0 X.O.X.O.X.[ ..P.y.`.%.@ 4 y c y # O # A.OX` $ $ # # + u &.4   & o $ 6 @ @ ; ",
"> D I c  .%.M 6 6 <.O.[ O.<.O.@.@.X.y.y.,.o.y $ x v c $ 5 C G 6 y 1 % # i O #   o o # $ % % + - ",
"> y c m ` A K c 0 { 0 [ O.<.,.X.,.<.X.@.@.,.,.0.|.I.K.q.0.6 S.6 C 9.| t 8 4 o o + t # @ + + % = ",
"> $ C y A A v l { 9 0 ......O.S S o...O.<.H <.U.-X2X[.D.v G T.~ 6 U.6.1.| e 4 + 4 + t # @ @ + > ",
"> G ~ ` _ ^ 0./ 8 8 0 9 k 9 9 9 H H H H ^ :.I.$X8XK.S.:./ R.D.R.L S.^ r.$.D $ % a w # @ a # + : ",
"> u.E.'.E.!.|.Y.7 7 8 k O.7 H D H >.H H ` I.(.8XD.S.E.L.0.-.(.^ ^ ] A.V c u y p $ o u #.1 u X > ",
"> [.:X&X1X:XY.U.u : 0 S S v o.o.o.^ ^ ^ D.I.0XCX/ L.L.q.q.K.E.H.N.E ` B E 4 L B V 9 K 3. .u s : ",
": [.{.|.].|.qXQ.q.H S S q...o.H H H ` R.Y.Y.!.,XD.~ ^ ` 0.L G _ + v L b i o J L P r } s 1.d O < ",
": }.U.{.|.4X{.Q.K.9 H S ..^ G H G :.S.R.W.|.!.$XE.T.U.q.] $ b L ] :.D.~ c y C Y J @ 2 3 s i e < ",
": oXOX|.a.{.W.(.U.G 7 A v ;.^ G Q.A.^.(.!.pX%X:XW.:X2XnXS.c G 0.~ c S.0.*.u.Y ] C c O o 3 O O > ",
": }..XoXU.E.[.W.OXw.D H H L.^ ^ -.J.H.H.|.$X].|.W.[.aXoX/ ~ D.OXb v S.U.0.(.0.0.q.^ D + r o @ > ",
"; oXOXaX$XY.|.U.].T.>.A ^ ^ -.^ D.^.^.XX$X%X:X,XpX{.D.E./ b ` L v ] /.H.H.T.A.R.D.e. .w.6 % c ; ",
"; }.,XW.U.Y.u.I.L.R.S.^ ^ G G :./ R.^.pX%X!.Q.K.|.{.[.E.yXG 5 v C :.^ T.S._ L.;.H.S.a.8.u.P ^ < ",
"* |.Q.K.[.E.P.K.I./.K.-.:.L ^ ^ ^ L.E./.Q.(.(.(.Q.W..XR.R.D.] ] ] ~ J.9.D.A.K.D.` w.r.q.9.K./ = ",
"* ; . . . . : : : : : : : : : : = : ; * ; ; ; - ; ; ; ; - ; ; ; : : : : > * > > = = = = , 1 < < "
};
