/* XPM */
static char *sunflowers_png[] = {
/* columns rows colors chars-per-pixel */
"48 48 249 2 ",
"   c #010100",
".  c #0C0401",
"X  c #0C0B03",
"o  c #060902",
"O  c #140501",
"+  c #1B0500",
"@  c #130C02",
"#  c #1B0B01",
"$  c #160E09",
"%  c #0C1606",
"&  c #151303",
"*  c #1B1304",
"=  c #1C1709",
"-  c #1A1C1A",
";  c #230500",
":  c #240B01",
">  c #2A0C00",
",  c #290600",
"<  c #340D01",
"1  c #370700",
"2  c #241304",
"3  c #2B1304",
"4  c #241D04",
"5  c #2B1A03",
"6  c #2C1B0B",
"7  c #27180B",
"8  c #331401",
"9  c #3B1503",
"0  c #341A03",
"q  c #3B1B02",
"w  c #331D0B",
"e  c #361B0D",
"r  c #281D11",
"t  c #331E12",
"y  c #042702",
"u  c #192302",
"i  c #003801",
"p  c #1B2417",
"a  c #232503",
"s  c #2D2303",
"d  c #252B03",
"f  c #2B2C05",
"g  c #2C290A",
"h  c #342403",
"j  c #3E2303",
"k  c #342B04",
"l  c #3B2B03",
"z  c #332B0B",
"x  c #38230D",
"c  c #233300",
"v  c #2B3205",
"b  c #2C3805",
"n  c #363506",
"m  c #2B2315",
"M  c #332215",
"N  c #3A2414",
"B  c #34231A",
"V  c #3A261B",
"C  c #392B16",
"Z  c #33351B",
"A  c #3C2C22",
"S  c #342B21",
"D  c #283727",
"F  c #383322",
"G  c #333737",
"H  c #2E2926",
"J  c #122D25",
"K  c #421D03",
"L  c #471B06",
"P  c #541804",
"I  c #490D00",
"U  c #641804",
"Y  c #422402",
"T  c #4B2301",
"R  c #442B02",
"E  c #4C2B01",
"W  c #49280A",
"Q  c #562906",
"!  c #483403",
"~  c #523300",
"^  c #593904",
"/  c #4B2D1B",
"(  c #462A15",
")  c #572A14",
"_  c #463419",
"`  c #573618",
"'  c #652B04",
"]  c #693701",
"[  c #763A01",
"{  c #69371A",
"}  c #753917",
"|  c #6A2B14",
" . c #483926",
".. c #5B3C24",
"X. c #543925",
"o. c #403D3B",
"O. c #663D27",
"+. c #703E23",
"@. c #004B00",
"#. c #3A4703",
"$. c #007B12",
"%. c #30543D",
"&. c #454601",
"*. c #5A4804",
"=. c #584319",
"-. c #515408",
";. c #674903",
":. c #7A4B00",
">. c #764702",
",. c #665600",
"<. c #775400",
"1. c #68431D",
"2. c #774617",
"3. c #61501C",
"4. c #576400",
"5. c #6A6900",
"6. c #756D01",
"7. c #4A4427",
"8. c #5A4329",
"9. c #4B4336",
"0. c #594B38",
"q. c #5E523A",
"w. c #68462A",
"e. c #764627",
"r. c #765427",
"t. c #674B36",
"y. c #7A4B34",
"u. c #675537",
"i. c #775538",
"p. c #746C35",
"a. c #394244",
"s. c #3B4A50",
"d. c #4A4D4D",
"f. c #4C5657",
"g. c #595957",
"h. c #4D5644",
"j. c #6A5B48",
"k. c #5A6256",
"l. c #766349",
"z. c #796854",
"x. c #6B6855",
"c. c #7C7567",
"v. c #596164",
"b. c #90360B",
"n. c #A53B0D",
"m. c #8A3F21",
"M. c #834C02",
"N. c #874200",
"B. c #934500",
"V. c #994E00",
"C. c #885501",
"Z. c #945E00",
"A. c #995701",
"S. c #874E1A",
"D. c #A25900",
"F. c #AE4B1B",
"G. c #8C6701",
"H. c #9D6400",
"J. c #9F6900",
"K. c #946600",
"L. c #8B7100",
"P. c #977600",
"I. c #946519",
"U. c #A26D00",
"Y. c #A86400",
"T. c #A77500",
"R. c #B27200",
"E. c #844826",
"W. c #895637",
"Q. c #935334",
"!. c #975B3B",
"~. c #925326",
"^. c #AC572B",
"/. c #96683D",
"(. c #906B36",
"). c #B76A36",
"_. c #C16B39",
"`. c #895E42",
"'. c #9A5D41",
"]. c #A75E40",
"[. c #8C6345",
"{. c #88674B",
"}. c #926445",
"|. c #98684A",
" X c #896C54",
".X c #976E52",
"XX c #86755A",
"oX c #977657",
"OX c #91704B",
"+X c #A86848",
"@X c #A8734C",
"#X c #B8764D",
"$X c #A56B53",
"%X c #A47A5C",
"&X c #AB7B5C",
"*X c #A77456",
"=X c #B7714D",
"-X c #887B69",
";X c #9E7C64",
":X c #A87D63",
">X c #C97848",
",X c #009133",
"<X c #009747",
"1X c #9E8500",
"2X c #A98700",
"3X c #B28C00",
"4X c #B68800",
"5X c #AD9300",
"6X c #AF9A00",
"7X c #B29300",
"8X c #B69700",
"9X c #C98A00",
"0X c #CA9500",
"qX c #D39500",
"wX c #CDA500",
"eX c #CDAB05",
"rX c #CAAA2A",
"tX c #B6825E",
"yX c #AB835E",
"uX c #928572",
"iX c #9A8A74",
"pX c #938671",
"aX c #AC8465",
"sX c #AD896D",
"dX c #A88367",
"fX c #B58463",
"gX c #B38A6C",
"hX c #B98A6A",
"jX c #AB8B74",
"kX c #B58E73",
"lX c #BC8E73",
"zX c #A8937A",
"xX c #BA967A",
"cX c #BD916A",
"vX c #838353",
"bX c #C49268",
"nX c #C59678",
"mX c #CA8E6C",
"MX c #C7A379",
"NX c #B99A84",
"BX c #B3AD98",
"VX c #BAB2A6",
"CX c #8FA989",
"ZX c #C49D82",
"AX c #C5A388",
"SX c #C6A893",
"DX c #C7B68C",
"FX c #C4B8AB",
"GX c #CFC3AC",
/* pixels */
"R l 0 h 0 h h h Y Y h l h K K Y Y K K K Y l h l l l l l l h Y Y h h Y h h h Y Y Y K K Q K q Q W ",
"Y k s s s h g k h * @ @ X X X @ . . jXjXNXxXy.jX>X_.fXn.I 1 n.tX^.m.m.^.*X:XlX$XfXlX:X$X&X=X+XW ",
"h s s l l h s k 4 * ~ @ X X X X X X W.fXnX:XfXsX|.fX%XF.F.F._.kX}.< b.E.fX` W.aX.X[.`.i.&X}./ Q ",
"Y k n l h l h 5 * 5 Z.Q 2 @ @ X X X NX8.kX&X:XgX&X..oXU >X=XK dX|.5 ( lXsX`.}.&XgX$X!.sX$XkX%Xh ",
"h k k l k l l 4 E H.C.K Q >.& & * m ;XbXnX>X_.fX%Xw ( P F.n.9 sX.X. $X[.i.}.sX|.|.{ Q.[./ %XW.h ",
"l k k l k l k 4 <.> K   + 2 r _ t.l.nXSXZXkXhXaXgX)..Xb.U b.) * # L AXkXW.xX[.8.X.$X$X).&X*X].h ",
"h k k l k l k a 5 Z.Q . Q _ 0. X;XdXjXZXnXhXbX|.fX$Xw.; W.W $Xw }.$X/ .X}.jX[.:XaX:X$X+X}.Q.Q.W ",
"h k n z z z z 4 * s Q Z.<.oXjXjXzXjXZXSXlXmXlX%X#X| ^.+.9 W.W.%XK ) nXMX).) L gXgX#X%XsXdXaXX.h ",
"W h z l *.! s 4 z u 0.C 8.jXNXNXiXuXSXSX+XnX$Xt.=X^.E.}.9 y.@XF.P AXSX!.w.^.{ +XX.sX.XsX8.[.y.h ",
"Y h l *.0X0XG.C q.z.k.XXzXzXNXzXuX-XSXSXt.$X=Xy.hXW.!.W.) W.~.W.Q SX[.$XsXO.aXlX|.xX.X.X/ y.W.l ",
"Y s l 0X] ;.8X& & D = u.uXpXiXiXuXpXkX:X`.&XfX$XhXfX%X.X: ` ^.b.%XNX XO.w...6 ) K ) 9 9 [.E.+Xh ",
"Y 4 k 2X<.C.2Xa z f.iXXXuXuXuXpXiX-XnXhXmXnXmXW.&XgX` @XfX@XE.M A B               #   K . 9 [.l ",
"l 4 s *.0X0XL._ NXzXvXiXiXuX-X-X-Xc.ZXcXZXAX:XoX|.%XfXnXtX&X=Xb.tX( 0 9 R Y Y 9 5 9 9 ^ O # 3 l ",
"l 4 g 7.Z pX3.dXoXn 5.z.= r -X-X2X] xXAXxXt.j.} ( e.0..X.X@X( ( t.6 A.4X7X6X6X7X7XY > {   # # Y ",
"l 0 _  XiXoXs.D g u * a u b -X9XC.  K fX.XaXi.C P } 1  .i.*XaX( ( t.yXB.3X7X5X5X7Xh + { + : : h ",
"l ) !.yXoXp J D & p.0.u c u.-X(.>     '  XoX[...O : , 2 >.y.oXi.8. .` B.3X6X5X7X7XT : { . 3 5 Y ",
"h y.}.oXp * 5.^ R q.j.0.n 0.-Xz.<.  ; T gXdXoXt 0 3 5 k P.@X X .C M , [ 7X6X5X5X7XR < { # 2 x Y ",
"l /.%X Xj.j.;.T h u.q.9.a % p y ] P.L.{ 0.dX`._ q x l P.h P 8.C . 0 > q V.7X6X7X7XY P e.O # 6 h ",
"l bX#X9.p p 4.~       o   % D z. .l.X.O.h.0.X. .; x 9 5.6.9 3 N.' Y = 9 Q Y.3XD.A.Y ; e.2 m 6 Y ",
"h MX|.Z & b b F p.7.% r  .M %  .*  X . . .t. .N w P.P > @.L.3 ,.Y.R.E 0 q V.Y.B.B.9 : ) # # 3 h ",
"K cX@XC X #.0.h.u.5.! 0.q.9. .F = oX/ A ( .. .C + 6 ` B.6.2X^ > M.N.A.~ T [ >.V.A.Y O 1.# 2 5 h ",
"h #X@XW.8.,.@ X #.#.i.=  . .u.7.&  .S r ( N w 0 2 x h R 1XG.<.0 ;.' 9 ^ Q G.2X3X<.Y + `   # > Y ",
"Y fX@XOXb 8.&  . .n   o     7.(.[.oXF C L 0 6 O : l 3X! Y K , h n ;.,.<.5 ^ T.4X5Xh O 1.O 3 w h ",
"Y q.%X/.(.oXXX7.8.-. X .{.    -.u.l.V B V N 7 O 5 ! ] H.[ 0 # 9 > [ V.D.C.M.] T.5Xh : 1.+ 3 3 h ",
"W 9.{.i.! &   #.I.-.-.[.[.i.  X   & S [...M +   5 T.<.R T Q >.9 > : T b.T.U.U.J.3Xh + ) # # M l ",
"Y u.i.7.l c % ;.Z ,.F  .u.n X X   C t N 6 3 $   5 l L.G.,.q E b.5 : Q N.Z.7X2X7X7Xh O ) . 6 C h ",
"Y 7.7.: _ #.#.=.` @ .   ` _ c ;.` } N 3 e 3     l ! *.,.,.&.[ B.] 9 # 9 ;.2X3X3X5XY + Q * 5 x l ",
"h 3.1.=.=.=.d ` =.u       *.) q : 2.9 t ( 7   g.c.FXFX5.&.n 3 9 ,.b.>.h X h ~ P.2XE < { 2 5 3 h ",
"l =.=.c.2.2.2.2.` c       2 4 | 9 K 6 7 0 2 h.<.r.0XeXFX4.n 0 0 > V.C.X   > h k ,.h L ) # 2 + ! ",
"Y C C = ^ 2 x o c 6.l       &   E   X + 9 9.<.<.9 ! 9XeXGX` Y q 9 [ D.V.] ~ k k k O > ) 2 2 3 l ",
"h m r r -   G - o               w x     9.k.G.9 q ` C.qXGX! ~ M.T 9 N.D.P.1XL.~ h .   T # # 2 h ",
"l 2 = r $ s.a.p X $             2 3 >   g.wX9XM.^ E /.9XwXGXl 5 3 R ^ I.U.J.J.U.Z.+   5 O 2 x l ",
"h w 7 6 r f.a.G . @             2 @ O O O -XqX9XM.~.C.0XeXFX5 5 3 ~ h ] K.U.J.U.U.9     # 6 w.l ",
"h W 2 2 6 a.d.G $               & & > : > z.DXwX9XR.0XrXGXA 2 : h h q Y >.Z.K.J.H.q + O O 6 0 h ",
"K { X.{ | a.s.a.H             . @ @ : : > > iXqXDXwXwXBX .T > 0 h Y R Y ! ^ ;.C.K.9 > q * 5 6 h ",
"K O O O . H v.d.H             ( X.X.< , ; 2 2 c.BXVX$.$.FXr     2 # .           O > 9 ) # # x h ",
"q 2 w { { o.f.d.G             e.E.H.< ; : k.h.i CX,XVX<X,XVX# 3 ) 0 2 O           # K W 2 w i.h ",
"0 3 3 3 3 9.g.f.-             ; ; O + O k.y y i ,X$.= VXVXO     . .       .   *         3 C i.h ",
"q W.W.W.~. .g.d.H * .                     %.x.uXBXBX*     >   9 : > + + O . @ . # * r 6 x 3 e.h ",
"0 T ] >.] ~.] @ 3 Y.>.9 . . + >.N.N.| } n &.( '.!.I.G.S.S.[ | } } } } +./ (     .   . . O 2 r.h ",
"q W.E.Q.!.2.~.Y [ H.Q : T E.} ~.C.Z.R.R.Z.!.!.E.e.E.E.E.E.;.~ >.} { { { O.` ` . 2 ! ( ` W././.h ",
"h }.'.'.'.Q.Z.Q.Q.E.) q m.) ~.~.Z.} S.S.E.Q.W.W.E.>.y.E.U.W e.e.e.e.+.{ ) ) ` (   2 w.r.r.) 1.h ",
"q A A A A A V B B B B V V V C V N ;.2 B B m r M M M V t t N N e e w w 7 3 3 7 7 .   # 3 { w.i.Y ",
"q . X . . O . .       .   . . . @ # @ @ O @ + @ O @ ; : : O + + + O + + ; . . O         2 ! 5 Y ",
"R                                                                                         @ 2 Q ",
"l       z r g z Q g * g v v n g v g d g v d a 3 v d d g d d a d d a 4                       w W ",
"l n     z n 4 z n z z n g n z 5 b g X 4 a & d n v g g d d g v v v g a   d d u                 e ",
"! h W h Y h h h h Y h l h l l l l l l l l Y h h h Y h h h h h h h l l l l h h h R h h h h K Q ) "
};
