/* XPM */
static char *sunset_png[] = {
/* columns rows colors chars-per-pixel */
"32 16 169 2 ",
"   c #050300",
".  c #090601",
"X  c #0D0804",
"o  c #1E0E01",
"O  c #1E1001",
"+  c #1C130A",
"@  c #110F11",
"#  c #18141C",
"$  c #1E1819",
"%  c #1D1511",
"&  c #200F01",
"*  c #221101",
"=  c #26160B",
"-  c #221917",
";  c #30200F",
":  c #2F211E",
">  c #171720",
",  c #241F2B",
"<  c #1E2031",
"1  c #312424",
"2  c #27263F",
"3  c #372C32",
"4  c #382B33",
"5  c #3A2F39",
"6  c #3F3530",
"7  c #37303F",
"8  c #3A303C",
"9  c #423732",
"0  c #423A32",
"q  c #282744",
"w  c #352E43",
"e  c #36324E",
"r  c #262951",
"t  c #292E56",
"y  c #272E59",
"u  c #2F325C",
"i  c #33345C",
"p  c #3A395E",
"a  c #273060",
"s  c #2B3363",
"d  c #2A3369",
"f  c #333563",
"g  c #393661",
"h  c #373A67",
"j  c #3A3B66",
"k  c #313769",
"l  c #343A6D",
"z  c #3B3C6C",
"x  c #353C72",
"c  c #3D3F71",
"v  c #473D55",
"b  c #403F6D",
"n  c #3F4170",
"m  c #3B4379",
"M  c #4B4456",
"N  c #474161",
"B  c #42426E",
"V  c #504A6D",
"C  c #454371",
"Z  c #494774",
"A  c #4B4A76",
"S  c #40467B",
"D  c #444A7E",
"F  c #4F4D7A",
"G  c #524E79",
"H  c #54527B",
"J  c #625965",
"K  c #736B79",
"L  c #484F83",
"P  c #454D84",
"I  c #475081",
"U  c #4D5282",
"Y  c #47528A",
"T  c #4D558A",
"R  c #565880",
"E  c #50568C",
"W  c #515A8C",
"Q  c #4B5B9C",
"!  c #46569B",
"~  c #525E93",
"^  c #57608F",
"/  c #5B628E",
"(  c #4E629F",
")  c #556093",
"_  c #5B6397",
"`  c #5B6896",
"'  c #55659D",
"]  c #586599",
"[  c #57689D",
"{  c #5C6B9C",
"}  c #64678C",
"|  c #716D89",
" . c #74728E",
".. c #79768D",
"X. c #7E7A8E",
"o. c #6A6E94",
"O. c #616D9A",
"+. c #646A93",
"@. c #777591",
"#. c #797593",
"$. c #7E7A92",
"%. c #435CA5",
"&. c #4760A6",
"*. c #4E60A4",
"=. c #5266A4",
"-. c #5D69A3",
";. c #6F75A2",
":. c #7C7EA1",
">. c #827C8D",
",. c #827E94",
"<. c #867F98",
"1. c #977E95",
"2. c #87818D",
"3. c #8A828E",
"4. c #93858E",
"5. c #9C898E",
"6. c #868295",
"7. c #8A8493",
"8. c #8D8996",
"9. c #878299",
"0. c #898699",
"q. c #8E8999",
"w. c #948791",
"e. c #948993",
"r. c #9C8C93",
"t. c #958C9B",
"y. c #9C919B",
"u. c #A9878E",
"i. c #A18C8F",
"p. c #AC8E8B",
"a. c #B7928E",
"s. c #BB938A",
"d. c #A68E91",
"f. c #AA8F90",
"g. c #A19297",
"h. c #AA9194",
"j. c #A4939A",
"k. c #AB9699",
"l. c #B29290",
"z. c #BC9696",
"x. c #BD9995",
"c. c #B29699",
"v. c #B99599",
"b. c #B59A98",
"n. c #BE9999",
"m. c #9C89A0",
"M. c #B397A0",
"N. c #BFA6A6",
"B. c #C5938C",
"V. c #CA978A",
"C. c #CF9D8D",
"Z. c #D5988D",
"A. c #DC9C8B",
"S. c #C59692",
"D. c #C89A94",
"F. c #D39A92",
"G. c #DA9C92",
"H. c #E79F8D",
"J. c #EAA48C",
"K. c #E9A893",
"L. c #F3A990",
"P. c #F4B397",
"I. c #F4B194",
"U. c #F8B094",
"Y. c #C9ABA2",
"T. c #FDC099",
"R. c #F7C89F",
"E. c #FECB9E",
"W. c #FACB9E",
/* pixels */
"0 6 6 9 9 9 9 9 9 0 0 0 0 0 0 0 0 0 0 0 0 0 0 0 9 0 0 0 6 6 0 0 ",
"6 |  ...@.#.,.7.w.r.h.c.z.z.n.n.n.v.c.j.j.y.t.q.0.0.9.9.,.$.$.6 ",
"0 ..>.>.6.7.w.r.h.z.S.F.G.G.G.G.F.F.D.D.b.k.j.y.w.q.7.6.6.,.,.6 ",
"0 X.2.7.w.r.d.l.B.Z.H.L.U.P.P.P.K.K.A.F.D.n.k.j.g.r.w.7.6.6.7.0 ",
"0 >.3.4.i.f.a.V.A.G.v.m.Y.R.W.W.W.T.P.J.A.C.n.r.<.w.r.w.7.8.8.0 ",
"0 2.4.5.p.s.V.B.1.-.&.%.*.;.:.:.y.Y.N.M.S.u.#._ _ _ o.o. .,.,.9 ",
"0 X.4.5.5.4.$.{ ( ( ( Q Q Q Q Q ! Q =.=.' ~ ~ ) ) ) ) ) ^ ^ } 9 ",
"0 ` O.O.{ [ ' ' ) W T T E T U L L D S P Y T W W ~ ) ) ) ^ ^ } 0 ",
"0 +.o.o.O.] ~ U Z c c c z z z z z l c m m m m m D I L U U U R 0 ",
"0 >.>.X.| H A C B b B B z g f h h l x x x l l x x l x x l h h 0 ",
"0 K J M F H A n z z z z z l l l d l x x l k l l k k t < $ % - 0 ",
"0 ; * * : N F A C C z z z B B B z a a a a a a a a y @ .       0 ",
"0 * * * & = 4 v V H H G F A Z C C B z a a a a a a r .         9 ",
"0 * o o o o o o = 1 3 5 8 7 w w w e p h k a a a f u > . . . . 9 ",
"9 * o o & o O O * * * * * * O O O O + - , q u i i i i 2 # X . 0 ",
"0 6 6 9 9 9 9 9 9 0 0 0 0 0 0 0 0 0 0 0 0 0 0 0 9 0 0 0 6 6 0 0 "
};
