/* XPM */
static char *alban_png[] = {
/* columns rows colors chars-per-pixel */
"16 16 163 2 ",
"   c #000700",
".  c #010B00",
"X  c #0A0E00",
"o  c #1B0E00",
"O  c #001500",
"+  c #0B1701",
"@  c #061D01",
"#  c #081A00",
"$  c #101403",
"%  c #151B01",
"&  c #261A04",
"*  c #042200",
"=  c #0C2102",
"-  c #132205",
";  c #1D2704",
":  c #1B2905",
">  c #12260A",
",  c #152F0C",
"<  c #163303",
"1  c #1B3206",
"2  c #222605",
"3  c #2B2606",
"4  c #222C07",
"5  c #302104",
"6  c #362803",
"7  c #32230C",
"8  c #2A3F06",
"9  c #2D3609",
"0  c #223C0C",
"q  c #363E02",
"w  c #292D12",
"e  c #471703",
"r  c #411D0D",
"t  c #402806",
"y  c #43200E",
"u  c #4E240F",
"i  c #4C2B0E",
"p  c #52290D",
"a  c #4B2212",
"s  c #4C2F13",
"d  c #4E3010",
"f  c #4B3712",
"g  c #642D06",
"h  c #7E2805",
"j  c #69380D",
"k  c #254104",
"l  c #2C4907",
"z  c #27440A",
"x  c #2E4F0A",
"c  c #3B440B",
"v  c #3F4809",
"b  c #364B10",
"n  c #3B6207",
"m  c #454705",
"M  c #4E4F00",
"N  c #4A5F00",
"B  c #535703",
"V  c #595402",
"C  c #575A00",
"Z  c #5B5A00",
"A  c #7E4307",
"S  c #6D5519",
"D  c #476106",
"F  c #5B630D",
"G  c #636E06",
"H  c #697400",
"J  c #617804",
"K  c #617D0C",
"L  c #766017",
"P  c #6B6C20",
"I  c #9E1E05",
"U  c #B02A07",
"Y  c #D21F00",
"T  c #FE0E01",
"R  c #9C430B",
"E  c #8E5B08",
"W  c #AC480A",
"Q  c #B95E03",
"!  c #8A6F08",
"~  c #9A6809",
"^  c #94721B",
"/  c #B76303",
"(  c #BA6603",
")  c #B46904",
"_  c #9C712C",
"`  c #CA6306",
"'  c #FF6302",
"]  c #99784F",
"[  c #588D09",
"{  c #699C0F",
"}  c #8C880B",
"|  c #988801",
" . c #839E01",
".. c #869619",
"X. c #AB840F",
"o. c #8DB016",
"O. c #ACA50C",
"+. c #B3AF05",
"@. c #BDB00A",
"#. c #A8BC1D",
"$. c #849920",
"%. c #AF8F38",
"&. c #B1963F",
"*. c #D09328",
"=. c #D79D3A",
"-. c #D9A224",
";. c #DBAA29",
":. c #DABE2F",
">. c #CAA532",
",. c #C2A23D",
"<. c #C8A23D",
"1. c #DFAB31",
"2. c #D2AA3B",
"3. c #DAAC3C",
"4. c #DCB131",
"5. c #DDBA38",
"6. c #E2AE26",
"7. c #E9AF29",
"8. c #EEB425",
"9. c #E9BA2C",
"0. c #E2AE34",
"q. c #E7A93A",
"w. c #E2B536",
"e. c #E8B631",
"r. c #E5BE35",
"t. c #F1B437",
"y. c #B7CC0D",
"u. c #C2C208",
"i. c #F4CC1F",
"p. c #D9CB20",
"a. c #D9D625",
"s. c #CFC238",
"d. c #DED437",
"f. c #E3C13B",
"g. c #F0C030",
"h. c #F0C73B",
"j. c #8F8B44",
"k. c #978641",
"l. c #A78442",
"z. c #A58F43",
"x. c #BD9C4B",
"c. c #B3A34C",
"v. c #C39E46",
"b. c #CA9A45",
"n. c #DD9C40",
"m. c #CFAF40",
"M. c #CAA348",
"N. c #C4B24C",
"B. c #D7B345",
"V. c #D4BF42",
"C. c #D4B14B",
"Z. c #DCB148",
"A. c #CFBA51",
"S. c #C4B558",
"D. c #EBB940",
"F. c #E4B953",
"G. c #EDC144",
"H. c #E2C54F",
"J. c #EACC48",
"K. c #E8D241",
"L. c #EACB57",
"P. c #F1DE68",
"I. c #F2DA90",
/* pixels */
"d a a a i i d d d i i i a s y d ",
"y 3.J.H.D.9.q.V.G.f.L.G.V.A.] y ",
"r 5.& d.I.K.t.P.C.Z.;.=.F.,.c.r ",
"a W W :.G.w.6.h.B.S.c.b.<.k.N.s ",
"i # > 8 8.g.i.6.y.2.>.l.M.%.z.i ",
"u @ # 0 e.9.n.1.O.4.m.v.x.j._ u ",
"u O * 9 4.;.7.0.7 s.p.Z.$...G u ",
"d - O ; r.*.-.+.e 9 ' } D o.k d ",
"d @ @ ; Y U I @.p 3 T J [ { x d ",
"i O # 1 ` g R | t 5 w X v l z i ",
"i + # = / ( Q F c ; S j ) E , i ",
"i O = + ~ ^ &.H b 2 a.u.B K = i ",
"u O < -  .L % N : . #.P X.A n u ",
"a O @ # o M q N 4 $ ! 6 h Z % a ",
"s O O X @ # C m % +   : V + # s ",
"d a a a i i d d d i i i a s y d "
};
