/* XPM */
static char *aztec2_png[] = {
/* columns rows colors chars-per-pixel */
"16 16 159 2 ",
"   c #000002",
".  c #02000B",
"X  c #06070C",
"o  c #000410",
"O  c #000E19",
"+  c #221300",
"@  c #3C320E",
"#  c #29321D",
"$  c #031924",
"%  c #0D1E26",
"&  c #01152E",
"*  c #0C132D",
"=  c #111D29",
"-  c #112027",
";  c #17252E",
":  c #092636",
">  c #0C2038",
",  c #152036",
"<  c #182132",
"1  c #182837",
"2  c #12273A",
"3  c #18213E",
"4  c #1A293C",
"5  c #223136",
"6  c #20393E",
"7  c #411D0D",
"8  c #43200E",
"9  c #4E240F",
"0  c #4C2B0E",
"q  c #573706",
"w  c #4B2212",
"e  c #4C2F13",
"r  c #4E3010",
"t  c #294E1A",
"y  c #326B0D",
"u  c #1E492B",
"i  c #245224",
"p  c #275028",
"a  c #30552C",
"s  c #2C4E36",
"d  c #2B6228",
"f  c #3D6739",
"g  c #4A5E16",
"h  c #7C5900",
"j  c #1C2747",
"k  c #1A2A43",
"l  c #1B294C",
"z  c #1D305A",
"x  c #203145",
"c  c #2A3A47",
"v  c #22324B",
"b  c #2A3B4D",
"n  c #2D475E",
"m  c #3B535D",
"M  c #37585D",
"N  c #344C64",
"B  c #384D68",
"V  c #3E5A65",
"C  c #3E4B77",
"Z  c #42536F",
"A  c #445A68",
"S  c #445A71",
"D  c #4D5C71",
"F  c #43597E",
"G  c #48646F",
"H  c #456075",
"J  c #4E6A76",
"K  c #566E72",
"L  c #557276",
"P  c #52737C",
"I  c #8C7606",
"U  c #4F8523",
"Y  c #5D8F2E",
"T  c #659331",
"R  c #669642",
"E  c #629B4C",
"W  c #789545",
"Q  c #7AAD4E",
"!  c #7E9D62",
"~  c #79AB6C",
"^  c #7FB176",
"/  c #9D9701",
"(  c #A58308",
")  c #B58D11",
"_  c #AF9910",
"`  c #A5951B",
"'  c #BDA016",
"]  c #B6A21D",
"[  c #AFB412",
"{  c #BEB210",
"}  c #9CAF39",
"|  c #BCA62F",
" . c #B6B024",
".. c #C19913",
"X. c #C0A726",
"o. c #C3B725",
"O. c #BFDD19",
"+. c #D0C132",
"@. c #C9E63C",
"#. c #8FB455",
"$. c #80AF6B",
"%. c #8FBB6E",
"&. c #92B679",
"*. c #92BA7C",
"=. c #C2B944",
"-. c #BFC25B",
";. c #BAE146",
":. c #BFCB79",
">. c #C3C154",
",. c #D7D155",
"<. c #DAD752",
"1. c #DEE15C",
"2. c #E0F848",
"3. c #E5E458",
"4. c #D3CC61",
"5. c #567081",
"6. c #587283",
"7. c #667882",
"8. c #85B48A",
"9. c #8AB79A",
"0. c #98ABB2",
"q. c #93ADBE",
"w. c #97B5B5",
"e. c #99B0BE",
"r. c #A2B4B8",
"t. c #A3BBBD",
"y. c #A8BBBF",
"u. c #C9D38C",
"i. c #E2EC93",
"p. c #F2EB9D",
"a. c #E4F0A6",
"s. c #FDFBA6",
"d. c #9DAFC3",
"f. c #98AEC5",
"g. c #A1BAC1",
"h. c #A8BBC2",
"j. c #A7B3C9",
"k. c #B1C6C9",
"l. c #B4CDC9",
"z. c #CAC4C6",
"x. c #CFDDDE",
"c. c #DEDFDA",
"v. c #DBE3D8",
"b. c #F6F9CE",
"n. c #E5E3D4",
"m. c #EBE2D1",
"M. c #E0E2DF",
"N. c #E4EBDB",
"B. c #E8E4E3",
"V. c #ECEEE0",
"C. c #E5E9E8",
"Z. c #EEF0E2",
"A. c #F5F3E6",
"S. c #F5F6EE",
"D. c #F3F3F1",
"F. c #F8F6F7",
"G. c #F4F9F3",
"H. c #F9FAF4",
"J. c #FEFEFE",
/* pixels */
"r w w w 0 0 r r r 0 0 0 w e 8 r ",
"8 b w.j.r.h.t.l.S C 7.P 6.H V 8 ",
"7 1 k v 6 x x z v K F 5.D L A 7 ",
"w < , j < ; 4 n G J Z M N z.J.e ",
"0 - > 3 , 5 B C M m C.F.N.H.J.0 ",
"9 , % = f.f.e.h.k.c.H.S.G.D.J.9 ",
"9 c b 2 0.y.q.e.g.B.M.H.x.J.J.9 ",
"r V.A.n.$ O & O $ : o o O O * r ",
"r v.Z.  s u m.f p t R Y ~ #.Q r ",
"0 v.C.l i 7 p.# d y T $.^ 9.! 0 ",
"0 :.u.} a + a.q @ g U E 8.*.%.0 ",
"0 ;.@.O.2.h | ] +.<.>.` I W &.0 ",
"9   . . .     ( ,.s.3.{ -.o.[ 9 ",
"w   .           ..' 1.b.i. .4.w ",
"e . . .           . ) =.X._ / e ",
"r w w w 0 0 r r r 0 0 0 e e 8 r "
};
