/* XPM */
static char *back_png[] = {
/* columns rows colors chars-per-pixel */
"16 16 7 1 ",
"  c #9C7332",
". c #956B2C",
"X c #8A6528",
"o c #805D26",
"O c #7A5722",
"+ c #725222",
"@ c #6D4D20",
/* pixels */
".X.     .     .O",
"..XXOoX...XX..oo",
"X...X.XooooXX..O",
"O++OO+@@++@+@@+@",
". o    o   .XXo.",
"X..XoXoOoXX....X",
"ooX.XXXO...XXooo",
"@@++O+@@@@+++O+@",
".  .XX   .    .o",
".X....XoooXoXooO",
" .XXooooXXXXoo.o",
"@@+OO+@@@+O++@@@",
" ..  ..o   X .  ",
"XX..ooXoo....XXX",
"XooX.XoO..Xooooo",
"@++@@+OOO+@+@@@@"
};
