/* XPM */
static char *baroque_png[] = {
/* columns rows colors chars-per-pixel */
"32 32 213 2 ",
"   c #120C12",
".  c #140D13",
"X  c #1A0C1A",
"o  c #1A0D1A",
"O  c #1C1217",
"+  c #1F1418",
"@  c #3D170B",
"#  c #371B0F",
"$  c #3D180B",
"%  c #3E190C",
"&  c #3F1A0C",
"*  c #23171A",
"=  c #20101D",
"-  c #21101E",
";  c #26151E",
":  c #25181A",
">  c #271A1A",
",  c #28181A",
"<  c #281A1B",
"1  c #291B1B",
"2  c #2A1B1B",
"3  c #2A1C1B",
"4  c #2C1D1B",
"5  c #2D1D1B",
"6  c #2E1D1B",
"7  c #2D1E1D",
"8  c #33221E",
"9  c #3A241F",
"0  c #352329",
"q  c #35212E",
"w  c #3B2529",
"e  c #3E2731",
"r  c #2E3832",
"t  c #411D0D",
"y  c #43200E",
"u  c #4E230E",
"i  c #4B270C",
"p  c #4C270C",
"a  c #4E240F",
"s  c #4C280C",
"d  c #4C290D",
"f  c #4C2A0E",
"g  c #4C2B0E",
"h  c #4D2C0E",
"j  c #4D2D0E",
"k  c #4E2E0F",
"l  c #4E2F0F",
"z  c #402214",
"x  c #4A2010",
"c  c #4A2011",
"v  c #4A2111",
"b  c #4A2212",
"n  c #4B2212",
"m  c #4B2312",
"M  c #4B2412",
"N  c #4C2413",
"B  c #4C2513",
"V  c #4C2614",
"C  c #4C2714",
"Z  c #4A2B10",
"A  c #4B2A12",
"S  c #4B2B12",
"D  c #4F2811",
"F  c #4B2C12",
"G  c #4B2E12",
"H  c #4C2F13",
"J  c #4D2815",
"K  c #4D2915",
"L  c #47251D",
"P  c #4A3310",
"I  c #4E3010",
"U  c #4A3411",
"Y  c #4A3412",
"T  c #4B3512",
"R  c #4B3612",
"E  c #4B3712",
"W  c #4C3713",
"Q  c #4D3A15",
"!  c #70351C",
"~  c #74371D",
"^  c #7B3B1D",
"/  c #492B24",
"(  c #42282F",
")  c #522D25",
"_  c #512F27",
"`  c #572F26",
"'  c #54312A",
"]  c #5F342B",
"[  c #5B342C",
"{  c #40283A",
"}  c #4A3134",
"|  c #4E3334",
" . c #4F3438",
".. c #573432",
"X. c #583535",
"o. c #533539",
"O. c #5B3A3D",
"+. c #5C3B3D",
"@. c #60352C",
"#. c #693B31",
"$. c #6A3B30",
"%. c #6E3D33",
"&. c #6C3E34",
"*. c #733930",
"=. c #723F35",
"-. c #753F34",
";. c #38453D",
":. c #394C3A",
">. c #3D5A34",
",. c #45433C",
"<. c #434B3A",
"1. c #73412C",
"2. c #66413F",
"3. c #6D4339",
"4. c #784236",
"5. c #784336",
"6. c #7E4136",
"7. c #764B39",
"8. c #774B3D",
"9. c #497238",
"0. c #4D793A",
"q. c #567537",
"w. c #6B7D3A",
"e. c #5D3D44",
"r. c #673B43",
"t. c #555A4B",
"y. c #6D4546",
"u. c #744344",
"i. c #754C4F",
"p. c #625A48",
"a. c #7A5A49",
"s. c #5B7E49",
"d. c #67614C",
"f. c #7D6447",
"g. c #6A6550",
"h. c #6A6155",
"j. c #6F6852",
"k. c #736F58",
"l. c #736860",
"z. c #813C1B",
"x. c #873F1B",
"c. c #CC2B34",
"v. c #E83535",
"b. c #8B411B",
"n. c #954820",
"m. c #864C30",
"M. c #8B463A",
"N. c #82483B",
"B. c #83493B",
"V. c #884C3F",
"C. c #924F3E",
"Z. c #8B513E",
"A. c #B85D27",
"S. c #D57D19",
"D. c #974D40",
"F. c #825240",
"G. c #905041",
"H. c #925041",
"J. c #925841",
"K. c #905C47",
"L. c #985E43",
"P. c #9F5949",
"I. c #A55547",
"U. c #A95246",
"Y. c #AB5246",
"T. c #9F6547",
"R. c #816C5B",
"E. c #837554",
"W. c #847A5B",
"Q. c #867D5F",
"!. c #8A7E5A",
"~. c #AD6F46",
"^. c #A86E4A",
"/. c #B57D42",
"(. c #A67A5C",
"). c #896B67",
"_. c #8D7462",
"`. c #90736F",
"'. c #957D6A",
"]. c #817375",
"[. c #857E75",
"{. c #F0735A",
"}. c #568A3C",
"|. c #61833B",
" X c #E0951F",
".X c #E19A1F",
"XX c #E08621",
"oX c #EB9F20",
"OX c #E9B220",
"+X c #E8BC20",
"@X c #EECA22",
"#X c #EBCE21",
"$X c #EDD622",
"%X c #F1E624",
"&X c #A28E5E",
"*X c #B98053",
"=X c #8D8564",
"-X c #B19860",
";X c #B4A36B",
":X c #BCA56B",
">X c #BBA371",
",X c #BDAE74",
"<X c #C4AC72",
"1X c #C4B479",
"2X c #9B9180",
"3X c #B0A38C",
"4X c #D0BCA1",
"5X c #D7C185",
"6X c #D4C589",
"7X c #CCC6AB",
"8X c #E1D6B9",
"9X c #F5D9BC",
"0X c #F5E6C6",
/* pixels */
"Y j K y y x x j j j Y Y Y Y p p p p p p p p j K Y Y Y @ % x Y j ",
"Y O X X   X                                                   x ",
"x - -   X - X   X               X                       X     K ",
"% O O X - - X X O           X - X X                   X X X   y ",
"x O O O - X X O         X - - X X                   X - X X X t ",
"x O O O - O O O O     - - - X X X         O O     - - X X - - t ",
"x O O O : - O O     O - O - - X 0 r.I.Y.I.D.G.e.w O O - - - O # ",
"x : O : < : : O O O O O O O X   I.I.=.L 8 8 8 @.B.O - - - - O z ",
"K : : < < < : : O O O O O -     B.D.=.[ ) / ) 5.B.< : - - O : K ",
"K : < < < < < : O - O O O     O e.M.M.D.I.I.D.u.| < : O O : : j ",
"K < < 8 < < < O - O O O O O O O 0 e.B.5.5.$.| | O.0 O O : : < j ",
"j < 8 8 8 < < : O O O O O < 0 e.$.$.$.[ [ ' |  .O.i.0 < : : 8 p ",
"Y 8 8 8 < < < O O O O O : { P.I.Y.Y.V.=.$. .o.y.y.y.e.0 < 8 8 p ",
"Y 8 8 8 8 8 : - O O : : 0 e.B.G.G.P.P.I.P.B.y.y.O.O.7.3.p.j.>Xp ",
"Y 8 8 8 8 < < < < : < < 0 *X*X^.Z.B.B.G.P.y.O.O.F.7.2.3.W.5X6XY ",
"Y 8 8 8 8 8 8 8 8 8 < 9 e *XC.T.*X*X*XK.i.y.F.3.2.O.O...=X1X1XY ",
"j 8 8 8 8 e.7X0X0X9X4X3X( 5.M.B.B.B.L.*XZ.i.7.O.O.) O...W.;X-XY ",
"j 8 8 e.7X0X9X{.v.0Xv.0X3X[.5.M.) M.M.*XT.K.3...O.9 ) ..k.!.-XY ",
"j 8 8 7X0Xv.9Xv.v.7X0X9Xc.].[.$.) B.B.B.i.i.e.X.) 8 9 X.k.k.!.j ",
"j 8 8 7X8X0X0X7X7X8Xc.0X3X[.].) ) $.) B.B.i./.+X%X+X%X/.l.k.k.j ",
"j 8 k.~.7X8Xv.0X9X8X7X3X[.].a.) ) ) ) $.i./.+X#X XS.+X%X'.k.k.j ",
"j >X6XA.~.7X7X7X3X2X[.[.a.[.! 0.}.9.) $.B.+X%XXXS.XXXXOX X'.k.j ",
"Y 5X6Xx.A.(.[.[.m.[.a.1.! 1.! }.9.) $.}.>.%X+XoXXXXX.X#X/./.l.j ",
"Y 6X<Xf.b.n.n.^ ! 7.q.9.! ! k.s.>.}.9.>.;.+X$XOX$XOX+X X'.).k.j ",
"Y <X-Xk.k.f.x.! ! ! }.}.>.<.>.>.,.r r :.t.'.+X X+X X'./.).d.k.j ",
"K -X-X!.w.|.}.}.9.>.:.}.,.r r ;.t.j.t.r ;.t.k.'./.'.`._.d.k.k.p ",
"K &X!.!.>.>.;.,.r r :.>.r t.k.j.j.k.k.k.l.k.l.k.j.j.d.h.h.h.k.x ",
"K !.&X-X-X!.k.k.k.t.t.;.;.j.j.!.!.!.k.l.k.!.!.!.k.k.l.l.j.j.l.x ",
"x -X-X-X;X;X,X,X;X&X!.E.j.k.!.!.!.&X&X-X-X-X,X,X-X&XE.j.l.k.!.x ",
"x -X;X,X,X,X:X-X&XE.R.!.!.!.&X-X-X-X-X:X,X,X:X&XE.E.!.&X;X;X-XK ",
"Q :X,X-X!.!.E.R.E.&X-X-X-X;X;X-X;X,X,X;X&X!.!.E.&X-X-X;X;X-X-Xj ",
"j % % x x x x x x j j j j Y Y Y Y Y j j j j j j x x K K y y Q Y "
};
