/* XPM */
static char *bomb_png[] = {
/* columns rows colors chars-per-pixel */
"16 16 180 2 ",
"   c #05140D",
".  c #0E1A0E",
"X  c #1D2A00",
"o  c #263109",
"O  c #411D0D",
"+  c #600E00",
"@  c #43200E",
"#  c #4E240F",
"$  c #4C2B0E",
"%  c #4B2212",
"&  c #4C2F13",
"*  c #4E3010",
"=  c #6B2E2D",
"-  c #244510",
";  c #5B6F0C",
":  c #576532",
">  c #537D3D",
",  c #802F00",
"<  c #883E17",
"1  c #960E36",
"2  c #834300",
"3  c #884B0C",
"4  c #894F1D",
"5  c #A67205",
"6  c #A3651C",
"7  c #A57012",
"8  c #B87411",
"9  c #BF5A22",
"0  c #CE7521",
"q  c #E0773D",
"w  c #708E0C",
"e  c #BE830F",
"r  c #B08012",
"t  c #AE9217",
"y  c #BB9118",
"u  c #988634",
"i  c #819A3C",
"p  c #A49B32",
"a  c #B1A421",
"s  c #B7B022",
"d  c #BEA032",
"f  c #D1BC0B",
"g  c #C2A211",
"h  c #DC8E21",
"j  c #DE8831",
"k  c #C3B53A",
"l  c #D1B23D",
"z  c #DAB439",
"x  c #D3BF3A",
"c  c #E4B22B",
"v  c #DFD22E",
"b  c #DAC035",
"n  c #D4CD36",
"m  c #D2C43D",
"M  c #DDC13C",
"N  c #D8CE3B",
"B  c #E5D537",
"V  c #B09E48",
"C  c #B9BC61",
"Z  c #AEBF78",
"A  c #D99D5E",
"S  c #E7865C",
"D  c #E99453",
"F  c #D4A442",
"G  c #C9BD45",
"H  c #DABE41",
"J  c #DEB74E",
"K  c #DEBD4C",
"L  c #DDAE5E",
"P  c #C7B853",
"I  c #C3BA5B",
"U  c #CAB95D",
"Y  c #E1B44F",
"T  c #E5A05F",
"R  c #D0B56E",
"E  c #C5C94E",
"W  c #DEC544",
"Q  c #D9CC40",
"!  c #DCC949",
"~  c #C8C053",
"^  c #D2C656",
"/  c #DDD15B",
"(  c #E9D74D",
")  c #E8C456",
"_  c #E0DD5C",
"`  c #CCC168",
"'  c #CDC96E",
"]  c #D8C163",
"[  c #D8CB65",
"{  c #E2CB63",
"}  c #EAD666",
"|  c #ECDB73",
" . c #E7E27E",
".. c #7D9DB2",
"X. c #958E84",
"o. c #9EB195",
"O. c #92B49C",
"+. c #859CA4",
"@. c #94A2A5",
"#. c #8DB4A2",
"$. c #83B0B3",
"%. c #ADADA1",
"&. c #A9B3AA",
"*. c #A6B8AC",
"=. c #B1BBA3",
"-. c #BFC693",
";. c #BEC99E",
":. c #BECAA6",
">. c #B5C8AC",
",. c #B1D0A6",
"<. c #B9CDB2",
"1. c #BAC8BB",
"2. c #C8CE88",
"3. c #D9C48B",
"4. c #D7D082",
"5. c #C5CD94",
"6. c #E5CE8A",
"7. c #EAD093",
"8. c #EBDD92",
"9. c #E4D09D",
"0. c #C6C5A7",
"q. c #D6CFA5",
"w. c #CDDEA7",
"e. c #CBD6AC",
"r. c #CADCA8",
"t. c #D5DEAF",
"y. c #C0D3B3",
"u. c #CFD6B4",
"i. c #D3DEB6",
"p. c #D8D7B8",
"a. c #D3DAB8",
"s. c #E3D5A6",
"d. c #E9D3A4",
"f. c #D3E5A7",
"g. c #D7E7B6",
"h. c #DBE3B0",
"j. c #DEE7B8",
"k. c #FDFFAC",
"l. c #E1E6BE",
"z. c #EDE1B9",
"x. c #E6ECBC",
"c. c #EEEABA",
"v. c #C4C2C3",
"b. c #C9DBC5",
"n. c #CED3CD",
"m. c #D3D7C0",
"M. c #D4DFC1",
"N. c #D2D5CA",
"B. c #D7DAC9",
"V. c #DADBCB",
"C. c #D1D5D4",
"Z. c #DBE2C3",
"A. c #D2E1CC",
"S. c #D8E0CB",
"D. c #DAEFDC",
"F. c #E2E7C9",
"G. c #E5ECCA",
"H. c #F2F5C6",
"J. c #F7FACD",
"K. c #E1E4D3",
"L. c #E6ECD0",
"P. c #E2E5DA",
"I. c #E7E9DE",
"U. c #EAECDF",
"Y. c #ECF1D1",
"T. c #D8DBE4",
"R. c #D6E4E5",
"E. c #DCE1E7",
"W. c #DFEDE0",
"Q. c #E2E3E5",
"!. c #E2E2EC",
"~. c gray92",
"^. c #F0EEEF",
"/. c #E6F5E0",
"(. c #F4F9E3",
"). c #F1F4EB",
"_. c #F6F8EB",
"`. c #FDFFEA",
"'. c #F3F2F8",
"]. c #FEFEFE",
/* pixels */
"* % % % $ $ * * * $ $ $ % & @ * ",
"@ ].!.E.U.P.~.D.w.Z.K.S.Q.B.^.@ ",
"O Q.T./.I.I.'.).e.t.q.m.J.z.Z.O ",
"% b.S.Z.L.U.].(.`.Y.I.F.H.a.N.& ",
"$ $.#.1.y.a.j.Z.G.x.Y.V.g.M.v.$ ",
"# ..O.*.<.u.A.M.g.W.i.n.d.q A # ",
"# +.o.>.:.B.f.a.g.h.p.T S L 0.# ",
"* @.&.=.,.-.e h j c k ` C _.(.* ",
"* { 6 1 3.6.x 7.0 4.W k.C.r. .* ",
"$ y 8 , | 9.4 W 9 l v = 8.5.> $ ",
"$ 7 r < ( P 2 K + H ! u %.;.V $ ",
"$ d ) Y D [ x ` R F t X.c.i Z $ ",
"# N x W M z Q ] } _ 3 R.:   - # ",
"% n B G / f ^ m s s.l.' o X . % ",
"& 5 g E I U ~ J b p 2.a w ; p & ",
"* % % % $ $ * * * $ $ $ & & @ * "
};
