/* XPM */
static char *courbet_png[] = {
/* columns rows colors chars-per-pixel */
"32 16 205 2 ",
"   c #0C0002",
".  c #160A04",
"X  c #190D06",
"o  c #191206",
"O  c #0C0111",
"+  c #111113",
"@  c #0E210D",
"#  c #1B122F",
"$  c #191935",
"%  c #2B1836",
"&  c #1C242F",
"*  c #1D2434",
"=  c #27222B",
"-  c #34252C",
";  c #363024",
":  c #2B2A32",
">  c #3E2F34",
",  c #303730",
"<  c #4B3800",
"1  c #4D3A10",
"2  c #472C23",
"3  c #433421",
"4  c #422B3B",
"5  c #48323F",
"6  c #50553E",
"7  c #474E36",
"8  c #615527",
"9  c #58703C",
"0  c #192853",
"q  c #392D41",
"w  c #3A3B43",
"e  c #323859",
"r  c #4F3F49",
"t  c #413B55",
"y  c #483F6A",
"u  c #47484D",
"i  c #52484A",
"p  c #4C4354",
"a  c #515055",
"s  c #61574C",
"d  c #685654",
"f  c #556250",
"g  c #6C6C48",
"h  c #6A6E5F",
"j  c #686555",
"k  c #766C5A",
"l  c #647C58",
"z  c #5C5167",
"x  c #5D5F76",
"c  c #444466",
"v  c #625068",
"b  c #6B5D74",
"n  c #666364",
"m  c #6A6061",
"M  c #726D67",
"N  c #696176",
"B  c #697679",
"V  c #7C7D76",
"C  c #7E747F",
"Z  c #835D54",
"A  c #855D7F",
"S  c #817B63",
"D  c #877879",
"F  c #8D876D",
"G  c #938169",
"H  c #868479",
"J  c #91827F",
"K  c #989478",
"L  c #A48E77",
"P  c #A7AB79",
"I  c #5A6E93",
"U  c #64638D",
"Y  c #75768A",
"T  c #7179A0",
"R  c #857D87",
"E  c #8A8A89",
"W  c #9A8985",
"Q  c #958987",
"!  c #9B9B81",
"~  c #9A8F99",
"^  c #9D9393",
"/  c #9C9D98",
"(  c #A39186",
")  c #A89A96",
"_  c #B59E98",
"`  c #9EA489",
"'  c #A3A586",
"]  c #AAAB8C",
"[  c #A9A08F",
"{  c #B1AF88",
"}  c #A8A59A",
"|  c #B7A798",
" . c #B8A796",
".. c #B6B893",
"X. c #8B94A6",
"o. c #AC9BA2",
"O. c #A69CBE",
"+. c #97A4B5",
"@. c #A6A1AC",
"#. c #BFA7A7",
"$. c #B5ABAC",
"%. c #B5A8A8",
"&. c #ADB2AB",
"*. c #B7B7AF",
"=. c #BBB9AA",
"-. c #B6B6A5",
";. c #B6A5B5",
":. c #B6AEBA",
">. c #BBB4B6",
",. c #B7B6B7",
"<. c #ACA5B5",
"1. c #C1B59D",
"2. c #C2B8A7",
"3. c #DBBBAC",
"4. c #C2BCB9",
"5. c #C6B6B5",
"6. c #BEC1AB",
"7. c #B6C5AE",
"8. c #CAC5AA",
"9. c #C9D0AF",
"0. c #CBC3B4",
"q. c #CCCBB0",
"w. c #CAC4B9",
"e. c #D6CEBE",
"r. c #D8C5B6",
"t. c #CAD5B8",
"y. c #D1D2BB",
"u. c #DBD3BD",
"i. c #D5D9B8",
"p. c #E1D5BD",
"a. c #E3E1BD",
"s. c #FFE6BE",
"d. c #B9B7C4",
"f. c #A6A6C2",
"g. c #C7BCC2",
"h. c #CABDC3",
"j. c #C0BFCD",
"k. c #C3C3C4",
"l. c #CCC5C6",
"z. c #CCCDC4",
"x. c #C4C9CB",
"c. c #CACFCB",
"v. c #C7C7CB",
"b. c #D3C3C3",
"n. c #D2CCC6",
"m. c #DACDC1",
"M. c #D6C6CE",
"N. c #D5CBCC",
"B. c #CDD2C8",
"V. c #D3D3C4",
"C. c #DBD1C4",
"Z. c #D4DAC3",
"A. c #D5D3CA",
"S. c #DCD4CB",
"D. c #DCDCCA",
"F. c #CDC2D3",
"G. c #D4CCD4",
"H. c #D9CED2",
"J. c #DCCDDA",
"K. c #D5C8D8",
"L. c #C9D4D0",
"P. c #D4D3D2",
"I. c #DBD3D3",
"U. c #D5DBD2",
"Y. c #DED1DB",
"T. c #DCDCDA",
"R. c #DAD9D5",
"E. c #E4DCCC",
"W. c #E8DDC7",
"Q. c #E4DBD4",
"!. c #E7DDDB",
"~. c #E8DBD8",
"^. c #DFE2CF",
"/. c #E5E2CB",
"(. c #E8E5C8",
"). c #E6E9D5",
"_. c #ECEDD7",
"`. c #ECECDA",
"'. c #E2E3D4",
"]. c #F2E6DD",
"[. c #F3EBDD",
"{. c #F8F5DA",
"}. c #C4C8E1",
"|. c #D4CFE3",
" X c #DFDAE4",
".X c #D7D8E3",
"XX c #E5DAE5",
"oX c #F1DFEB",
"OX c #E0DDF0",
"+X c #DCE2E0",
"@X c #EDE4E2",
"#X c #ECECE3",
"$X c #E3E6E6",
"%X c #F3EBEB",
"&X c #FAECEC",
"*X c #F5E9E4",
"=X c #EEF1E8",
"-X c #F7F3E6",
";X c #FBFAE6",
":X c #FEF7EF",
">X c #FEFFEF",
",X c #F9F2E8",
"<X c #EBE6F3",
"1X c white",
"2X c #F9F4F3",
/* pixels */
"o . . X X X X X X X X X X o o o o o X X X X X X X X X X . . o o ",
". q.r.0.N.I.e.H.x ! ~.@X_.[.&X{.[.*X{.[.&X;X>X@XoXQ.~.'./.n.T.. ",
"X L.W.C.8.E.Y.N.y 7 Q.E.S.i._.@X&X@X,X;X-X`.,.b t (.XXQ.a.P.p.. ",
"X t.m.Y.!.0 r @.e :.s./.i.J.@X(.:X`.,X2X[.=X1X0.M.<.& l.y.u.C.X ",
"X T.F.S.g.c h.Y / $X#XZ.q.%XG.`.].).@X].].$.].( B ,.R 6.+XV.a.o ",
"X =.Y.D.Q.X.XXi g >.)...%.K C.D.OX#X[.%XI.%X8.q O.%X~ r.V.N.R.X ",
"o U.i.} I..Xt.p H # <XF t.+X|.$XH.!.%X#X-X2X X+.n ~ $ ( V.Z.e.X ",
"o P.0.V Z u.w 4 j H <X_ l.1 9.T.K.E._.<X!.XXs -.O = @...8.` 3 o ",
"X ^.M.6 b E }.w w.Q.E S.% 5 N v R ) H G S } o.h.+ C > b M j V o ",
"X ' M.i * h z ^ x.m.2X&.m >.J ^ K D } 8 - |.0.OXa u & 7 n z f X ",
"X = D.l s 7.V.!.;.b.Q 0.$Xl.l.l.0.n.g. .L.o.o.x.` ( } ; 2 B x.X ",
"o *.8.0.d.y. X[ i.V.D $.Z.G.V.y.c.b.t./.i.1.I.c.u.R.i. .%.{ l.X ",
"X ) $.K.5.e.8.S.z.D.;.t.W f.2.z.z.H.J.L.Z.Z.E .XT.r.-.h.:.$.0.X ",
"X k A 6.P   8 W 2.| P.' u *.4.=.^ G.Q..XI.I.E ] P.G.| -.$.F m.X ",
"X k @ ) ,.h < : d.L e #.k.3.I U , 9 ] g.U.b.d -.T X.j.4.k.4.5.o ",
"o . . X X X X X X X X X X o o o o o X X X X X X X X X X . . o o "
};
