/* XPM */
static char *fern_png[] = {
/* columns rows colors chars-per-pixel */
"48 48 240 2 ",
"   c #0C0905",
".  c #0E0D0B",
"X  c #070502",
"o  c #150B05",
"O  c #1C0D05",
"+  c #120E0B",
"@  c #180E08",
"#  c #0F110D",
"$  c #14130D",
"%  c #1B140C",
"&  c #1C1B0D",
"*  c #181306",
"=  c #151411",
"-  c #1A1612",
";  c #1D1A14",
":  c #1C1E1B",
">  c #161815",
",  c #210F05",
"<  c #2B0F04",
"1  c #221007",
"2  c #24140B",
"3  c #221D0E",
"4  c #2A1709",
"5  c #341A0B",
"6  c #3D1D0D",
"7  c #361601",
"8  c #221D14",
"9  c #231E1A",
"0  c #261812",
"q  c #3E1F10",
"w  c #311D13",
"e  c #1D211C",
"r  c #24220C",
"t  c #2E290D",
"y  c #3E230D",
"u  c #3D2B0E",
"i  c #242114",
"p  c #2A2514",
"a  c #24221C",
"s  c #2B241C",
"d  c #2D2C1C",
"f  c #2C2A16",
"g  c #3E2211",
"h  c #322A1D",
"j  c #3B2B1D",
"k  c #352817",
"l  c #2E311C",
"z  c #353312",
"x  c #35331D",
"c  c #3A3517",
"v  c #3C340D",
"b  c #1E1F22",
"n  c #1F2426",
"m  c #242523",
"M  c #2A2622",
"N  c #262925",
"B  c #2C2A23",
"V  c #23262A",
"C  c #25292C",
"Z  c #2D2D2B",
"A  c #292728",
"S  c #342C24",
"D  c #332F2B",
"F  c #382E25",
"G  c #2D312B",
"H  c #313324",
"J  c #3C3225",
"K  c #34322D",
"L  c #3C342C",
"P  c #393B29",
"I  c #2B2D31",
"U  c #272D34",
"Y  c #2E3133",
"T  c #333232",
"R  c #3B3631",
"E  c #333B3B",
"W  c #3A3B34",
"Q  c #43230E",
"!  c #452B13",
"~  c #4B2B15",
"^  c #462715",
"/  c #453818",
"(  c #54351C",
")  c #5A371A",
"_  c #4E3111",
"`  c #673817",
"'  c #743B14",
"]  c #793D13",
"[  c #753D19",
"{  c #75390F",
"}  c #40372D",
"|  c #41362E",
" . c #41382E",
".. c #423A2E",
"X. c #473722",
"o. c #573A26",
"O. c #423A30",
"+. c #443B31",
"@. c #443B32",
"#. c #453A33",
"$. c #452923",
"%. c #653E23",
"&. c #3A443A",
"*. c #3D422F",
"=. c #4B4719",
"-. c #564A1E",
";. c #5D5B19",
":. c #7D4116",
">. c #76421C",
",. c #7C431A",
"<. c #7C491E",
"1. c #615E1D",
"2. c #69471B",
"3. c #72691F",
"4. c #6C651D",
"5. c #4A4426",
"6. c #564825",
"7. c #5B582B",
"8. c #4A433A",
"9. c #474839",
"0. c #564938",
"q. c #4C533C",
"w. c #595336",
"e. c #6A4628",
"r. c #7B4B23",
"t. c #744B2B",
"y. c #7D4D2A",
"u. c #764724",
"i. c #685C27",
"p. c #7A532A",
"a. c #684B36",
"s. c #734D33",
"d. c #69553A",
"f. c #7B5433",
"g. c #785637",
"h. c #776C2D",
"j. c #313B43",
"k. c #3B4343",
"l. c #3D4748",
"z. c #3C4650",
"x. c #484A45",
"c. c #564E44",
"v. c #4A5449",
"b. c #585748",
"n. c #4C5855",
"m. c #555A58",
"M. c #444D58",
"N. c #655849",
"B. c #735647",
"V. c #645B53",
"C. c #5C6557",
"Z. c #5D624A",
"A. c #676649",
"S. c #686758",
"D. c #756859",
"F. c #787557",
"G. c #766E4E",
"H. c #525D65",
"J. c #596466",
"K. c #676B65",
"L. c #6A7668",
"P. c #7C7465",
"I. c #767869",
"U. c #687276",
"Y. c #777B77",
"T. c #6C6B68",
"R. c #C3110F",
"E. c #C51311",
"W. c #C81413",
"Q. c #C00D0C",
"!. c #834315",
"~. c #82461A",
"^. c #854A1D",
"/. c #86541F",
"(. c #9D6A17",
"). c #834D24",
"_. c #864C28",
"`. c #84522B",
"'. c #8A532A",
"]. c #8C5A2C",
"[. c #875528",
"{. c #8A5933",
"}. c #835C39",
"|. c #855937",
" X c #935B2B",
".X c #8C6239",
"XX c #926738",
"oX c #936C2F",
"OX c #A17021",
"+X c #A25F1B",
"@X c #C5540B",
"#X c #C9590D",
"$X c #8C714E",
"%X c #A47C4B",
"&X c #827464",
"*X c #867B6B",
"=X c #817C73",
"-X c #7D8272",
";X c #A09223",
":X c #C2A40A",
">X c #C6AB0C",
",X c #CAB10E",
"<X c #CCB215",
"1X c #8B8555",
"2X c #8D826F",
"3X c #938669",
"4X c #898576",
"5X c #968A7A",
"6X c #9A9279",
"7X c #90916C",
"8X c #AA997D",
"9X c #8A8A84",
"0X c #948C82",
"qX c #9A8E80",
"wX c #9D9589",
"eX c #9A9387",
"rX c #9E9E9A",
"tX c #A29684",
"yX c #A69B88",
"uX c #A69D93",
"iX c #B09D8A",
"pX c #9FA092",
"aX c #AAA28D",
"sX c #ABA394",
"dX c #ACA69A",
"fX c #B4AA9B",
"gX c #B6A895",
"hX c #BBA58E",
"jX c #B4ACA2",
"kX c #BBB2A4",
"lX c #BAB2A7",
"zX c #AEAAA3",
"xX c #C3B28C",
"cX c #C1B09B",
"vX c #C5B8A8",
"bX c #C6BDB2",
"nX c #CDC3B4",
"mX c #CFC7B8",
"MX c #D0C6B6",
"NX c #CDC0AF",
/* pixels */
"^ y 6 y y y y ^ y y y u u u u y y y y y y y Q y y y y u u u u u u u u y y y y y y y y q g q g ^ ",
"q C V C I C C K K K K K D D C D D K K L S L S L L  .O. . . . . . .L  .| | L L | L L L J S - 9 y ",
"6 V C I I I Y T T T K T K C K D D D K K L L | O.O.O.O.O. . .| | | P | L J L L L L L a - - - 8 u ",
"q I Y Y Y T T T T T T K K C D D N S L K L  .O.O.O.O.O.O. . . .|  .L s S - s S | N N - - - = s y ",
"g T T T T T Y C C D C K K D D K L L L L L L L  . .O. . .O.O.O. . .S a a 9 - 9 s - = - - - 8 8 6 ",
"q N V T T T T C C T T T T D R R R R R L  . .O.O.O.O. .O.O.O. .O.L - s a s - p h - = $ $ = - - 6 ",
"y N N N T T T T T T T K R K K R R R R O.O.O.O.O.O.O.O.O.O.0.O.| H - p a / -.1.6.c r + o $ - s y ",
"y N N N C C I C T R R R T K R R O.O.O.O.O.O.O.O.O.O.O.w.S O.7.0.a 2.h x =.4.& i 8 - $ h h - - 6 ",
"y L C C N C C C C C T N C L L R O.O.O.O.O.O.O.O.O.O.O.| h 5.h.1Xc 3.s =.;.r - - - - = h S - - 5 ",
"y R L R C N N N C C b : M M F M R O.O.O.O.O.O. .O. ./ F 6.f.9 h./ -.=.=.4.% 6.8 - = = 8 S J J y ",
"g T K R K D K N N N b : N M | D N N N O.O.O. .O.O.+.h h.h 5.i.f & 3 ;.=.=.% = - = = = - 8 a J 5 ",
"y D D R R N R K N K N C N D S C S F N N R c.N.S.S.6.S.h i.d.l ;.* o.=.f u p = % = $ - - s - 8 6 ",
"y C K C R N D D N M N N D M N s M L 8.c.S.=X-XI.3XwXwXyX1XI.N C 5.t + . 6./ o.3 $ = & i s 8 = g ",
"y D C N N D M F O.N M M S S S S +.V.T.qXyXqXuXrXdX7XuXdXsXC m.7.=.+ o 7.i r c r c / / h s - > g ",
"y a : a e N a M L N N N N s O.w.D.2X8XsXvXlXaXaXvXbXdX8XbX9XG.D.J * 3.c 5.S X p i z s r h h > g ",
"u M N N N N s s N a N a a R V.T.0XI.I.lXdXnXsXfX2XjXn.lXP v.-XD.m.$ $ /   X i J i h - x p 8 - g ",
"u N a N e : M L a N S S 8.&X5XgXtXsXgXgXsX4XbXbXrXb.b.Y.P K w.D.T.x.O v & h J s i x -.p $ 8 i y ",
"y N N e e : S L 9 L | 0.P.5XwXtXwXjX0X0XI.eX9XwXdXjXzXK.b.6.x.: M 9.i $ r / j V.X.p =.4.1.i $ y ",
"u M S M N M a L S S K D.T.5XuXfX2XfXfX4X9XdXlXlX0XjXU.J.k.N : C.N S.$ $   r p P K - s 3.z $ . y ",
"u a - - $ S L D S L V.&XqXdXvXlXtXsXuXlXtXfXlXlXU.U.eXU.8.W a 9.& z + $ X $ s H a $ ;.6.=.$ = y ",
"y = = - $ i a M S 8.*XuXgXgXvXgXaXsXsXdXfXlXfXJ.Y.M.m.j v.S.S.o h.8 i 2   3 $ i $ % i h.z & $ y ",
"u i s 9 - = - - O.S.tXfXgXgXhXuXlXjXdXjXjXlXm.Y.z.n.C.b.W 9.v.H x % -   L 5.- - $ & i i.i - $ 6 ",
"y + - - a = i a R V.yXyXtXqXyXaXjXjXlXpXuX0XU.n.K.L.n.T C.P W A.b.X   X $ ~ - i x h.x 3 s H l y ",
"y = $ = - # p 5.*.C.b.S.I.L.4XR.W.lXwXI.I.C.Y.m.Y.J.m.I.P &.N P 6.( ) % h.5 -.r / t & a l w.s ~ ",
"y . $ - $ >  .A.A.b.A.S.C.C.C.E.E.S.-XK.I.C.I.*X&Xv.x.v.v.P *.i g.g.e.u ~ p./ =.i z = H x 5.P Q ",
"y $ $ + + = G A.v.G.$X$XI.E.R.,X,X&XI.I.4X4X&X&XD.6XI.C.v.P C d.g.g.e.0 6.oXi.8 $ $ . - % 8 - 6 ",
"y . # . + - w.q.v.b.Z.1XZ.R.R.,X,XG.*XK #.P.D.*X5X*XF.A.b.F.b.e.e.f.g.h.w a.) 5 . . #   .   % y ",
"y . . $ $ 9 q.q.b.R b.Z.I.Q.Q.,X,XV.S.s D P.S.2X2X2XsXdX8.V.j o.e.e.e.o.4 g.~ 5 $ . $ + . - % 6 ",
"y . . + - S 9.$X6XS.q.S.c.#X#X,X,XM - B W *X4X*X2X0XuX=Xx.b.S.o.e.%.e.( ! ( ^ 4 $ % + + $ - x y ",
"y $ $ + - F 0.d.8XP.x.b.b.@X@X,X,X$ - - O.9X9X4XK.n.x.l.n.v.8.y Q ` ) ( ^ y 5 1 % + + $ = - s u ",
"y $ $ - a s b.$XN.P.9.C 2X@X@X,X,X$ a : T Y.Y.K.m.l.x.x.x.l.k.! ) ` _ ~ y 6 6 1 . . + % - - j u ",
"y . $ : a S 0.F.G.b.B.2Xk.@X@X>X>X8 : V C J.J.J.m.j.j.j.W E E j ~ ) ~ Q 6 y 5 %       o $ - X.y ",
"y . = a K a  .G.A.2X$Xx.d.>X>XxXxX@X@X: C H.l.E j.l.A k.k.E T W y ^ Q 5 < Q < % +   . + $ $ p u ",
"y $ - K N N S A.A.3X3X1XK >X>XxXxX@X@X> C H.H.M.k.Y E E &.Y Y V 5 ^ 7 6 6 6 < % o   + . $ % 8 u ",
"y $ - N N S s 0.&X&X3XE.E.>X>XxXxX>X>X% a s.a.s.e.%.e.%.e.e.e.t.g Q ~ Q 6 5 , O O O 2 ) ) ~ ~ u ",
"u - s H H P P M x.I.F.R.E.:X>XxXxX>X>X- |.|.f.s.t.t.t.t.t.t.t.f.t.~ Q ( ^ ^ , 4 ) ` ` 2.` ` ` y ",
"u + - N 9 a a - a b.C.:X+X(.(.%X%XOX(.}.f.}.}.}.}.`.f.`.`.`.`.'.~.~.,.y.,.,.<.] ] ' { ' ' ' ` y ",
"y $ - s a - 9 9 - a H `._./. XXX%X XXXf.`.}..X.X|.}.|.|.'.'.'.).~.~.~.~.:.~.~.] ~.~.] ' ] { ,.y ",
"u $ - a S N - 8 8 $ h r.).).p..XXX X].t.f.}.}.`.{..Xf.`.`.`.).^.^.'.^.^.~.~.~.^.,.,.~.'.^.u.[.y ",
"y = - - +.V.- - - i u.y.y.{.$X`.XX].].p.}.f.s.{.{.y.`.`.u.u.).).u.p.u.p.[ ' :.] ] ' >.u.>.>.' ~ ",
"y - 0 2 0.0.= - - u.).).`.XX[.].|.`.y.`.`.f.f.|.$XcXvXvXhX}.|.p.u.u.u.].^.[ ,.~.] ,.:.' ] ] ' y ",
"y o.s.o.a.g.j 0 o.`.y._.'.'.`.'.'.'.y.`.%XvXbXnXMXnXbXnXnXnXvXvXgXg.g.u.>.>.u.[ ,.:.~.>.~.,.' y ",
"g 0 a.a.^ ) o.w ~ ( ) %.u.[.u.].]. X].|.XXvXNXMXMXMXnXnXnXnXnXbXmXbXnXvXgXiX}.u.` ' ' ` ` _ Q u ",
"g + B D.6.( o.2 2 0 0 0 g ^ ~ ( ( ( e.s.e.t.t.d.N.uXaXuXuXtXqX5X5X2X*X*X&XD.j 6 5 4 < 1 2 O O y ",
"y s ^ a.B.o.2 O 2 O O , , O 1 1 2 4 2 2 2 4 2 2 1 O % % F | | |  . .L S @ o o o o o o O O O O y ",
"g S o. .W | O O O O O O O O O O O O O O O O O O O O O O O O % S F S O O O O O O O O O O O O O y ",
"y s $.I j.U O O O O O O 1 1 2 1 1 2 1 , O O o o o o o o O o o o o O O O O O O O O O O O O O O y ",
"^ 6 6 6 6 6 6 y y y y y y y y y Q Q Q u y u u u u y u 6 6 6 6 6 y 6 6 y y y y g g g 6 5 y 5 u ^ "
};
