/* XPM */
static char *fire_png[] = {
/* columns rows colors chars-per-pixel */
"32 32 9 1 ",
"  c #CD7018",
". c #F0B67F",
"X c #E6872D",
"o c #EBC656",
"O c #FAE475",
"+ c #E9AA44",
"@ c #E6770F",
"# c #E45E1B",
"$ c #AD5F14",
/* pixels */
"  ............................  ",
"   XXXX   XXXXXXXXXXXXX    X    ",
"    XXXX XXXXXXXXXXXXXXX  XX    ",
"   ooOOOOoooOOOOOOOooooOOoOoo X ",
"   oooOOOooOOOOOOOOOOoooOooooX  ",
"  XOooOOOOOOOOOOXXOOOOOOOooOO   ",
"  XOOOoOOOOOOOOoXXoOOOOOoOooO   ",
"XXXOOooOOOOOOOOXXXXOOOOXXoooo  X",
"   ooOOOOOOOOOoXXXXoOOoXXoOooXX ",
"   ooOOOOOOOOO+XXXX+OOXXXXOOOX  ",
"   OOOOOOOOOOOXXXXXXOoXXXXoOOX  ",
" XXOOoOOXXOOOoXXXXXXo+XXXX+OOX  ",
" XXooOOoXXoOO+XXXXXX+XXXXXXOOXX ",
" X ooOO+XX+OOXXXXXXXXXXXXXXoOXX ",
"   OOOOXXXXOoXXXXXXXXXXXXXXXXXX ",
"   OOOoXXXXo+XXXXXXXX+OOOOOOOXX ",
" XXOOO+XXXX+XXXXXXXXXXOOOOOOOXX ",
" XXooOXXXXXXXXXX@@XXXXoOOOOOOXX ",
" XXOOoXXXXXXXXXX##XXXX+OOOOOOXX ",
" XXOO+XXXXXXXXX@##@XXXXOOOOOOXX ",
" XXoOXXXXXXXXXX####XXXXoOOOOOXX ",
" XXoOXXXXXXXXX@####@XXX+OOOOOXX ",
" XXOOOOOOOXXXX@####@XXXXOOOOOXX ",
" XXOOOoOOoXXXX######XXXXoOOOOXX ",
"  XOooOOO+XXX@######@XXX+OOOOXX ",
"  XoooOOOXXXX@######@XXXXOOOOXX ",
"  XoOOOOoXXXX########XXXXoOoOXX ",
" XXooOOOooOOOOOOOOOOOOOOOOOooXX ",
"   oooOOooOOOOOOOOOOOOOOOoOoo   ",
"    XXXXXXXXXXXXXXXXXXXXX  XX   ",
"                                ",
"  $$$$$$$$$$$$$$$$$$$$$$$$$$$$  "
};
