/* XPM */
static char *kebab_png[] = {
/* columns rows colors chars-per-pixel */
"16 16 196 2 ",
"   c #050402",
".  c #040517",
"X  c #01031A",
"o  c #28110F",
"O  c #271012",
"+  c #2B1416",
"@  c #2D1914",
"#  c #2D1618",
"$  c #201F1D",
"%  c #311417",
"&  c #341917",
"*  c #301718",
"=  c #371D1A",
"-  c #36201B",
";  c #080D21",
":  c #060D29",
">  c #0E0E2A",
",  c #0F152B",
"<  c #1A1B2D",
"1  c #090631",
"2  c #0C1539",
"3  c #1B1E31",
"4  c #261F32",
"5  c #1B2326",
"6  c #2C2127",
"7  c #3D3020",
"8  c #34312C",
"9  c #212934",
"0  c #392E36",
"q  c #303136",
"w  c #3D3739",
"e  c #5F3D22",
"r  c #4C373A",
"t  c #563C3D",
"y  c #613E22",
"u  c #77302F",
"i  c #784818",
"p  c #765A10",
"a  c #75581E",
"s  c #436300",
"d  c #494931",
"f  c #49473B",
"g  c #5F4338",
"h  c #594E38",
"j  c #6C402D",
"k  c #735823",
"l  c #6B5C3F",
"z  c #7D6422",
"x  c #2A3342",
"c  c #4F4543",
"v  c #444943",
"b  c #4C4941",
"n  c #555146",
"m  c #55544F",
"M  c #484C58",
"N  c #555358",
"B  c #62594A",
"V  c #6D6447",
"C  c #6B644A",
"Z  c #636848",
"A  c #756647",
"S  c #6E6156",
"D  c #757659",
"F  c #484F60",
"G  c #5B5E6F",
"H  c #596176",
"J  c #626864",
"K  c #656B6B",
"L  c #736E60",
"P  c #6A7062",
"I  c #656773",
"U  c #8B1214",
"Y  c #A80210",
"T  c #B0151B",
"R  c #A83731",
"E  c #884B1C",
"W  c #8B6E1E",
"Q  c #9E7C1F",
"!  c #80592E",
"~  c #8D553B",
"^  c #905C35",
"/  c #9D6224",
"(  c #D46136",
")  c #8A654D",
"_  c #996F43",
"`  c #8D7841",
"'  c #8B754C",
"]  c #817B4B",
"[  c #8A7C4F",
"{  c #9C7D4E",
"}  c #807750",
"|  c #B56347",
" . c #35940B",
".. c #2F8D23",
"X. c #7CBC12",
"o. c #6D8620",
"O. c #768920",
"+. c #7B8E21",
"@. c #7CC733",
"#. c #67D43A",
"$. c #7F8448",
"%. c #788E5F",
"&. c #958339",
"*. c #8F9831",
"=. c #AA9B36",
"-. c #8BA236",
";. c #CABC37",
":. c #9D874D",
">. c #8D8352",
",. c #988250",
"<. c #948B54",
"1. c #9E895A",
"2. c #A19B45",
"3. c #B6954E",
"4. c #B48559",
"5. c #B59A55",
"6. c #BCBA57",
"7. c #888462",
"8. c #868569",
"9. c #84896B",
"0. c #9A8F61",
"q. c #908D6E",
"w. c #98906B",
"e. c #808571",
"r. c #959273",
"t. c #949279",
"y. c #B88E68",
"u. c #A29761",
"i. c #A49B64",
"p. c #AD9A60",
"a. c #BC926F",
"s. c #A09274",
"d. c #BA9978",
"f. c #ABA16C",
"g. c #B4A560",
"h. c #BFB06B",
"j. c #B3A775",
"k. c #D68C43",
"l. c #F5954E",
"z. c #E5925A",
"x. c #F79B50",
"c. c #E0A86B",
"v. c #FBAB77",
"b. c #99C053",
"n. c #A2D06D",
"m. c #D9DA65",
"M. c #D5DD6D",
"N. c #E9C17C",
"B. c #FFC277",
"V. c #747EA4",
"C. c #989B80",
"Z. c #848490",
"A. c #9A9D94",
"S. c #A09F83",
"D. c #A39F88",
"F. c #A69F9A",
"G. c #B8B197",
"H. c #BAB69C",
"J. c #BEB89B",
"K. c #B4AEA2",
"L. c #BEB9A9",
"P. c #A5A9B6",
"I. c #DD9F80",
"U. c #E0B690",
"Y. c #C8A4A4",
"T. c #CFBEA2",
"R. c #C6BBA8",
"E. c #A3DD8F",
"W. c #BCD090",
"Q. c #ACCCAB",
"!. c #E4C982",
"~. c #F3C393",
"^. c #F6DD9A",
"/. c #FFE084",
"(. c #CBC4A7",
"). c #CBCCBC",
"_. c #E1D5AD",
"`. c #D7F1B4",
"'. c #F2E4B5",
"]. c #FAE9B0",
"[. c #DBDBD7",
"{. c #E9EAC3",
"}. c #F3EEC8",
"|. c #FFF6CF",
" X c #EDE3D4",
".X c #E3E1DC",
"XX c #EBE6DD",
"oX c #F1EDD0",
"OX c #FDF2D4",
"+X c #F8F7DB",
"@X c #DFE3E2",
"#X c #F3F3E8",
"$X c #F7F8E8",
"%X c #EBEEF4",
"&X c #F5FAF6",
"*X c #FAFEF9",
/* pixels */
"= = = % % + o + + + + o O + + = ",
"O / e y ! w m n C 3.W z g.>._ = ",
"+ E g t ..f V c I +.7.&.2.D A.= ",
"+ j r b %.b.q +X`.E.{.*X%X(.L = ",
"= i S H.l Q A.I.W.n.'.#X!.|.9 = ",
"& k @X*X$X*.u ( l.m.).].M.}.x & ",
"@ A s.&XP.o.) U z.=.6. .#.;.V.& ",
"@ ' 8 J..XB.^.v.@.T | X.p H $ @ ",
"- ,.Z r. XOXk.c.O.!.Y R s $.. @ ",
"= ` 5 e.K.R.U.x./.N.  -.Q., : % ",
"& 0.7 Z.Y.T.^ XX+XoX_.[.> ; 3 = ",
"% i.5.2 S.~.y.4.d.a.~ X < 4 0 = ",
"* h.} a I D.G.F.1 . 6 N F G v = ",
"* f.<.[ h f w.L.B 8.d P J K M = ",
"# u.] ] 1.{ :.p.j.>.q.r.t.9.C.= ",
"= = = % % + o + + + + o O + + = "
};
