/* XPM */
static char *match_png[] = {
/* columns rows colors chars-per-pixel */
"32 32 255 2 ",
"   c #E6E7D9",
".  c #DDD8D5",
"X  c #DED7D7",
"o  c #DCD5D5",
"O  c #DDD5D2",
"+  c #DDD5CF",
"@  c #DAD5D1",
"#  c #DDD3D2",
"$  c #DBD4CE",
"%  c #DBD3D0",
"&  c #DDD2CE",
"*  c #D8D3D0",
"=  c #DAD1D2",
"-  c #D8D2D2",
";  c #DBD1CF",
":  c #D9D1CF",
">  c #D9D1CC",
",  c #D9D0D1",
"<  c #D6D1CD",
"1  c #D8CFD0",
"2  c #D6D0D0",
"3  c #D9CECD",
"4  c #D6CFCC",
"5  c #D5CDCA",
"6  c #D5CCCE",
"7  c #D2CDC9",
"8  c #D0CCCD",
"9  c #D5CACA",
"0  c #D0CBC8",
"q  c #CBC2C1",
"w  c #E7D021",
"e  c #C9C1BC",
"r  c #CBBFBE",
"t  c #C3BFBA",
"y  c #C4BAB5",
"u  c #C2B7B4",
"i  c #C4B7AE",
"p  c #BFB6B1",
"a  c #F2B61E",
"s  c #BDB2A9",
"d  c #B6B0AD",
"f  c #BCABB2",
"g  c #BBACA9",
"h  c #B5B0A4",
"j  c #B2AEAF",
"k  c #BCAAA6",
"l  c #B4ADA9",
"z  c #B2ADA9",
"x  c #E7AA2B",
"c  c #B3ACA6",
"v  c #B4ABA8",
"b  c #B2AAAB",
"n  c #B2ABA5",
"m  c #B2AAA7",
"M  c #AEA9B5",
"N  c #B0AAA4",
"B  c #B1A9A6",
"V  c #B1A7AF",
"C  c #AEAAA6",
"Z  c #B2A8A4",
"A  c #B7A6A1",
"S  c #ADA8AF",
"D  c #B0A8A5",
"F  c #B4A6A4",
"G  c #A6ACA8",
"H  c #B0A8A2",
"J  c #AEA7A4",
"K  c #ACA6AB",
"L  c #AEA6A3",
"P  c #ABA6A2",
"I  c #B2A39E",
"U  c #D29588",
"Y  c #ABA49E",
"T  c #ABA2A7",
"R  c #D2A33B",
"E  c #A39E98",
"W  c #F2881D",
"Q  c #CB8775",
"!  c #9B9692",
"~  c #E77E2C",
"^  c #98918E",
"/  c #918D8D",
"(  c #D0735A",
")  c #B07665",
"_  c #AA802F",
"`  c #858182",
"'  c #A87A2A",
"]  c #A77929",
"[  c #AA6C5B",
"{  c #A77728",
"}  c #A67527",
"|  c #7C7A7B",
" . c #A47225",
".. c #A37023",
"X. c #AD6922",
"o. c #A8692A",
"O. c #D24E43",
"+. c #A16451",
"@. c #AA5E50",
"#. c #E94529",
"$. c #A66627",
"%. c #AB6320",
"&. c #AA621F",
"*. c #A76129",
"=. c #AA611F",
"-. c #A9601E",
";. c #A65F26",
":. c #B05925",
">. c #AA5A2F",
",. c #A95D1E",
"<. c #A9562D",
"1. c #A8571B",
"2. c #A7571B",
"3. c #AD5021",
"4. c #8E5649",
"5. c #AD4E20",
"6. c #A74F29",
"7. c #795F49",
"8. c #D73425",
"9. c #A24C33",
"0. c #765B46",
"q. c #6F5D49",
"w. c #A54825",
"e. c #6E5B42",
"r. c #74553B",
"t. c #695740",
"y. c #6B563D",
"u. c #6C5143",
"i. c #6C513A",
"p. c #5C5547",
"a. c #7E463A",
"s. c #66523B",
"d. c #67513D",
"f. c #63523D",
"g. c #90411E",
"h. c #6E4E34",
"j. c #B92A20",
"k. c #6D4A3D",
"l. c #62503A",
"z. c #575151",
"x. c #624F37",
"c. c #654B41",
"v. c #624D3C",
"b. c #5D4D3A",
"n. c #584C40",
"m. c #5B4B37",
"M. c #514C4C",
"N. c #65453B",
"B. c #554C40",
"V. c #5D4741",
"C. c #66462C",
"Z. c #4E4B51",
"A. c #654533",
"S. c #674137",
"D. c #5D443B",
"F. c #4B494D",
"G. c #52464A",
"H. c #52483E",
"J. c #4D4848",
"K. c #534836",
"L. c #4D4845",
"P. c #62412B",
"I. c #4E4641",
"U. c #524535",
"Y. c #514245",
"T. c #54413D",
"R. c #4E4245",
"E. c #47444D",
"W. c #4A4444",
"Q. c #4D4339",
"!. c #4F4043",
"~. c #503F45",
"^. c #68372F",
"/. c #494246",
"(. c #5A3D33",
"). c #523E41",
"_. c #583C3B",
"`. c #454347",
"'. c #87291C",
"]. c #5C3C2A",
"[. c #4E3E42",
"{. c #4D3F3F",
"}. c #543B36",
"|. c #5C3A24",
" X c #4B3D41",
".X c #513A3C",
"XX c #4D3B41",
"oX c #5A3733",
"OX c #473F3A",
"+X c #4E3A3F",
"@X c #4A3C3E",
"#X c #54392E",
"$X c #4B3A40",
"%X c #5B352D",
"&X c #483D33",
"*X c #51363D",
"=X c #493A3A",
"-X c #4D3839",
";X c #4D373D",
":X c #523634",
">X c #49383C",
",X c #4D3736",
"<X c #43393C",
"1X c #52332B",
"2X c #46363A",
"3X c #493439",
"4X c #3A3849",
"5X c #4B3333",
"6X c #413738",
"7X c #523225",
"8X c #443537",
"9X c #582D27",
"0X c #49332D",
"qX c #463136",
"wX c #433238",
"eX c #423135",
"rX c #433132",
"tX c #472F31",
"yX c #4B2C2A",
"uX c #55291D",
"iX c #432E32",
"pX c #442E2C",
"aX c #4B2C23",
"sX c #3E2E32",
"dX c #393032",
"fX c #3B2E2E",
"gX c #432C22",
"hX c #3F2A29",
"jX c #3F2925",
"kX c #362B2D",
"lX c #412520",
"zX c #342828",
"xX c #4F1C16",
"cX c #2A2A28",
"vX c #39241F",
"bX c #332524",
"nX c #322218",
"mX c #361917",
"MX c #212122",
"NX c #22211D",
"BX c #1C2013",
"VX c #281913",
"CX c #1A1A19",
"ZX c #191A14",
"AX c #181619",
"SX c #161619",
"DX c #24110D",
"FX c #1B150B",
"GX c #141413",
"HX c #0E1515",
"JX c gray6",
"KX c #0C0C0D",
"LX c #070E0C",
"PX c #090909",
"IX c black",
/* pixels */
"} %.>.g.g.6.w.,.,.,. . . . .1.2.2.1.1.1.1.1.1.;. . . .'.'.w.} ,.",
"..dX6X8X8XfXzXkXkXkXzXbXrXrX5XhXhXpXpXgXjXvXjXjXhXpX0XpXpXpX,X<.",
"w.cXkXdXsXfXsX6X<X@X@X{.T..X,X-X,X}._.:X1X#X#X(.}.D.D.D.V.D.c.:.",
"g.kX<XG.R.~.Y.R.@XR.!.{.).-XtX,X,X:X}.(.(.N.N.N.N.D.c.c.c.u.D.g.",
"6.dX<XR.G.G.G.Y.$X2XeXqXiX3X;X5X0X1X1X(.A.A.A.A.k.u.u.u.u.u.D.g.",
"<.kX<XR.G.G.G.G.>XqXqXqX3X3XtXpXyX1X%XA.A.C.A.A.h.i.u.u.0.0.d.g.",
"<.kX<XR.R.R.G.Y.~.qX3XiX3XtX5XyXyX7X7XP.P.P.C.h.i.r.0.0.0.0.u.g.",
"<.eX>X X X[.[.2XwX2X8X3XiXpXyXaX7X7X].].C.C.h.h.r.r.7.7.0.DXVX<.",
";.@X XY.).-X3X>X>XwXeX;X5X5XpX1X7X7X7X|.C.C.h.r.r.r.i.D.nXnXVX>.",
"*.=X@X{.!.Y.+XY.!.2XiXqXiXyXyXyX1X7X7X|.P.C.h.h.r.gXgXgXgXvXVXX.",
";.=X=XY.!.!. XXX$XXX+X;XtXyXaX0XS.7X7X|.C.h.uXN.u.N.k.%X7XlXVXX.",
",.=X2X[.[.~.~.~.[.Y.+X>X@XqXyXQ 4.) [ +.@.[ ) [ 4.k.^.7XaXlXmX3.",
"} eXeX@X[.$X~.[.[.~.).-X3XXXU 4.[ Q Q Q U U ) [ a.a.^.aXmXVXDX3.",
"{ KXGXcX2X>X;X).).)..X-X=X( a.[ ) [ U U [ a.a.a.9XyXmXlXb.q.l.3.",
"} GXLXHXCXfXtX-X.X*XS.T.,X9.( @.uXa.^.9X+.a.uX|.i.y.e.e.t.e.f.] ",
"{ PXKXZXGXKXCXNXpXyX  D.( ( uXa.@.^.mXxX%Xi.i.y.y.y.y.t.t.t.b.] ",
"-.JXKXGXCXCXNXHXAXgXR lXaX1XoX%XxXxX1X(.T.s.i.y.s.s.s.l.s.d.m.' ",
"-.JXGXSXJXMXcXNXNXBXw w 1X%Xx ].w 7X#X#XT.{.v.s.x.l.x.s.f.t.m.' ",
"-.KXPXAXCXNXMXw SXZXa w ~ w a %Xa a 7X%X}.Q.Q.f.m.m.l.s.s.U.&X%.",
",.! / P Y a w a d P C a x a S K a W A A F I &XOXH.U.K.U.U.H.OX%.",
",.E ^ E a x x M ` ` a ~ d ~ 8.! Y W 8.~ A F Z =X{.H.B.B.Q.Q.Q.%.",
",.E ^ ~ ~ j.x '.8.x ~ ~ O.j.'.~ ` | 8.#.O.N F OX{.I.B.B.H.B.&X%.",
"} ! ! s h f h K Z b A M V j T G c b h g f n F k I.W.I.p.n.p.Q.&.",
"} ^ ! l l c l z z d d v z N N N n N n n n Z H Z Z.M.J.J.M.B.Q.=.",
"} ^ ! B l m m C z z z B n m J c N B n N H N N H z.`.F.F.J.L.OX-.",
"$./ ^ J J C C B B B B B B L J L N v D J J L Y Y Y IXMXF.Z.M./.5.",
"$.E N p u u y p y p p p p u y y u e t y y p i s s HXPXPX4XE./.6.",
";.y q 4 5 4 < 5 > 3 % > $ + 5 5 > O O + O @ % : * LXPXJXAX4X`.6.",
"w.t r 3 3 ; 6 1 4 % O % ; % 3 ; % ; % O o X X - - KXCXZXJXBXGX6.",
"6.u q 8 6 4 7 4 6 : : , * = 1 # o - . : & ; % = * FXgXFXnXh.ZXo.",
"_ p s q q e q q 0 9 9 5 5 4 2 2 1 ; % ; # 3 1 9 9 JXKXVXnXFXgX%.",
"X.g.g.w.w.w.6.6.6.-.-.-.-.] ] ] ] ' &.&.&.&.&.&.6.<.>.>.g.g._ X."
};
