/* XPM */
static char *owlemons_png[] = {
/* columns rows colors chars-per-pixel */
"48 48 215 2 ",
"   c #030206",
".  c #0D070B",
"X  c #0B090D",
"o  c #05050A",
"O  c #140507",
"+  c #1B0605",
"@  c #1C0907",
"#  c #130609",
"$  c #140B0C",
"%  c #1A0A0A",
"&  c #1B0708",
"*  c #18100A",
"=  c #0E0D13",
"-  c #120E12",
";  c #131116",
":  c #1B1415",
">  c #151319",
",  c #1C1619",
"<  c #1D191B",
"1  c #1F1914",
"2  c #250402",
"3  c #221616",
"4  c #231917",
"5  c #201718",
"6  c #231B1C",
"7  c #291E1D",
"8  c #321D1A",
"9  c #311105",
"0  c #2C211D",
"q  c #28271B",
"w  c #31221D",
"e  c #372B19",
"r  c #2B321F",
"t  c #1D1D22",
"y  c #241E21",
"u  c #291F21",
"i  c #252124",
"p  c #2B2224",
"a  c #242429",
"s  c #2C262A",
"d  c #2D292D",
"f  c #2B282A",
"g  c #322424",
"h  c #392625",
"j  c #3C2A26",
"k  c #322629",
"l  c #342A2C",
"z  c #3B2B2B",
"x  c #302D24",
"c  c #283522",
"v  c #3D322C",
"b  c #34312C",
"n  c #2C2C32",
"m  c #272A31",
"M  c #342D32",
"N  c #392E32",
"B  c #2F3036",
"V  c #343236",
"C  c #3B3234",
"Z  c #343339",
"A  c #3C353A",
"S  c #3B393C",
"D  c #37393E",
"F  c #463219",
"G  c #422E2B",
"H  c #442D26",
"J  c #42312B",
"K  c #49372C",
"L  c #433333",
"P  c #40363A",
"I  c #443B3C",
"U  c #4D3E3B",
"Y  c #4A3833",
"T  c #513D38",
"R  c #654B1D",
"E  c #795B18",
"W  c #4C423A",
"Q  c #54423C",
"!  c #594738",
"~  c #624A3A",
"^  c #664F30",
"/  c #7B652E",
"(  c #7B6438",
")  c #3D3C42",
"_  c #363943",
"`  c #433D43",
"'  c #483D41",
"]  c #3E4046",
"[  c #3A404B",
"{  c #444244",
"}  c #44444B",
"|  c #4B4A4E",
" . c #4C4446",
".. c #564945",
"X. c #5C5249",
"o. c #4B4B53",
"O. c #454852",
"+. c #515256",
"@. c #52535B",
"#. c #5D5B5D",
"$. c #585659",
"%. c #525154",
"&. c #6E5F49",
"*. c #695846",
"=. c #755C41",
"-. c #645954",
";. c #685A55",
":. c #76644A",
">. c #6D6457",
",. c #766757",
"<. c #5D5D62",
"1. c #485160",
"2. c #5E6671",
"3. c #646366",
"4. c #65666B",
"5. c #746D6C",
"6. c #6F7175",
"7. c #6E737A",
"8. c #727174",
"9. c #73757B",
"0. c #767A7E",
"q. c #7B7878",
"w. c #6D6D75",
"e. c #92772E",
"r. c #816748",
"t. c #8A714A",
"y. c #867556",
"u. c #977D54",
"i. c #867766",
"p. c #807C79",
"a. c #9C853C",
"s. c #AB8E3D",
"d. c #A9913C",
"f. c #B59637",
"g. c #988443",
"h. c #A7924C",
"j. c #B39B49",
"k. c #B49E56",
"l. c #AE9F51",
"z. c #BDA348",
"x. c #BAA957",
"c. c #8A8077",
"v. c #CBB355",
"b. c #D1BB5B",
"n. c #C8AF51",
"m. c #D0BE65",
"M. c #D6C059",
"N. c #DBC764",
"B. c #D8C972",
"V. c #DED27D",
"C. c #E1CD69",
"Z. c #E8D87A",
"A. c #E5CE71",
"S. c #ECE07F",
"D. c #797C84",
"F. c #677887",
"G. c #837E80",
"H. c #7B838B",
"J. c #748DA0",
"K. c #84868A",
"L. c #8C8B8C",
"P. c #878789",
"I. c #968D8A",
"U. c #8C8C92",
"Y. c #868A94",
"T. c #938E92",
"R. c #9D9593",
"E. c #94949A",
"W. c #98969B",
"Q. c #9B9A9D",
"!. c #959798",
"~. c #8C969D",
"^. c #A39996",
"/. c #A59E9A",
"(. c #A69B98",
"). c #A09083",
"_. c #ABA29E",
"`. c #A7A29F",
"'. c #899BA7",
"]. c #9899A3",
"[. c #A39FA4",
"{. c #9EA2A5",
"}. c #9CA6AB",
"|. c #97ACB7",
" X c #A4A1A4",
".X c #AEA4A1",
"XX c #AAA6AA",
"oX c #B3AAA5",
"OX c #B3ADAB",
"+X c #B9AFAB",
"@X c #B1A5A1",
"#X c #BBB2AD",
"$X c #B5B1AB",
"%X c #BDB5B4",
"&X c #BFB8B5",
"*X c #BFB9B9",
"=X c #B5B5B7",
"-X c #AAB1B5",
";X c #C1BABA",
":X c #C2BDBD",
">X c #C4BDBD",
",X c #C1B8B6",
"<X c #E5DA82",
"1X c #ECE383",
"2X c #EEE997",
"3X c #F3ED94",
"4X c #F0E58A",
"5X c #C4C1BF",
"6X c #C9C0BE",
"7X c #A5BBC6",
"8X c #BEC8CD",
"9X c #C6C2C1",
"0X c #C8D4D9",
"qX c #C0CFD5",
"wX c #D0DCE2",
/* pixels */
"# $ % $ # X # % X @ * X % X % - - X X $ X $ 2 % X $ X $ $ - - % 9 # X % $ X O X # O # X # @ % @ ",
"# A C N k l l s p p p p p p p s p y y 6 6 6 y 6 6 s p j %X>X6X+X,X>X>X>X>X9X>X*X>X%X>X>X>X>X>XX ",
"$ C N l s N p i u 6 p p 6 6 u p p y 6 6 y y y 6 6 p k P +X>X%XoX,X>X>X>X>X>X>X*X%X%X>X>X>X9X>X$ ",
"# l l s p p p y y y u 6 u y 6 y 6 6 y < 6 y 6 6 6 p p j .X%X.X#X>X>X*X*X&X*X&X%X%X%X%X*X>X>X>XX ",
"# l s s p y y y y u 6 6 6 6 6 6 6 6 6 6 6 6 u p p j h j _.+XoX+X#X%X%X%X%X%X%X%X%X%X%X*X>X>X>X$ ",
"2 l s p p i 6 p 6 , 6 6 6 6 6 p p v P Y ~ K h w h j k k (.+X(.^./.+X&X&X%X%X%X%X%X%X,X>X>X9X5X$ ",
"* p p i y y p 6 6 : : : 3 , 6 J Q T ..K U l 3 -.q.P 6 j (.@XR.R.R..X&X&X+XXX[.XX+X>X>X>X5X5X+XX ",
"# p p i 6 y 6 p 6 : 6 Z s 6 v Q K K T A +.<.p.8.) 4.p h _._.R.R.(.+X&X+XE.U.Y.].XX%X>X%X+XL.3.# ",
"% 6 p i , 6 6 6 : 5 Z X s J T K h j , t n Z d E.o #.l h +X%X/.(.@X%X%XE.Y.U.U.W. X.X%XoX+.) | X ",
"X 6 6 y 6 6 6 : : 5 n $ j Q G h p = = o > ;   a { 5.6 h _.#X(./.+X%X$XY.Y.T.T.W.[.XX#XR.S X.i.% ",
"X i 6 < 6 5 5 6 : : 6 J U j G G.U.t   ) K.{.> V 8.p y h oX#X_._.%X,X XH.Y.E.W.W. X+XT. .W >.y.$ ",
"- 6 , 6 6 6 5 : 5 : j U h G 3.{.8XK.X K.!.=X6.> $.i p l .X#X.XoX#X#XU.D.U.W.Q.Q.XXT.{ s W ..X.X ",
"% 6 6 6 : : 6 : 6 C Q G ..i 4.t m 0.n 4.> Z K.a $.y u k .XoX_.oX#XQ.9.K.U.W.[.E.W. .d C W S { X ",
"$ 6 y 6 6 5 : 6 P  .j 8 <.a #.- o 6.t 0.= t $.> | 7 6 p _._.`.$XL.6.9.U.U.W. X4.| *.:.t.t.u.u.$ ",
"X i p < 6 , p l U h H X <.{ = #.8.|   S L.0.X | #.3 4 3 7  ./.Q.7.8.D.T.K.D.9.) ! =.:.:.:.t.*.X ",
"X 6 6 6 6 p P P 8 6 ; X S 7.V a a X 9.t a V { 3.7 3 : 3 7 U Q.D.P.4.9.T.8.[ Z p G v :.y.*.W Z X ",
"X 6 6 : l P P h 7 : : $ p 7.<.0.K.+.D +. X{.U.o.: : 7 j h P $XoX/.L.3.c.W.@.s C d t W P C P P O ",
"X 6 6 6 P p h 7 p , ; $ : <.}.wX0X-X  H.0X0XH.n , h G j h i V >.c.P.L.p.5.;.>.,.,.>.;.Q ..*...$ ",
"# y 6 6 l p p p 6 6 : $ # +.~.0X8XqX@.'.7X|.2.p P J j j w 6 , t V P X.,.,.i.i.i.c.).I.i...Q C # ",
"% 6 6 y N s N l p 6 6 6 $ V H.|.7X7X|.'.J.F.| j v h h h 0 6 > t i i d ;.;.;.;.;.;.;.;.%.Z  .C X ",
"X 6 6 y y y l l s s p l l h h N S { } 1.) U P C Q G j j h 6 ; ; > t t t i l P J P C s V a A n # ",
"X 6 , < , p A p 6 N 6 p h p p 5 y N k A P C ' C h j j j 0 , ; = - X > ; < d &.Q =.r.~ ~ ! Y W X ",
"O 6 , , < p p p s p p p p 7 7 , p P s l U C N l l j j h 6 l :.:.*.! &.&.&.:.:.W ; p ~ ( ( ( t.X ",
"X y 6 6 : 6 k k 6 h l p u 7 6 : p j l s P ` P C k j N p p s v L l C b C b p < ; ; - = ; > , < X ",
"X j l p 6 6 h Z h p p 6 p h 6 - 7 j s k `  .A l j k l 7 6 , ; ; > > ; > = ; - ; ; ; ; ; ; ; > X ",
"X J G j p 5 l s p p p 6 6 6 7 : 4 l s u P A l l l C N p 6 , > > > > > ; ; ; ; ; ; ; ; > > > > X ",
"X G G G 6 p 7 A l p h 6 5 6 p : 0 j p l P A N k l C h u 3 , ; > ; > > > ; > ; ; ; > > > > ; > X ",
"# P j h p 6 p ` p p j 0 p 6 0 6 5 k N p C A p C l l l 6 : ; ; > > ; > > > ; ; ; ; ; ; > ; ; > $ ",
"# N j h p 6 p N N p p h p h p : 7 w p 7 l P | N l l p 6 : : > > ; ; ; > ; ; ; ; ; ; ; ; > ; > # ",
"X L j j k , s Z p p 7 7 p h p 6 u j N p N P Z S l h 6 : ; > > ; 6 6 = = = = - ; ; ; ; - ; ; ; X ",
"- N j h p 6 y ) s p 6 p p l p 6 7 l k k  .A _ V k h , ; ; > > R a.v.g.< < 6 = = = = ; - ; ; ; $ ",
"# P l k s 6 y A y i p p p p p 6 p h N p l ` } l l 7 6 > - > F e.m.N.s.g.e.z.a.< = ; ; - - ; > X ",
"+ A N j k 6 6 N 7 p p p p y 6 < 6 h ) s C ` @.A p 6 ; ; ; 6 R s.n.N.C.M.f.N.Z.l.= ; ; ; ; ; > $ ",
"X A N l s y y Z y y y y N p y y 6 p } p s S N N u u - - ; 0 R E e.d.j.v.n.Z.3XZ.q = ; ; ; ; > @ ",
"+ P N N l t i A s s y p d p y 6 6 p } 6 l C P l p : - ; ; 4 F / k.B.Z.N.z.N.1XN.x - ; ; ; ; > # ",
"X ` A V d y y n s i i 6 6 y p 6 p p O.l s A k A 0 $ - X - , w h.B.4X1XS.b.v.b.z.v a n , ; ; > X ",
"O  .) Z N y y i s i i 6 p u 7 6 , p } s y l V N : - ; - ; > e h.<X2X2X3XC.d.a.e y i t , ; ; > # ",
"X o.` ) N i s i s i y i p p i , - u ` i p C A p - - - $ $ = 0 k.B.2X3X<Xm.0 0 , t t < > ; ; > # ",
"X o.} ) V y < l d s a s s s y 6 : s N < s N C , X $ - - ; = w ( x.V.Z.A./ 4 6 t t < , ; ; ; > # ",
"* o.o.) Z t > s N i y p s y y 6 , i _ p n C l ; $ - - - ; , X e e.j.j./ : 6 6 t t t : > ; > > $ ",
"$ @.O.) ) V i t i , ; < , y p i : N ) i p A : ; $ - : ; ; : - $ 1 0 0 4 ; 6 6 t i < < ; > ; > $ ",
"# @.o.) ) Z d i y y < , : : : ; ; i N i i Z : : : $ $ : : : ; : : 4 6 6 6 6 < < , q < > ; - , # ",
"X <.o.D S n S a t 6 < , : 6 : ; : , : : : 5 : : : : - : : ; ; : 4 6 7 6 6 6 t i q c < > ; ; , $ ",
"X 4.@.} ) m n a a 6 < < 3 6 , 6 : : ; : : : : : : : : : : : 6 : 6 6 6 6 6 < > < q q , , > , ; # ",
"$ w.3.o.] ) _ V d i 6 < : 5 6 : : 5 6 6 6 6 5 : 6 : 6 : 5 : 4 6 6 < 6 p i p 6 c r q ; : , ; , $ ",
"% 8.@.o.} B Z V N i < i i p 6 6 6 : 6 6 : 6 p 6 6 3 : 5 6 6 6 6 6 i i i t i < c q , > ; ; , , X ",
"% 9.4.@.} { ) A C C p i p < 6 6 6 6 6 6 6 4 7 : : 4 6 6 7 0 p p 0 0 p p i 6 c r r : , < < 6 < % ",
"X # $ O X X # # - % - + X X X # # + X # + X $ # + O # O # @ X % $ + # @ X % X % - $ $ % % $ % + "
};
