/* XPM */
static char *passage_png[] = {
/* columns rows colors chars-per-pixel */
"64 32 242 2 ",
"   c #030304",
".  c #070609",
"X  c #080709",
"o  c #0B0A0C",
"O  c #06080B",
"+  c #100F0F",
"@  c #0E0E10",
"#  c #110F11",
"$  c #131314",
"%  c #16171A",
"&  c #1B1B1B",
"*  c #181817",
"=  c #14130F",
"-  c #2E1D16",
";  c #3C2314",
":  c #382516",
">  c #2C2112",
",  c #1D1E21",
"<  c #201F20",
"1  c #0E242B",
"2  c #232325",
"3  c #24262A",
"4  c #2B2B2B",
"5  c #28292A",
"6  c #392C24",
"7  c #27342A",
"8  c #34352D",
"9  c #2C2D32",
"0  c #262B31",
"q  c #2B3535",
"w  c #333335",
"e  c #353B3C",
"r  c #3B3C3C",
"t  c #363836",
"y  c #482515",
"u  c #462B15",
"i  c #452719",
"p  c #452C19",
"a  c #442816",
"s  c #453116",
"d  c #483016",
"f  c #453518",
"g  c #4E331C",
"h  c #52351F",
"j  c #483E36",
"k  c #3B443B",
"l  c #3E442B",
"z  c #44483A",
"x  c #3C3D41",
"c  c #313F4A",
"v  c #2F3C46",
"b  c #3B4346",
"n  c #365145",
"m  c #3A5458",
"M  c #39655D",
"N  c #375267",
"B  c #444444",
"V  c #4A4C4C",
"C  c #464948",
"Z  c #595147",
"A  c #4C4D52",
"S  c #434C53",
"D  c #4C5452",
"F  c #535354",
"G  c #545A5C",
"H  c #5B5B5C",
"J  c #545657",
"K  c #504F4D",
"L  c #615950",
"P  c #536858",
"I  c #767149",
"U  c #726557",
"Y  c #475C66",
"T  c #5A5C61",
"R  c #575C63",
"E  c #435F74",
"W  c #4A616A",
"Q  c #5D6165",
"!  c #58666E",
"~  c #56736B",
"^  c #4A6778",
"/  c #596E79",
"(  c #546D77",
")  c #577279",
"_  c #497675",
"`  c #646364",
"'  c #636669",
"]  c #65696A",
"[  c #6B6C6D",
"{  c #696965",
"}  c #6A736C",
"|  c #747169",
" . c #666D70",
".. c #6A6E74",
"X. c #6A7679",
"o. c #727474",
"O. c #73767A",
"+. c #7A7C7C",
"@. c #767A79",
"#. c #706E6E",
"$. c #DC6B35",
"%. c #9C7A61",
"&. c #4C857A",
"*. c #7C827F",
"=. c #6B836F",
"-. c #A48A37",
";. c #83847E",
":. c #9A9479",
">. c #95836F",
",. c #A38266",
"<. c #9D9854",
"1. c #D2B043",
"2. c #EAD32E",
"3. c #3D6681",
"4. c #587783",
"5. c #4A7892",
"6. c #667B83",
"7. c #747D85",
"8. c #767D85",
"9. c #3B90AF",
"0. c #548496",
"q. c #548D8E",
"w. c #698588",
"e. c #7C8985",
"r. c #7A848B",
"t. c #778889",
"y. c #65928B",
"u. c #648997",
"i. c #7D8A92",
"p. c #798992",
"a. c #6A9698",
"s. c #769398",
"d. c #799287",
"f. c #7BA29E",
"g. c #5191A7",
"h. c #769AA6",
"j. c #5AA3AD",
"k. c #75A2AB",
"l. c #6EA3A6",
"z. c #5CBBD7",
"x. c #4AB8DB",
"c. c #64BCD6",
"v. c #70BAD0",
"b. c #75C5DB",
"n. c #6BC1D5",
"m. c #838685",
"M. c #858B8B",
"N. c #8A8D8B",
"B. c #818888",
"V. c #829489",
"C. c #92918C",
"Z. c #838C94",
"A. c #848F98",
"S. c #8B9295",
"D. c #8C9995",
"F. c #8B939B",
"G. c #869798",
"H. c #929594",
"J. c #959B9B",
"K. c #9B9D9B",
"L. c #979A96",
"P. c #928F8B",
"I. c #A19D97",
"U. c #A39583",
"Y. c #9DA39E",
"T. c #97A59B",
"R. c #96A18B",
"E. c #A2A49E",
"W. c #B1AD8B",
"Q. c #959CA2",
"!. c #849AA0",
"~. c #9DA3A4",
"^. c #9AA6A7",
"/. c #85A7B3",
"(. c #98B6B6",
"). c #8AA9AB",
"_. c #A4A6A4",
"`. c #A4AAA4",
"'. c #A4ABAB",
"]. c #AAADAB",
"[. c #A7A9A6",
"{. c #B1AFAD",
"}. c #A9B2AB",
"|. c #B1B3AD",
" X c #B2B9A9",
".X c #AAAEB1",
"XX c #A6ADB0",
"oX c #ACB2B3",
"OX c #A7B6B7",
"+X c #B3B5B4",
"@X c #B6B9B5",
"#X c #BABBB5",
"$X c #B5BBBB",
"%X c #BBBCBB",
"&X c #B4B7B6",
"*X c #C1BDBA",
"=X c #99C5BB",
"-X c #BCC2BD",
";X c #B9C4BB",
":X c #B9C9AF",
">X c #C2C2BE",
",X c #C3C7B8",
"<X c #CFDDB5",
"1X c #D7E4BE",
"2X c #94B9C4",
"3X c #85B6C1",
"4X c #B6BFC1",
"5X c #84C9DA",
"6X c #97CBD4",
"7X c #96C8CE",
"8X c #A6C7C5",
"9X c #BCC3C3",
"0X c #B9C9C6",
"qX c #AAD4D9",
"wX c #B7D2CC",
"eX c #C4C5C3",
"rX c #C3C9C6",
"tX c #C5CBC9",
"yX c #CACDCB",
"uX c #C8C8C6",
"iX c #CCD1CC",
"pX c #C8D2C7",
"aX c #D2D7CB",
"sX c #C9CED0",
"dX c #CCD2D2",
"fX c #CCD9D5",
"gX c #D3D5D4",
"hX c #D5D9D5",
"jX c #D5DCDA",
"kX c #DBDDDB",
"lX c #D8D9D7",
"zX c #DDE1DD",
"xX c #DAE1D5",
"cX c #D5E4CA",
"vX c #E1E2DE",
"bX c #E5E9DC",
"nX c #DDE3E1",
"mX c #D5E3E2",
"MX c #C4E5E5",
"NX c #E2E4E2",
"BX c #E6EAE7",
"VX c #EDF2EF",
/* pixels */
"g p i p p p p g p p p s f f s p p p p p : p d g i i - y y y p p p p ; p p : p d d p s f f : f f p s p y - y p p y ; p d d p p p ",
"i 9XY...L.K.t.v.x.x.b.b.v.v.c.b.7X6XqXqXwX%XpX].o.#XpXaXhXaXaXdXfXwXfXhXcXaX;X'.+.>XrX}.OXOXOX/./.h.a.u.u.u.4.( W 7.L.B.oX[ %Xd ",
"i pX} R w V O.m.p.c.n.c.c.z.c.5X7X7X8X8X8XyXhX@X .[ pXV Q N.pXbXxX0X;X9X;X^.OX9X'.kXzX!.h.u.u.u.6.4.) ^ W Y Y ! `.+XO.A Q $XhXs ",
"i zX;XQ % A o.R [ K.h.z.z.c.n.n.v.7X7X8X8X$XhXzXo.O.t jX4 zXH } ,XOX(.G.p.w.9X~.oX[.>Xw.^ 4.4.6.) 4.( Y Y ! XX].+.[ ' e ' yXaXd ",
"i pX;XV @ # 3 9 J O.8.i.3Xn.b.b.5X6XqXwX8X+XkXpXH @ H.~.nXyXdX;.^.'.).s.w.t.sXR %XrXhX6./ ( 4./ / ( / Y '.9X2X! Q , $ @  .yXyXy ",
"i jX;XJ o @ @ o $ 3 V O.o.g.v.b.5X5X6X6X8XfX%XjXV eX} [ K.K.7.P w.t.t.s.t.$Xr.[ sX;XjXt.6.w.s.6.6.) X.+XrX+.G 3 % $ @ @ b 9XhXy ",
"p bX$XF @ $ @ @ o o % e A g.9.5X6X6XqXqXwXhXvXrX[ oXH.w B C b / 9XX.X.6.w.OXV  .$XNXjXT.S.A.D.J.Z.M.e.J B 3 @ o $ @ o @ [ H.hXp ",
"p pX;Xm.o @ o = = o $ yXM.0.9.j.6XMXfXpX(.$X>X+XO.~.* 3 N Y b N.M.Y p.G.).oXhXt.9XpXnXoX}.J.p.p.p.X.O.tXA % $ @ @ o o o K oXhXy ",
"p tX@XV o o o o o $ * dXhX0.g.g.k.OXC 4 w @XL.].Q +.o N N m o.o.e p.G.p.e.^.BXZ.~.uXBX}. XoXY.M.e. .X.hXyX< @ # $ o o o V K.zX; ",
"p zXrXN.  o @ o o o * pX%X0.g.0.5 w L.V eXoXL._.o.[ 3 3.5.b o.b W 7.t.D.D.Z.zXm.XXjXdXe. X,X#X X`.L.L.;XeX4 o @ o o o o | oXrXp ",
"p hX X} . . @ o o o $ yX%X^ 9 j V m.+XhXNX9X].;XS yX@.9 9 [ e N ^ 7.G.T.^.M.jXe.$XVXhX*.e.Y.K V `.D.D.yXkXt # @ @ o o o K K.+X; ",
": sXH.[ . o o o o o $ E.3 3 z Y.rXV N.C tX9XC.dX..XXK.;X&XO.b E ^ ^ i.`.@XL.dXp.^.nX%Xm.@.X.tXm.C G.s.+XhX3 o $ o o o   U K.yXy ",
"p xXm.[   . o . o o @ 3 H 5 K.B _.w tXV ,  X;X+XV w 3 , 9 e s./.5.5.4.w.`.D.0Xt.^.dXzX X=.Y zX$X0 Y m 9XhX* o o @ o X X x ' hXp ",
"p zXo.@.. . o .   , e x 3 3 M., tXF C B.A 9XrXoXG @ ! a.).(.=X8X=Xa.0.4.6.^.nX/ ^.nX9X0.^ S * _.0 c v tXNX3   o o o o X C m.hXp ",
"p mXw.[   o o   < #X~.' x _.4 3 V 4X% 3 O.$XfXE.@.* Q R.:XcXcX1X1X<XT.V.t.t.zXe.0XjXtX0.4.@X{ eX+X3 Y tXuX*       .     V @XaXi ",
"s 0Xs.`   o   . V zXK.%X+Xo.[ 5 3 x o.o * oX9XrXM.+X5 ^ h.2X2X2X2X/./.u.5.4.@XW Z.eX X5.D w  XyX` D *._.L.3 o   o o     K +.pXp ",
"f rX'.H   .   o B VX].'.o.o.G . @ o o o @ oXyX_.L.jXyXt S a.k.k.k.k.l.f.y.) eXW ^.pXoXd.%X=.w @.8 =.8 b G #.`.*         F O.pXd ",
"p dXe.V         4 hX9Xo.F o.w o o o . o   oXL.$X[ R A '.' 5 j.l.l.y.&.=.z P >X~ 0X+XpXK e V.C.;XZ W.:.Q 5 $ o o         4 S.eXd ",
"f jXL.H   .     o [.L.4 { * B e     o o @ oX].$XX.5 3 H.w n y.a.=.l 8 P k ~ ;XJ $XzXkXe.@.V.>XuXI.$.%.Q ' o             H H.tX: ",
"f dXY.F         o { @.[ } 7 e ' 4 o O , a.OXoX$X} Y.H 7 7 q.q.y.w.~ k ~ P C #X] '.jX;X} I <.#.* Z 2.,.'.V o   o X o .   F N. Xp ",
"p 9Xo.9         o e [ M.D %   $ o.C 1 m y.'.~.@Xy.pXN.n M &.q.y.w.~ b t 8 D ,XV ~.zX'.G I <.#.* { $.1._.` $     . o X   B ` [.p ",
"f tXm.V         * H % X.[   6 o N.3 4 L <.E.eX`.e.hX{ n n M _ _ _ D 8 4 8 G ;.r ^.kXhXo.W.W.H.| [ -.I C...*             A [ uX: ",
"p %X;.V         t H.  5 ~.$ : o J * j L ,.%XoX$X| >X` t 8 t t 8 k w 4 w e J hX#.'.hXhXZ I U.uX:.{ :.>.#.` $     .       t H %Xp ",
"s 9X[ A       V {   o % M.< 6 3 S.6 z Z U '.~.H.I.[ *.V C r 8 8 r t B z 4 K zXU '.hXrX` ` U '.C.B %.U.` B %     .       3 ` pXh ",
"p rXe 9     ` 8 o * 3 [ +XV Q 4 t 4 7._.].+XP.].Z.X.S 7.7.7.7.7.r.t.r.r.r.p.S.Q.9XkXyX+X+X{.o. X[.z L.K.o. .% .         3 [ %Xp ",
"p $XR B + m.$ + L.[.yXB dX_.+.w 9 t t r.r.K.uX#X7.p.i.Z.F.'.+XoX%X+X^.i.i.A.F.XXOXkXyX>X%XeXP.Q.].+.H r.Q.].+XI.4 o     3 H uXy ",
"p oXB w   % M.~.].$XV e R R 7.7.7.7.r.r.Z.yX].eXK.oX$X$X$XoXQ.A.i.i.Z.L.oX&X4X4X$XeXyXeX%X+X~.Z.F.Z.S.+X#X+X+X%X#X[.+., 3 Q {.p ",
"p `.J x N.XXoXZ.F.7.O.r.Z.oX%X%X+X%X@X#X XrX9XXX~.XXF.Z.A.p.Z.L.XX%X%XeX$X%X4X%XQ.eXyX~.Z.i.Z.F.'.+X#X+X+X%X*X%X#X>X%X%XC A eXy ",
"; K.H R Z.B.r.F.F.'.XX$X+X&X%X%XeX%X+X+X@XtX$X$X..i.A.^.+X%XeXeXuXeXeXeXeX%XeXeX'.rX%XS.Z.Q.+X+X#X>XeX*XuXeX>XuX>X%X>XeX%XR ;X: ",
"p eX%X&X%XeXyXyXyXyXyXyXyXyXyXhXhXhXlXhXjXdXhXjXtXdXhXhXhXhXhXkXhXkXkXkXkXzXkXkXvXzXhXhXkXkXNXkXlXlXkXvXvXNXvXkXkXlXkXkXvXkXkX: ",
"p hXhXhXhXhXkXhXsXyXyXhXhXlXhXhXkXkXkXNXzXNXnXNXBXNXNXkXjXkXkXkXzXNXNXzXNXkXNXkXzXNXNXBXBXNXNXnXNXkXlXkXNXvXlXkXzXkXkXhXaXaXhXs ",
"p g p ; p p p p g : p p p f f p p p p p : ; p - p p p p s f s f s f f > p s p p p p p p i p i p h f f s p p p p p p : p p p i p "
};
