/* XPM */
static char *pigscene_png[] = {
/* columns rows colors chars-per-pixel */
"64 64 256 2 ",
"   c #020202",
".  c #0A0303",
"X  c #0B0A03",
"o  c #0A0A0A",
"O  c #060808",
"+  c #130402",
"@  c #1A0705",
"#  c #141502",
"$  c #1A1A07",
"%  c #1A1813",
"&  c #0C110F",
"*  c #220502",
"=  c #280906",
"-  c #370806",
";  c #251707",
":  c #3E190C",
">  c #361209",
",  c #321615",
"<  c #1D2103",
"1  c #242302",
"2  c #2D2B01",
"3  c #282708",
"4  c #322D01",
"5  c #372B05",
"6  c #2D3303",
"7  c #353202",
"8  c #3B3502",
"9  c #3C3A02",
"0  c #383609",
"q  c #262314",
"w  c #363215",
"e  c #430202",
"r  c #490706",
"t  c #5C0B02",
"y  c #560603",
"u  c #451708",
"i  c #5A1407",
"p  c #491916",
"a  c #571717",
"s  c #520B17",
"d  c #670604",
"f  c #681605",
"g  c #771903",
"h  c #671916",
"j  c #720F0E",
"k  c #43200E",
"l  c #4E240F",
"z  c #4D2C0E",
"x  c #4A2903",
"c  c #433C01",
"v  c #453A06",
"b  c #4B2413",
"n  c #4C2C13",
"m  c #4C211B",
"M  c #4C3512",
"N  c #4A3B15",
"B  c #56310A",
"V  c #792507",
"C  c #7E3402",
"Z  c #772716",
"A  c #6F2C16",
"S  c #6D1928",
"D  c #5D2A34",
"F  c #532A2A",
"G  c #6F2A32",
"H  c #5E1B29",
"J  c #3F4205",
"K  c #444203",
"L  c #4B4302",
"P  c #45420A",
"I  c #4B4708",
"U  c #534B03",
"Y  c #534A09",
"T  c #484413",
"R  c #57510F",
"E  c #6D5116",
"W  c #5F5722",
"Q  c #583249",
"!  c #73344A",
"~  c #442C6A",
"^  c #744C52",
"/  c #6D4A6C",
"(  c #615C59",
")  c #341767",
"_  c #850600",
"`  c #841804",
"'  c #951809",
"]  c #A41B04",
"[  c #872703",
"{  c #972A04",
"}  c #853804",
"|  c #973304",
" . c #873518",
".. c #912C19",
"X. c #A92A05",
"o. c #A83703",
"O. c #B53706",
"+. c #B73914",
"@. c #AD3010",
"#. c #873524",
"$. c #8F312E",
"%. c #AD362A",
"&. c #851E25",
"*. c #C53D08",
"=. c #92480B",
"-. c #A94405",
";. c #B74A05",
":. c #BA5604",
">. c #AB4819",
",. c #B24618",
"<. c #B25612",
"1. c #B7650F",
"2. c #944D30",
"3. c #BB5725",
"4. c #B14E35",
"5. c #97682D",
"6. c #B16D33",
"7. c #C55B07",
"8. c #C55916",
"9. c #C94D15",
"0. c #C86807",
"q. c #C97509",
"w. c #D37909",
"e. c #CA6719",
"r. c #CA7819",
"t. c #D87715",
"y. c #D76914",
"u. c #CE522D",
"i. c #D86A28",
"p. c #D47928",
"a. c #CC742F",
"s. c #E5762D",
"d. c #E17D1F",
"f. c #8A3B49",
"g. c #A33E42",
"h. c #974649",
"j. c #9C5150",
"k. c #884B55",
"l. c #A9584A",
"z. c #AE5154",
"x. c #B46C4F",
"c. c #90566C",
"v. c #AB5C6B",
"b. c #966673",
"n. c #B56F6D",
"m. c #9B6A4E",
"M. c #CF744E",
"N. c #C97969",
"B. c #E7765F",
"V. c #D78718",
"C. c #D28C10",
"Z. c #E58917",
"A. c #E49816",
"S. c #EB900E",
"D. c #EDA71E",
"F. c #D98927",
"G. c #DA9527",
"H. c #D88B38",
"J. c #DB9936",
"K. c #C9852F",
"L. c #E58A28",
"P. c #E9992A",
"I. c #E68838",
"U. c #E79737",
"Y. c #F59631",
"T. c #DAAD29",
"R. c #EAA73A",
"E. c #EFAD32",
"W. c #D6A918",
"Q. c #BC8250",
"!. c #B98C75",
"~. c #ADA25E",
"^. c #D98848",
"/. c #DA9746",
"(. c #CE8A54",
"). c #E89945",
"_. c #ED9052",
"`. c #DDAA47",
"'. c #E7A647",
"]. c #F6A848",
"[. c #E8A758",
"{. c #F7B959",
"}. c #F1B350",
"|. c #D5936F",
" X c #E89A6A",
".X c #EA906F",
"XX c #F7A967",
"oX c #F9B966",
"OX c #E8A376",
"+X c #F9A974",
"@X c #FCB877",
"#X c #ECB365",
"$X c #DDA663",
"%X c #FAC658",
"&X c #F7C74B",
"*X c #FCC877",
"=X c #F1C76A",
"-X c #B6851E",
";X c #543790",
":X c #574E9E",
">X c #7E75D8",
",X c #362A90",
"<X c #876B91",
"1X c #C37E84",
"2X c #8C7DD1",
"3X c #9585B2",
"4X c #A68CAB",
"5X c #B79DA4",
"6X c #DA9985",
"7X c #CA8E8E",
"8X c #ED9C9D",
"9X c #E79797",
"0X c #E89086",
"qX c #DBB38B",
"wX c #D1AA95",
"eX c #F8A986",
"rX c #F9B688",
"tX c #EBA59B",
"yX c #EFB090",
"uX c #D5B1AC",
"iX c #EEA4A3",
"pX c #EDA9A7",
"aX c #F0A7A5",
"sX c #F1AEAC",
"dX c #EBB7AA",
"fX c #F3B6AA",
"gX c #EFB5B6",
"hX c #C18DA4",
"jX c #FDC586",
"kX c #F8C696",
"lX c #F5CE93",
"zX c #DAC3B1",
"xX c #EBC8B8",
"cX c #F7CBB6",
"vX c #EAD2B7",
"bX c #F9D6BA",
"nX c #F3CBA8",
"mX c #FBE4BA",
"MX c #8C8BD3",
"NX c #A8A3DF",
"BX c #D3B8D4",
"VX c #BBC5F3",
"CX c #D5D1CD",
"ZX c #F8DAC4",
"AX c #F1D1CA",
"SX c #FAE4C9",
"DX c #F7E8D7",
"FX c #FCF1DB",
"GX c #EEE8D7",
"HX c #D4DDF5",
"JX c #F9EDE1",
"KX c #F2ECE4",
"LX c #FCF5E6",
"PX c #FCF9F9",
"IX c #E9EBF3",
"UX c #E5D8EA",
/* pixels */
"z z : : : : b b b b b b b b b b b b z z z z z z z z M M M M M M M M M M z z z z z z z z z z z z b b n n n n n n k k k k M M M M ",
"z                                                                   o               o                                     o o M ",
"z                                                                                                           o     O o         M ",
"z                                         @ F u * > .                               o                                         M ",
":                                     X r #.t V  .Z u %   O                   O   &                           o o   o         k ",
":                                 o , #.[ Z a y i 2.2.A =       o             o / DX. o                   o     o             k ",
":                               o , x. .` 4.l.Z $.Z Z - - >         Q b.@ @   uXeX.X.XCX@ o                                   k ",
":                               + 7X%.Q.M.M.#.z.cXtX|.2.i - X     o zXmXSXSXSXSXyXLXDXJXkX5.& o o                             k ",
"b                             o u x.4.6.x.M.$.xXZXZX6Xx.%.- +       SXSXJXJXbXbXSXeXvXvXbXSXmXSXDX=                           u ",
"b                           O . n.n.l.!.4.|.pXDXDXZXyXx.M.i =     + nXbXKXKXJXJXJXJXDXPXDXDXSXZXFX=                           u ",
"b                           O o m.2.l.l.N.j AXvXx.yXrXl.x.Z =   O ( wXvXKXKXJXJXJXJXJXJXLXKXKX$XLX.                           u ",
"b                             . 2. .$.l.6.f xXM.g ZX X$...V = O   7X7XzXGXDXJXJXJXJXJXJXJXKXPXnXwX                            u ",
"b                             . Z g Z M.r $.|.uXtXDXZX4.N. .>   % uXwX6X0X8X8X8XiXtXtX8XpXpXPXzX<.O                           b ",
"b                             o - V d 2.t 4.bXbXZXdXxX6X4. .; o % wXwX9X0X8XtXtX8XaXaXsXsXsXLXbX=.                            b ",
"b                             o @ g f t i tXfXcXZXvX|.x...Z ,   % uX9X0X0X8XtXiX8XaXaXsXsXsXPXZX>.                            b ",
"b                             o p t e  .i M.tXdXcX` 4... .V p r h wX9XiXiXpXiXiXiXiXiXpXsXsXLXbX=.                            b ",
"n                             X h y h u u 4.M.6X|..Xu.l.#.u > a S wX    PX8X8X8XpXaXaXPX    uXmX+                             z ",
"n                             . t - a * = r 2.l.x.M.8Xx.A = = H s uX    PX8X8X8XpXaXaXPX    qXFX*                             z ",
"n                         o X * u u - - - t aXd Z h Z p * = * a H SX9XiXiXgXAXAXAXAXAXsXiXiX!.mX                              z ",
"n                         O + * p - - H a G h e &.` h r , = = s s SXiXiXtXh.j.iXsXj.j.sXsXsXqXV .                             z ",
"z                           ; m m u k.gXc.hXS - a r h , = H = - PXZXpXaXtXh.j.iXsXj.j.sXsXsXqXV .                             l ",
"z                           @ - - b.k.CX3XPX4XS e - h - > a = - AXbXwX8X9X1X7X7XwX7X7XgXsXsXbX|                               l ",
"z                           + + D f.3XPXHXMX:XD G * p a * h @ , ZXZXwXaX8XiXpXpXpXpXpXsXsXsXdXZ .                             l ",
"z                           X @ k.v.NX4XVXMX;XQ &.> = p = u @ > ZXZXuXgXsXsXsXpXpXpXpXsXsXsXcXx                               l ",
"M                             F G v.BX/ PXHXMXMXS D * - = m = , DXZXCXKXLXLXLXSXnXZXZXZX9XCXzX>                               l ",
"M                           O D H ! HX<XVX,X;X~ D a > * - p + o SXZXKXDXDX(.PXZX^.DXAXxX7XGXvX+                               l ",
"M                         o   k.z.v.IX<XVX>X2X2X4Xz.- = F p   o SXSXJXDXbXDXAX_.KXDXDXGXGXqXSX                                l ",
"M                           @ Q Z uXPX! 2X:XMX4X/ $.= , p ,   @ SXSXbXDXDXbXrX+XDXDXCXDXGX=.SX.                               l ",
"M                           = f.e BXPX/ MX2XIX4X3XS H , p > . Q ZXDXDXbXZXyX.X_.KXLXuXDXFX<.6X.                               M ",
"M                         o D f.h HX5Xf.NX>X) ;XNXG G = = ; . vXDXSXDXyXdXkXrX^.DXDXuXDXFX6.x..                               M ",
"M                       O   D G z.uX<Xc.k.NX/ Q G f.* a @ = k.|.bXDXfXeXeXrX XzXuXzXuXDXzXyX5.X                               M ",
"M                         o H s G G d G k.k./ b.^ e G = f.H n.y fXfX+X X_.ZXFX!.!.|.yX|.qXnXr                                 M ",
"z                       O . G G h.g.z.e ! ! b.n.$.v.@ h.h.$.$.$.fXM.e.SXZXbXwX!.!.!.wXvXZXZX;                                 M ",
"z                         X H v.g.d g.2.G ! c.h.b.N.e 4.$.f.B.z.4.eXo o   + xXwXwX!.SXZXSXnX.                                 M ",
"z                           p f.z.h.d &.h e k.b.uXv.S v.i $.&.h.>.X O + u ^ m.eX|. X[.|.JXbX                                  M ",
"z                           D l.4.V M.H.K.(.G D h..X0XN.j %.&.z...Z.V.6.3.3.|.OX XcXxXOX@ & X O %     .   . X   X X X X X X X M ",
"z                           A 2.}.`.[.C.oX).>.G G z.h r %...y y *X^.;.7.;.8.|.OXZXbXbXqXx.U K P R T 0 0 T 0 T 0 0 2 8 1 T 4 8 z ",
"z                     . o 5./.R.E.{.G.=XZ.R.I.8.e p y z.$.y i #.-.,.o.;.M.(.OXZXZXZXdXOXa.9 L E L T 9 v 7 0 0 4 v 8 T 4 I 8 8 z ",
"z                     q (.oX].D.}./.{.V.U.q.-.o.-.[ Z t t Z t t | ` { ;.a.OXZXDXDXvXvXOX6.Y L 8 R 7 4 $ 0 7 8 0 9 0 4 2 2 7 3 z ",
"z                 O & Q.*X}.%XT.C.%XE.P.;.<.{ P.t.y.-.3.| [ | [ [ [ O.a.H.M.DXZXSXzX|.|.M.L R K I L v 8 0 7 4 1 7 9 2 8 v 8 8 z ",
"z                 o m.^.'.}.%XC.lXC./.:.J.H.V.D.0.U.o.y.<.o.| f g g ;.H./.rXkXnXkXqX6XM.| Y R L I v 9 4 8 4 3 7 7 T 4 2 7 9 8 z ",
"z               O F a.{.XX%X@XmX=X'.r.F.J.r.S.E.y.V.o.'.:.| o.[ g [ e.).oX X^.DXnXdXx.OX4.E I v P 4 4 8 4 T 0 v L 7 7 2 9 7 K z ",
"z             % 1  X[.@X].S.*XR.V.:.:./.`.).U.E.w.V.;.}.e.| -.[ f V 1.J.e.M.ZXxX6X!.6.{ ' j v 9 8 2 8 4 8 8 5 4 I 7 9 P P 7 7 z ",
"z         X # < T U.].].U.P.R.C.7.{ p.{.=X}.E.}.Z.E.A.{.;.;.-.g f V 6.G.` 6XcX6X(.(.' @.' ,.U 8 P 7 4 N 8 7 8 1 3 9 2 7 4 v 9 z ",
"M       X $ 6 0 6.P.Y.Z.V.R.V.Z.-.;.p.#X`.G.}.T.D.E.A.G.7.-.0.[ f [ a.J.pXzXfX.X<.,._ ` _ @.5.2 9 7 2 3 1 1 2 7 7 7 2 9 9 K L z ",
"M     # 1 1 4 9 ).P.C.*XY.Z.Z.;.:.8.:.).jXT.D.=X&Xt.oXq.<.-.q.[ f [ 1.a.>.UXPX!.,...+.d .._ @.I 2 7 7 8 8 4 3 7 7 7 P 9 7 9 9 z ",
"M & < 3 1 0 6 6.L.R.A.S.L.d.;.<.a.<.:._.#X[.W.%XD.P.}.G.3.-.1.V d { 7.>.O.M.,.n.8 B d %.d _ u.E I v 9 7 0 8 8 9 P 7 6 9 K K 7 z ",
"M $ 1 0 2 2 9 F.t.U.F.L.w.#XK.H.0.;.8.o.U.R.&X%XA.F.L.Z.-.p.:.g f o.;.d 3.M.{ 7Xf B @.f ' +.X.| 2 7 7 9 0 v v 4 9 2 2 7 9 9 v z ",
"n 1 2 9 9 6 6.t.).}.=XoXJ.1.F.q.0.7.;.O.| q.A.P.w.P.t.t.-.K.-.f V | -.` i.y.>.A N N V f ' ' +.+.=.4 7 J 9 4 9 U 9 T 9 9 9 K Y l ",
"n 1 K K U -X'.jX*XU.L.V.0.P.`.=X=XT.R.].w.0.0.:.7.p.Y.8./.e.[ r g ` O.*.M.,. .=.v v T ..O.] i._.{ v 9 9 9 Y P v K 9 9 I L R L l ",
"n 9 ~.{.*XlX#XG.L.7.7.{.t.V.F.F.`.R.=XjXE.{.}.D.E.].w.e.p.-.V - g ' u.%.X.2.=.=.v v x ..@.+.O.;.e.^.K K 9 v L K I K 8 v K K 9 l ",
"n 4 qXT.F.0.0.e.0.q.oXS.V.%XmXoXU.p.:.F.#X&XoX{.A.r.;.7.| V - V X.O.@.s.4.} } | 9 v v E u.s.eXbXs.+X-.5.7 v K K 8 9 7 R W 2 7 l ",
"n ~.0.0.e.s.e.:.7.C.oXlXlX&X{.%X[.}.G.-.;.p.s.-.3.o.V f t e - @.O.9.@.@.C } } =.v Y K R g eX).kXeX_._.y.XX5 4 6 6 1 $ $ $ # $ b ",
"n ~.).O.o.:.e.e.D.J.H.XXXXoXZ.S.D.S.P.P.).;.V Z i f _.B.@.] t +.u.M.X.@.C C } =.c v 4 v 3.jX_.XXXXK.rX@XlX[.Y.i 5 $ # # $ # $ b ",
"n rXU.8.r.[.].H.A.@Xs.Z.T.R.'.].A.E.t.=XC.).r h t  .{ | { [ { @.9._ u.%.C C } 2 $ 3 w 5 3.[.@XXX7.a.+X;.eX@XU.OX@X^.w % $ # q b ",
"n jXY.y.s.G.Y.L.D.*XL.{.U.G.'.P.Z.R.lXP.P.e t r t y d ` j y @.9.O.i.X.u.u.; % % q q 1 w g XXrXrXOXi.rX{.+.] X.] _ e X % # 1 # b ",
"b cXXX0.i./.).@XE.U.}.C.V.I.A.E.Y.=XR.r.| y t [ [ { { | X.{ @.X.i.+.9.B..XO._.- @ $ $ ; 4.^.Y.jX....y y a i u B . X # # 1 4 9 M ",
"b [.Y.7.y.:.C.rXG.w.F.R.F.i.[.@X[.jXV.y.i y g | [ [ | o.o...] _ u.8._.;.rXeXmX_..Xn.# ; Z ` g [ 2.# 3 2 2 ; 2 0 8 5 8 7 8 7 9 M ",
"b 0.y.;.9.7.yX#XK.I.I.XX).:. XR.@XG.t.y h [ > g [ | | o.O.` _ u.+.y.LX] OXrXeX3.5.j.; ; 7 9 L c 2 0 I U L c v K L v v 8 2 9 9 n ",
"b ;.;.V.mXG._.H.e.p.L.r.Y.I.nXP.%X#Xy.d f u ; # V [ | O.O.V ; < - u j ` .XOX6XA u E L L U U U Y L L v 9 v L U I v v 9 L 8 K 9 n ",
"z ^.p.I.].I.a.a.9.J.p.O.y.0.s.=X%X).f # q % % ; q $ u X.| i q % 1 9 6 4 2 z x v I R U I K 9 2 v P K I v U U U v v U 8 v 7 L v z ",
"z =.e.$XU.y.s.).r.1.7.P.Z.L.C.T.P.F.q % % # < 1 1 W B [ | x.K 2 9 9 K K J 9 9 I I K 8 8 P 9 8 L v L U L L R c L v v L v L v v z ",
"z 7 2 5.K.e.).1.-.I.V.}.`.[.J.'.p.d # # ; < w ; 8 4 8 4 L 9 I I 9 K 9 8 2 7 7 K K K 9 v U U K Y L v v v L U L L 8 v L v L U v z ",
"z z : : : : b b b b b b b b b b b b z z z z z z z z M M M M M M M M M M z z z z z z z z z z z z b b b n n n n n k k k k M M z z "
};
