/* XPM */
static char *pool_png[] = {
/* columns rows colors chars-per-pixel */
"32 16 202 2 ",
"   c #0C0E09",
".  c #0A0805",
"X  c #130D00",
"o  c #14130B",
"O  c #1B140C",
"+  c #1B190F",
"@  c #171602",
"#  c #1D1C12",
"$  c #121210",
"%  c #221A0D",
"&  c #2A1E0E",
"*  c #3E190C",
"=  c #251F13",
"-  c #291E11",
";  c #221E1F",
":  c #2B2509",
">  c #2B2412",
",  c #282217",
"<  c #352B15",
"1  c #382C18",
"2  c #36320B",
"3  c #281C26",
"4  c #1A2320",
"5  c #2F312F",
"6  c #411D0D",
"7  c #4E1F15",
"8  c #43200E",
"9  c #4E240F",
"0  c #4D2C0E",
"q  c #4B2412",
"w  c #4C2B14",
"e  c #4C3612",
"r  c #44351C",
"t  c #4C3A1C",
"y  c #4D3917",
"u  c #563F1D",
"i  c #732415",
"p  c #4F3B22",
"a  c #355E3E",
"s  c #5A461D",
"d  c #4B4B19",
"f  c #6D431D",
"g  c #554322",
"h  c #5B4522",
"j  c #57452D",
"k  c #5B5023",
"l  c #544D30",
"z  c #4F5A32",
"x  c #4D4A31",
"c  c #634C25",
"v  c #684D2F",
"b  c #6E5324",
"n  c #75572C",
"m  c #7B5A31",
"M  c #427D23",
"N  c #76663C",
"B  c #192F4F",
"V  c #262E4A",
"C  c #2F3246",
"Z  c #483C47",
"A  c #396149",
"S  c #384C6A",
"D  c #3F6361",
"F  c #53414D",
"G  c #5E5043",
"H  c #584A54",
"J  c #465454",
"K  c #715157",
"L  c #596549",
"P  c #696A4A",
"I  c #7C7A51",
"U  c #4E4B60",
"Y  c #5E4F6E",
"T  c #5E5960",
"R  c #4A4C75",
"E  c #6A5C6D",
"W  c #42617D",
"Q  c #796268",
"!  c #7F7760",
"~  c #786C7B",
"^  c #6A6C74",
"/  c #BB5F1C",
"(  c #A7440B",
")  c #B34129",
"_  c #C97839",
"`  c #BD564D",
"'  c #816B4A",
"]  c #88754B",
"[  c #8F6C57",
"{  c #AC6F4C",
"}  c #8C737B",
"|  c #C7735B",
" . c #468614",
".. c #7C805B",
"X. c #5E9A67",
"o. c #6E947F",
"O. c #6A9A68",
"+. c #908148",
"@. c #A98646",
"#. c #958F6B",
"$. c #A8956B",
"%. c #BD9E70",
"&. c #B4926A",
"*. c #B7A172",
"=. c #C48951",
"-. c #D39C6E",
";. c #C8AC76",
":. c #D9AC7F",
">. c #CEB37E",
",. c #D6B17A",
"<. c #335795",
"1. c #316C94",
"2. c #315EA1",
"3. c #3664AB",
"4. c #3F6FB9",
"5. c #5579AB",
"6. c #4A74A4",
"7. c #4B6D90",
"8. c #4370E5",
"9. c #8C7986",
"0. c #518D9E",
"q. c #7D9B81",
"w. c #5D91B0",
"e. c #6E8CAE",
"r. c #7E8DAE",
"t. c #59A6A0",
"y. c #64A9AE",
"u. c #729AC2",
"i. c #7AADD8",
"p. c #4589E2",
"a. c #619CE8",
"s. c #6BA9EE",
"d. c #7AB4EB",
"f. c #7EBAF0",
"g. c #72A3EC",
"h. c #9D9580",
"j. c #9C8B92",
"k. c #8E8F98",
"l. c #BF9F92",
"z. c #A1888E",
"x. c #90BC9B",
"c. c #BCA586",
"v. c #ACB588",
"b. c #9E98A6",
"n. c #8AA4BC",
"m. c #99AAB9",
"M. c #9DBEA9",
"N. c #B2A5A9",
"B. c #CCB58A",
"V. c #C9B384",
"C. c #D5B789",
"Z. c #D4AF9F",
"A. c #CDB997",
"S. c #D3AE8C",
"D. c #E4BD9A",
"F. c #C3A8A8",
"G. c #CBBBAA",
"H. c #DCC79F",
"J. c #DACC9F",
"K. c #E3C793",
"L. c #DBC3A4",
"P. c #DCC9A4",
"I. c #D3D3BB",
"U. c #E9C9B4",
"Y. c #89ABCC",
"T. c #9FB1C9",
"R. c #9DBCDE",
"E. c #93B7D9",
"W. c #8EB4D8",
"Q. c #A3B8D3",
"!. c #B0BBD1",
"~. c #87ADE7",
"^. c #8AB4EA",
"/. c #94BFEC",
"(. c #9ABEF0",
"). c #8CB6F2",
"_. c #B9C3CE",
"`. c #ACC2D9",
"'. c #B6C7D9",
"]. c #9DC4E3",
"[. c #A5C5E5",
"{. c #B4C6E3",
"}. c #B3CCE3",
"|. c #B9CCE2",
" X c #B4CBEA",
".X c #BAD2EB",
"XX c #C9CDD2",
"oX c #CED5DD",
"OX c #C4D0DC",
"+X c #D4D9DC",
"@X c #D9C7C3",
"#X c #E3DFDA",
"$X c #EED3CA",
"%X c #C3D2E3",
"&X c #CCD9E7",
"*X c #D4DCE4",
"=X c #D4DDEA",
"-X c #DADFE6",
";X c #D8E1E5",
":X c #DBE4EC",
">X c #E4E5E6",
",X c #FEFEFD",
/* pixels */
"0 * * q q q q q q 0 0 0 0 e e e e e 0 0 0 0 0 0 q q w w 8 8 y e ",
"* oXoXoX*X>X*XQ.~.%X_.;X*X*X&X-X%X=X*X*X&X{.~.a.=X;X*X*X{.p.8.8 ",
"q _.XXoX+X*X>X&X).OXS Y.[.%X}..X}.|.|.{.[..X&X*X=X X^.s.p.g. X6 ",
"q _.XXoX+X&X*X;X}.n.6.W.R.d.R.^.s./.%X:X>X-X=X:X=X=Xd. Xs.(.R.q ",
"w W n.m.T.!.!.'.%X*Xm.`.%X|.&Xd.f.[.].*XN.} H } E 9.j.#Xl.Z 5.0 ",
"0 P L [ #.#.-.7 =.i.i.Y.}.E.`.`.[.Q.E.K z.~ ~ 9.N.Q Q $X>XF.b.9 ",
"e g @ ] $.+.{ $.$.$.3.2.3.4.2.2.5.3 ; Z H K T Y C F U @XU.F.N.9 ",
"e o O : l j ] ' z I $.G.r.e.u.Q.w.u.<.R V V 5 V ^ B D ^ G.j.M e ",
"0 # t : k O ' [ G 5 N P.i q.M.{ w.0.h.U.1.t.L z 2 J a X.I.v. .e ",
"0 X 2 O @ o ' N 5 S k.&.:.7.4 0.Z.V S.-.:.P.K.C.>.C.P.K.H.x.A 0 ",
"0 $ *.%.B.A.;.;.B.;.V.C.&.b.#X. ,X,XJ.B.| D.D._ ` ) _ ,.H.c.O.0 ",
"e o @ g t t t p s g h h h b m n b n @.V.B.A.c.P.P.C.( / -.D.q.0 ",
"w   o   o > < < < r t 1 r p r t y g g u t s s c c c n v < y...9 ",
"w   + o   o , > , , > & > > - & & - & > < < 1 < 1 r r t + P x q ",
"q o         o # . o o + # @ O O o o O O O & & = = > > 1 = f d w ",
"0 * * q q q q q q 0 0 0 0 e e e e e 0 0 0 0 0 0 q q w w 8 8 y e "
};
