/* XPM */
static char *prairie_ride_png[] = {
/* columns rows colors chars-per-pixel */
"16 32 165 2 ",
"   c #0B0F12",
".  c #36140B",
"X  c #2E1A11",
"o  c #191E21",
"O  c #372127",
"+  c #521E1C",
"@  c #462011",
"#  c #492612",
"$  c #522311",
"%  c #54201D",
"&  c #55271D",
"*  c #6E2E00",
"=  c #612711",
"-  c #67321E",
";  c #773412",
":  c #4F2723",
">  c #572B22",
",  c #592D23",
"<  c #5C2F25",
"1  c #54262C",
"2  c #5C362F",
"3  c #652A25",
"4  c #662B27",
"5  c #682827",
"6  c #632A2D",
"7  c #63292F",
"8  c #6A282D",
"9  c #6B2F2D",
"0  c #66352A",
"q  c #66362A",
"w  c #7A3D20",
"e  c #70312D",
"r  c #75332F",
"t  c #682C31",
"y  c #692C35",
"u  c #6F3631",
"i  c #6D3137",
"p  c #6E3238",
"a  c #6C333A",
"s  c #763530",
"d  c #723237",
"f  c #723F32",
"g  c #7B3834",
"h  c #7D3935",
"j  c #7F3B37",
"k  c #703539",
"l  c #713539",
"z  c #75343A",
"x  c #74373C",
"c  c #7E343A",
"v  c #7A3A3C",
"b  c #7A3A3D",
"n  c #783A3F",
"m  c #7A3A3E",
"M  c #08402C",
"N  c #08472C",
"B  c #0B613D",
"V  c #514136",
"C  c #724032",
"Z  c #734032",
"A  c #774236",
"S  c #784537",
"D  c #794637",
"F  c #7A4738",
"G  c #7C483A",
"H  c #7D4D3D",
"J  c #743B44",
"K  c #7A3840",
"L  c #7C3C41",
"P  c #7E3D42",
"I  c #7F3C43",
"U  c #7E3F43",
"Y  c #0C6E45",
"T  c #7B4049",
"R  c #7B414B",
"E  c #7D414A",
"W  c #675558",
"Q  c #665866",
"!  c #766166",
"~  c #94250C",
"^  c #AA290C",
"/  c #813D38",
"(  c #813D39",
")  c #833E3A",
"_  c #843F3B",
"`  c #8E4114",
"'  c #954514",
"]  c #9E4A16",
"[  c #A34E15",
"{  c #B35716",
"}  c #B3521C",
"|  c #864521",
" . c #8C462C",
".. c #995022",
"X. c #85403B",
"o. c #83413F",
"O. c #87413C",
"+. c #84433D",
"@. c #89433E",
"#. c #8A443F",
"$. c #803E41",
"%. c #803C43",
"&. c #813F42",
"*. c #823E45",
"=. c #813E46",
"-. c #823F49",
";. c #8B4640",
":. c #8B4942",
">. c #894844",
",. c #824048",
"<. c #844048",
"1. c #874249",
"2. c #88434A",
"3. c #895244",
"4. c #895846",
"5. c #8D6345",
"6. c #97775F",
"7. c #B56447",
"8. c #887068",
"9. c #8B716A",
"0. c #A78355",
"q. c #B58867",
"w. c #B39067",
"e. c #A38772",
"r. c #AE957F",
"t. c #AC967E",
"y. c #CAA76E",
"u. c #D1AA69",
"i. c #C3A57E",
"p. c #C4A57F",
"a. c #D6B67A",
"s. c #DFBB7C",
"d. c #E6B166",
"f. c #F3C87A",
"g. c #BA9F85",
"h. c #B5A09C",
"j. c #B9A39A",
"k. c #A496A5",
"l. c #B8A6AF",
"z. c #AAA1B8",
"x. c #B4A6B3",
"c. c #D6B78D",
"v. c #CFB79A",
"b. c #D4BCA6",
"n. c #C2B0B8",
"m. c #E2C189",
"M. c #E2C696",
"N. c #FAD890",
"B. c #F0E098",
"V. c #FBE1AA",
"C. c #FCE7BE",
"Z. c #BBBEE9",
"A. c #C2B5C0",
"S. c #C9C5C1",
"D. c #CEC2CC",
"F. c #FCEAC7",
"G. c #FCEED3",
"H. c #C7CAE6",
"J. c #C2C5F0",
"K. c #C7CAF5",
"L. c #CED0F5",
"P. c #D0D6F7",
"I. c #D4DDFA",
"U. c #FDF3E1",
"Y. c #FEF7ED",
/* pixels */
";.2.o.u , + + % > , 5 9 u L E ;.",
"E K.J.J.Z.Z.Z.Z.Z.Z.Z.Z.Z.Z.Z.E ",
"1 L.L.K.K.J.J.K.K.J.Z.Z.Z.Z.Z.J ",
"7 P.L.L.L.L.L.K.K.Z.Z.Z.Z.Z.Z.<.",
"y P.I.P.L.K.K.K.K.K.K.J.J.J.J.-.",
"p A.I.P.L.L.L.L.L.K.K.K.K.K.K.<.",
"d x.A.I.I.P.P.L.L.L.L.L.L.L.K.*.",
"y v.M.N.L.I.H.H.P.P.P.L.L.K.K.L ",
"z k.l.x.A.L.. 2 I.I.P.P.P.L.L.*.",
"#.v.N.N.N.s. .7.I.I.I.* z.I.L.#.",
"#.N.x.v.x.^ ~ o A.L.@ ; { D.I.#.",
"/ k.O W 7.g.^   0.$ ] } { ' d.o.",
"r j.@ @ v.N.^ N X ] { ` * 9.u./ ",
"f v.X @ ` ] N B Y 7.X y.@ V a.G ",
"C N.t.X } { # X X ` ` N.a.a.N.F ",
"C N.N.5.` } ] X | ..{ ` y.f.B.D ",
"D f.m.m.; [ { @ = - w ; ` B.N.D ",
"3.f.p.e.= w ` p.f.w.% q.S.N.f.C ",
"#.N.9.! : - ` Q Q Q 6.@ X f.f.d ",
"#.F.t.Q Q % q.S.Q Q Q ! V.N.N./ ",
"o.U.N.t.9.! @ X ! 9.t.M.C.C.V.#.",
"/ Y.h.A.n.M.V.C.G.F.V.F.V.C.C.#.",
"j F.v.k.x.F.U.U.F.F.v.A.n.N.V.#.",
"j U.F.U.F.V.F.V.F.V.k.x.A.f.N.#.",
"L v.k.A.V.c.A.A.V.N.B.N.M.v.A.*.",
"m M.v.x.F.k.x.x.n.N.N.B.v.h.k.L ",
"m N.V.F.N.h.k.n.A.x.N.B.B.N.v.*.",
"m k.N.N.N.f.v.k.k.h.f.N.N.N.N.*.",
"z v.x.f.N.B.B.N.M.v.k.f.N.f.N.m ",
"z M.A.n.N.N.f.N.N.M.A.A.N.f.N.L ",
"G N.h.A.b.N.f.f.f.v.k.A.M.f.f.4.",
":.:.<.c j r 4 0 0 9 9 4 7 p z o."
};
