/* XPM */
static char *skeleton_png[] = {
/* columns rows colors chars-per-pixel */
"64 48 249 2 ",
"   c #1B0B02",
".  c #150A01",
"X  c #1D1101",
"o  c #1B1B19",
"O  c #240D01",
"+  c #2B1402",
"@  c #271404",
"#  c #371903",
"$  c #3A1711",
"%  c #302614",
"&  c #272728",
"*  c #292734",
"=  c #3A393A",
"-  c #342E30",
";  c #1F1E24",
":  c #4E1505",
">  c #4A2909",
",  c #53310E",
"<  c #702C09",
"1  c #4D3928",
"2  c #671607",
"3  c #3F4136",
"4  c #4E431C",
"5  c #634B16",
"6  c #4F4837",
"7  c #69542F",
"8  c #7B693A",
"9  c #3A3844",
"0  c #443C46",
"q  c #494749",
"w  c #524C4B",
"e  c #56564C",
"r  c #4C4A55",
"t  c #544E56",
"y  c #545454",
"u  c #5C5B5C",
"i  c #595759",
"p  c #4C514B",
"a  c #625B59",
"s  c #695549",
"d  c #66635D",
"f  c #766D4F",
"g  c #5C5A64",
"h  c #635C66",
"j  c #625F74",
"k  c #5F6063",
"l  c #6B646B",
"z  c #676567",
"x  c #766C68",
"c  c #77736C",
"v  c #6B6873",
"b  c #746E75",
"n  c #747373",
"m  c #75737B",
"M  c #7C7B7C",
"N  c #7A7777",
"B  c #6F7075",
"V  c #8A280A",
"C  c #89281B",
"Z  c #9A2B19",
"A  c #8B3A19",
"S  c #973619",
"D  c #99320A",
"F  c #A2351A",
"G  c #9A2C24",
"H  c #9B3826",
"J  c #993C32",
"K  c #A53B24",
"L  c #A43530",
"P  c #9A1E1E",
"I  c #914A1B",
"U  c #A8571B",
"Y  c #A95D1E",
"T  c #A5561C",
"R  c #A4431D",
"E  c #AA611F",
"W  c #9A4625",
"Q  c #985829",
"!  c #964C32",
"~  c #A44B24",
"^  c #A84B27",
"/  c #A85728",
"(  c #A64A34",
")  c #AB5836",
"_  c #B25939",
"`  c #B3552F",
"'  c #9C6429",
"]  c #896A36",
"[  c #956B38",
"{  c #8C7132",
"}  c #AB6421",
"|  c #A76826",
" . c #A57426",
".. c #A77A29",
"X. c #A87729",
"o. c #A7693A",
"O. c #B56438",
"+. c #B5773D",
"@. c #B16E2F",
"#. c #94621B",
"$. c #C16F39",
"%. c #B45846",
"&. c #8B6A44",
"*. c #8B764A",
"=. c #987548",
"-. c #967953",
";. c #916A4D",
":. c #AA6745",
">. c #B86748",
",. c #B87748",
"<. c #BA7A54",
"1. c #AC6F51",
"2. c #857B7A",
"3. c #8B7765",
"4. c #B27B64",
"5. c #C57449",
"6. c #C57854",
"7. c #C46950",
"8. c #D07965",
"9. c #7F8174",
"0. c #B68539",
"q. c #CB8D3B",
"w. c #998647",
"e. c #9A855B",
"r. c #BA854A",
"t. c #A48557",
"y. c #B48C56",
"u. c #878379",
"i. c #958E73",
"p. c #AC9969",
"a. c #B39C6D",
"s. c #B69769",
"d. c #AC9974",
"f. c #B39C73",
"g. c #B49B7B",
"h. c #B59878",
"j. c #AC886D",
"k. c #B9A378",
"l. c #B1A672",
"z. c #C5854A",
"x. c #C78656",
"c. c #D18858",
"v. c #C8955B",
"b. c #D4965D",
"n. c #CFA358",
"m. c #CB8966",
"M. c #D58A66",
"N. c #CB9667",
"B. c #D49967",
"V. c #CA9975",
"C. c #D49B77",
"Z. c #CF8272",
"A. c #CCA369",
"S. c #D6A76A",
"D. c #CBA876",
"F. c #DBAD7B",
"G. c #D6A876",
"H. c #DCB47B",
"J. c #DCBA7D",
"K. c #D8B577",
"L. c #D7B46B",
"P. c #E2BA7A",
"I. c #E4AD76",
"U. c #DCC17A",
"Y. c #DEC46F",
"T. c #E3C47B",
"R. c #7D7A84",
"E. c #827C85",
"W. c #867D90",
"Q. c #848283",
"!. c #8B858B",
"~. c #8A8788",
"^. c #928C8B",
"/. c #99958D",
"(. c #8C8994",
"). c #928D93",
"_. c #958D98",
"`. c #999597",
"'. c #8B9191",
"]. c #B59A82",
"[. c #A19C9B",
"{. c #A69B89",
"}. c #B7A684",
"|. c #BCB289",
" X c #A6A29C",
".X c #B9AF99",
"XX c #9C98A3",
"oX c #A39CA4",
"OX c #A7A5A7",
"+X c #B6B4AE",
"@X c #9EA2A1",
"#X c #C9AA86",
"$X c #D5A885",
"%X c #DBB383",
"&X c #DCBC84",
"*X c #DCBC8B",
"=X c #D6B588",
"-X c #C9B796",
";X c #D8BA95",
":X c #CEAC94",
">X c #E3BC84",
",X c #E3BC8B",
"<X c #E4B687",
"1X c #E4BB95",
"2X c #EBB488",
"3X c #D2BAA3",
"4X c #E1BDA2",
"5X c #DDC487",
"6X c #DCC596",
"7X c #CCC291",
"8X c #E2C384",
"9X c #E4C48C",
"0X c #E4CB8C",
"qX c #E9C688",
"wX c #E4C493",
"eX c #E5CC93",
"rX c #EBCB93",
"tX c #E4C49B",
"yX c #EBCD9C",
"uX c #E6C898",
"iX c #E8D39A",
"pX c #F0CC91",
"aX c #DAC8A7",
"sX c #CDC7B5",
"dX c #D4CAB5",
"fX c #D5CCAF",
"gX c #E3CCA3",
"hX c #E6CBA8",
"jX c #E6D3A4",
"kX c #EBD4A4",
"lX c #E8D4AB",
"zX c #F2D8A9",
"xX c #E2CDB4",
"cX c #E5D3B3",
"vX c #E8D7BA",
"bX c #F7DEBB",
"nX c #DCD5C3",
"mX c #CDCCC6",
"MX c #E8DAC7",
"NX c #ECDCCD",
"BX c #F4E5CA",
"VX c #EAE5D6",
"CX c #F2E9DA",
"ZX c #EDE9CD",
"AX c #EBE8E4",
"SX c #F3ECE5",
"DX c #F8F3E8",
"FX c #FAF9F7",
"GX c #AFBAC5",
/* pixels */
" . .} } / / W A A W ^ ^ ^ ^ / Y Y Y Y | |  . . . . . .| Y U U U U U U U U U U U U U U U U U / | |  . . ...' A C C C H / |  .} Y ",
" .b m M ~._.oXoX+XOXOXOXXX).).Q.).E.!.XX[.XX`.^.!.l w ; E.m v n n n n b q = = & ; z R.v v h d q 9 g B ).^.`.).^.c l z h i i y / ",
"| n m R.v v z d !. XOXOX`.XXR.v N ).Q.^.OXXX`.).n 9 ; R.Q.Q.N n m M n m R.- ; ; g m n v z q 6 r * w N ~._.`.).).b l d i e i y / ",
"^ x z d i i w y u c OXOXXXQ.x ).).).).^.OXXXXXR.0 * Q.M M E.9.n m m M m = o & = j n m b = q y m (.= l `.`. X`._.c z z g g u y ` ",
"W i h r q y l v p e x `.XXd `._.XXXX!.!.M oX[.q ; ).9.M M OXSXSXZXSXFXFXd q M q = v R.9 9 q n N Q.Q.9 W.[.OX).(.m v z h h g y ^ ",
"I g q 2.~.).`.OXOXm i v Q.^.)._.`.oXXX).~.Q.g ; ).~.Q.E.R.SXCXNXNXnXnXnXsXN m M = i z = i d n u.Q.~.z q ~.`.E.x a w = = = q i A ",
"^ l v M ~.~.XX@XOXOXN y a ~.)._.`.`.XXoX).Q.E.`.(.!.R.R.E.SXSXDXCXZXMXnXfXc m m R.9 y i z z v u.~.Q.).w q ^.q - * * & & & * 9 I ",
"/ z a N ~.).[.OXoXOXi R.y 3.:Xt.{.[.OX`./.Q.R.E.~.(.E.2.E.SXDXFXVXVXvXdXsXx m M = = 9 q a v m M !.!.^.^.w 6 g ; p k i z a 0 & I ",
"/ g 2.z ).).oXOXOXa Q. X;X,X2XS.B.M.6.<.1 y N M 9.~.E.2.2.SXAXDXSXCXZXdXsXc N - q t m = g g n 2.!.Q.^.i ; 9 q p m z h i y a y I ",
"/ v b c u.).OXOXa u.;XqXuXK.I.P.,X>XI.N.z.M.c.j.Q.R.!.~.1 FXDXSXZXaXVXnXsX2.u.G.q.i.R.m 6 u d E.!.Q.s 9 w XXq w h v h i d i i A ",
"/ v c 2.2.~. Xl ^.lXeXuXF.%XqXrX;X4XyXqXP.S.M.B.B.C.y.6 % DXDX< FXSX5 3XfXj.>.) 5.S.hXx z 0 y v Q.a - Q./.).).y p h i z i i y W ",
"/ z x R.!.!.2.;XiXjXyXK.5X<XqXqXBXP.>XI.I.>XuX<XS.I.I.2XB.NX# 4 5 +X4 4 mXQ 5.5.c.>XiXjXf v q g y - ; [.^.).).!.y i y d h i y / ",
"/ w a d a x 9XwXzXiX9XwX8X8XjXrX%XT.rXuXuXqXI.>X>XqXm.8.c.NX+X6 x SXe 9.nXy.O.7.5.rXzXlXkXk.3.q & o m  X/./.[.Q.d t p i g i i ) ",
"| 3 w w 7 hX8XjXJ.yXeX9XyX9XrX9XyXqXrXqX2X,XqX>XuX0.6.8.m.bXCX+XFX*.+XnXdX,.%.%.5.0XiXlXjXkXD.6 o * b m !.^./.c a c 1 y u i y | ",
"| i B x *X;X*XK.F.rXeXiXgXyX,X>X9X>XqXqXrX>X,X2X@.6.m.M.c.N.fXDX[.GX`.dX[ W ~ _ N.eXJ.uXjXlXzX8X4 ).y u z b a v c l a y e g i } ",
"/ z v 3.wX0X*X%XF.G.>XT.kXyXwX8XrXwXwX>X2XI.O.7.` ( 7.M.c.b.NX/.u.2.u./.=.( %.` ,XjXwXlXeXgXiXjX8Xj./.n u i i u.n l h i y y y } ",
"/ h l c iX9XyX=XS.G.K.9X0XzX9XpXuX>X2XB.` J %._ 7.O.7.6.c.B.SXNX/.nX`.sX}.~ >.@.wXjXeXjXlX5XeXiXeXS.%X{.{.).oXu.c z a a u i i / ",
"E z l N :XgXwXwX<X$XG.T.iXyXqXuXuX$XD J ( ) K ( %.,.O.6.M.C.xXMXCXVXVXaXg.j._ } K.*XgXgXcXlXJ.eXiXeXwXS.j./.[.u.N l a d y i h ~ ",
" .w w w > iX*X$XF.<X$XuXK.yXzX<X$XS 1.O.} ) _ 7.>.6.Z.Z.4.s.AXSXCX|.}.1.|.-X:.5.z.5XhX0XjXlXhXiXeXjXhXeXS.j.M 2.N x a i y h z / ",
"..* & * - zXeXF.G.>XF.&X5XpX*XcX~ J ! ^ ( _ O.>.c.B.x.SXSX8 MXBXnXnX*..Xh.bXdX;._ hXgX*X5XiXjXiXiXjXjXuX9XS.;.y z l v l z z g ~ ",
" .- 0 p i s wX<X,XK.&X9XiXwXgX,XC C S ) _ ) >.x.x.m.x.MXfXn.:XCXDXMXd.-X:X:.wXvX.Xc.%XG.8XU.jXjXrXiXjXeXiXwXS.h.w = w t y h z / ",
" .z z b 2.Q.6X%XP.S.9X>X>XgXG.S H W %.%.%._ <.6.x.x.x.VX-Xn.i.'.mXAXZX6XsX) ,.2XhX;Xc.G.F.D.eXlX0XyXjXiXhXrXK.G.V.x a q = 9 1 X.",
"..z z m M Q.-X&XK.J.&X1X8XD.C H H ( ) ( %.,.+.x.r.v.z.MX=XD.;XCXfX[./.|.i.-.%.v.B.uX-Xv.S.,XiX0XeXjXjXiX6XyX8X0XS.s.k a u z i ..",
" .v l n m Q.).4XK.&X%XwXBX1.< J J ^ O.O.<.x.z.,.x.x.$Xd.v.G.lXDXDXSX-X-X3Xk.$.C.x.b.y..Xb.J.0X,XeX8XT.iXiXrXjXeX%XS.1.u a h i ..",
"E s s f f ] -.D.J.5X8XBX@.>.4.W ^ ) / ,.M.m.v.v.B.F.6X#XV.%Xi.u.c OXsXi.u.{.,.B.B.v.S.ZX' J.9XU.uXuXeXyXeXrXuX6X%X$XI 5 7 7 6 ..",
"Y   O @ @ , 5 1 =X6XhX| +.Q x.Q %.>.>.<.N.A.A.J.&X6XxX#XA.#XcXVXAXMXsX-X|.{.<.<.x.v.m.wXaXP.L.5XU.5X5X5X6X5X;X5XD.$.O   X X O ..",
"E   @ 1 8 &.] ] 6X;X} Q 1.W o.y.7.>.x.A.S.*X5XwXwXuX}.aX$XJ.i.d.l.dXfXc u.u.,.z.,.N.v.K.CX,.K.rXrXiXeXeXyXeXeX5X0.>.O       . X.",
"E 7 *.e.w.t.p.j.6Xs.Q ! ' ) Q ,.O.x.n.A.K.%X9XT.8XeXBXd.D.=X-X-X-X}..X-X|.s.7.V.s.m.b.jXSX1.b.S.eXrXeXrXeXgX0XP.6.~ O   . . . } ",
"Y d.s.d.s.h.s.s.cXh.I Q Q Q T +.X.x.D.G.K.P.>X8XP.qX9XvXCXh.xXdXaXaXfXp.=X+.$XS.L.N.%X|.SXG.} S.uXrXeXuXiXrXzX+.` H     . . . E ",
"Y g.f.g.f.f.p.s.aXvXI Q Q ' Q | r.z.F.L.T.>XP.9X9XrXqXK.CXCXaX}.;XfX.Xe.d.#X6.6.F.,XA.vXSXcXr.P.wXrX9XjXuX0Xq.6.D H O O       } ",
"Y h.s.f.s.a.f.d.h.lX*.Q #.' #.' ,.r.A.K.8X&X>X0XeXyXT.8X9XSXCXVX+Xf l.f AXi.o.6.F.P.S.:X-XA.$XI.rXrXeXjXeXcX7.( Z ~ O O .     } ",
"Y f.f.h.s.s.a.g.p.#XMXe.Q Q [ o.<.r.B.F.%XK.%X9X0XU.8XU.5XcXVXSXdXf GXf -XmXa.#X].m.G.$X}.y.v.q.9X8XiXhXhXB.>.G C J X O . . . } ",
"Y h.h.f.a.f.f.f.h.a.lXvXi.Q Q ,.+.y.x.S.K.5XwXyXqXT.rX9X*Xg.aX|.5Xw.5Xi.w.cXvXBXBXlXMX=X#Xv.>XK.9XwXyXqXK.>.^ Z D R O O O   X } ",
" .f.g.h.f.f.f.f.a.f.$XvXMX;.| ) +.+.r.z.P.J.8XqXT.8X8XT.K.D.dXk.lX7Xw.s.,.F.F.L.J.K.6XVXN.S.*X9X*X,XuX<XM.O.G G %.S O O O O + E ",
"X.f.h.s.f.f.h.g.a.f.f.cXlXNX4.o.,.' :.<.B.K.&X1X8X8XwXT.5X5XT.T.K.L.FXi.D.G.F.&XP.,XJ.VXB.z.&X1X*X,XF.b.6.O.G P K A O + + # @ E ",
" .h.].h.f.k.g.f.h.d.f.f.uXlXvXj.o.:.' 1.r.v.P.>XJ.>X1XwXwX9X9X8XT.U.U.vXe.K.$XD.F.&XwXNXA.<.6X5X&XJ.G.6.o.A D G F < + + + + + E ",
" .h.k.k.}.k.g.a.f.f.a.a.g.hXcXcXt.o.=.+.,.m.F.&X*XP.*X9X8XwX5X8X9X,X8XK.}.S.9X&XC.>X%XcXs.6.1X1XK.1Xc.5.o.< V S L 2 + + # @ # E ",
"| h.k.k.f.k.k.f.a.f.h.h.d.f.uXaXjX3X4.;.:.,.x.L.J.,X&X&X8X8XwX9X8XeX9X5XJ.f.%X9X%XS.1XcX3X6.;X&X>Xc.6.:.! < V Z R : # + + # > U ",
"| ].k.k.h.f.f.f.k.f.f.f.f.a.k.-XlXcXcXD...' ,.r.C.K.>XJ.>X,X&X,X6XeXeX0X9X7XSXK.P.J.K.vXMXx.=XlXM.6.^ ( < 2 S Z K : # # # $ > ~ ",
"| k.a.].f.f.f.f.f.].a.f.f.f.h.].;XlXvXaX-XD.o.,.,.y.S.K.,XT.uX9X9X0X0XuXuX5XvXCX%X,XF.,X6Xv.aXM.5.R W C C < Z G L # # # # > , ^ ",
"| a.f.d.a.a.].h.f.a.f.s.].f.a.f.f.#XgXhXaXuXuXD.=.o.r.B.F.P.8X&X*X&X6X6XhXVXZXVXSXMXxXvXMXlX%X7.R R W S S G D G F : # > > , ] ( ",
"/ h.h.f.f.f.f.h.h.a.h.a.f.f.a.h.].h.V.lXaXgXaXaX6X6X:Xh.-XlXxXxXBXBXMXNXNXMX4XgXgXeXuXlXcXuX$X,.D H K H V C K Z W > > > , ] p.( ",
"^ h.p.a.a.a.g.].a.s.h.f.a.f.g.f.f.f.f.a.lX6XiXgXuXuX6X;X6X4X4X4X-X=X=X-X=X#X$X=X=X;X%X6XxX$XV.^ W >.S ^ V H K P S > , , ] p.g.( ",
"~ p.h.d.d.h.h.g.d.p.d.g.].f.].h.f.f.a.f.k.gXgXjXgXhX;X*X%X%X%X=X=X&X=X$XG.S.G.G.S.$XS.hXxXfXxXD >.` ( V C C Z Z A , > { h.s.f./ ",
"/ e.-.-.=.w.-.w.t.w.t.w.t.t.t.-.w.t.t.t.w.t.6XaXlX=XJ.D.B.,.6.x.N.B.C.:X#X$X$XD.V.m.6.b.cXvXc.1.$X:.V ! ( V G K :   > -.[ *.*.| ",
"..;.&.] &.{ ] &.] [ ] ] ;.=.[ =.=.-.{ { =.=.{ 6XaXaX=XG.v.6.<.<.z.x.C.C.C.$XF.G.G.S.G.N.1X-X;X$XG.4.j.,.K ( S V : O $ -.{ &.;.} ",
"..] { ] ] 8 ] ] ] &.] ] &.] ] ] [ [ &.] ] ] &.] %XaXaXJ.S.A.+.~ T 1.V.V.$XC.C.B.B.G.B.m.m.4XuXaX%Xm.N.,.y./ S V ^ O # ;.[ ] &.} ",
"} | W A A W ~ ^ ^ ^ ~ ^ ( / ( ( ^ / / E E E E Y Y }  .................X.} Y E E E } } } } E E / ~ ^ / / / ) ) / W A A Q X.0.} } "
};
