/* XPM */
static char *stage_png[] = {
/* columns rows colors chars-per-pixel */
"32 32 163 2 ",
"   c #000100",
".  c #0B0C0A",
"X  c #0A0D07",
"o  c #0F140E",
"O  c #0F0D10",
"+  c #181816",
"@  c #17181C",
"#  c #1C1B1C",
"$  c #141315",
"%  c #1F201E",
"&  c #22211E",
"*  c #1E1B22",
"=  c #211F23",
"-  c #232323",
";  c #272729",
":  c #2A2929",
">  c #352F2D",
",  c #353437",
"<  c #580B55",
"1  c #403F4B",
"2  c #2F4C5A",
"3  c #454443",
"4  c #514541",
"5  c #454652",
"6  c #514C57",
"7  c #595959",
"8  c #5E5665",
"9  c #6A6565",
"0  c #706E6B",
"q  c #7A7779",
"w  c #7E7C7E",
"e  c #893719",
"r  c #ED1C24",
"t  c #91401D",
"y  c #A7571B",
"u  c #A8571B",
"i  c #A95C1D",
"p  c #AA611F",
"a  c #944720",
"s  c #A44725",
"d  c #A54B27",
"f  c #A74F29",
"g  c #AD4E20",
"h  c #AD5021",
"j  c #A65F26",
"k  c #A9562D",
"l  c #AA5A2F",
"z  c #B05925",
"x  c #A66627",
"c  c #AB6320",
"v  c #AD6922",
"b  c #A8652A",
"n  c #A57326",
"m  c #A77728",
"M  c #A77929",
"N  c #FC573A",
"B  c #847C79",
"V  c #F16B53",
"C  c #FC7C62",
"Z  c #AA802F",
"A  c yellow",
"S  c #9D8A7A",
"D  c #CE8B7F",
"F  c #EDA278",
"G  c #977782",
"H  c #6DCFF6",
"J  c #87848C",
"K  c #8C8B90",
"L  c #928F90",
"P  c #91979A",
"I  c #989796",
"U  c #928F8B",
"Y  c #AC9A96",
"T  c #B2A09E",
"R  c #A19BA7",
"E  c #9FA0A2",
"W  c #A3A7AE",
"Q  c #B4ACA9",
"!  c #B6B4AD",
"~  c #BCBCAB",
"^  c #BAB5A3",
"/  c #A7AAB1",
"(  c #A9AEB5",
")  c #ABAEB9",
"_  c #AEB3BC",
"`  c #BBB6B3",
"'  c #BFB8B5",
"]  c #BFBCB8",
"[  c #B6B7B0",
"{  c #D4A2AB",
"}  c #C8BAB9",
"|  c #F0ACAC",
" . c #DBE295",
".. c #F8F08D",
"X. c #C5C2AE",
"o. c #CEC8AC",
"O. c #CAC3AB",
"+. c #C5C3B4",
"@. c #CCC7B3",
"#. c #C9C8B5",
"$. c #CECCBA",
"%. c #C7C5BA",
"&. c #D8C8B3",
"*. c #D1CDB9",
"=. c #D5D3BE",
"-. c #D1C8AB",
";. c #FADAB7",
":. c #E2E6AA",
">. c #E0E4BE",
",. c #F3EEBF",
"<. c #ADB9C1",
"1. c #B4B9C0",
"2. c #B9BCC2",
"3. c #B9BEC8",
"4. c #F985D2",
"5. c #F6BDC5",
"6. c #B7C4CC",
"7. c #BCC8CF",
"8. c #BCC4C8",
"9. c #BDCBD4",
"0. c #BED0D7",
"q. c #B3D9E2",
"w. c #BFE4EF",
"e. c #ACE0F4",
"r. c #C1C1C1",
"t. c #C9C9C5",
"y. c #D9D5C7",
"u. c #DDDFCB",
"i. c #C1CED5",
"p. c #C4D2D6",
"a. c #C4D1DA",
"s. c #CBD6DB",
"d. c #C7D8DE",
"f. c #CFD9DB",
"g. c #CDD1D3",
"h. c #D7D8D5",
"j. c #DEDEDA",
"k. c #E6C8C1",
"l. c #E0DEC1",
"z. c #E7D9C9",
"x. c #FAD1CC",
"c. c #E4DED5",
"v. c #E5E2C5",
"b. c #E9E5C7",
"n. c #E5E2CA",
"m. c #EAE6CA",
"M. c #EDEACD",
"N. c #E5E3D4",
"B. c #F0E3D5",
"V. c #F1EED5",
"C. c #F6F4D7",
"Z. c #C7D5E0",
"A. c #CDDCE1",
"S. c #DFE1E1",
"D. c #E5E5E3",
"F. c #EBECEC",
"G. c #E9EAE5",
"H. c #EFF0EB",
"J. c #F3F4EF",
"K. c #EEEDF1",
"L. c #F0EFF4",
"P. c #F1F1F1",
"I. c #F7F8F3",
/* pixels */
"n c l a a d s i i i n n n n u y y y y y u u i j n n n e e s n i ",
"n 5 1 6 1 . ) / ( _ F.j.K.F.F.D.D.D.j.D.F.D.F.L.! n.=.. . K I k ",
"s 5 X 5 X W ( ) ) 2.j.F.F.S.K.F.F.D.F.K.D.X X n.v.b.b.y.. L Q z ",
"e # . 6 W P q ( / ) v.v.l.v.n.%.F.y.b.v.v.b.n.X b.b.b.z.u.X ! a ",
"f : . ( ( ) q 6./ W b.v.l.b.v.v.l.b.v.X X X v.X B.n.n.l.l.z.Q t ",
"k : 1.) ( w 6.7.9.W v.v.b.v.v.v.v.b.X n.l.X D.X B.B.B.B.v.u.Q t ",
"k 7.6./ ( 2.6.7.7.j.F.F.F.F.K.t.' z.g.B D.K.X X X X ^ &.&.&.Q t ",
"k X 6.. ) <.8.7.K.F.D.t.K.F.K.K.c.c.X U X s.X 4 X X X X X S Q k ",
"j X X k.7.8.8.F.D.F.D.F.D.F.G.P.K.X G.K.X X X X X X > j.b.$ ` l ",
"b . . 5.z.K.K.K.F.F.P.j.K.P.P.F.X f.s.X r X r X X X s.> f.o ] v ",
"j 7.. q.q.q.F.F.F.i.F.P.K.P.P.F.J.J.F.L.X X X 3 X 3 s.s.X ! ` v ",
"i 6.. V D F ..t.P.i.a.2.M.V.P.P.F.L.L.X 7 s.> X L ! > f.X I ' h ",
"n 6 . V D ......F.a.a.1.J P.P.P.P.P.X K.f.s.s.X X f.0 K.s.s.3 h ",
"m 8 g.>.:...A D.K.0.a.A.1.a.F.F.F.P.X f.J.s.s.s.X c.s.X M.M.b.h ",
"n 3.8.<.C C v.$.y.a.8.t.g.K I.P.D.P.J.L.K.K.J.s.X h.N.X M.M.,.M ",
"m 2._ N N N u.M.b.2.2.I 9.t.V.P.K.G.J.P.G.P.P.K.X F.F.K.t.,.5.M ",
"p 1.3.C N V b.n.b.D.i.p.s.S.D.J.P.P.P.P.D.F.P.F.P.F.F.P.K.;.5.M ",
"p ( J F :.V b.b.M.a.p.a.p.K.F.P.r.r.j.P.P.F.P.P.K.P.K.P.C.x.t.M ",
"p 9.i.C  .V n.v.v.a.a.d.a.L.H.r.- - , , F.J.P.F.P.P.P.K.;.` V.c ",
"i i.1.C :.C z.] P.d.s.a.A.P.t.7 w.w.w.# # h.J.F...P.P.P.;.V.M.c ",
"i 8.1.C >.>.P.P.P.s.Z.d.s.9 G h.@ # 2 ..N V N ....F.V.r.V.V.V.c ",
"i i.E k.c.G.P.P.P.A.s.A.w h.I | e.H H x.N N N ..| H 4.< r.V.2.c ",
"n a.a.e.H w.P.P.P.d.R , + @ + % # + # 7 7 0 9 q - # # # r.1.2.p ",
"n 0.p.p.H H e.S.J.s.# # # # # y.# # # 7 # # # # # > # # # r.i.p ",
"n i.a.a.H P.F.w.P.J $ # # + y.- # - 9 # # - = # # # # % # r.Z.p ",
"x a.a.a.H P.P.e.P.O & # & # $ # ! # # - - - - # ; - - $ $ r.a.g ",
"x , a.{ H A.e.P.F.$ & = # # # D.: & # ' w # & - % - + # - P d.f ",
"j w ~ { D $.X.L P I +.+.+.+.@.* & # & - ; # # # : - # J L I L f ",
"d +.~ X.T Q Y ~ ! %.+.~ ~ +.$ & = % } - - ; ; - - # = & U ~ +.f ",
"f ] %.%.~ X.~ +.+.+.X.+.X.#.$.$.=.=.y.*.=.*.O.O.o.O.X.~ X.+.+.b ",
"Z ~ ~ X.~ ~ +.X.+.#.$.#.X.*.#.*.#.$.=.o.@.@.O.o.O.-.o.O.X.X.X.c ",
"v e e d s d d d f p p p p M M M M M p p p p p p f k l l a a Z v "
};
