/* XPM */
static char *unpacked_png[] = {
/* columns rows colors chars-per-pixel */
"64 64 198 2 ",
"   c #0F0A09",
".  c #130E0B",
"X  c #0C1E02",
"o  c #13100C",
"O  c #1F180D",
"+  c #1E170D",
"@  c #20190D",
"#  c #261D12",
"$  c #092402",
"%  c #0C2F00",
"&  c #122F06",
"*  c #123E06",
"=  c #123606",
"-  c #2C2116",
";  c #2D2917",
":  c #33271C",
">  c #372716",
",  c #2F3216",
"<  c #36381B",
"1  c #233F0B",
"2  c #3F3825",
"3  c #432B18",
"4  c #46351D",
"5  c #52341C",
"6  c #4D3523",
"7  c #453B23",
"8  c #4D392A",
"9  c #483722",
"0  c #543823",
"q  c #593A24",
"w  c #533928",
"e  c #593F2E",
"r  c #65322F",
"t  c #703B35",
"y  c #21490D",
"u  c #26500F",
"i  c #3A421D",
"p  c #384919",
"a  c #2E511D",
"s  c #2A5111",
"d  c #375A19",
"f  c #2D4717",
"g  c #3B4625",
"h  c #3E5F23",
"j  c #434A1E",
"k  c #46591E",
"l  c #52401D",
"z  c #42661D",
"x  c #424E22",
"c  c #4B4526",
"v  c #5F402B",
"b  c #574A28",
"n  c #4B5B27",
"m  c #495525",
"M  c #5C592B",
"N  c #575329",
"B  c #5F4535",
"V  c #554032",
"C  c #595834",
"Z  c #6E4D2C",
"A  c #64452C",
"S  c #685C2C",
"D  c #74532E",
"F  c #664732",
"G  c #6A4B38",
"H  c #674C38",
"J  c #7D4837",
"K  c #615D31",
"L  c #6F533C",
"P  c #775536",
"I  c #466724",
"U  c #4E6A26",
"Y  c #5B6429",
"T  c #576E28",
"R  c #566B24",
"E  c #587429",
"W  c #6A662C",
"Q  c #667729",
"!  c #6B782E",
"~  c #716C30",
"^  c #333277",
"/  c #2B304A",
"(  c #473C4E",
")  c #403561",
"_  c #325C48",
"`  c #3C6D5E",
"'  c #3A6A61",
"]  c #574B48",
"[  c #53565D",
"{  c #5A5252",
"}  c #4A4653",
"|  c #665F48",
" . c #755B45",
".. c #6A554F",
"X. c #54684E",
"o. c #6E684D",
"O. c #75644C",
"+. c #7D6F51",
"@. c #7A7257",
"#. c #63615A",
"$. c #5A5E65",
"%. c #515F73",
"&. c #4A7978",
"*. c #506873",
"=. c #666A71",
"-. c #6A6F7B",
";. c #73777F",
":. c #696961",
">. c #764B66",
",. c #895437",
"<. c #905351",
"1. c #836E53",
"2. c #897959",
"3. c #877355",
"4. c #8F7256",
"5. c #897F60",
"6. c #857E60",
"7. c #997D64",
"8. c #B06A69",
"9. c #61822A",
"0. c #6F892B",
"q. c #798B2B",
"w. c #518477",
"e. c #5F8D62",
"r. c #7F8A48",
"t. c #83922B",
"y. c #9A9829",
"u. c #AEA427",
"i. c #888A54",
"p. c #978A69",
"a. c #979169",
"s. c #A3926D",
"d. c #A79D78",
"f. c #B18969",
"g. c #99A566",
"h. c #C09D7D",
"j. c #1D2F91",
"k. c #1E3380",
"l. c #26289A",
"z. c #253598",
"x. c #2B348C",
"c. c #0E1CA1",
"v. c #1928A1",
"b. c #2E2DA1",
"n. c #222FA9",
"m. c #2D3DA0",
"M. c #3535A7",
"N. c #2B38B1",
"B. c #1E1D9A",
"V. c #3D4580",
"C. c #3C4BAE",
"Z. c #594383",
"A. c #7B5B92",
"S. c #5D7C94",
"D. c #757985",
"F. c #6D7D92",
"G. c #4A5EAE",
"H. c #3C48C1",
"J. c #4A5EC2",
"K. c #4A5DD8",
"L. c #5872D8",
"P. c #5A73F1",
"I. c #518681",
"U. c #578E84",
"Y. c #438991",
"T. c #52939F",
"R. c #418489",
"E. c #7D808E",
"W. c #639286",
"Q. c #6892B1",
"!. c #7BB7B4",
"~. c #69A89F",
"^. c #5EA5C7",
"/. c #62AAC8",
"(. c #6EB5C1",
"). c #79BAFF",
"_. c #71C4FF",
"`. c #7FC4FF",
"'. c #72CCFF",
"]. c #7ECCFF",
"[. c #72D2F5",
"{. c #74D1FF",
"}. c #7CD5FF",
"|. c #7EC2ED",
" X c #858694",
".X c #B5AB83",
"XX c #A1A5AE",
"oX c #C5C196",
"OX c #83D6FF",
"+X c #86DBFF",
"@X c #8AD8FC",
"#X c #87C8FF",
"$X c #ADDBFF",
"%X c #B4DBED",
"&X c #A9E6FF",
"*X c #B8E7FF",
"=X c #C5F0FF",
"-X c #D3F6FF",
/* pixels */
". .         . . . . . . . . . . . . . . . . . . . . o o o . o . o o o o . . . . . . . . . . . . . . . . o o o o . . . . o o . . ",
". ).)._.).).).).).)._._._._._._._.).).).)._._._._._._._._.).).)._._._._._._._._._._.`._._._.'.'.'.'.'.'.'.'.'.'.'.'.'.'.'.'.'.. ",
". ).)._._._._.).).).)._._._._._._._._._._._._._._._._._._._._._._._._._._._.`.`.`.`.`._.'.'.'.'.'.'.'.'.'.'.'.'.'.'.'.'.'.'.'.. ",
". ).).)._._._._._._._._._._._._._._._._._._._._._._._._._._._._._._._._._._._._.'.'.'.'.'.'.'.'.'.'.'.'.'.'.'.'.'.'.'.'.'.'.'.. ",
"  )._._._._._._._._._._._._._._._._._._._.'._.`.`.`.`.`.`._._._._._.'.'.'.'.'.'.'.'.'.'.'.'.'.'.'.'.'.'.'.'.'.'.'.'.'.'.'.'.'.. ",
"  _._._._._._._._._._._._._._._._._._.`.`.`.`.`.`.`.`._._._._.'.'.'.'.'.'.'.'.'.'.'.'.'.'.'.'.'.'.'.'.'.'.'.'.'.].].'.'.'.{.{.. ",
"  _._._._._._._._._._._._._._._._._._.`.'._._._._._.'.'.'.'.'.'.'.'.'.'.'.'.'.'.'.'.'.'.'.'.'.'.'.'.'.'.'.'.].].].].].{.{.{.{.. ",
"  _._._._._._._._._._.'.'._._._._._.'.'.'.'.'.'.'.'.'.'.'.'.'.'.'.'.'.'.'.'.'.'.'.'.'.'.'.'.'.'.'.'.'.'.{.{.{.{.{.{.{.{.{.{.{.. ",
". _._._._._._._.`.`.`.`.`.`._._._._._._.'.'.'.'.'.'.'.'.'.'.'.'.'.'.'.'.'.'.'.'.'.'.'.'.'.'.'.'.'.{.{.{.{.{.{.{.{.{.{.{.{.{.{.. ",
". _._._._._.'.`.`.'.'.'.'.'.'.'.'.'.'.'.'.'.'.'.'.'.'.'.'.'.'.'.'.'.'.'.'.'.'.'.'.'.'.'.'.'.'.'.'.'.'.'.'.].'.'.{.{.{.{.{.OX&X. ",
". _._._.'.'.'.'.'.'.'.'.'.'.'.'.'.'.'.'.'.'.'.'.'.'.'.'.'.'.'.'.'.'.'.'.'.'.'.'.'.].].].].'.'.'.'.'.].].].{.{.{.{.{.{.&X-X-X-X. ",
". '.'.'.'.'.'.'.'.'.'.'.'.'.'.'.'.'.'.'.'.'.'.'.].].].].].'.'.'.'.'.'.'.'.'.'.].].#X#X].'.'.{.{.{.{.{.{.{.{.{.{.{.{.{.-X-X-X-X. ",
". '.'.'.'.'.'.'.'.'.'.'.'.'.'.'.'.'.'.'.'.'.].].].].].].'.'.'.'.'.'.'.'.].].].].].].].{.{.{.{.{.{.{.{.{.{.{.[.[.{.{.OX=X=X=X=X. ",
". '.'.'.'.'.'.'.'.'.'.'.'.'.'.'.'.'.'.'.'.'.'.'.'.{.{.{.'.'.'.'.'.'.'.'.'.].].].].{.{.{.{.{.{.{.{.{.{.{.[.[.OXOXOXOX&X-X*X$X$X. ",
". '.'.'.'.'.'.'.'.'.'.'.'.'.'.'.'.'.'.'.'.'.{.{.{.{.{.{.'.'.'.].].'.'.{.].].].{.{.{.{.{.{.{.{.{.{.{.{.{.&X-X-X-X-X-X-X-X$X$X$X. ",
". '.'.'.'.'.'.'.'.'.'.'.'.'.'.'.'.Y.* a I Y.'.'.{.'.'.'.].].].].{.{.{.{.[.{.[.{.[.[.[.{.{.{.{.{.{.{.{.{.-X-X-X-X=X=X=X=X*X$X$X. ",
". '.'.'.'.'.'.'.'.'.'.'.'.].'.{.Y.* * y I I Y.{.{.{.'.].].{.{.{.[.[.[.[.[.[.[.[.{.{.{.{.{.{.{.{.{.{.{.{.=X=X=X=X=X*X*X$X$X$X$X. ",
". '.'.'.'.'.'.'.'.'.].].].{.{.'.y y a * y I Y._.{.{.{.{.{.{.[.[.[.[.[.[.[.{.{.{.{.{.{.{.{.[.[.[.[.[.[.{.*X*X$X$X$X$X$X$X$X$X$X. ",
". '.'.'.'.'.'.'.].].].].'.'.'.'.* * * y * a * _.{.{.{.{.{.[.[.{.{.{.{.{.{.{.[.[.[.[.[.[.[.[.[.[.[.{.{.{.@X$X$X$X$X$X$X$X$X@X{.. ",
". '.'.'.'.'.].].].].{.{.{.'.'.{.* * % % % * % * Y.{.{.{.{.{.{.{.{.{.{.{.{.{.{.{.OXOXOXOXOXOX{.{.{.{.{.{.{.'.'.'._._._._._._._.. ",
". '.'.'.'.].].{.{.{.{.{.{.{.{.{.Y.% $ $ % % * * * Y.{.(.9.t.t.Q Y Y Q (.{.{.T.d I -X-X-X-X-X-X*X{.{.{.{.{.{.{.{.{.'.'._._.'.'.. ",
". '.'.'.'.{.'.'.'.{.{.[.[.[.{.{._._.S.@ {.R.% * % * G G v M Y Z Z W P P (.{.* * E e.-X-X-X-X=X*X*X{.{.{.{.{.{.{.{.{.{.{.'.'.'.. ",
". '.'.{.'.'.'.'.'.{.[.[.[.{.^.` ` _ } : v , % $ f k T T 0.0.~ W Q Q Y Y 0.* * a u E d =X=X=X*X*X*X{.{.{.{.[.[.[.[.[.[.{.{.{.{.. ",
". '.'.'.'.{.{.[.[.[.[.[.[.{.` ` G 7 7 < 4 4 9 6 w K G F M A A Z Z Z v G G * % * % u u $X$X$Xu E T.{.[.[.[.[.[.{.OXOXOXOXOXOXOX. ",
"o '.'.{.{.[.[.[.[.[.[.[.{.{.` _ T x i i i i i x n T T 9.T K G T T n n T 9.k $ : % y T.$X$XT.* d E T.{.OXOX&X&X-X-X-X-X-X-X-X-X. ",
"o {.{.{.[.[.[.[.[.{.{.{.}.}./.G b c 7 7 7 q q v q v v q 6 6 b w G K K G K G G : G G {.{.{.* * a I d -X-X-X-X-X-X=X=X=X=X=X=X=X. ",
"o {.{.{.{.{.{.{.{.}.}.}.}.{.{.9.9.m x x x m M F N F M e w N v N T 0.t.Q Y Y v : v v _.{.{.% * % u u -X-X-X=X=X*X*X$X$X$X$X$X$X. ",
"o {.{.{.{.{.{.{.}.{.{.{.{.}.}.v A 7 7 4 m v F K v ..q A w B B 8 N q S Z Z v 8 : 8 c 9.9.W.T.$ : % T.*X*X$X$X$X$X$X$X$X$X$X$X$X. ",
"o *X*X@X{.{.{.{.{.{.{.}.}.~.T M F K m T n n T N q [ $.[ v G B N e M T Y Q 0.x g c V v G G -XXX8 XX*X*X$X$X$X$X$X$X$X$X$X$X$X$Xo ",
"o $X*X*X*X*X{.{.{.}.}.}.}.Q.G q F G K M q q $.[ ] $.=.[ q e F B e H w q Y b W m g g g T Q Q 0.v -X-X*X$X$X$X$X$X$X$X$X$X$X$X$Xo ",
"o $X$X$X$X*X{.}.}.}.}.+X+XG v N v t e F q $.=.%.[ =.$.*.{ q ] F e N e M Q Y Y Y b 7 w w G ~ ,.P %X$X$X$X$X$X$X$X$X$X$X$X$X$X$Xo ",
"o I.I.$X@X}.}.}.+X+X+X+X+XG M T 9.$.[ q { =.$.[ %.[ [ =.$.[ { q v B e q A Z Z S b F C m m G n Q 0.%X$X$X$X$X$X$X$X$X$X$X$X$X$Xo ",
". &.I.}.}.^.I.I./.+X+X+X+XG G ] Z P [ $.[ $.n T X.[ $.=.=.V.[ *.[ q B e w Y G W D F e w w 5 N Z P P !.|._._._._.{.{.}.}.}.}.}.o ",
".  XE. X+X&.&.w.I.+X+X+X9.[ $.D.M Q 0.#.[ G v v G [ [ =.V.H.[ $.[ q Y e m T n 9.T $.F B e N v n n T 0.0.!._.}.}.}.}.}.+X+X+X/.o ",
". D.E. X^.&.&.w.w.I./.+XG $.=.;.v q G ~ 0.q.M v M n T $.H.v.* a I m v N w 6 v v K ;.G G B B e N 5 N G K G }.}.}.+X+X+X+X+Xa a o ",
". D.D. X-.-.D.&.&.I.I.G J $.;.* a h a v v P Z F F v G [ n.v.% * % * G v e N T n 9.;.$.G v q b v n T 9.* U U /.}.+X+X+X+XQ.* * o ",
". a a D.-.D. X&.&.I.9.T { [ [ % % * * v G M M G K v v G n.v.% % % % F v J F w G G ;.F.$.J G a I E G G * u z w./.}.+X+X' f a a . ",
". * * X.D.D.D.S.S.^.G P :.d * s * a h h a v Y G G v G v k.* s d h * a c G G N T 9.F.;.=.G v * a * % % * * d U w./.&.*.= = a * . ",
". % a U a -.-. XS.+X9.Q :.% % * % s % * a 9.9.T n n K v % * % s * $ % * G J w v G $.=...v * % % $ $ % % d d z z &.&._ & & $ * . ",
". % * % $ X.D.E.S.+XG P #.s % % % % % % % K M v q v v ) / % $ $ % % $ , F T 0.M G ....* * a a a * % * * % * a a 9.T * % & $ X . ",
". $ * s d h a E.S.T y.Q T T T C O O i m T K G G K M ( v.v.v.> @ O v 4 5 M Z P Z W H C * % * % * % * * % $ * * % d K $ $ % $ $ . ",
". % % * % * *  XG G D W M F b v O - 6 6 w v v v G G ^ v.z.N.4 + - < i j T 0.y.t.9.9.E a 1 % % % $ $ % % $ $ % 1 y * a a * : @ . ",
". $ $ % $ $ % T 9.u.0.T T x g < - - > > c x n n 9.X.H.J.C.z.> # # > > 4 j G A Z Z L L H 8 w - + j k n @ O T T j & & * a * a * . ",
". 6 O - > > 6 v Z P ,.J v 9 < : ; - > > > 4 M K } v.k.j.j.j., # # ; ; ; , n Y Q ! q.! M 9 : - - > > j - O 8 6 c $ & $ & * % * . ",
"o i ; - < i T T 0.0.M F B B V 2 > > > w v G G ^ H.G.J.J.H.^ / - > - > 3 v Z F G S D ~ ! E g i < < < < + - i j k f % X X $ X % . ",
"o w 6 3 3 N M Z P K K T E T T n x x U 9.M v ^ v.n.n.n.v.v.( / 7 c 7 c M F G K M v v v v K V c < > > > - - > > w v v > - 3 3 3 . ",
"o m n n T 9.T n T 9.T C e B C G w M v K T n n T 9.9.T T n n n T 9.9.9.T n x x T 9.T n n n T 9.m k < < , , , < i n n n T T T v o ",
"o G b c 4 w G v G v w w e H e w q A  .L  . .L G L L G G G v v w v v G G O. .G L v G G q 0 v G G G v v 7 4 4 3 A G G  . .G G 5 . ",
".  . .O.p.d.2..X.Xs..Xs.p.3.p.3.s.oXd.s.oXs.oXoXs.s.1. .7.oXs.oXs..XoXp.p.p..Xp.3.s..Xf.oXs.oX9.9.9.E 1.1.s.s.s..X.Xs.h..Xs..X. ",
". @.@.p.2.d.2.p.d.2.7.p.d.p..Xd.p.oX.Xd.oX.X.XoX.Xd.oXs.d.oXs.oX.Xd.oXd.p.s.d.oX.Xd.oX.XoX9.T G K G K p.1.1.1.r.9.9.q.q.9.g.i.. ",
". @.| +.3.p.5.+.p.5.+.7.2.o.p.d.2.p.d.@..XoX.X.XoXs.g.9.T 9.i..XoXf.h..Xs.2.s..XoXs..XoXG v w 5 v 5 5 v E i.E K b w l G v v G . ",
". @.@.o.+.5.5.o.| 5.o.| | o.2.@.@.2.p.o.@.d.<.t <.7.p.G G G  .p..X6.p.oX.X2.p.oXoXp.o.i i i x n j n n n n n n j n x i x i j i . ",
". H.H.N.N.H.H.N.H.H.N.N.H.H.H.H.N.N.H.N.H.H.<.r r t 8.8.H.H.H.H.H.H.H.H.H.N.N.H.H.P.P.H.H.C.C.C.C.C.m.m.m.m.m.m.N.N.N.N.N.N.N.. ",
". N.N.N.N.m.m.m.m.m.m.m.m.m.N.N.N.N.N.n.n.n.N.Z.r t <.8.Z.N.N.N.N.N.N.N.N.N.N.N.N.n.n.v.n.N.m.z.z.j.z.j.j.j.j.j.c.v.c.c.c.c.v.. ",
". H.P.P.J.C.J.C.J.J.L.L.J.J.J.J.H.N.H.H.H.H.H.H.>.>.A.A.Z.H.N.H.H.K.K.P.P.K.K.K.H.H.H.H.H.N.H.H.K.N.N.N.n.n.n.v.v.c.v.c.v.n.n.. ",
". N.N.N.N.N.n.N.N.n.n.M.M.M.b.M.M.N.N.n.n.v.v.v.v.v.v.v.n.N.N.N.N.N.N.N.n.n.n.n.v.v.v.v.N.N.N.N.N.K.P.P.K.H.K.H.H.H.H.H.N.N.N.. ",
". N.M.M.b.l.l.l.v.n.n.n.n.n.n.n.n.v.v.v.v.v.v.b.b.b.n.N.N.N.m.m.m.z.j.j.j.v.v.v.v.v.v.v.v.v.v.l.l.l.l.n.n.n.N.N.N.N.n.n.v.v.v.o ",
". v.n.N.N.n.n.n.v.v.v.v.v.v.v.v.v.v.n.v.n.v.v.v.v.v.v.v.v.v.j.j.j.v.v.v.n.n.n.n.z.z.z.z.j.j.j.l.l.l.l.l.v.v.v.v.v.v.v.v.v.v.v.o ",
". H.H.N.H.H.H.N.H.H.N.N.H.N.H.H.H.H.H.N.H.N.N.N.N.N.N.N.N.H.N.H.H.N.H.H.H.H.H.K.C.J.J.L.L.K.N.N.N.M.b.b.l.l.v.v.v.n.n.n.n.n.n.o ",
". n.N.N.N.N.N.N.n.n.n.v.n.v.n.N.m.m.m.m.m.m.m.n.v.v.v.n.n.n.N.N.N.N.N.N.N.N.N.n.v.v.n.N.N.N.H.H.N.H.H.H.N.H.N.m.m.m.m.m.m.m.N.o ",
". v.n.N.N.N.n.n.v.c.c.c.c.v.v.v.n.m.m.m.m.n.v.v.c.v.c.c.c.v.v.v.v.v.v.l.l.l.l.l.v.v.v.v.v.c.c.c.v.v.v.v.n.n.z.z.z.x.x.b.l.v.v.. ",
". c.v.v.N.N.N.N.N.v.c.c.v.v.n.N.N.N.n.v.v.v.v.v.n.v.n.N.N.N.N.N.n.n.v.l.b.b.b.M.N.N.N.N.n.N.n.v.v.v.v.v.v.v.v.b.l.b.l.l.l.B.c.. ",
". c.c.n.N.N.N.n.v.v.v.n.N.N.N.N.N.N.N.n.n.n.n.n.N.N.N.N.n.n.v.v.v.c.c.c.c.c.l.v.n.n.N.N.N.N.N.N.n.N.n.n.n.v.v.v.v.c.c.c.c.c.c.. ",
". .         . . . . . . . . . . . . . . . . . . . . o o o o o o o o o o . . . . . . . . . . . . . . . . o o o o . . . . o o . . "
};
