/* XPM */
static char *void_png[] = {
/* columns rows colors chars-per-pixel */
"32 32 232 2 ",
"   c #040603",
".  c #050A05",
"X  c #090B06",
"o  c #040608",
"O  c #09070A",
"+  c #060A09",
"@  c #0A0C0B",
"#  c #080705",
"$  c #0D120D",
"%  c #12120D",
"&  c #17170E",
"*  c #0C0E11",
"=  c #0E1313",
"-  c #0F151A",
";  c #111511",
":  c #1C1C14",
">  c #161917",
",  c #100F10",
"<  c #29110F",
"1  c #27100F",
"2  c #331B0E",
"3  c #2A0F12",
"4  c #271011",
"5  c #2A1313",
"6  c #2E1A15",
"7  c #2E1618",
"8  c #221E12",
"9  c #311616",
"0  c #331A16",
"q  c #3D1C14",
"w  c #311619",
"e  c #341A1A",
"r  c #2A251B",
"t  c #34271C",
"y  c #343A1C",
"u  c #152429",
"i  c #182728",
"p  c #1E2F3A",
"a  c #2A2725",
"s  c #38282B",
"d  c #2F3726",
"f  c #333B27",
"g  c #24373C",
"h  c #441F1E",
"j  c #790000",
"k  c #412019",
"l  c #59261C",
"z  c #4B2B2C",
"x  c #46272A",
"c  c #443229",
"v  c #5A322C",
"b  c #4A2A33",
"n  c #582E39",
"m  c #553537",
"M  c #512E2D",
"N  c #662B24",
"B  c #64363C",
"V  c #69353B",
"C  c #763A39",
"Z  c #693030",
"A  c #344225",
"S  c #48502C",
"D  c #6C433E",
"F  c #74523F",
"G  c #5B652A",
"H  c #5B6935",
"J  c #686A2B",
"K  c #646C35",
"L  c #6A6E3B",
"P  c #68733A",
"I  c #787739",
"U  c #71732E",
"Y  c #4A4B1A",
"T  c #5F3E44",
"R  c #643C44",
"E  c #6A3D42",
"W  c #673845",
"Q  c #743D41",
"!  c #2C444C",
"~  c #5B494A",
"^  c #5A5958",
"/  c #454253",
"(  c #694347",
")  c #7B4243",
"_  c #784847",
"`  c #695F44",
"'  c #655958",
"]  c #7C5B44",
"[  c #5C6F5A",
"{  c #6A7548",
"}  c #797642",
"|  c #747159",
" . c #575A62",
".. c #605966",
"X. c #796265",
"o. c #7B736B",
"O. c #787879",
"+. c #736B72",
"@. c #813B3F",
"#. c red",
"$. c #8F433F",
"%. c #B9442B",
"&. c #FF6C00",
"*. c #E4562A",
"=. c #874646",
"-. c #974B48",
";. c #99544B",
":. c #854D51",
">. c #875957",
",. c #9C5652",
"<. c #985854",
"1. c #8C524F",
"2. c #A54D49",
"3. c #A4564F",
"4. c #B2584D",
"5. c #A35B55",
"6. c #B55E56",
"7. c #867C44",
"8. c #9C645C",
"9. c #8D615F",
"0. c #AA655A",
"q. c #B76555",
"w. c #B76B4F",
"e. c #805F69",
"r. c #976A64",
"t. c #857677",
"y. c #9B7B7B",
"u. c #896967",
"i. c #A76962",
"p. c #AA716A",
"a. c #BB7765",
"s. c #BE7A68",
"d. c #A47976",
"f. c #C46958",
"g. c #C7725C",
"h. c #D06D56",
"j. c #C37869",
"k. c #D07C67",
"l. c #7A864C",
"z. c #7D8878",
"x. c #82803A",
"c. c #A5953B",
"v. c #FFB400",
"b. c #FFF900",
"n. c #FCC721",
"m. c #868743",
"M. c #948F58",
"N. c #A59857",
"B. c #AE9154",
"V. c #B8AD5B",
"C. c #928C6F",
"Z. c #BA887D",
"A. c #B5826F",
"S. c #B2AA6C",
"D. c #B9B46B",
"F. c #B8B677",
"G. c #A9A060",
"H. c #E39758",
"J. c #C9AF5D",
"K. c #C48965",
"L. c #D88867",
"P. c #CD8B79",
"I. c #CA8473",
"U. c #D49976",
"Y. c #E89069",
"T. c #C7BC6D",
"R. c #D3BB64",
"E. c #D9B274",
"W. c #C5B06E",
"Q. c #F4B56A",
"!. c #F8D85E",
"~. c #DAC46A",
"^. c #CBC779",
"/. c #D9C77A",
"(. c #C6C069",
"). c #E0C96C",
"_. c #FFEC66",
"`. c #4C5A87",
"'. c #5E6A93",
"]. c #6E779A",
"[. c #727C8A",
"{. c #867C85",
"}. c #7A8E93",
"|. c #7094B3",
" X c #7EA0BB",
".X c #88888A",
"XX c #9B8C88",
"oX c #979692",
"OX c #B48D85",
"+X c #A7978A",
"@X c #BC988D",
"#X c #A59C98",
"$X c #B29C94",
"%X c #A88F89",
"&X c #B7A29A",
"*X c #B0B180",
"=X c #9499AA",
"-X c #9599A9",
";X c #87A3B4",
":X c #AAA6A7",
">X c #BFBBB8",
",X c #A9A9B5",
"<X c #C79888",
"1X c #D59184",
"2X c #DFA987",
"3X c #CBAD98",
"4X c #D6B491",
"5X c #CAAA90",
"6X c #C5B7AD",
"7X c #CBBDB5",
"8X c #D2B9B4",
"9X c #E0BBA8",
"0X c #CDCF87",
"qX c #D7CE8A",
"wX c #D8D287",
"eX c #D8D293",
"rX c #E4D688",
"tX c #E7DC96",
"yX c #F4CE8A",
"uX c #DBC9B6",
"iX c #C4C3B1",
"pX c #F1D0B2",
"aX c #F8F1B0",
"sX c #D4CCC5",
"dX c #DCD6CA",
"fX c #CCCFCC",
"gX c #E6D6C9",
"hX c #E9D8C8",
"jX c #F6DDC8",
"kX c #E5DDD5",
"lX c #EFDFD6",
"zX c #EDE3D8",
/* pixels */
"e e e e e e w 9 9 5 5 5 5 < 4 4 5 5 5 3 5 5 < 1 4 5 5 5 5 5 e e ",
"e |.|.-XU.y.y.{.{.}. X;X$X@Xa.0.> % $ @ @ ; % % $ @ $ @ $ % $ e ",
"5 oX;X4XH.q.j.d.d.y.p.d.a.P.I.i.> @ ; @ * @ @ $ $ = = = > ; % e ",
"4 }.;X5XyXE.K.g.Z.r.XX=X:XOXj.r.$ @ $ * $ @ @ * $ $ @ @ % $ @ e ",
"5 |.}.4XyXQ.2X<XA.y.&X:X<X<XZ.X.$ ; $ @ . X X X = + = @ ; $ $ e ",
"5 }.O.| U.U.Y.P.%X&X1XI.I.a.<.1.@ X @ + @ $ X @ @ X . = * @ @ e ",
"5 [.o.| F w.K.<X@XP.s.0.8.i.>.C $ , + + X @ @ . @ + . @ X $ @ e ",
"5 ..X.] ~ l p.P.Y.k.5.;.,.K.L.>.X X     . X . X . X . X @ @ @ e ",
"e ^ ^ ~ ' i.s.I.L.h.g.q.q.>.5X2Xi + . X @ @ . @ @ . + @ * $ @ e ",
"e a a m D X.8.Z.j.j.a.0.i.g.u.3X$Xu O $ . > $ $ X @ @ @ @ = % e ",
"e s a v ' ) >.s.g.0.2.Q C -.q.#XsXuXi X : c ; + . X @ @ @ > $ 0 ",
"0 x M >.9.u.OXf.4.3.q.q.C D :.O.sXpXpX- l Q.r X @   . O + @ @ 0 ",
"6 b x m >.=.t.<.,.5.2.-.4.:.E e.:XhXjXi %.yXB.  @ @   . @ , $ 0 ",
"6 f.5.>.6.0.p.4.,.,.5.3.=.) E ( [.gXjX9X8.$X    @ @ $ + $ ; + 0 ",
"6 _ _ R R -.;._ =.-.-.) T m M E g 6XuXpXdXC.. @ X       . . . 6 ",
"6 s z R R V ) 2.-.2.6.<.1.( R ( . ! 3X6XdX'.% . r $ .     @ @ 6 ",
"e x x M ) $.N -.6.N N N <.1._ V o = ^ fXhXsX6X*.pXr X .   . . 6 ",
"t s z c C C l C =.C k q k v Q B . @ dXdXfX6X+.}.:   @ . . @ $ 0 ",
"e x 7XiXO.: h V @.) 0 B z Z R W . X r zX;.'.@ % % . . .   . . 0 ",
"e a uX.X^ ^ l 0 q q e E n B n m c.: fXjX0.=Xa & o . o @ . . @ 0 ",
"e >X` O.^ #X#X0 0 Z V W M x b b [ z.kXgXP.8Xp . +   + . . . @ e ",
"9 7XuXO.C.+X&X#X2 q z b n M z ..oXoXfXlXhX>X`.  @ + . . @ @ O e ",
"9 7X6Xo.^ a 8 &X2 q z n n B ~ C.kXgX8X-X3XkX`.i @ + . .   @ . e ",
"9 +XXX+Xt.: #X&Xf P } K S iX1X@XgX,XsXdX7X#X`.i   . + X + o @ e ",
"9 f f r d f d A S A H K P | zXzXjXdX8X].].].u u #     . X + @ e ",
"w y Y I U I L I J K G K { { M.kXsX .kX,X/ i u @ . X . X X X @ e ",
"w 7.S S B.N.M.7.m.x.K m.{ U I U m.J G t u u @ + . . @ @ @ * @ e ",
"7 l.G N.W.T.E./.R.rX/.rXG.^.wX~.rX/.rXM.- X @   @ b.@ @ @ @ @ e ",
"7 H G V.D.N.J.F.F.tXtXF.D.^.(.T.R.W.~.S.@ . @ @ &.!._.@ . % @ e ",
"7 G K G S.D.F.F.eXaXF.T.rX^.tX/././.).} @ .   @ @ v.#.&.$ ; $ e ",
"e H K F.M.qXeXwX0XS.qXT.^.tX0XeX/.tXtX` @ X X @ b.j _.n.X % > e ",
"e e e e e e w 9 9 5 5 5 5 < 5 4 5 5 5 5 5 5 < 1 4 5 5 5 5 5 e e "
};
