/* XPM */
static char *wanderer_png[] = {
/* columns rows colors chars-per-pixel */
"16 32 179 2 ",
"   c #010400",
".  c #090C05",
"X  c #0D0F0A",
"o  c #040803",
"O  c #0F1007",
"+  c #0D1009",
"@  c #14140D",
"#  c #181508",
"$  c #17180F",
"%  c #171811",
"&  c #1B1B14",
"*  c #211F15",
"=  c #30210F",
"-  c #22211A",
";  c #29251D",
":  c #2F2614",
">  c #362A18",
",  c #292622",
"<  c #2E2A21",
"1  c #2E2B28",
"2  c #322D23",
"3  c #373020",
"4  c #3C3226",
"5  c #3B3628",
"6  c #3F3A32",
"7  c #521E1C",
"8  c #54201D",
"9  c #44341D",
"0  c #53391F",
"q  c #5B2E24",
"w  c #562927",
"e  c #483A27",
"r  c #553820",
"t  c #662B26",
"y  c #682827",
"u  c #632A2E",
"i  c #6A2A2D",
"p  c #66362A",
"a  c #73322E",
"s  c #692C33",
"d  c #6E3434",
"f  c #6D3339",
"g  c #743434",
"h  c #7D3935",
"j  c #73353A",
"k  c #7A3A3E",
"l  c #783A36",
"z  c #5E4023",
"x  c #53442F",
"c  c #4F4437",
"v  c #444135",
"b  c #574737",
"n  c #694A2E",
"m  c #6F4E33",
"M  c #744133",
"N  c #784537",
"B  c #7A4738",
"V  c #7D4B3C",
"C  c #71533D",
"Z  c #7D3C42",
"A  c #743B44",
"S  c #564D41",
"D  c #7C414A",
"F  c #725E4D",
"G  c #65584B",
"H  c #77675B",
"J  c #7B6855",
"K  c #823E3A",
"L  c #B14C00",
"P  c #85413D",
"I  c #8A443F",
"U  c #D06F24",
"Y  c #813E43",
"T  c #823F49",
"R  c #8B4640",
"E  c #8A4943",
"W  c #844148",
"Q  c #88434A",
"!  c #895846",
"~  c #895244",
"^  c #877159",
"/  c #8C725A",
"(  c #8C7357",
")  c #9C7D5B",
"_  c #977B5A",
"`  c #8F7762",
"'  c #9D7F62",
"]  c #CF7F42",
"[  c #9B897A",
"{  c #968373",
"}  c #A68566",
"|  c #AD886E",
" . c #A78C6E",
".. c #AE9374",
"X. c #B39479",
"o. c #E18D47",
"O. c #E09E6C",
"+. c #EDA163",
"@. c #F2AF7C",
"#. c #A89187",
"$. c #A19589",
"%. c #B89D87",
"&. c #B39C89",
"*. c #B29F94",
"=. c #BEA494",
"-. c #BAACA0",
";. c #C6A280",
":. c #DBAD86",
">. c #D6B89F",
",. c #D4B093",
"<. c #E2B58E",
"1. c #FCB983",
"2. c #E8B792",
"3. c #E8BC96",
"4. c #C7B3A5",
"5. c #D6B6A1",
"6. c #D6B8A6",
"7. c #DFBFAC",
"8. c #C6B8BE",
"9. c #D5BDB2",
"0. c #E1BEAB",
"q. c #FAC595",
"w. c #FBC799",
"e. c #FAC99C",
"r. c #F4C29E",
"t. c #DCC0AB",
"y. c #DECABD",
"u. c #E6C1AB",
"i. c #EFC8AF",
"p. c #EAC4A5",
"a. c #FBCCA3",
"s. c #F4CCAA",
"d. c #FDCEAA",
"f. c #F4C6A0",
"g. c #FCD0A7",
"h. c #FCD2AC",
"j. c #FFD9AA",
"k. c #E9CBB5",
"l. c #E6C7B7",
"z. c #F3CFB5",
"x. c #F7D4B6",
"c. c #FCD4B3",
"v. c #FDD9B4",
"b. c #F5D4BA",
"n. c #FAD6BB",
"m. c #FBD9BD",
"M. c #B9B3C1",
"N. c #C5C0CA",
"B. c #D3C3C4",
"V. c #D9CDC7",
"C. c #D4CCC9",
"Z. c #E9CEC0",
"A. c #E0CCC5",
"S. c #E7D2C7",
"D. c #ECD4C9",
"F. c #F9D7C0",
"G. c #FCDDC3",
"H. c #F4DCCB",
"J. c #FADEC9",
"K. c #ECD9D2",
"L. c #E4DBD9",
"P. c #EFDFD9",
"I. c #F1DCD2",
"U. c #FAE2C6",
"Y. c #FFE2C4",
"T. c #FEE2C8",
"R. c #FFE5CA",
"E. c #FFE4CB",
"W. c #FFEBCE",
"Q. c #EFE2DD",
"!. c #F5E0D7",
"~. c #F2E2DD",
"^. c #FFECD4",
"/. c #F2E6E2",
"(. c #F2E9E6",
"). c #FCECE7",
"_. c #F3EBE9",
"`. c #F9EEEB",
"'. c #FAF2F0",
/* pixels */
"R Q P d q 7 7 8 q q y i d Z D R ",
"D a.a.a.h.h.h.v.c.x.b.b.b.b.b.D ",
"w e.w.e.a.g.h.v.v.x.x.x.x.b.b.A ",
"u w.q.e.a.h.q.o.@.n.x.c.x.b.b.W ",
"s e.q.e.a.c.+.L ] n.c.x.b.b.b.T ",
"f a.a.d.h.h.1.U O.J.x.x.n.x.F.W ",
"g h.h.h.c.Y.:.m | Y.Y.n.J.J.J.Y ",
"s h.h.c.v...x < < F t.T.J.J.J.Z ",
"j a.h.c.f.: - 4 e % G T.J.J.J.Y ",
"I d.d.c.r.> % ; 4 - 2 i.J.J.n.I ",
"I c.c.x.2.: % < 2 2 @ %.Y.n.n.I ",
"K n.n.J.;.# - < % H 6 J J.n.n.P ",
"a n.n.T.| . - < % [ { 2 x.J.J.K ",
"l c.c.v.) . - 1 - S c S Y.n.J.V ",
"M h.g.j.) X , , - $ * >.Y.J.J.B ",
"M J.J.Y.} X ; % % @ &.T.J.J.Y.B ",
"B J.J.T.} X % + @ @ &.W.Y.Y.Y.B ",
"~ x.x.Y.( o + . @ O ( W.J.J.J.M ",
"I x.x.Y.(       @ * b J.J.J.J.g ",
"I b.x.Y.^ @ v < @ ; C s.T.J.J.K ",
"P l.b.Y.^ 6 T.k.4 c p.3.J.J.J.I ",
"K 8.B.J._ 5 J.n.9 ( Y.<.x.n.n.I ",
"h M.N.J.' b n.s.9 ` T.3.s.n.I.I ",
"h B.B.z.) J Y.<.0 X.T.p.u.~.~.I ",
"Z (.(.y.e [ ^.,.r =.).K.0./.~.Y ",
"k (._.'.$.*.).6.z 9.(./.u.I.~.Z ",
"k (.(.(.`./.Q.5.n A.(./.k.D.~.Y ",
"k ~./.(._._.'.4.= #.~.Q.Z.k.~.Y ",
"j P.~.~.~.~.`.-.c l.K.C.V.7.L.k ",
"j (.(././.Q.Q.Q.K.I.!.J.K.S.L.Z ",
"V _._._._._._._._./././.~.~.~.! ",
"E E W h h a t p p i i t u f j P "
};
