/* XPM */
static char *wasteland_png[] = {
/* columns rows colors chars-per-pixel */
"16 16 131 2 ",
"   c #411D0D",
".  c #43200E",
"X  c #4E240F",
"o  c #4C2B0E",
"O  c #523201",
"+  c #543A00",
"@  c #5B3F00",
"#  c #5D3F00",
"$  c #4B2212",
"%  c #4C2F13",
"&  c #4E3010",
"*  c #4C3B10",
"=  c #6A4501",
"-  c #6E4C02",
";  c #714D00",
":  c #775402",
">  c #7D5800",
",  c #7B5814",
"<  c #594B2E",
"1  c #614D2A",
"2  c #615233",
"3  c #805F00",
"4  c #895C00",
"5  c #8E6901",
"6  c #9F6F03",
"7  c #9E750B",
"8  c #A67100",
"9  c #A07902",
"0  c #887453",
"q  c #91775C",
"w  c #937A5C",
"e  c #937E61",
"r  c #BA8503",
"t  c #B78804",
"y  c #B88E00",
"u  c #B78F0B",
"i  c #B49700",
"p  c #A48712",
"a  c #AD8516",
"s  c #AD8B1F",
"d  c #B08914",
"f  c #BC8E1F",
"g  c #B19510",
"h  c #A58520",
"j  c #B58F20",
"k  c #B98D20",
"l  c #BA8A36",
"z  c #C28A03",
"x  c #C49706",
"c  c #CA9201",
"v  c #C49009",
"b  c #C69B0E",
"n  c #DA9B00",
"m  c #C49A14",
"M  c #C59A1A",
"N  c #CFA60E",
"B  c #D1A100",
"V  c #DDA706",
"C  c #CFA81C",
"Z  c #D0A010",
"A  c #D9AC11",
"S  c #D1A218",
"D  c #E2A202",
"F  c #EEBB00",
"G  c #C09620",
"H  c #C29A21",
"J  c #CC9822",
"K  c #C0952C",
"L  c #C9A223",
"P  c #D0A523",
"I  c #D7A920",
"U  c #DAAD20",
"Y  c #D3A52D",
"T  c #D7AB2E",
"R  c #CEB62E",
"E  c #DDB023",
"W  c #DBAF34",
"Q  c #D0A63A",
"!  c #D1AB3E",
"~  c #D9AF39",
"^  c #DDB33B",
"/  c #A28657",
"(  c #9A8266",
")  c #9E866A",
"_  c #9F8869",
"`  c #A18B73",
"'  c #AC9279",
"]  c #DEAF45",
"[  c #D7B247",
"{  c #D7BF45",
"}  c #DBB44B",
"|  c #C3B256",
" . c #DBB756",
".. c #DBBA5D",
"X. c #E1BC4A",
"o. c #E0B856",
"O. c #DBB962",
"+. c #E2C26B",
"@. c #E3C774",
"#. c #E5CB76",
"$. c #E1C679",
"%. c #E3CC7E",
"&. c #B7AE9C",
"*. c #BAB29D",
"=. c #BDB4A2",
"-. c #C6B7A2",
";. c #C1B8A6",
":. c #C8BCA4",
">. c #C2BAAD",
",. c #C9BEAA",
"<. c #DECB86",
"1. c #DFCC88",
"2. c #D7C891",
"3. c #E6CB86",
"4. c #E4D091",
"5. c #CCC8BF",
"6. c #D2C6B6",
"7. c #D6CAB4",
"8. c #DBCCB7",
"9. c #D6CDBE",
"0. c #D9CEBC",
"q. c #DCD1BD",
"w. c #E6D4A6",
"e. c #D3CFC6",
"r. c #D3CECA",
"t. c #D7D0C6",
"y. c #D8D1C7",
"u. c #D6D2C9",
"i. c #DAD5CF",
"p. c #DCD7D1",
"a. c #E0D8CB",
/* pixels */
"& $ $ $ o o & & & o o o $ % . & ",
". >.e a d s a j k K f E Y i.7.. ",
"  >.q y y G u y v c Z ~ ] a.7.  ",
"$ ,.( y M m b P I ~ U [ } y.8.% ",
"o ;.( H b L L N C T W }  .y.q.o ",
"X ;.) x L S Q A ^ ~ ^ o.X.i.0.X ",
"X -.) ! O...+.+.$.3.3.4.w.i.q.X ",
"& =.) | 2.<.%.@.R { %.#.1.a.0.& ",
"& ;._ h p g n n t i D y F i.0.& ",
"o =.) 3 9 B t 4 J r v z V i.9.o ",
"o ;.( > @ 7 G : ; @ - = 8 9.6.o ",
"o ;.w : 5 + O 1 * 2 , 6 l 9.6.o ",
"X *.( ` ' u.e.< / 0 y.y.e.9.6.X ",
"$ =.5.e.5.t.e.e.r.e.t.i.p.i.,.$ ",
"% &.*.*.;.>.:.;.*.=.*.*.>.;.:.% ",
"& $ $ $ o o & & & o o o % % . & "
};
