/* XPM */
static char *debug2[] = {
/* columns rows colors chars-per-pixel */
"16 16 24 1 ",
"  c black",
". c #250000",
"X c #272700",
"o c #500000",
"O c #7C0000",
"+ c #535300",
"@ c #7F7F00",
"# c #A80000",
"$ c #D40000",
"% c red",
"& c #56FF55",
"* c #ABAB00",
"= c #D7D700",
"- c #0100FF",
"; c #2B2BFF",
": c #5555FF",
"> c #807FFF",
", c #80FF80",
"< c #ABFFAC",
"1 c #8080FF",
"2 c #AAAAFF",
"3 c #D6FFD6",
"4 c #D4D5FF",
"5 c white",
/* pixels */
"        55555555",
" 5%555% 5      5",
" 55$$$5 5 3< & 5",
" 5####5 5 3< & 5",
" 5OOOO5 5 3< & 5",
" 5oooo5 5 3<,& 5",
" 5....5 5 3<,& 5",
"        55555555",
"55555555        ",
"5     45  5555  ",
"5-;:12 5 5XXXX5 ",
"5-;:  45 +55+++ ",
"5-;:12 5 @@@55@ ",
"5-;:>2 5 5****5 ",
"5     45 =5555= ",
"55555555        "
};
