/* XPM */
static const char *_[] = {
/* columns rows colors chars-per-pixel */
"16 16 208 2 ",
"   c #497E71",
".  c #4B7F70",
"X  c #4A7E71",
"o  c #4A7E72",
"O  c #4A7F73",
"+  c #4A7E74",
"@  c #4A7F74",
"#  c #4A8071",
"$  c #4A8072",
"%  c #4A8073",
"&  c #498175",
"*  c #4A8074",
"=  c #4A8175",
"-  c #4F8175",
";  c #4F8274",
":  c #4C8377",
">  c #4D8377",
",  c #4E8377",
"<  c #4E8575",
"1  c #4F8575",
"2  c #4F8676",
"3  c #4F8579",
"4  c #518475",
"5  c #508575",
"6  c #508476",
"7  c #508576",
"8  c #518577",
"9  c #508578",
"0  c #508579",
"q  c #508678",
"w  c #518678",
"e  c #518679",
"r  c #528778",
"t  c #52857A",
"y  c #53867A",
"u  c #53877B",
"i  c #53877D",
"p  c #52887B",
"a  c #53887B",
"s  c #52897B",
"d  c #56897A",
"f  c #52897C",
"g  c #53897C",
"h  c #53897D",
"j  c #53887F",
"k  c #578A7D",
"l  c #54897E",
"z  c #55897F",
"x  c #588B7F",
"c  c #5A8C7F",
"v  c #568B80",
"b  c #578B80",
"n  c #5C8B80",
"m  c #5C8B81",
"M  c #5A8C80",
"N  c #598C82",
"B  c #74AB9D",
"V  c #73AC9E",
"C  c #75AC9D",
"Z  c #75AC9E",
"A  c #74AC9F",
"S  c #75AC9F",
"D  c #73ACA0",
"F  c #77AEA1",
"G  c #83B3A7",
"H  c #84B4A9",
"J  c #87B9AC",
"K  c #8EBBAF",
"L  c #8FBCAE",
"P  c #8EBCB1",
"I  c #8FBEB1",
"U  c #8FBDB2",
"Y  c #91BDB1",
"T  c #92BCB1",
"R  c #91BEB3",
"E  c #91BEB4",
"W  c #91BFB4",
"Q  c #91BFB5",
"!  c #93C0B5",
"~  c #AAC9C0",
"^  c #ACC9C1",
"/  c #ACC8C2",
"(  c #ABCDC7",
")  c #ACCCC4",
"_  c #ACCDC5",
"`  c #ADCDC6",
"'  c #ACCEC6",
"]  c #AECEC6",
"[  c #AECFC7",
"{  c #AFCFC7",
"}  c #AFD0C7",
"|  c #ADD1C8",
" . c #B1D4CA",
".. c #B2D5CB",
"X. c #B3D5CB",
"o. c #B3D5CC",
"O. c #B4D6CC",
"+. c #B7D7CD",
"@. c #B7D7CE",
"#. c #BFD6D0",
"$. c #BFD8D3",
"%. c #C0D6D0",
"&. c #C1DAD4",
"*. c #C3DBD6",
"=. c #C4DBD6",
"-. c #C4DDD7",
";. c #C5DED6",
":. c #C4DFD6",
">. c #C6DED6",
",. c #C7DED7",
"<. c #C7DFD8",
"1. c #C7DFD9",
"2. c #C6E0D9",
"3. c #C7E0DA",
"4. c #C8E1D9",
"5. c #C9E0DA",
"6. c #CAE1DB",
"7. c #CDE1D9",
"8. c #CFE1DA",
"9. c #CEE1DB",
"0. c #CEE0DC",
"q. c #CEE2DD",
"w. c #D0E1DB",
"e. c #D1E3DC",
"r. c #D0E3DD",
"t. c #D1E3DD",
"y. c #D2E2DC",
"u. c #D3E2DC",
"i. c #D4E3DD",
"p. c #D2E4DF",
"a. c #D4E5DC",
"s. c #D5E5DC",
"d. c #D4E4DD",
"f. c #D6E5DD",
"g. c #D4E4DE",
"h. c #D5E4DF",
"j. c #D5E5DF",
"k. c #D6E4DE",
"l. c #D6E5DE",
"z. c #D6E4DF",
"x. c #D7E7DE",
"c. c #DCE7DB",
"v. c #DEE7DB",
"b. c #D8E5DF",
"n. c #DEE9DB",
"m. c #DDE8DC",
"M. c #DEE8DC",
"N. c #DEE9DC",
"B. c #DFE9DC",
"V. c #DEE8DD",
"C. c #DFE8DD",
"Z. c #DEE9DD",
"A. c #DFE9DD",
"S. c #DDEADC",
"D. c #DEEADC",
"F. c #DFEADC",
"G. c #DFE9DE",
"H. c #DFE8DF",
"J. c #DFEADE",
"K. c #E0EADD",
"L. c #E0EADE",
"P. c #E0EBDF",
"I. c #D7E4E0",
"U. c #D6E6E0",
"Y. c #D7E6E0",
"T. c #D7E6E1",
"R. c #D8E6E0",
"E. c #DBE8E1",
"W. c #DCE8E1",
"Q. c #DFEAE1",
"!. c #DDE8E2",
"~. c #DDE9E2",
"^. c #DEE9E2",
"/. c #DEE9E3",
"(. c #DFE9E3",
"). c #DEEAE3",
"_. c #DAE8E4",
"`. c #DCE8E5",
"'. c #DEE9E4",
"]. c #DFE9E4",
"[. c #DEEAE4",
"{. c #DFEAE4",
"}. c #DFEBE4",
"|. c #DFEAE5",
" X c #E0E9E0",
".X c #E1E9E1",
"XX c #E1EBE1",
"oX c #E2EAE2",
"OX c #E2EBE2",
"+X c #E3EBE3",
"@X c #E3ECE3",
"#X c #E3EDE3",
"$X c #E0EAE4",
"%X c #E1EAE4",
"&X c #E0EAE5",
"*X c #E0EBE5",
"=X c #E2EAE4",
"-X c #E2EAE5",
";X c #E3EBE5",
":X c #E1EBE6",
">X c #E2EAE6",
",X c #E2EBE6",
"<X c #E5EBE5",
"1X c #E3ECE5",
"2X c #E4ECE4",
"3X c #E4EDE4",
"4X c #E5ECE5",
"5X c #E5EDE5",
/* pixels */
"a e e c 4 g a e x g e k 4 e m N ",
"d 2 D L J ..~ <.*.] ] o.! S e 2 ",
"4 S I >.t.t.Y.h.Y.h.h.9.9.R S 4 ",
"; R >.q.h.!.[.$X$X$X!.R.9.6.R o ",
"k ^ t.h.[.J.J.J.J.J.v.!.Y.w.@.; ",
"N | h.!.J.J.<X3X X3XJ.J.[.h.] ; ",
"4 ] h.!.J.3X3X$X$X3X3XP.[.h.( & ",
"k 3.h.!.J.3X$X X X$X#XJ.$Xh.>.g ",
"b 6.h.$XJ. X$XJ. X1X#XP.$Xh.#.g ",
"e @.h.!.J.3X X$X$X3X3Xv.[.Y.] a ",
"m ^ q.!.J.J.3X3X X3Xn.J.[.t...# ",
"b ] 6.b.E.J.J.J.P.J.J.!._.h.] & ",
"e W %.>.Y.!.$X$X!.[.!.[.t.=.I o ",
"; V K *.3.h.h.i.h.i.p.h.$.W S @ ",
"; e B W G H ..>.<.@.} @.I F a e ",
"i o o # 2 # & @ # ; o e g # k 3 "
};
