/* XPM */
static const char *_[] = {
/* columns rows colors chars-per-pixel */
"16 16 195 2 ",
"   c #487D70",
".  c #4A7D70",
"X  c #497F71",
"o  c #4A7E70",
"O  c #4A7F71",
"+  c #4A7F72",
"@  c #4A7F73",
"#  c #4A7F75",
"$  c #4A8072",
"%  c #4A8174",
"&  c #4B8174",
"*  c #4A8275",
"=  c #4E8375",
"-  c #4C8377",
";  c #4E8276",
":  c #4F8377",
">  c #4F8575",
",  c #4F8476",
"<  c #4E8576",
"1  c #4E8477",
"2  c #4E8577",
"3  c #4E8478",
"4  c #4F8578",
"5  c #508574",
"6  c #508475",
"7  c #518475",
"8  c #508477",
"9  c #508577",
"0  c #508676",
"q  c #508679",
"w  c #528778",
"e  c #51877A",
"r  c #51877B",
"t  c #52877B",
"y  c #53877C",
"u  c #53877D",
"i  c #52897A",
"p  c #52887B",
"a  c #53887B",
"s  c #53897B",
"d  c #56897A",
"f  c #56887B",
"g  c #53887C",
"h  c #54897C",
"j  c #55897D",
"k  c #54887E",
"l  c #55897E",
"z  c #578A7F",
"x  c #588B7F",
"c  c #5A8C7F",
"v  c #5B8C7F",
"b  c #578B80",
"n  c #598C82",
"m  c #5D8C81",
"M  c #5D8C82",
"N  c #73AA9D",
"B  c #74AC9E",
"V  c #75ACA0",
"C  c #75ADA0",
"Z  c #74ACA1",
"A  c #76ADA0",
"S  c #76AEA1",
"D  c #84B3A6",
"F  c #83B3A8",
"G  c #86B8AB",
"H  c #8FBCB0",
"J  c #8FBCB1",
"K  c #8EBDB1",
"L  c #8EBDB2",
"P  c #8FBDB2",
"I  c #90BDB1",
"U  c #91BDB1",
"Y  c #91BEB3",
"T  c #94BFB3",
"R  c #91BFB5",
"E  c #93C0B5",
"W  c #ABC9C0",
"Q  c #ABC8C1",
"!  c #ADCBC2",
"~  c #ACCDC5",
"^  c #ADCEC5",
"/  c #AFCFC5",
"(  c #ADCEC6",
")  c #ADCEC7",
"_  c #ACCFC7",
"`  c #B0CEC8",
"'  c #AFD0C6",
"]  c #AFD3C9",
"[  c #B3D4CB",
"{  c #B5D5CA",
"}  c #B4D5CB",
"|  c #B1D6CC",
" . c #B3D6CC",
".. c #B7D7CD",
"X. c #B8D8CF",
"o. c #C0D5CF",
"O. c #C0D7D1",
"+. c #C1D9D3",
"@. c #C2D9D3",
"#. c #C3DBD6",
"$. c #C3DDD6",
"%. c #C5DED6",
"&. c #C6DED7",
"*. c #C6DFD8",
"=. c #C7DFD8",
"-. c #C7DFD9",
";. c #C6DFDA",
":. c #C8DFD9",
">. c #C7E1DA",
",. c #C8E0D9",
"<. c #C9E1DB",
"1. c #CEE1DA",
"2. c #CEE1DB",
"3. c #CEE2DA",
"4. c #CFE2DB",
"5. c #CCE1DD",
"6. c #CFE1DD",
"7. c #DCE6D7",
"8. c #D2E3DB",
"9. c #D4E4DB",
"0. c #D1E2DC",
"q. c #D1E2DD",
"w. c #D3E3DD",
"e. c #D4E3DE",
"r. c #D1E4DE",
"t. c #D3E4DE",
"y. c #D5E5DC",
"u. c #D4E4DD",
"i. c #D6E5DD",
"p. c #D4E4DE",
"a. c #D5E4DE",
"s. c #D5E5DE",
"d. c #D4E5DF",
"f. c #D5E5DF",
"g. c #D6E5DE",
"h. c #D6E4DF",
"j. c #D6E5DF",
"k. c #D7E5DF",
"l. c #DAE5D8",
"z. c #DBE5D9",
"x. c #DBE6D8",
"c. c #DBE6D9",
"v. c #DAE6DA",
"b. c #DCE5D9",
"n. c #DDE5D9",
"m. c #DCE6D9",
"M. c #DDE6D9",
"N. c #DCE5DA",
"B. c #DDE5DA",
"V. c #DDE6DA",
"C. c #DCE7DA",
"Z. c #DDE7DB",
"A. c #DEE7DA",
"S. c #DEE7DB",
"D. c #D8E6DF",
"F. c #D8E7DF",
"G. c #DDE8DB",
"H. c #DEE8DA",
"J. c #DEE8DB",
"K. c #DEE8DC",
"L. c #DFE8DC",
"P. c #DEE9DC",
"I. c #DFE9DC",
"U. c #DEE8DD",
"Y. c #DEE9DD",
"T. c #DFE9DD",
"R. c #DFEADD",
"E. c #DEE9DE",
"W. c #DFE9DE",
"Q. c #DFEADE",
"!. c #E0E9DC",
"~. c #E0EADD",
"^. c #E1EBDD",
"/. c #E0E9DE",
"(. c #E0EADE",
"). c #E1EADE",
"_. c #E0EADF",
"`. c #D8E7E0",
"'. c #DAE7E4",
"]. c #DBE8E4",
"[. c #E2EAE3",
"{. c #E2EAE4",
"}. c #E2EBE4",
"|. c #E3EBE4",
" X c #E2EAE5",
".X c #E3EBE5",
"XX c #E3EAE6",
"oX c #E2EBE6",
"OX c #E3EBE6",
"+X c #E4EBE4",
"@X c #E4EBE5",
"#X c #E4EBE7",
"$X c #E2ECE5",
"%X c #E4ECE5",
"&X c #E4ECE6",
/* pixels */
"g q , c 0 i q : x i 0 d 0 3 m c ",
"d 0 Z K G | ! -.+._ _ [ E N q 0 ",
"0 Z K $.8.0.f.e.e.f.f.4.4.T B , ",
", K &.6.f.Z.Z.Z.G.Z.Z.`.4.<.I o ",
"z W r.f.Z.E././.E.E.E.Z.e.4.} : ",
"n _ 9.v././.&X|.|.|.G./.v.f._ 3 ",
"0 ` f.E.E.[.&X&X$X&X&X/.Z.f._ o ",
"u -.f.Z.E.&X|./.G.@X|.E.Z.r.&.z ",
"b <.D.G./.@X|.G.G.|.&XE.Z.f.O.q ",
"u X.D.Z./.|.@X|.|.&X|./.Z.f._ q ",
"m W 6.Z.E.E.|.&X|.|./.E.v.0.| & ",
"z _ <.f.v./.G.E.E././.7.].f._ & ",
"q K o.:.f.v.Z.Z.v.Z.v.'.0.#.K o ",
": Z I #.>.f.f.f.f.f.0.f.+.K B # ",
": i Z R F D ] -.-...' } I Z i z ",
"z o o o , $ & o o : o u z $ g , "
};
