/* XPM */
static const char *_[] = {
/* columns rows colors chars-per-pixel */
"16 16 196 2 ",
"   c #4A7D70",
".  c #4A7D71",
"X  c #4A7E71",
"o  c #4A7F71",
"O  c #4A7F72",
"+  c #4A7F73",
"@  c #4A7F74",
"#  c #488172",
"$  c #4A8073",
"%  c #4A8273",
"&  c #4A8074",
"*  c #4C8174",
"=  c #4F8377",
"-  c #4F8474",
";  c #4F8476",
":  c #4E8577",
">  c #4F8378",
",  c #4F8578",
"<  c #4F8679",
"1  c #508375",
"2  c #508574",
"3  c #508476",
"4  c #508576",
"5  c #508577",
"6  c #518577",
"7  c #508676",
"8  c #508679",
"9  c #528778",
"0  c #528779",
"q  c #51867B",
"w  c #53877A",
"e  c #53867B",
"r  c #52877B",
"t  c #53887A",
"y  c #53887C",
"u  c #52897C",
"i  c #53897D",
"p  c #538A7E",
"a  c #54887C",
"s  c #55887D",
"d  c #54897D",
"f  c #578A7C",
"g  c #578A7D",
"h  c #54897E",
"j  c #55897E",
"k  c #54897F",
"l  c #588B7F",
"z  c #5A8A7E",
"x  c #598C7F",
"c  c #5A8C7F",
"v  c #588B80",
"b  c #598C81",
"n  c #5C8C82",
"m  c #73AA9E",
"M  c #75AC9D",
"N  c #75AD9E",
"B  c #75ACA0",
"V  c #75ADA1",
"C  c #75AEA1",
"Z  c #75AEA2",
"A  c #76ADA5",
"S  c #85B5A6",
"D  c #83B3A9",
"F  c #87BAAD",
"G  c #8DBDAF",
"H  c #8EBCAF",
"J  c #90BCAF",
"K  c #8EBBB0",
"L  c #8FBCB1",
"P  c #92BDB1",
"I  c #90BEB1",
"U  c #91BFB1",
"Y  c #90BDB3",
"T  c #94BFB3",
"R  c #91BFB4",
"E  c #91C0B5",
"W  c #ABC8C2",
"Q  c #ACC9C0",
"!  c #ADCAC2",
"~  c #ABCCC3",
"^  c #ABCDC4",
"/  c #ABCEC6",
"(  c #ACCEC6",
")  c #AFCEC6",
"_  c #AECEC7",
"`  c #B0CFC6",
"'  c #AFD0C8",
"]  c #AED0C9",
"[  c #B2D1C7",
"{  c #B0D2C8",
"}  c #B1D3CA",
"|  c #B2D4C9",
" . c #B1D5CA",
".. c #B3D6CB",
"X. c #B4D6CB",
"o. c #B6D6CC",
"O. c #B8D8CF",
"+. c #BFD5D0",
"@. c #C0D6D1",
"#. c #C1D9D3",
"$. c #C2D9D4",
"%. c #C1DAD4",
"&. c #C2DBD6",
"*. c #C4DCD6",
"=. c #C4DDD6",
"-. c #C6DFD7",
";. c #C7DFD8",
":. c #C7DFD9",
">. c #C8DFD9",
",. c #C7E0D8",
"<. c #C9E0D9",
"1. c #CBE1DA",
"2. c #CCE1DA",
"3. c #CEE1DA",
"4. c #CAE2DC",
"5. c #CAE3DC",
"6. c #CFE1DE",
"7. c #D6E3D3",
"8. c #D2E2D7",
"9. c #D5E3D7",
"0. c #D6E3D7",
"q. c #D7E4D7",
"w. c #D8E4D7",
"e. c #D0E0DA",
"r. c #D0E3DB",
"t. c #D6E3D8",
"y. c #D6E3D9",
"u. c #D6E4D9",
"i. c #D7E4D9",
"p. c #D7E4DA",
"a. c #D7E5DA",
"s. c #D0E3DD",
"d. c #D2E3DC",
"f. c #D4E4DE",
"g. c #D6E4DE",
"h. c #D7E5DE",
"j. c #D8E3D9",
"k. c #D9E5D8",
"l. c #D9E4D9",
"z. c #DAE5D8",
"x. c #DAE6D8",
"c. c #DBE6D8",
"v. c #DAE6D9",
"b. c #DBE7D9",
"n. c #D8E5DA",
"m. c #D8E5DB",
"M. c #DDE7D9",
"N. c #DFE7DB",
"B. c #DBE6DD",
"V. c #DBE7DE",
"C. c #DCE7DE",
"Z. c #DDE6DF",
"A. c #DDE7DF",
"S. c #DEE7DF",
"D. c #DFE7DF",
"F. c #DEE8DA",
"G. c #DFE8DA",
"H. c #DEE8DB",
"J. c #DFE9DB",
"K. c #DDE8DF",
"L. c #DFE9DE",
"P. c #E0E9DE",
"I. c #DDE7E0",
"U. c #DCE8E0",
"Y. c #DDE8E0",
"T. c #DEE8E0",
"R. c #DFE8E0",
"E. c #DFE8E1",
"W. c #DEE9E1",
"Q. c #E0E9E0",
"!. c #E1E9E0",
"~. c #E0E8E1",
"^. c #E0E9E1",
"/. c #E1E9E1",
"(. c #E2E9E1",
"). c #E0EAE0",
"_. c #E1EAE1",
"`. c #E0E9E2",
"'. c #E1E9E2",
"]. c #E1EAE2",
"[. c #E1EBE3",
"{. c #E2EAE2",
"}. c #E3EAE2",
"|. c #E2EBE3",
" X c #E1E9E4",
".X c #E2EAE4",
"XX c #E2EBE4",
"oX c #E3EBE4",
"OX c #E3EAE5",
"+X c #E3EBE5",
"@X c #E4EBE5",
"#X c #E4EBE6",
"$X c #E3ECE4",
"%X c #E3ECE5",
"&X c #E4ECE5",
"*X c #E4ECE6",
/* pixels */
"d 5 9 c 5 p p 5 l p 5 d 5 5 l c ",
"d 9 V J F  .! ;.#.] _ { E N 9 ; ",
"1 V G =.d.9.u.u.t.j.w.3.r.T m 5 ",
"; Y ,.6.u.Y.V.C.Y.Y.L.q.r.1.Y   ",
"d ! d.u.Y.oX_._._._._.Y.u.3.X.$ ",
"b / 7.Y._._.oXoXoX@X_._.Y.b.~ = ",
"5 _ b._._.%X@XH.H.@XoXL.Y.t.] $ ",
"d ;.b.Y._._.H.oXoXM._._.Y.u.=.d ",
"v 4.b.C._.oXH.oXoXH.%X_.Y.u.+.p ",
"9 O.b.Y._.oXoXb.M.*XoX_.C.u./ 9 ",
"n W 8.Y._._.*X*XoXoX_._.C.9. .$ ",
"d _ 1.b.C._._._._._._.P.C.g.` $ ",
"< Y @.>.u._.Y.C.I.Y._.V.g.&.G   ",
"= A K &.4.b.u.u.b.b.9.g.&.L N @ ",
"> t V R S D { =.;.o.[  .Y V 9 d ",
"d       ; $ &   & ;   d p   9 < "
};
