/* XPM */
static const char *_[] = {
/* columns rows colors chars-per-pixel */
"16 16 197 2 ",
"   c #497D6F",
".  c #4A7D6E",
"X  c #497E71",
"o  c #4A7E71",
"O  c #4A7E72",
"+  c #4A7E73",
"@  c #497F75",
"#  c #4A7F74",
"$  c #498073",
"%  c #4A8072",
"&  c #4A8172",
"*  c #4A8175",
"=  c #4A8275",
"-  c #4E8175",
";  c #4E8375",
":  c #4D8377",
">  c #4E8377",
",  c #4F8377",
"<  c #4F8675",
"1  c #4E8477",
"2  c #4E8577",
"3  c #4F8578",
"4  c #508273",
"5  c #508375",
"6  c #508376",
"7  c #508574",
"8  c #508575",
"9  c #508577",
"0  c #518677",
"q  c #508578",
"w  c #508579",
"e  c #538778",
"r  c #50867A",
"t  c #52867A",
"y  c #53877B",
"u  c #52877C",
"i  c #52887A",
"p  c #52887B",
"a  c #55897A",
"s  c #54887B",
"d  c #55897B",
"f  c #52887C",
"g  c #53887C",
"h  c #53897C",
"j  c #52887D",
"k  c #54897D",
"l  c #56897D",
"z  c #55887E",
"x  c #54897E",
"c  c #55897E",
"v  c #568A7E",
"b  c #588B7D",
"n  c #5B8A7F",
"m  c #588C7F",
"M  c #578A80",
"N  c #5A8C80",
"B  c #5C8C81",
"V  c #74AC9F",
"C  c #75ACA0",
"Z  c #75ADA0",
"A  c #76AEA1",
"S  c #78AFA1",
"D  c #85B5AA",
"F  c #86B8AC",
"G  c #90BAAE",
"H  c #90BBAF",
"J  c #8FBBB1",
"K  c #8FBCB1",
"L  c #8FBDB1",
"P  c #8EBEB2",
"I  c #91BDB1",
"U  c #91BEB2",
"Y  c #93BEB2",
"T  c #91BFB4",
"R  c #92C0B5",
"E  c #93C0B5",
"W  c #ACCCC3",
"Q  c #ACCDC6",
"!  c #B1CAC2",
"~  c #B0CCC0",
"^  c #B1CDC1",
"/  c #B2CFC3",
"(  c #B1CFC4",
")  c #B3D0C5",
"_  c #B3D2C7",
"`  c #B4D0C7",
"'  c #B6D2C7",
"]  c #B2D1C8",
"[  c #B4D3C9",
"{  c #B1D4C9",
"}  c #B5D5CA",
"|  c #B5D7CA",
" . c #B5D6CB",
".. c #B4D5CC",
"X. c #B7D7CC",
"o. c #BAD8CB",
"O. c #BBD9CE",
"+. c #C0D6D0",
"@. c #C1D9D3",
"#. c #C4D9D1",
"$. c #C4DAD1",
"%. c #C7DED3",
"&. c #C1D9D4",
"*. c #C2DAD6",
"=. c #C6DED7",
"-. c #C8DFD6",
";. c #C9DFD6",
":. c #C9DFD7",
">. c #C6DFD8",
",. c #C8E0D5",
"<. c #CAE0D7",
"1. c #CCE1D7",
"2. c #CDE1D7",
"3. c #CFE1D7",
"4. c #C6E0D8",
"5. c #CBE1D8",
"6. c #CEE1DA",
"7. c #CFE1DA",
"8. c #D1E1D8",
"9. c #D0E2D9",
"0. c #D5E3DA",
"q. c #D5E3DB",
"w. c #D5E5DA",
"e. c #D5E4DB",
"r. c #D7E4DB",
"t. c #D4E3DD",
"y. c #D0E4DC",
"u. c #D4E4DC",
"i. c #D4E5DC",
"p. c #D5E5DC",
"a. c #D5E4DD",
"s. c #D5E5DD",
"d. c #D7E4DC",
"f. c #D7E5DC",
"g. c #D6E4DD",
"h. c #D7E6DC",
"j. c #D7E6DD",
"k. c #D5E4DE",
"l. c #D7E4DE",
"z. c #D6E5DE",
"x. c #D7E5DE",
"c. c #D7E6DF",
"v. c #DDE6D8",
"b. c #DDE7D8",
"n. c #DDE7D9",
"m. c #DEE6D9",
"M. c #DEE7D9",
"N. c #D8E5DD",
"B. c #D9E7DE",
"V. c #DDE8D8",
"C. c #DEE8D9",
"Z. c #DFE8DA",
"A. c #DEE8DD",
"S. c #DFE9DE",
"D. c #DEE9DF",
"F. c #DFE9DF",
"G. c #DFEADF",
"H. c #D9E6E1",
"J. c #DDE7E0",
"K. c #DDE7E1",
"L. c #DEE7E1",
"P. c #DEE8E1",
"I. c #DDE8E2",
"U. c #DCE8E3",
"Y. c #DEE8E2",
"T. c #DFE8E2",
"R. c #DEE9E2",
"E. c #DFE9E2",
"W. c #DFE9E3",
"Q. c #E0E8E0",
"!. c #E0E9E1",
"~. c #E1E9E1",
"^. c #E0EAE1",
"/. c #E1EAE1",
"(. c #E1EBE1",
"). c #E2EAE1",
"_. c #E2EBE1",
"`. c #E0E8E2",
"'. c #E0E9E2",
"]. c #E0E8E3",
"[. c #E0E9E3",
"{. c #E1E9E3",
"}. c #E1EAE2",
"|. c #E1EBE2",
" X c #E0EAE3",
".X c #E1EAE3",
"XX c #E2EAE2",
"oX c #E2EBE2",
"OX c #E2EAE3",
"+X c #E2EBE3",
"@X c #E3EBE3",
"#X c #E0E9E4",
"$X c #E1E9E4",
"%X c #E1EAE4",
"&X c #E3ECE4",
"*X c #E3ECE6",
"=X c #E4ECE6",
/* pixels */
"h r 1 N 5 i i 3 v h 8 a 5 r n n ",
"a 8 Z H F } ^ -.#._ _ { R Z r 1 ",
"4 Z P >.0.k.k.k.k.k.k.1.y.U Z 8 ",
"8 R 4.7.k.K.E.E.`.E.E.k.9.=.U   ",
"v ^ 9.k.`.`.`.`.`.`.`.E.k.1.} * ",
"m [ e.K.`.`.`.C.M.`.G.G.`.k.( - ",
"r ` e.K.`.&XM.E.`.C.`.`.`.t.] % ",
"v -.k.E.`.M.E.`.=X#XC.`.E.k.-.v ",
"M <.k.E.G.M.E.&X#X`.C.`.E.k.#.h ",
"r O.N.#X`.`.C.`.E.M.`.`.E.k.^ h ",
"B ! 7.`.`.`.`.M.M.`.G.`.E.t...* ",
"v Q 1.k.`.`.`.`.`.G.G.G.E.k.W % ",
"r T +.-.k.`.`.E.`.E.E.H.k.*.P @ ",
"- Z P @.5.k.k.N.k.0.k.e.*.J Z @ ",
"- r V T D H } <.%.o.` ..U S h a ",
"r +   % - % @ + + 1 + u v + v - "
};
