/* XPM */
static const char *_[] = {
/* columns rows colors chars-per-pixel */
"16 16 16 1 ",
"  c #9BCBBF",
". c #79B7AB",
"X c #79B3B7",
"o c #79B794",
"O c #5EA496",
"+ c #5EA48E",
"@ c #5E9EA4",
"# c #5E85A4",
"$ c #4E86A3",
"% c #687396",
"& c #468974",
"* c #467A95",
"= c #41816A",
"- c #2C8755",
"; c #596589",
": c #267A4B",
/* pixels */
"@$ .@$$*. $@* ..",
"@*@$$  $ ..$*@.@",
"*@*. .@$@.@* *$@",
"  *$.@@@$@$ .@**",
"..@*$$@@*$..@$$ ",
".@@$.@**$@@$  .$",
"*@$.@*$..$*. .$*",
"@**$$$.  .*@.$@ ",
"@$  .@ .@@$$@* .",
"@ .@$..@@$  **@@",
"$.@@*$@@$ .@$.*$",
"$*@* .$@$.@@$  .",
".$* ..$*.$$* .@@",
"@@*.@@*.  .$.@@@",
"@@$$.@@* .@.$@$*",
"**. *@@$*$@@@*  "
};
