/* XPM */
static char *backyard_png[] = {
/* columns rows colors chars-per-pixel */
"48 64 253 2 ",
"   c #0B0B0D",
".  c #070304",
"X  c #110B0C",
"o  c #0C0E12",
"O  c #0D151B",
"+  c #0C1217",
"@  c #131214",
"#  c #12151A",
"$  c #14191E",
"%  c #1C1B1D",
"&  c #191518",
"*  c #140E11",
"=  c #3E190C",
"-  c #341608",
";  c #271B17",
":  c #2C221D",
">  c #352319",
",  c #0E1C28",
"<  c #151C23",
"1  c #1C1D23",
"2  c #161D27",
"3  c #211E23",
"4  c #2A1E23",
"5  c #301D22",
"6  c #1E2126",
"7  c #1C232B",
"8  c #15232C",
"9  c #1B2D3B",
"0  c #172834",
"q  c #0D2837",
"w  c #222225",
"e  c #23252B",
"r  c #2B252C",
"t  c #25292D",
"y  c #2A2B2E",
"u  c #2C2325",
"i  c #35292A",
"p  c #232B34",
"a  c #2C2C33",
"s  c #2C2C39",
"d  c #242935",
"f  c #332D35",
"g  c #372C38",
"h  c #2D3234",
"j  c #2C323B",
"k  c #25343D",
"l  c #33333C",
"z  c #3B333C",
"x  c #363839",
"c  c #30332B",
"v  c #421D0D",
"b  c #44210E",
"n  c #4D240E",
"m  c #4D2C0E",
"M  c #4B2413",
"N  c #4C2C13",
"B  c #472716",
"V  c #572B1B",
"C  c #4C3411",
"Z  c #4D3A15",
"A  c #58311B",
"S  c #47362A",
"D  c #5A3624",
"F  c #463639",
"G  c #4E3531",
"H  c #663A24",
"J  c #6B3832",
"K  c #3C4538",
"L  c #5A4634",
"P  c #514635",
"I  c #69422B",
"U  c #664C3B",
"Y  c #765035",
"T  c #676734",
"R  c #1A3547",
"E  c #183B55",
"W  c #10324D",
"Q  c #283746",
"!  c #3C3C4A",
"~  c #363944",
"^  c #263E53",
"/  c #313D53",
"(  c #443C44",
")  c #493A47",
"_  c #563746",
"`  c #1E445A",
"'  c #09435C",
"]  c #2E4148",
"[  c #3B424D",
"{  c #394647",
"}  c #284559",
"|  c #344455",
" . c #394958",
".. c #395359",
"X. c #315156",
"o. c #0F4D6D",
"O. c #284B65",
"+. c #374E65",
"@. c #2A556D",
"#. c #385367",
"$. c #285875",
"%. c #365A77",
"&. c #326577",
"*. c #44434C",
"=. c #4C434D",
"-. c #47484A",
";. c #554749",
":. c #595649",
">. c #4B4454",
",. c #454B5A",
"<. c #484956",
"1. c #554B57",
"2. c #475459",
"3. c #58545C",
"4. c #6A5B48",
"5. c #645856",
"6. c #714B52",
"7. c #6A6259",
"8. c #776759",
"9. c #796244",
"0. c #485667",
"q. c #535562",
"w. c #5B5C6A",
"e. c #575A66",
"r. c #455C74",
"t. c #4D4F63",
"y. c #655A66",
"u. c #705F69",
"i. c #4B696A",
"p. c #466575",
"a. c #557879",
"s. c #556B73",
"d. c #696568",
"f. c #766B68",
"g. c #7B7369",
"h. c #666774",
"j. c #797977",
"k. c #687275",
"l. c #5B6741",
"z. c #873D37",
"x. c #903F37",
"c. c #8A453A",
"v. c #934E3A",
"b. c #975330",
"n. c #8A4A44",
"m. c #964C46",
"M. c #99544A",
"N. c #8A5356",
"B. c #975754",
"V. c #8D574A",
"C. c #A5574A",
"Z. c #AC5147",
"A. c #8A6546",
"S. c #97674B",
"D. c #886A57",
"F. c #976A54",
"G. c #997358",
"H. c #8C715A",
"J. c #A77858",
"K. c #A76C57",
"L. c #945267",
"P. c #887668",
"I. c #967967",
"U. c #877C75",
"Y. c #94736A",
"T. c #A67965",
"R. c #AB6661",
"E. c #B85E72",
"W. c #D9574F",
"Q. c #F35D51",
"!. c #DD6254",
"~. c #FA6757",
"^. c #FD765C",
"/. c #E66B5B",
"(. c #E67863",
"). c #FE7867",
"_. c #F36964",
"`. c #6D8179",
"'. c #AE835D",
"]. c #86837A",
"[. c #96867A",
"{. c #98846B",
"}. c #AA8568",
"|. c #AD8871",
" X c #FF8D6C",
".X c #FE8567",
"XX c #FF926D",
"oX c #FE8B72",
"OX c #C5855F",
"+X c #126693",
"@X c #376788",
"#X c #377499",
"$X c #306C8B",
"%X c #2B79A2",
"&X c #236E99",
"*X c #466B89",
"=X c #45778A",
"-X c #457594",
";X c #4E718A",
":X c #487FA6",
">X c #3B889A",
",X c #1499B2",
"<X c #3A88A8",
"1X c #3796AB",
"2X c #2B9AB5",
"3X c #3799B7",
"4X c #2A8DAA",
"5X c #0EA7BD",
"6X c #37A4BC",
"7X c #26A2BB",
"8X c #548891",
"9X c #6F8E8E",
"0X c #478BAA",
"qX c #4798B7",
"wX c #559AB6",
"eX c #4E92AC",
"rX c #6798A8",
"tX c #5AA2BB",
"yX c #4BA3BB",
"uX c #66A4BC",
"iX c #74A8BD",
"pX c #07AAC7",
"aX c #14A9C8",
"sX c #05B4DB",
"dX c #15B4D9",
"fX c #0DADD0",
"gX c #26A7C7",
"hX c #35A9C7",
"jX c #2DB2D4",
"kX c #09B8E3",
"lX c #17BCE7",
"zX c #25BAE0",
"xX c #2B9AC2",
"cX c #50ACC9",
"vX c #67ACC4",
"bX c #4799C0",
"nX c #17C0E9",
"mX c #25C3EC",
"MX c #8B8985",
"NX c #958B85",
"BX c #9B948B",
"VX c #9A9897",
"CX c #8A8E96",
"ZX c #A59589",
"AX c #A89C93",
"SX c #BD9E83",
"DX c #ACA39A",
"FX c #B4A598",
"GX c #B5A48F",
"HX c #9099A4",
"JX c #ADA9A7",
"KX c #95A7AB",
"LX c #C4B6A6",
/* pixels */
"v m = = = = M M M M M M M M M M M M m m m m m m v m m m b m m m M M M M N N N N v b b b Z Z N C ",
"m U.g.I.Y F.Y P.P.g.5.f.j.U.f.8.F.A.S.V.Y.aXkXkXlXlXsXkXjX2X<X0X0X<X0X0X0XwX0XuXvXdXsXkXkXlXkXC ",
"m [.F.A.A.A.v.H.D.[.d.h.j.g.U.H.F.A.S.I.R.aXsXsXlXkXdXaX6XqX<X<X0X0X0X0X0X0X0XeXuXtXjXsXkXnXlXC ",
"n U.H.A.H.S.v.A.F.BXMXh.d.ZXG.F.A.A.M.v.B.dXsXsXlXlXfXjXjXjX3X3X<X<X<X0XqXqXqXwXwXuXiXcXlXkXkXC ",
"= U.H.P.P.A.F.S.J.I.VXAXAXI.A.J.J.J.S.M.m.aXpXdXsXsXlXlXlXlXsX5XfXaXgXhXcX6XhXhXqXwXvXtXjXkXlXb ",
"= g.4.D.g.G.8.g.F.F.AXAXZXS.F.F.F.G.T.M.R.aXsXsXdXlXlXlXlXlXlXsXkXkXkXlXkXlXdX2XqXtXuXcXcXcXhXb ",
"= ].j.f.U.g.g.j.U.[.NX].BXP.d.d.{.}.F.S.M.aXsXkXkXlXmXlXlXlXkXlXkXaXhXhXcX2X,X4X2XwXiXiXvXtX@Xb ",
"= P.U.P.].NX].MX].AXNXBXDXDXJXDXf.G.K.S.B.>X2XdXpXaXjXgXzXzXlXkXdXvXcXuXuX@X$.@X0X0XwXrX*Xp.| b ",
"M {.A.H.j.g.{.DX].].d.VXAXNXNX[.7.F.J.V.R.3.2...| &.3XgX,XgXzXkXnXnXhXvX=X&.[ @.+.p.0XrX-Xr.e.v ",
"M [.}.H.I.BX{.AXZXAXj.NXBXZXU.BX9.'.J.K.n.3.[ j ~ ! <.[ ~ p.$XgXlXdXjX#X0. .| 0.X.-X0X*X@X;Xq.v ",
"M U.T.}.}.ZXg.DXDXFXAXAX[.NX[.].}.J.C.M.M.<.Q ! a z q.2.<.2.! [ <.....$X@.@. .=X&.-X%.%X@X@X@Xv ",
"M j.|.J.J.|.'.AXZXAXZXZXZX[.AXj.8.F.T.S.v.( ~ ~ l a 2.| *.( *.*.*.! 2.0.&.<X@X*X@X$X$X#X-XO.*Xv ",
"M ZX'.'.J.|.f.f.g.U.NXNXU.H.5.3.U.}.C.R.Z.( ! ( ! ( ! ! ~ ( e.<.~ [ ~ -.{ 0XqX$X#X$X@X@X#XO.;XM ",
"M DX|.'.J.J.T.T.Y.|.U.U.P.R.T.I.G.'.S.S.C.1.~ l l z <.*.l *.e.l ! j j -.;X=X&.#.@X%.@X@X-X#X-XN ",
"M JXOXJ.|.'.|.Z.C.M.P.P.U.m.n.B.[.}.F.F.R.( x =.x h *.{ j ( ;.! ~ l ~ { s.} X.X.^ &.} @X+X:X%XM ",
"M FXSXJ.}.JXFXm.M.B.U.BXZXB.c.C.GXAXK.C.Z.( -.l a *.h a t y ( 1.z { l ! X.k } d R +.@X*X%.@X:XM ",
"N LXSX|.FXVXAXY.M.m.U :.;.J c.F.FXZXY.F.Z.( x -.h y P y f l *.*.l { Q } { l l h  .( @X@X$X@X%.m ",
"N LX|.F.n.[.NX[.J w w % p 1X&.:.[.I.c.M.Z.x x h t { h e a j  .=.| j s j *.[ h h x =.@X$X$X$X$.N ",
"N VXP.B.B.B.U.c w % 6 1 e $XR % x m.m.M.R.F x t e t e t a k a ) p t d s l P P K :.) -X$X#X#X@Xm ",
"N _._.~.~.!.: % w w e 1 e w 6 1 w G C.v.M.x t h e h R p a l ~ F p x h e =.h ;.;.:.;.-X#Xr.0.0.m ",
"m ).).).)./.e e t a e y w 6 t 6 6 w P.ZXAXl w t h h e 6 y x e e K c c x ;.;.5.-.) 6.-X@X>.r.>.M ",
"m ).).oX~.!.a e a e y t h t w 6 w e BXDXAX~ a t p e x e x f t x h w c r ) ;.;.( ( 6.*X@X<.*X3.M ",
"m oX~..X/./.a t y e w e w w e 6 h r [.ZXZXh y y h w e e a a e t h :.h 3 ;.;.<.( ( N.;X@X_ *X>.M ",
"m ).)..XoX(.k j a w e e w y w % w r B.m.S.z w t e e y e p e h w a y w 3 ) F ) ~ ( N.;X*X) *Xr.M ",
"C .X^..X X(./ k j 1 e  .4X,X,Xp & 3 n.c.n.c w w a e t e 6 y 1 e ! w % w 1.( F g _ B.r.@Xy.@X@Xn ",
"C .X). X X(.e Q j e  .5XpX5XpX$X& 3 m.m.v.g w u w 6 1 7 a h e w ~ e % 1 ! z g ( z N.q.$X;.#X*Xn ",
"b  X XXX X(.e / / e =XzXpXaXpX,X& 3 m.M.v.g w 3 e y w e 6 e 1 6 e 7 1 1 ! g g ( F N.y.-X) @X%.n ",
"C  XXXXXXX(.a / | e <XaXgXpXpX,X@ % M.m.M.r w w e 6 a 1 1 6 6 6 1 s w % l f g F ~ 6.k.-X>.O.%.n ",
"C XXXXXX X(.e Q ^ t 4XaXaX5XaX5X& 3 NXNXMXe 6 e e w w 1 1 e 6 6 1 d & % ~ r i _ ~ 6.y.@X<.@X$.C ",
"C  X X X.X/.e d E t 4XpXaXjXjXhX& & NXMXMXe 1 w a 1 w 6 6 1 6 1 w 7 $ % s d f ) z 6.h.*X~ @X@XC ",
"C  X~. X.X(.6 p } e 3XaXpXgXjX2X@ & N.B.G.1 e 6 7 $ $ 1 1 e 7 1 % 7 & % l a f z f 6.e.@X~ *X@Xb ",
"C .X^.XX X/.1 j %.e ,XaX5XdX5X2XX @ n.m.c.f 1 1 7 p j 1 1 a.rXp % 1 7 $ g s ( z l 1.t.*X<.*X@XC ",
"m ).Q..X.X/.1 9 O.e 7XpX7X,XgX2X* & M.m.A.l $ 1 2 2 7 7 Q `.f.a.1 1 7 $ s d ~ g g ) y.%.( p.@XC ",
"m ^.Q.^.^.!.1 9 E p 1X7X1X4X3X1XX @ c.c.n.a 6 6 2 1 7 0.9XMXk.&.0 1 d $ d ~ g f l 1.t.%.) O.o.N ",
"m ~.).).).!.1 7 O.p 1X6X6X6X2X>X  & Y.V.G.e 7 2 8 $ 0 0.KX4.-.:.3.e Q 7 i g z f z 1.>.%.( ` $.C ",
"m ~.^.~.~.!.$ 7 O.7 >X4X2X4X6X3X. * f.U.j.7 2 $ 8 1 s.,.k.8.7.].9X;XR 7 l s a a f <.;.%.g ,.o.C ",
"m ~.~.~.~.W.1 7 ` 7 eX1X6X6XhX>X. X ].MXMX` R R R j.e.0.:.i F G 7.rXp.] ~ a r i i <.y.%.) ! $.m ",
"m W.!.!._.W.e 7 O.7 0XyXqXwXtX1X. X U.[.].' ' ' 7.8.e.e.:.S U 4.i.rX8X/ ..r 1 2 $ k | $XO.%.%.m ",
"m -.2.S F Q 1 2 %.7 tXeXwXuXuXeX. X c.c.J ` ` F U L 1.:.: I D 5.i.8X9XQ .. .9 2 O e 9 o.Q | ^ m ",
"m y.[ ( J Q 2 2 E 7 wX0X0XeXvXeX. * z.c.z.~ L 4.L L g.P : H V :.o.o.a.d i.X.} 0 + 9 2 O k ^ ^ m ",
"m L.u.0.n.R 2 2 E 2 0XwXwXeXwX8X  X x.F.M.U L P.H.8.S i I H M B ' o.a.k 0.i.E 0 O q , p 2 d O.m ",
"m E.J G z Q 1 2 R 7 <X0XqXwXwX0X.   z.n.c.4.4.U L S H H I H S a.a.i.a.k ..i.7 o o O j O 2 Q / m ",
"m _ L.6.K 9 2 < } 2 0XqXqXwXbX0X. X c.m.M.U L L Y I A H H Y a.8X9X8X9Xs Q X.< 2 $ R  .s d s ~ m ",
"m j.f.L.l., 1 7 O.7 %X<X<X3XxX4X  @ U.g.7.F P L I V A V A D a.8Xa.i.`.t d 0 7 p e e a e p l ! m ",
"C BXBXMXA.7 7 2 9 } &X<X#X%X%X+XW & P.8.g.i L i I M A M H D a.a.a.i.f.k e e e e e 7 7 0 p d 7 m ",
"C MXU.U.L 7 0 2 9 O.$.&X#X$X+X$.$ & V.D.6.D S > D b H M D V s.8Xa.2.g.] a e e e e 7 7 $ 7 7 7 m ",
"C a BXy.U 0 2 2 } E @X$.$.@.@.E 2 % B.B.n.i i > - b A H V V S a.2.X.L { a e f w 1 2 2 7 7 0 7 m ",
"C a h.y.T 0 2 2 9 | $.O.} @.O.9 7 3 c.B.z.u : : b - V H M M b 2.`.2.{ k r 1 i y w a 2 e 7 2 7 m ",
"N ) j u.G 2 2 2 R } } | E E O.1 & * n.n.z.i S : N - - H H b M { a.{ ] 2.t 2 r 1 < 2 2 q q O $ n ",
"N q.d.5._ 2 2 9 R O./ ` E +.R 2 1 % n.n.z.k k Q Q p a 7 a j ;.i.7.S P k < 3 3 2 1 2 2 q q < $ n ",
"N U.NXAXDX7 2 Q 9 9 R Q Q / c S , 3 8.f.8.p.0.| O.} +.} ^ %.' O.( F i.~ < 3 $ $ $ o O 2 0 2 6 n ",
"N VXJXJXHXCXe 2 7 7 9 p R Q c.b.> o 7.5.5.z i g f f f a y a h a e a r r 1 w $ 2 2 O o o O 7 7 n ",
"N VXVXHXHXJX1.1.t.*.#. .;X%.e.-.l 3 5.5.5.e $ 1 $ 1 3 1 1 2 2 1 1 w w r ~ s d e R O 2 O 8 2 *.M ",
"N w.CXCXVXKXCX3.y.;.y.3.y.1.5.;.-.;.;.F ( Q 9 9 9 q 0 9 8 9 0 q 0 0 8 g z r r ~ R 2 < 0 $ 2 O M ",
"N =.w.h.9XCXj.( 5.3.3.y.<.w.,.*.=.[ ~ l ~ /  .R ` R R R 9 R R R 9 Q 9 u 4 r 4 4 2 , o.W 9 7 e M ",
"N ( <.[ ! =.1.1.y.y.w.h.e.q.e.! q.1.2.q.0. .,. .O.@.E R ^ R ^ } R q , i a r 1 w o.+Xo.o.o.#.| M ",
"M 1.f.y.u.d.y.e.2.k.q.w.w.1.e.0.h.,.,.0.,./ q.r. .O.O.^ R } 9 ^ O.O.} f O O o O , q E p.&.' 2 N ",
"M 3.d.1.y.d.y.3.w.q.,.,.e.1.q.,.*.[ *.*. .+.1.0.+. .+.^ }  .0.+.| +.%./ *     o   @ 9 o.E 0.$ N ",
"M e.3.y.y.e.q.1.d.1.,.q.1.[ ,.[ q.*.1.[ [ / | | / | Q / E } }  .#.%.+.O.$ o     o o 2 R o O 1 b ",
"M y.y.1.y.3.y.1.3.d.*.[ e.[ ,.,.*.q.e.1.*./ / d O O 8 2 2 O O 0 0 Q +.+./ o o @ o   o 2   o $ N ",
"m 1.y.1.<.<.w.1.2.,.,.0.e.w.e.q.q.0.q.[ e 7 1 $ $ 2 6 1 $ 1 2 < 7 Q / 0.| o   $ $   $ o 1 6 7 C ",
"b y e j ~ j [ q.w.,.*.1.1.e.1.w.w.<.[ q.,.| / / ! 0.Q / ^ Q /  .#.| | Q Q     o $ $ o 2 2 2 e b ",
"N w 4 u w e e a s *.l ! <.=.=.1.w.h.h.r.0.0.,.,.r.q.0.r.#.| +.0.0.[  .| } 1 @ o $ @ @ 1 1 7 s C ",
"n m = = = = M M M M M M M M M M M M m m b m m b m b m b m m m m M M v M N N N N b b b b N b C C "
};
