/* XPM */
static char *bust_png[] = {
/* columns rows colors chars-per-pixel */
"32 32 221 2 ",
"   c #0B0E0D",
".  c #050D07",
"X  c #0D120D",
"o  c #10130E",
"O  c #0C0F10",
"+  c #100F11",
"@  c #0E1312",
"#  c #0F1A19",
"$  c #121514",
"%  c #141916",
"&  c #1A1917",
"*  c #131619",
"=  c #151A1B",
"-  c #1B1B1C",
";  c #1A1717",
":  c #3E190C",
">  c #3D170B",
",  c #211F1E",
"<  c #1D201D",
"1  c #1F2216",
"2  c #22221B",
"3  c #2C2C19",
"4  c #383419",
"5  c #1C1C21",
"6  c #252322",
"7  c #2B2724",
"8  c #332C22",
"9  c #353524",
"0  c #3C3D23",
"q  c #3A322B",
"w  c #2B312D",
"e  c #411D0D",
"r  c #641712",
"t  c #43200E",
"y  c #4D260D",
"u  c #4D2B0E",
"i  c #4B2412",
"p  c #4C2B13",
"a  c #4B3512",
"s  c #473A18",
"d  c #503512",
"f  c #473E26",
"g  c #673A24",
"h  c #534B1B",
"j  c #7D411F",
"k  c #6D5D1C",
"l  c #78681B",
"z  c #4C4322",
"x  c #4B4924",
"c  c #584B29",
"v  c #5E5525",
"b  c #5A4B37",
"n  c #7A4523",
"m  c #774A28",
"M  c #765234",
"N  c #6C4F2C",
"B  c #6B6423",
"V  c #746C25",
"C  c #7A6B24",
"Z  c #746E2A",
"A  c #7A6726",
"S  c #7C7325",
"D  c #7C722B",
"F  c #7A7828",
"G  c #7C7132",
"H  c #787832",
"J  c #6D6A31",
"K  c #564F44",
"L  c #685546",
"P  c #7B695B",
"I  c #7C6761",
"U  c #B81E12",
"Y  c #BB271B",
"T  c #95180E",
"R  c #C03A0C",
"E  c #C4271B",
"W  c #C33F13",
"Q  c #E32C1C",
"!  c #E03119",
"~  c #E52E23",
"^  c #E93124",
"/  c #F33A27",
"(  c #85461F",
")  c #986100",
"_  c #85741E",
"`  c #83681E",
"'  c #A86700",
"]  c #844B29",
"[  c #86512E",
"{  c #834E33",
"}  c #8E5A38",
"|  c #925A35",
" . c #9A5C33",
".. c #984F2D",
"X. c #A85C2D",
"o. c #826B24",
"O. c #876821",
"+. c #8D7625",
"@. c #84732B",
"#. c #87792C",
"$. c #947629",
"%. c #877835",
"&. c #957C37",
"*. c #96643E",
"=. c #A06239",
"-. c #AB6A3B",
";. c #B97437",
":. c #CE4512",
">. c #F26A18",
",. c #C4512B",
"<. c #F1482D",
"1. c #C07B3B",
"2. c #FE7A24",
"3. c #FB762A",
"4. c #F86F28",
"5. c #975F40",
"6. c #986847",
"7. c #987747",
"8. c #81624B",
"9. c #A26C45",
"0. c #A97449",
"q. c #B77B4A",
"w. c #AA7752",
"e. c #8B8E19",
"r. c #8C921D",
"t. c #9A931C",
"y. c #93881E",
"u. c #A2991D",
"i. c #A4961B",
"p. c #B6B41D",
"a. c #9B9323",
"s. c #9C9823",
"d. c #9A942C",
"f. c #9A9926",
"g. c #978634",
"h. c #9B9834",
"j. c #90872F",
"k. c #A39C25",
"l. c #A39A2C",
"z. c #A99B27",
"x. c #A39B33",
"c. c #A5993A",
"v. c #A7A237",
"b. c #B9A937",
"n. c #AFAE25",
"m. c #CA8900",
"M. c #CE9000",
"N. c #D69104",
"B. c #CC9110",
"V. c #C78F11",
"C. c #F1BE0F",
"Z. c #EDB809",
"A. c #C2BB27",
"S. c #EFC111",
"D. c #F4C212",
"F. c #F3CA14",
"G. c #F3C619",
"H. c #F0C40D",
"J. c #F8D02A",
"K. c #9D8144",
"L. c #A88156",
"P. c #B8865A",
"I. c #A78B49",
"U. c #A9A742",
"Y. c #B5AD43",
"T. c #AB8763",
"R. c #BC8C6A",
"E. c #B9996A",
"W. c #AD9478",
"Q. c #C7874B",
"!. c #D79659",
"~. c #CA8956",
"^. c #E0A05D",
"/. c #CB9465",
"(. c #C69967",
"). c #C39669",
"_. c #D69C67",
"`. c #C69B73",
"'. c #D19E76",
"]. c #C58C71",
"[. c #CCA37C",
"{. c #DCA474",
"}. c #D8A779",
"|. c #D7AA72",
" X c #E5A56E",
".X c #EEE75B",
"XX c #EAE967",
"oX c #EBEB70",
"OX c #E1E477",
"+X c #F0F074",
"@X c #C5A488",
"#X c #D7AA85",
"$X c #D9B18B",
"%X c #D1AE90",
"&X c #DCBC9C",
"*X c #D5B79A",
"=X c #E6AE80",
"-X c #E7B78A",
";X c #EBBB9B",
":X c #E3B998",
">X c #D1B8AB",
",X c #E6BFAA",
"<X c #DFC39A",
"1X c #EAC298",
"2X c #E8E985",
"3X c #DAC1AA",
"4X c #EDC1A1",
"5X c #EAC6AC",
"6X c #ECCAAA",
"7X c #E5C6AB",
"8X c #F1CAA9",
"9X c #EACDB3",
"0X c #ECCCBA",
"qX c #E7C8B7",
"wX c #F4D0B4",
"eX c #E9E4A5",
"rX c #EDD5C6",
"tX c #EED8CC",
"yX c #F3D5C5",
"uX c #F0DED2",
"iX c #EBDDD0",
/* pixels */
"a u p t t i i u u u a a a a y y y y y y y y u p a a a > : i a u ",
"a * @ O * = = < % = $ $ $ @ # @ ; % $ = $ $ = $ @ - % % = * $ i ",
"i X O $ @ - @ % @ $ @ $ % $ $ $ = $ % % % $ % = % % & - - $ - p ",
": * = * @ @ * * = = = < & % & % % @ $ $ @ X @ = $ @ - = = o * t ",
"i O @ % % @ 5 = = q W.@X*X@XT.6.6 $ @ @ $ * @ @ % $ * @ * % % e ",
"i @ . @ $ X = 6 @XqX*X3X*X%X$X:X0.q * X $ @ X @ @ @ @ X % % % e ",
"i $ @ % $ % - P [.%XE.&X(.@XP.`.W.P., $ O X $ $ $ * $ * @ X % e ",
"i @ O $ $ = w T.R._.<XP.<X(.[.0. .).M $ @ @ @ $ $ $ $ X X @ = i ",
"p X $ $ $ * K 9X*X9X(.P.L.|.w.m m } M X   @ @ $ O @ $ $ @ @ $ p ",
"p + % * $ = `.w.E.w.9.T.'.6X:XL./.m N   X $   O   X O X   $ @ u ",
"p X * @ @ $ 8.%XP.[ *.6XyX{.-X#X/.} 8   X @ X @ @ @ $ $ @ % * u ",
"u @ $ $ $ @ L w.{ 0.}.=X'.9.6./.| g q   @ . $ X $ $ $ X @   = y ",
"a @ $ X $ % % | n | {.6X X| ~.6Xn b $       $ @   O   @ o @ @ y ",
"a @ $ * $ @ $ b ] 0.[.$X-X=X~.5XR.$ $ $ X X OX$ @ @ $ @ - @ = y ",
"a @ O @ $ $ @ $ n q.#X}.}.[.P.{.0.$ $ X @ O A.a % $ A.@ J.= $ a ",
"a @ @ $ $   @ - 6.m P.=X_.-X#X5.m , % - X   p.N.,.B.p.X F.XX< a ",
"u $ X * $ - - w.9.9.( /.}.7.q.g m 8 9 +X- X p.M.:.N.p.% F.oX9 a ",
"u $ & 7 L I ,X`.P.{.[ 0._.8X*X0.p -.C.p.5 $ 2 m.M.N., % H.2.2Xa ",
"u 2 N 9X5X,X:X4X5X:XP.q.P._.-.P.j ;.X., * % ' R - :.Y 7 7 2.! u ",
"u 6 wXqXwXtXtX8X0X4X$X} =.6.] m m Q.Q.E r ) W R W Y U 2.C @.<.u ",
"u >X0XyXqXrX,X0XqX5X1X_.{ q.g ] ;.;.!...V.:.E Y :.E T <.9 f 2.u ",
"u iXrXqXtX'.,X;X;X9X6X$Xq.m =.| ;.q.~.;.0 0 0 f 4 c v l A O.A u ",
"a .X+XuXyXqX;.].4X7X6X;X#X/./.!.!.1.^.Q.1 0 x ` S @._ l A o.o.u ",
"a oX.XrXtX|.K.&.K.7.K.I.g.&.O.$.$.%.#.$.k l l C +.+.C o.k o.D u ",
"a oX.XeXoX&.g.$.&.G Z %.%.%.@.@.@.+.$.+._ _ l l S S l l G Z Z u ",
"p D.D.XXXXs z c.@.4 k o.A @.%.G G @.D J B Z V S C C V C V Z B y ",
"p D.D.oXXXc h 4 v j.S g._ g.g.j.F #.H S D Z F S V Z #.#.S S D i ",
"p Z.S.>.4.F.F.c j.h.x.x.v.Y.x.v.Y.x.U.l.t.u.a.a.a.t.a.s.d.r.a.i ",
"i G.D.4.>.F.H.s c z D x.x.v.x.h.d.k.k.t.d.l.l.i.z.l.d.r.l.h.z.i ",
"i H %.Q ^ Q Q ~ / 4 v l.b.U.v.v.k.u.d.h.d.u.l.y.s.a.e.s.d.g.d.p ",
"a 9 3 ~ Q ^ ~ / / z z x c.b.k.l.h.v.x.t.s.u.x.d.d.u.e.x.k.v.h.u ",
"u : : i i i i i i u u u u a a a a a u u u u u u i i p p t t a a "
};
