/* XPM */
static char *changing_png[] = {
/* columns rows colors chars-per-pixel */
"64 32 253 2 ",
"   c #020202",
".  c #090A01",
"X  c #080807",
"o  c #120C04",
"O  c #1B1609",
"+  c #0D0F12",
"@  c #060C12",
"#  c #0D1116",
"$  c #0E1319",
"%  c #121416",
"&  c #13161A",
"*  c #15191D",
"=  c #1A1B1E",
"-  c #1C1A15",
";  c #100E15",
":  c #2A1E0B",
">  c #251A0A",
",  c #2E1B08",
"<  c #1C2400",
"1  c #2B2709",
"2  c #32250C",
"3  c #372B0D",
"4  c #383408",
"5  c #2D2513",
"6  c #262417",
"7  c #362B13",
"8  c #3A3417",
"9  c #1A1D22",
"0  c #161A21",
"q  c #1E2126",
"w  c #1E2229",
"e  c #1F282F",
"r  c #1F2330",
"t  c #212125",
"y  c #23252B",
"u  c #26282E",
"i  c #292A2E",
"p  c #282A2A",
"a  c #393925",
"s  c #252932",
"d  c #2B2D33",
"f  c #292E39",
"g  c #242732",
"h  c #2E3135",
"j  c #2E323A",
"k  c #323336",
"l  c #32353C",
"z  c #37383A",
"x  c #2F3030",
"c  c #201F25",
"v  c #48370A",
"b  c #5D2C11",
"n  c #463916",
"m  c #523E14",
"M  c #422E0C",
"N  c #602E13",
"B  c #623415",
"V  c #693316",
"C  c #6B3C15",
"Z  c #6A3518",
"A  c #6B3A1A",
"S  c #653916",
"D  c #642C23",
"F  c #3D4301",
"G  c #3B4238",
"H  c #484A03",
"J  c #58470A",
"K  c #4C5200",
"L  c #4F5A00",
"P  c #535501",
"I  c #545B01",
"U  c #5B5D01",
"Y  c #58590A",
"T  c #4B4419",
"R  c #54471A",
"E  c #5C571B",
"W  c #6B4216",
"Q  c #6A4519",
"!  c #6A4B19",
"~  c #674617",
"^  c #665B13",
"/  c #5C6200",
"(  c #576000",
")  c #626501",
"_  c #666A01",
"`  c #6B6C00",
"'  c #696601",
"]  c #736C06",
"[  c #747401",
"{  c #747900",
"}  c #7B7A00",
"|  c #74681C",
" . c #4D472B",
".. c #554A35",
"X. c #5C5234",
"o. c #5B5537",
"O. c #594F29",
"+. c #685B24",
"@. c #645B35",
"#. c #685A37",
"$. c #725A30",
"%. c #6A6428",
"&. c #786C2A",
"*. c #7D7128",
"=. c #6C6236",
"-. c #746638",
";. c #77733A",
":. c #353942",
">. c #3A3D45",
",. c #363B46",
"<. c #2F3643",
"1. c #423F42",
"2. c #3E424B",
"3. c #3D4448",
"4. c #3F4552",
"5. c #43464C",
"6. c #464A53",
"7. c #4A4E5A",
"8. c #464A54",
"9. c #4D525C",
"0. c #4F5155",
"q. c #53565E",
"w. c #555645",
"e. c #576253",
"r. c #6E6D4D",
"t. c #565A64",
"y. c #4F5463",
"u. c #5E6474",
"i. c #5C646B",
"p. c #717B62",
"a. c #666A75",
"s. c #6C7273",
"d. c #6D5D40",
"f. c #BD2F2A",
"g. c #E21705",
"h. c #847B15",
"j. c #836F04",
"k. c #857537",
"l. c #82702F",
"z. c #B5550E",
"x. c #CA4310",
"c. c #E64C01",
"v. c #F55400",
"b. c #F07A08",
"n. c #F46C37",
"m. c #877A44",
"M. c #8C744D",
"N. c #987A64",
"B. c #BE665C",
"V. c #F85B43",
"C. c #7F804E",
"Z. c #79826B",
"A. c #968D04",
"S. c #9D9B00",
"D. c #999302",
"F. c #88801C",
"G. c #A59D02",
"H. c #A89A03",
"J. c #B09D12",
"K. c #ACA401",
"L. c #A8A601",
"P. c #B3AB02",
"I. c #B6A806",
"U. c #BCB404",
"Y. c #BAB507",
"T. c #B5AD18",
"R. c #97872A",
"E. c #948935",
"W. c #AB8E31",
"Q. c #BDB723",
"!. c #FA8701",
"~. c #F99B00",
"^. c #F0940A",
"/. c #C3B701",
"(. c #CFB412",
"). c #F5BA00",
"_. c #F0A70D",
"`. c #C7BC31",
"'. c #DBA319",
"]. c #BDC01F",
"[. c #DDD302",
"{. c #D0CC0E",
"}. c #E6C902",
"|. c #F7CA02",
" X c #E4D401",
".X c #EBD401",
"XX c #EAD904",
"oX c #F7D602",
"OX c #E6C916",
"+X c #EAD31D",
"@X c #F2CF19",
"#X c #EBE106",
"$X c #D1CA36",
"%X c #F3CB2A",
"&X c #878449",
"*X c #998846",
"=X c #988956",
"-X c #928F55",
";X c #A38C59",
":X c #A69857",
">X c #AA9948",
",X c #AAA457",
"<X c #B8B056",
"1X c #8D8D6C",
"2X c #AC9E65",
"3X c #AB8F67",
"4X c #B4A776",
"5X c #B2A76B",
"6X c #C1B956",
"7X c #F5B448",
"8X c #CAAE76",
"9X c #D29E5B",
"0X c #D6C745",
"qX c #D1CA54",
"wX c #ECD249",
"eX c #CCC668",
"rX c #D4CC67",
"tX c #D5D072",
"yX c #E7E571",
"uX c #EBE264",
"iX c #E6C368",
"pX c #737A86",
"aX c #7E8593",
"sX c #7F8899",
"dX c #7888B4",
"fX c #848C98",
"gX c #8B8C8D",
"hX c #A39C90",
"jX c #BBB39E",
"kX c #B6AD87",
"lX c #8B94A4",
"zX c #979EAC",
"xX c #8690AA",
"cX c #9CA2AE",
"vX c #BBB5AB",
"bX c #A6A9AE",
"nX c #C4BA99",
"mX c #CEB38E",
"MX c #C4BAAD",
"NX c #CDC497",
"BX c #D6D398",
"VX c #CFC9B6",
"CX c #D1CBAF",
"ZX c #E1DBBA",
"AX c #EDE3B9",
"SX c #B9BFC0",
"DX c #B8C1CC",
"FX c #CBC8C6",
"GX c #D4CCC5",
"HX c #DED4C4",
"JX c gainsboro",
"KX c #EAE3C4",
"LX c #E4DEC3",
/* pixels */
"S S Z V C W W W Q W C C C W W W Q S ! ! C Q A C A A A Z b V W W W ! V V C W W W Q W C C W W C W ! ~ ~ ! C Q A C A A C Z b V Q Q ",
"b 9.y.9.9.t.t.t.7.7.8.t.t.7.7.8.9.a.aXaXfXsXfXlXzXcXlXfXfXzXcXcXbXfXs.s.a.u.u.ZXKXLXNX8X:Xk.=.@.m.NXkXkXkXkXCX8X<X5X<XW.E.>XnXC ",
"b 9.9.9.7.8.>.:.l j >.5.5.>.:.:.:.8.9.5.8.a.aXaXaXaXlXlXfXzXzXfXs.5.5.3.z l :.ZXKXZX5Xk.#.@...X.;.2X&X=.X.=.,X:Xk.%.=.#.k.m.*XA ",
"A 9.7.9.2.d d l >.j :.8.7.8.:.l >.:.l l 5.2.8.>.8.9.i.s.pXaXpXs.t.z z k z z h ZXAX;X#.#.......X... .X.@.X.o.*X>X;.@.@.@.-.;.-.B ",
"V 5.l >.>.:.>.h j j l d s j l l j 2.>.l 2.2.l :.l 7.7.t.t.t.t.q.t.k k z k k h CXKX5X-.X...X.X.@.@.X.=.m.r.m.*Xm.m.-.@.@.#.o.M.B ",
"V 8.>.>.2.l l h 2.>.d s y d 5.7.2.9.u.:.j l j 2.>.>.:.h 5.8.9.3.l h h k k h d vXGXCX4X-.X. . .#.4XkX4XkX:Xr.@.=.@.=.=.@.@.#.d.Z ",
"Z :.>.l d d :.7.9.>.d d d s 2.7.7.t.y.8.j 4.t.u.t.5.s s d h l l l i d d i y q vXHXCX*X=.@.-.m.k.M.nXjXkX:X*Xm.@.@.=X=Xk.$.m.;XV ",
"C 7.t.5.d d l 2.j s d j f d s d f s f :.:.y.y.j d y u u j :.:.:.2.d i u u q 9 vXVXVXCXNXmXnX4X2X=X3XVXnX4X5X5X:X2X2X:X*X*XM.:XC ",
"Z l d :.d d i i i d d d d d s y f s s y y q y y y y l 5.9.9.7.:.:.s s y y * & MXHXFXGXGXFXFXjXnXNX3XMXFXvXjXkX5X-X&X=X;X=XhX:XC ",
"C y y u y y y d d i y t t y y y q y y s d y u y w t l 2.y 9 y y u q q q * * % dXdXxXxXxXxXxXxXfXgXp.pXlXfXgXfX1X1X1X1XM.r.=X-XC ",
"C u y d d k k l i y y i i * t t 9 9 9 9 9 9 y d j d y 9 9 & 0 9 * % % % & $ $ 3.t.i.s.1X1X1XZ.r.r.e.e.p.p.p.p.p.r.&.r.d.w.r.r.! ",
"C 9 y u i d k >.l y d y i 9 t t 9 * & * & & & * 9 y s s s y y y 9 * % & * 9 9 G w.e.C.:X:X-X&XC.&Xr.-.-X-X:X2X:X&X&X&X@.a a a ! ",
"C % & * 9 t t t y i x * * * * 9 9 9 0 & & & * 9 y y y y y y y y * $ & * & $ $ &.E.E.-X-X&X&X-X-X,X;.+.>X>X<X6X>X&.E.*.+. .8 a ! ",
"! u :.t % % % & * t y * * * 9 9 9 * & * * 9 y y y y w 9 9 & & & 9 $ % & % $ $ E %.%.;.;.;.C.E.E.E.%.T &.;.,X,X*XE.*.+.%.n 8 8 ! ",
"! l 5.z 0.X X X % % - * u y d l d y 9 9 q w w w 0 * & * * & 9 w u $ $ % % + $ H ^ E *.R.E.R.%.| E n 8 n T E.&.T +.+.O.+.7 6 5 C ",
"! - [.q.& yX,.X X X X + * + s & & % $ $ y & & $ $ 0 * & % w y q s + $ $ & + $ v ] R.R.*.T T +.+.T 8 5 8 3 T +.R T m %.O.- - 6 C ",
"Q o ~..X* {.1.9 ; & % s <.+ yXf @ @ @ s d y & & & 9 y y j s j >.4.0 @ 1.gXhXX 4 J h.W.n 1 1 8 +.8 5 > > 5 > 5 5 5 8 R T - - > C ",
"Q +X).%X.Xc.b.y e d & yX<.@ {. X:.w s $ uX,.f % 9 9 y d z l 8.7.0 X X N.MXGXvXi 3 8 k.T > 1 3 2 3 2 2 O > 2 > : 1 8 7 5 O O O B ",
"C '.n.c.`.+XwXs $ `.|.{.,.f @ XX+X& .X|.4.,.:.d t :.x 5.5.y.t.a.y X % ..N.N.kXHXvX1 8 E 1 3 2 : M 3 7 3 : m > 5 M M 8 7 : > O C ",
"C OXx.V tX{.!.+ %X^.@Xx.f.7X~.7X^.* ~.v.V.yXy 1.9 r s s :.8.u.pXl & 9 X X X d.;XHXw.3 O o O 1 : 3 2 2 M , m 2 7 8 8 m v > 2 : C ",
"C _.x.).}.7X X X^.c.(.B.iX_.z.b.'.o !.c.g._.p i 5 5 o y y >.y.u.a.X X O 1 4 3 3XGXmXJ v M v 2 2 v v 2 1 > J 2 : 1 v M M O O O C ",
"C OX(.'.}..X}.j.FXX X X X X 4.a J.@X_.+XOX.X0XoXOX_..X.X0X!.W.|.|.XXF.z.h.oXXXmXmXiX_.oX|.).|.!.|.%Xv 1 8 : m O.8 v 3 , > , 2 C ",
"A T.J OXOXh.}.X X X X X X X X SX.X!. XA..X}.. X rX.X X.XXXwXo }.}.[ h.h.h.oX9XO mX+XOX|.+XoXX !.|.}.: O > 8 m 3 J 5 3 J o O : B ",
"C O A.4 J.-X3 ..bXJXX X X sXX DX{.| X X H.(.X . X $X{.X X X }.X . X . j.. }.W.X 8X8 R.7 1 T.X |.. }.P P U Y Y Y Y Y Y Y Y F < C ",
"V P P K P U P U P P K P I P P I U ' ' / U U ' U / U ' ' ' ' ` ' ' ' ' K H *X9XW.9X_ _ ( / _ / / ' / / ' / / I L I I I I U U H W ",
"Z P U / / / ' K / ' U U ' U _ _ _ _ ` ` ' _ ' ' ` _ ` ` ' / U / U / / / / / U / U _ ' ' / I U / ' ' / / I / / {.!..X!. X X X[.W ",
"Z ` ' / I I ' [ ` ' ` [ ' [ [ [ ` ` ' [ } } [ ` } ` ` ` / / / / / _ / / / I / ' ' / / / I H K H K I K H K K P wX!.!. X.X XyX+XW ",
"A _ ` ` ' [ ` } } [ ` [ [ { { } [ } [ [ { [ [ { ` ` ` _ _ _ ' ` ' / / ' _ _ ' ' _ / / I ' _ U U H 4 1 1 1 1 < !. X~.X _..X[.[.b ",
"B {.{.$X0XqXqXrXrXBXBXtX$X/./.Q././.U.{.L.U.L.U.I.K.I.K.D.I.I.K.G.G.H.G.I.T.G.S.S.G.S.I.K.Y.K.K.L.A.G.P K 4 4 $X X XX @X[. X Xb ",
"B {.$X$X0XrX0XqXeX0XeXqXU.$XqXI./.U.U.<XqX6XQ.I.U.I.U.G.L.S.I.K.H.G.D.A.A.G.D.A.G.K.K.L.T.G.S.I.I.S.D.P H F F yX X, X _.[.[.X V ",
"! 0X$X0XqXtX(.eXNXeX`.qXqXeX/.(.U.U.].T.L.(.P.U.I.K.S.A.I.I.Y.I.I.K.H.G.{ S.K.A.D.D.S.L.L.D.G.G.D.A.K.K K H 4 XX X. o [.rX$XX W ",
"C C A Z V Z V C C C C W W W ! ! S ~ V C V W W Z A N N N B C A C C C A Z Z Z V C C C C W W C ! ~ ! ! C C C W W A Z N N N B C C C "
};
