/* XPM */
static char *cotan_png[] = {
/* columns rows colors chars-per-pixel */
"48 48 231 2 ",
"   c #040303",
".  c #090603",
"X  c #0D0A05",
"o  c #0E0C0A",
"O  c #060608",
"+  c #140501",
"@  c #130D06",
"#  c #1D0C02",
"$  c #120E09",
"%  c #190601",
"&  c #141007",
"*  c #15120A",
"=  c #1A140B",
"-  c #1D190C",
";  c #1C1607",
":  c #141312",
">  c #1E1811",
",  c #1A1611",
"<  c #0B0A12",
"1  c #2C0402",
"2  c #270B03",
"3  c #360902",
"4  c #22160C",
"5  c #231B0D",
"6  c #2B1E0E",
"7  c #291702",
"8  c #331B02",
"9  c #35180F",
"0  c #3B1E0F",
"q  c #3E1702",
"w  c #241D14",
"e  c #281C12",
"r  c #361B10",
"t  c #3B1D12",
"y  c #2B210F",
"u  c #27210F",
"i  c #352103",
"p  c #3C210F",
"a  c #3A2904",
"s  c #3B370B",
"d  c #262016",
"f  c #2A2216",
"g  c #2E2914",
"h  c #262118",
"j  c #2A2319",
"k  c #2F281D",
"l  c #332413",
"z  c #3B2311",
"x  c #332A13",
"c  c #3B2A14",
"v  c #312619",
"b  c #342819",
"n  c #3B2C1C",
"m  c #3D3116",
"M  c #352D23",
"N  c #3B332C",
"B  c #3D3430",
"V  c #4D0B00",
"C  c #430B01",
"Z  c #540C01",
"A  c #580303",
"S  c #5A1303",
"D  c #760503",
"F  c #780603",
"G  c #492B0F",
"H  c #492A06",
"J  c #482C11",
"K  c #432715",
"L  c #453A1A",
"P  c #463718",
"I  c #503516",
"U  c #5F3B03",
"Y  c #643905",
"T  c #693B06",
"R  c #6F2304",
"E  c #443A2D",
"W  c #453828",
"Q  c #4A3E32",
"!  c #443D39",
"~  c #503F2D",
"^  c #4A4419",
"/  c #53451D",
"(  c #5A4B19",
")  c #7A4905",
"_  c #784607",
"`  c #654A11",
"'  c #564625",
"]  c #5D5227",
"[  c #4B4338",
"{  c #524233",
"}  c #53463A",
"|  c #5B4B3B",
" . c #584836",
".. c #4F4324",
"X. c #685826",
"o. c #614C38",
"O. c #6C543B",
"+. c #71583B",
"@. c #796936",
"#. c #756A34",
"$. c #4C4543",
"%. c #4C4840",
"&. c #544B45",
"*. c #594D43",
"=. c #554D4A",
"-. c #584E4A",
";. c #5D5145",
":. c #5C524C",
">. c #57504B",
",. c #5D5552",
"<. c #635343",
"1. c #6A5642",
"2. c #6E5A45",
"3. c #62564B",
"4. c #65594E",
"5. c #6C5C4B",
"6. c #735D49",
"7. c #715D43",
"8. c #615751",
"9. c #645A53",
"0. c #6A5E54",
"q. c #645C5A",
"w. c #685E5A",
"e. c #75624C",
"r. c #7A654D",
"t. c #7E684E",
"y. c #6D6157",
"u. c #6B615B",
"i. c #67605E",
"p. c #746454",
"a. c #7A6751",
"s. c #7E6A54",
"d. c #72665D",
"f. c #7A6A5B",
"g. c #76695F",
"h. c #6D6563",
"j. c #746A64",
"k. c #796D63",
"l. c #756C69",
"z. c #736A67",
"x. c #7D7167",
"c. c #7D726C",
"v. c #797271",
"b. c #860B08",
"n. c #890C08",
"m. c #921603",
"M. c #8F1603",
"N. c #923A05",
"B. c #903322",
"V. c #9C4205",
"C. c #955B07",
"Z. c #865510",
"A. c #A65B04",
"S. c #9F6413",
"D. c #B47706",
"F. c #AB700B",
"G. c #8B5923",
"H. c #8E7035",
"J. c #A97635",
"K. c #9E5954",
"L. c #A25C58",
"P. c #837942",
"I. c #816B53",
"U. c #836E5B",
"Y. c #85725D",
"T. c #846A4E",
"R. c #837464",
"E. c #897664",
"W. c #82756B",
"Q. c #85786E",
"!. c #897A6C",
"~. c #8B7963",
"^. c #917C64",
"/. c #867A72",
"(. c #8A7D73",
"). c #877E7B",
"_. c #9F6560",
"`. c #A47370",
"'. c #B87773",
"]. c #B48105",
"[. c #BA8505",
"{. c #B48E01",
"}. c #BC8809",
"|. c #BE950F",
" X c #BFA61E",
".X c #BFBD30",
"XX c #C29E17",
"oX c #C3A41B",
"OX c #C4A922",
"+X c #C0A720",
"@X c #C3B829",
"#X c #C1BF31",
"$X c #C4C333",
"%X c #91874A",
"&X c #AA874A",
"*X c #958168",
"=X c #8D8176",
"-X c #8D827B",
";X c #92847B",
":X c #96887A",
">X c #A48F78",
",X c #A18E76",
"<X c #C7C561",
"1X c #8E8581",
"2X c #948A83",
"3X c #9A8D84",
"4X c #978D89",
"5X c #948A87",
"6X c #9C928C",
"7X c #9F9085",
"8X c #9F9691",
"9X c #BB8D8A",
"0X c #A2968E",
"qX c #A99A88",
"wX c #BD988E",
"eX c #A59B94",
"rX c #A99E95",
"tX c #A69D98",
"yX c #A99F98",
"uX c #A19790",
"iX c #ACA39C",
"pX c #ADA094",
"aX c #B1A69D",
"sX c #B2A89F",
"dX c #AFA5A0",
"fX c #B1A7A1",
"gX c #B3AAA3",
"hX c #BFADAA",
"jX c #BEBABB",
"kX c #CCCAA6",
"lX c #D0CFC1",
/* pixels */
"K J t t t z z K z z z z z z z 0 t t t t 0 0 z p p G z z z z z z z z G 0 z 0 0 z z t t t K t z I ",
"t aXyX7XyXj j j w w h * . . . . . . . . . . . . . . . . . X X . $ $ * $ $ k.d.W././.2.d.:.9.;.z ",
"t iXk.yX3Xj j j w h h > . . . . . . . . . . . . . . . $ . . X . $ $ . . . d.c.c.f./.!.d.M &.3.z ",
"t gX9.iX3Xe j j j j d w . . . . . . . . . . . . . . . . . . X . $ X $ $ * z.W./.f.Q.E.z.:.9.:.z ",
"t )./.eX6Xf j j w h d w . . . . . . . . . . . . . . . $ . . X X $ . $ $ $ z.c.W.W.Q.~.d.9.9.9.t ",
"t gX2X/.yXf f f w j d w . . . . . . . . . . . . . . . $ . $ $ $ * $ $ $ $ g.x.W.Q.!.E.d.3.9.9.t ",
"z aX0XgXyXj j f j j w w . . @ . . . . . . . . . . . . 4 . * = $ = = = $ = k.x.W././.U.z.5.<.9.t ",
"t gXpXiX3Xj f j h j w w . . . . . . . . . . . . . . . = . 4 4 = = = = = $ x.x.W./././.z.8.;.5.t ",
"K gXaXqXiXv j j j f w w . . . 1 C . . . . . . . . . . v . = 4 5 4 6 6 5 * k.k.E.Q./.-Xv.q.9.9.9 ",
"z pXyX3XeXv j j j j d w . . N.R 2 . . . . . . . . . . y . 5 6 4 y 6 v 6 = k.W.W.W.Q.=Xc.E b | z ",
"z iXsX0XiXv j j f f f w . . Z 3 . . . . . @ . . . . . c @ P v 5 4 5 4 6 * k.c.W././.:Xc.Q 9.=.9 ",
"0 gXsXuXiXv f f j f f + 2 S 3 C Z V . . @ @ . . . . . v @ 6 @ v 6 c 4 4 e f.W.Q././.=Xc.u.:.*.r ",
"G gXiXgXiXb f j j + 8 W b q N.F.oXD.V V & . . . . . . f . @ @ v v 6 4 6 4 x.E.t././././.9.>.:.t ",
"z gXgXaXiXb f j % 8 s ^ [ lXlXkX<X@X].V V @ * . @ . @ m & = P P P v c v v k.W.U./././.-X9.9.:.t ",
"z gXgXiXiXb f f % 8 s s s $X$X$X@X+X#X].V * * * * = = = = = = = L m x f f k.W.s./././.3X0.3.3.t ",
"z gXaXeXqXb v f + 8 a s s $X@XOXOX X.XOX1 * = = - - = * * * & * & = n P c k.r.U./././.!.0.3.9.J ",
"z iXgXqX-Xf v j . 7 i a s }.[.|.oX]..XOX1 @ . * = @ . $ * = = = 5 5 = ..P c.r.r./.=X/.k.9.9.8.p ",
"z gXaXeX=Xb v j . 7 i i 8 [.oX|.].].$X[.1 . . @ . = & @ * @ * = = = 5 L ~ 6.E.t./.=X/.u.8.9.9.z ",
"c 6XiX3X,Xv f j j . 7 i a }.[.[.}.oX}.1 . @ . * * * * * @ * * - 5 5 5 / L f.W./././.=Xu.u.3.9.t ",
"z gX,X~.^.b f j j . # 8 i [.oXOXXXD.N.1 . @ @ @ @ $ * @ * * * = = 5 5 L P W./.s./.a./.u.0.9.:.p ",
"z dXyXeX*Xv f f j w . % 7 V.V.A.D.N.1 . . * @ * $ @ $ * $ * * * = 5 - P I W.Q././.=X/.u.&.9.9.z ",
"z gXgXgXyXv f j j f f . . Z Z C 1 1 . @ @ . $ $ . . * $ . * * = = 5 L L ] 1.y.s./.=X/.u.0.:.3.t ",
"J gXiXdXiXv j f f w f w . . @ @ @ = @ * * * . * = * - * = * = w 5 5 L L / x.1.!./.Q.-Xu.9.:.3.G ",
"z gXgXpXqXj j j j j f w . . . . . . @ & - = = - = - - - * - d u u ' / / / e.E././.=X2Xu.8.9.9.K ",
"z iXgXiXeXv j j j j j w . . . . . . . @ * * = - - d 5 5 = - - x X.] X.' ' e././.!.Q.=Xu.8.:.9.z ",
"p gXgXfXiXj j j f j 5 w . . . . . . . . = 5 5 5 d - - %XP.@.#.#.#.X.X.( X.W.) Y /.* 2Xw.9.9.9.t ",
"t fXiXiXeXj j j w f w w . . . . . . . . . 5 u - g u x H.%XP.@.#./ ( ] ( / n.`.C.Y @ /.;.Q ! :.z ",
"0 gX6XW.=.j j j w h h w . . . . . . . $ & 5 * & ; y x @.L ^ @.X.g g x m b.m.n.9X) T a.9.&.,.9.t ",
"0 gXiXeXyXj j j 5 w w w . . . . . . . . . . . O X X < j h w w g w w w b.F {.V.hXC.T /.w.9.8.-.z ",
"0 yXiXyXyXh j j = w w w . . . . . . . . . . . . . O O : : : : $ X X b.n.b.D D hX}.T :Xw.8.9.:.c ",
"z yX0XyXeXj j j f w w > . . . . . . . . . O . . . . . $ * * X . @ n.b.m.jXV.D 9XC.T :Xw.,.:.9.z ",
"0 eXiXeXiXj j j w w w = . . . . . . . . . . . . . . . X $ X * # n.F D b.V.b.b.`.) T :X9.9.:.9.z ",
"t fXeXyXyXj j j j h w > . . . . . . . . . . . . . . . $ $ X 1 n.F n.{.M.D D B.`.) 7 :Xu.9.9.:.z ",
"t iXeX3X6Xd j j d h w > . . . . . . . . . . . . . . . X $ A n.m.{.F m.b.D b.9XC.7 $ =Xw.&.8.9.z ",
"t tXeXtX4Xh j j h w w > $ X $ * $ . . * * * $ * = $ } &._ G.L.n.V.b.b.b.B.9XC.Y 7 $ /.w.:.9.$.z ",
"z tXtX4X:Xj j j d w > * * * * $ * * * * * = &.*.Q  .} 4.7 U S.'.wX9X'.K._.Z.T i @ * /.9.:.9.8.z ",
"z dX2X8X0Xj j h w > * = * * $ * * = ;.<.:.4.*.:.3. .} ;.Q I _ J.&X&XH.G.G.H H & $ w 2X9.=.8.:.p ",
"t iXiXeX2Xv 5 h , = = = . * y.0.9.4.:.5.3.9.4.0.| ~ W | 9.n 8 ) ) ) Y Y H @ @ M k -XE.w.9.-.8.z ",
"z eX8XeX1Xb 5 @ $ $ O.O.+.} d.0.z.;.9.u.} 3.4. .| { ;. .| ;.W @ # @ @ @ @ ' 7.r.e.@.T.9.:.:.:.z ",
"t tX0X6XeX5 7.7.7.2.1.O.u.0.0.u.y.9.0.&.9.u.f. .' Q  .W w.| 3.;.<.1.o. .<.6.6.f.e.p.+.=.=.! 9.K ",
"z eX:X0X8X6XW.2X2X/.6X6X).2X4Xc./.:XU.0.s.e.5.p.k.e.5.w.c.z.l.h.c.u.d.h.*.E N  .Q 9.8.,.9.,.=.z ",
"z 3X2X2X0X6XI.:XW.W.1X1X).2X1X-XW.s.2.t.3.e.*.5.3.E k.c.c.l.l.h.h.h.h.=. .} | ;.| 3.;.} !  .>.z ",
"z :XeX6X2X-X2X:X*X^.6X-Xe.f.1X!.r.p.a.r.<.5.5.| s.v.c.l.c.h.8.l.h.u.z.&.$.<.j %.M | Q =.,.$.&.J ",
"t :XqX2XW.4.U.=XU.f.~.:XY.I.E.e.T.^.5.2.I.p.<.5./.l.i.l.q.h.w.,.z.h.q.h.q.y.3.h } } N 9.,.,.=.t ",
"z :Xd.>X:X3X&.:X2X4XW.I.U.<.e.f.E.~.5.5.5.5.| 6.h.f.h.z.v.z.w.q.z.h.q.;.:.3.! N 4 ,.&.$.:.,.$.z ",
"t 6X>X-X-X2X3X6X1X4X:.a.2.s.W.0.W p.p.p.k.c.Q a.0.5.v.w.u.h.l.h.h.i.h.d.,.9., <.B ,.q.&.,.,.:.r ",
"z eX2X2X2X6X4X/.4X-X-X/.E.E.2Xp.,.~.5.c.0.).z.5.| v.c.h.c.q.z.h.h.u.h.5.9.q.3.q.=.,.! =.$.$.&.z ",
"I t t G t t t z z 0 0 t p p z z G z p z z z z z z z z G 0 G 0 G z t t z z z t t t t t 9 K 9 z K "
};
