/* XPM */
static char *donkey_kong_png[] = {
/* columns rows colors chars-per-pixel */
"64 48 251 2 ",
"   c #030303",
".  c #0A0503",
"X  c #050905",
"o  c #0B0A06",
"O  c #050509",
"+  c #090609",
"@  c #090909",
"#  c #010809",
"$  c #170506",
"%  c #0E130B",
"&  c #171714",
"*  c #110F12",
"=  c #220B09",
"-  c #2B180B",
";  c #282519",
":  c #342915",
">  c #151823",
",  c #292825",
"<  c #3A2B29",
"1  c #3B3733",
"2  c #36312F",
"3  c #27201D",
"4  c #48060E",
"5  c #5B1819",
"6  c #4F1216",
"7  c #4C2C1A",
"8  c #663113",
"9  c #511D26",
"0  c #67142A",
"q  c #6F0D2B",
"w  c #542829",
"e  c #493828",
"r  c #423736",
"t  c #583639",
"y  c #4B2D2D",
"u  c #693628",
"i  c #653438",
"p  c #76322D",
"a  c #63061B",
"s  c #744515",
"d  c #594637",
"f  c #494530",
"g  c #644932",
"h  c #744A34",
"j  c #6C5539",
"k  c #734D2D",
"l  c #7E653A",
"z  c #3D3446",
"x  c #583849",
"c  c #7A3045",
"v  c #384855",
"b  c #3E436B",
"n  c #56504C",
"m  c #664946",
"M  c #69564B",
"N  c #685858",
"B  c #745250",
"V  c #78615B",
"C  c #766551",
"Z  c #53586C",
"A  c #755D65",
"S  c #5D686F",
"D  c #6E6166",
"F  c #667279",
"G  c #736B72",
"H  c #991110",
"J  c #A21019",
"K  c #86281C",
"L  c #8D3D1D",
"P  c #95102E",
"I  c #B90D3A",
"U  c #A91736",
"Y  c #BA193A",
"T  c #AA122B",
"R  c #983D23",
"E  c #912E36",
"W  c #B72738",
"Q  c #AF2C32",
"!  c #C23034",
"~  c #C1163A",
"^  c #92441F",
"/  c #8F411E",
"(  c #A8571B",
")  c #A95D1E",
"_  c #A7581B",
"`  c #AA611F",
"'  c #974622",
"]  c #8D5430",
"[  c #A54B25",
"{  c #A74E29",
"}  c #A94B24",
"|  c #A9562C",
" . c #A85927",
".. c #AA5934",
"X. c #B25B27",
"o. c #9C6A35",
"O. c #A66426",
"+. c #AA6421",
"@. c #A96A25",
"#. c #A57426",
"$. c #A77A29",
"%. c #A87729",
"&. c #A76C36",
"*. c #BC1949",
"=. c #B31348",
"-. c #913943",
";. c #91354B",
":. c #AC2645",
">. c #BB244A",
",. c #A73846",
"<. c #B83848",
"1. c #A72C57",
"2. c #B92A54",
"3. c #A93859",
"4. c #BA3859",
"5. c #B43868",
"6. c #A81951",
"7. c #C51949",
"8. c #C61952",
"9. c #D41C58",
"0. c #C52447",
"q. c #C92657",
"w. c #C7365B",
"e. c #D93857",
"r. c #CF334F",
"t. c #D62966",
"y. c #C93968",
"u. c #D63666",
"i. c #CE316C",
"p. c #E23269",
"a. c #D41F6C",
"s. c #935648",
"d. c #934C4E",
"f. c #BB4A49",
"g. c #AB4453",
"h. c #B64756",
"j. c #BA555B",
"k. c #A95348",
"l. c #87684A",
"z. c #9B6649",
"x. c #896757",
"c. c #966754",
"v. c #997557",
"b. c #88734E",
"n. c #B76458",
"m. c #A77758",
"M. c #A76E4E",
"N. c #BA4A6A",
"B. c #B2526B",
"V. c #886968",
"C. c #887A68",
"Z. c #997865",
"A. c #8A787A",
"S. c #A67666",
"D. c #B57A6D",
"F. c #BA6675",
"G. c #AC756F",
"H. c #954967",
"J. c #CD4A51",
"K. c #CC7150",
"L. c #C84769",
"P. c #D34667",
"I. c #D55868",
"U. c #D84B76",
"Y. c #D9547A",
"T. c #C75372",
"R. c #E45778",
"E. c #E54570",
"W. c #D86A7B",
"Q. c #CF6D72",
"!. c #E76F74",
"~. c #AE8136",
"^. c #9C8C37",
"/. c #958656",
"(. c #AC8959",
"). c #B28B52",
"_. c #8F8975",
"`. c #A78467",
"'. c #B58466",
"]. c #AC9466",
"[. c #A58A74",
"{. c #B79875",
"}. c #AF9372",
"|. c #AFA465",
" X c #C18B5B",
".X c #D3A75E",
"XX c #C4896A",
"oX c #CB9B77",
"OX c #DCAE6A",
"+X c #CFAF79",
"@X c #E2B176",
"#X c #F0837C",
"$X c #E6C57B",
"%X c #6F7588",
"&X c #E23D89",
"*X c #D63480",
"=X c #A95985",
"-X c #857E8A",
";X c #A77A83",
":X c #B96C84",
">X c #E55883",
",X c #E7588E",
"<X c #CD718D",
"1X c #E5708C",
"2X c #E06F9E",
"3X c #7A8994",
"4X c #7581A1",
"5X c #918C90",
"6X c #A39687",
"7X c #BA9887",
"8X c #AF8C8A",
"9X c #B1A38F",
"0X c #9299A7",
"qX c #A6A8A8",
"wX c #B6A5A5",
"eX c #ADB2B2",
"rX c #A19EA7",
"tX c #D88A97",
"yX c #CF938D",
"uX c #E6918F",
"iX c #C8A986",
"pX c #CAB39A",
"aX c #CFB28F",
"sX c #E4BB84",
"dX c #E9AF9A",
"fX c #D798A9",
"gX c #D1B4AE",
"hX c #E5AAAD",
"jX c #EAA8B8",
"kX c #E790AD",
"lX c #B5C3B4",
"zX c #E7C38E",
"xX c #D0C4B6",
"cX c #F7D7B6",
"vX c #B4B7C8",
"bX c #D1BDC8",
"nX c #F3B6C8",
"mX c #B4C1D2",
"MX c #CAD4D4",
"NX c #D2D1CF",
"BX c #EFD5CE",
"VX c #FAE8D9",
"CX c #F2EBDA",
"ZX c #D2D3E2",
"AX c #EFC9E4",
"SX c #EBE7E8",
"DX c #F7ECE5",
"FX c #FEF5E8",
"GX c #FFFEFC",
"HX c #FAF9F5",
"JX c #D9E0E6",
/* pixels */
"#.#.+.+.X.| ' L L ' [ { [ [ _ ) ) ) ) ` @.#.#.#.#.#.#.@.) _ _ _ ) ) ) ( ( ( ( ( ( ( ( ( ( )  .O.@.#.#.#.$.O.L K K K R | @.#.+.) ",
"#.                                                              O       o   @     @ @ @ @   @ @ @ @ @ @     @     @   @        .",
"@.                                                            cX@X                    @ o @ @ @ @ @     @ @ X   @   @ @       | ",
"[                                                               :X X-                 @ @ @ o @ @ o @   @ @ @ X               X.",
"R                                                           .   2XuX                @ @ @ @ @ o @ @ @ @ @ @ @                 [ ",
"/                                                             ; ,X,Xp               @ @ @     @   o @ @ @                     / ",
"[                                                             2X,X1X6               @       @     @ @   @ @                   / ",
"|                                                           , 6   Z.7                   O O       @ @   @                     / ",
"|                                     yXhXtXVXB.yXtXhX<XVXQ.I DXFXGXGXt.GXY.GXr.VXy.DXT VX2.f.$ @   @ @ @                     / ",
"|                                     L.w.w.y.4.y.2.L.w.,XL.Y i.P.L.y.y.w.J.L.L.L.h.<.T.Y.Q.Y.$ O   @ o @   @                 / ",
"|                                             o 4             E T U J .   O       = *.X +       O     @                       ' ",
"|                                             . q           i j.VXVXW Q O         o q.O X   O     @   @                       X.",
" .                                            + a         =.8.VXyXuXVXk.2.        . t.                                    +   ..",
"O.                                              q         *.VXQ.DXDXuXGXJ           q.                                        O.",
"O.                          CXa                 5         . I uXVXBXDXI c.          t.        .                               +.",
" .                        uXuXq.$               4           e.!.kX2X<Xe.d.          8.                                        +.",
" .                      . $ <.= .               a           9.$     @ t.4         o *.                                         .",
"`                           3.0 O DXFX          4         $XOX{.    7 @XiXFX      $ 2.  O     SXCXj X                         } ",
"#.                        ! H H E sX@XW 1.8.J *.J.Q 0.N.<.Q.W.g.Q B.>.f.FX0.P.<.w.<XW tXDXhXn.sX@X-.W f.j.X                   { ",
"$.                        =.8.8.q..XsXF.u.q.7.p.t.t.9.0.I.L.p.E.Y E.E.U.u.Y.R.U.E.Y.>XU.Y.>X,XsXOXI.>XU.R.                    } ",
"%.                        S 3X            qXJX                % ; @         O .       0XeXO           %XqX                    { ",
"#.                        0XMX            qXHX                . |.-                   5XGX            %XHX                    %.",
"$.                        SXJX            0XGX                  y                     F GXX           Z GX                    $.",
"#.                        SXMX            NXGX                                        F FX            S wXX                   $.",
"`                         MXNX            qXHX                                        3XHXO           S wX                    $.",
")                         DXSX  O 7XgX    wXHX                                        qXFX    A 8X    _.BX                    $.",
"`                     t.w.q.q.1X7.zX@X,.5.~ <.q.w.W 1.q.n.i.BXt.fXq.g.y.fXq.BXq.g.U y.>.4.w.J.sXzXtXT.7.I.jX*XO               %.",
"`                     W.I.W.1X1XdXoXOX<Xu.E.R.W.>X!.1XuX!.uXR.uXe.e.e.e.q.J.I #X>XI.R.e.t.t.=..X$Xh.&Xi.&Xa.J.O               +.",
")                     v Z                         O           6XaXO                     O O       O +     Z Z O               ` ",
")                     lXmX                                    D V.                                      O Z MXO               +.",
")                     BXMXO                                   S F                                         v bX                +.",
")                     xXSXO                                   4X4X                              @ O *     Z rX                +.",
"`                     Z F +                                 O vXlX                          O     > =X=XO S 9X                +.",
"#.                % b cXNX      + m m * *     X     O O X X X xXFX@ > @ * + $ @ * F G   X @ @ z x 0 0.<.0 I.P.Y.tX            ` ",
"%.              O :.T.P ! H J :.2.OXOXk.J ,.T B.U :X*.F.r.B.:.Q.3.4.,.h.W yXk.J.r.F.Q ,.U h.Q ] @XAXjXP N.I.HXI.nXO           ` ",
"#.              O U T =.! U I ~ ! zXdXE I *.Y.*.8.Y 7.0.7.>.I q.I >.7.i.q.q.*.>.U.<X2XP W P U ] K.p q 6 = $ x DXgX            ` ",
"#.              O xXZX    .         O   O O O %XvX    O O                         qXSX.       O   @       X v xXV O           ` ",
"@.O   @ o @ @ @ @ 6X}.X . + O @ @ X   O     O _.gX  O         +       .   X O O O bXBXX   @ @ O O X   o     2 G %X    X   X   ( ",
"O., , , , , , ; ; rXNXC 7XpXl.r d 8 p 2 Z n xXA.gXB C n 1 N A D n N ] D C V `.m yX5XwXG.d.c.z.'. X&.8 w w w A.vX5XoX9 8X(.(.'.} ",
"O., ; , ; < < 1 l.-X5X: S.c.e C.).oXiXl.gX{.gXG wXg d e m v.m.iXiXZ.B ;Xm j ~.M s.ZX0Xp G. Xk 7 u oXXX`.e t A CX6XG.5 aXc.}.R { ",
"O.; , < ; : x n & 5XA.N e 1 M pXiX3 cXoXC.9XV %X5Xk % & 6Xn `.= C.-.c }.9 k t d [.ZXNXu c.`.M.v.- e }.`.'.Z.G BXA.9 wX`.] S.i { ",
" .2 ; 2 < f M % N NXMXg f @ N {.l 8Xx gXgX7 > -XNXo > A.v.v.M.z G H.f.D V N n 9Xn NXCXt B G.8X8Xw u i t u B.uXJ.,.H.XXv.G.7Xw { ",
"[ & @ & 3 & @ 1.U U ;XJ P Y P >.hXq.<Xu.<X3.2.5.5.kXN.:.g.q.F.y.:X2.fXy.tXU.Q.i.h.U <XT.Q.Y.<X<XfXhXAXJ.AXT.DXY BX1XM.S.c.s.i { ",
"[ & f N j m.V.<X<XB.F.F.j.N.j.h.3.<.N.L.h.h.<.f.<.T.4.,.3.3.3.,.B.B.1.1.5.3.;.-.c d.g.;.E E E E K -.E -.s.V.;Xs.G.n.c.`.k.x w  .",
"| r C V.e 6X].[.}.(.].K f f l.p ~.^.d M [.l.1 & - ; * 9X{.iXyX5X2 < V.c.Z.x.s B 7 v.n.k.XXk.S.s D.iX+XaXoX+XD.'.'.d.B 5 9 p i @.",
"$.N n n 1 b.].).{.'.).b.{.+XiXl m.o.] g h x.M v.< f V x.aXiX}.v.[.& m j r r m m y m w w S.] o.o.c.z...s.x.u z.D.m.c - B p 6 s.+.",
"$.* ; ; o./.k (.]./.+XaX+XiX] o.w 8 i ; l.7X{.iXe ; V iXpX7X{.aXaX8Xv.[.C d d m g e ] l.7XS.M.m.o.c.m.h h u p ] k u : h w i V.+.",
"+.O.^ L / ' [ [ [ [ [ [ [ | { { {  . .` ` ` ` ) ) +.#.$.$.$.$.$.$.$.$.%.+.) ` ` ` ` ` ` ` ` `  .{ { | X.......| ' L L ' %.~.@.+."
};
