/* XPM */
static char *finding_png[] = {
/* columns rows colors chars-per-pixel */
"64 32 248 2 ",
"   c #020100",
".  c #0A0504",
"X  c #0D0A05",
"o  c #0C0A0A",
"O  c #130B05",
"+  c #130D0B",
"@  c #170B06",
"#  c #14120D",
"$  c #1C130C",
"%  c #1C1A0F",
"&  c #151412",
"*  c #1B1513",
"=  c #1D1915",
"-  c #1C1B1B",
";  c #181819",
":  c #0D1417",
">  c #23150D",
",  c #2B1A0E",
"<  c #261708",
"1  c #391604",
"2  c #381A07",
"3  c #221512",
"4  c #241B14",
"5  c #2B1C14",
"6  c #231D1A",
"7  c #2A1E1A",
"8  c #2D1410",
"9  c #311E14",
"0  c #371612",
"q  c #39260C",
"w  c #2C2215",
"e  c #25221E",
"r  c #2C231C",
"t  c #292516",
"y  c #342215",
"u  c #3A2415",
"i  c #33231B",
"p  c #3A241B",
"a  c #352A1D",
"s  c #3C2A1D",
"d  c #3E2B15",
"f  c #1E1E20",
"g  c #242423",
"h  c #2B2522",
"j  c #2C2925",
"k  c #2C2A2A",
"l  c #332622",
"z  c #342A24",
"x  c #3B2C24",
"c  c #332C2A",
"v  c #3A2E2A",
"b  c #36312D",
"n  c #3C322B",
"m  c #3B3225",
"M  c #2D2E30",
"N  c #3B3534",
"B  c #3A3A3C",
"V  c #373734",
"C  c #23201E",
"Z  c #411C06",
"A  c #411D08",
"S  c #591911",
"D  c #412205",
"F  c #412A07",
"G  c #412409",
"H  c #412B08",
"J  c #422A15",
"K  c #422C1C",
"L  c #4B2D1D",
"P  c #452615",
"I  c #542B19",
"U  c #43301C",
"Y  c #4B331D",
"T  c #4B3618",
"R  c #53341E",
"E  c #5B351D",
"W  c #56381C",
"Q  c #52360A",
"!  c #683314",
"~  c #432D22",
"^  c #442B29",
"/  c #453222",
"(  c #4B3324",
")  c #43342B",
"_  c #4B362A",
"`  c #4C3A2B",
"'  c #4A3926",
"]  c #533623",
"[  c #5B3523",
"{  c #543A24",
"}  c #5B3A24",
"|  c #533B2B",
" . c #5B3D2A",
".. c #55352A",
"X. c #423B3A",
"o. c #493C35",
"O. c #553E33",
"+. c #593F35",
"@. c #633C24",
"#. c #653C27",
"$. c #783E26",
"%. c #3E4018",
"&. c #5A481A",
"*. c #6C4D16",
"=. c #5D432D",
"-. c #5B4426",
";. c #49423A",
":. c #554234",
">. c #594739",
",. c #584B2F",
"<. c #64432C",
"1. c #6B432C",
"2. c #6A4428",
"3. c #73422D",
"4. c #78492B",
"5. c #624433",
"6. c #6D4B34",
"7. c #634B3B",
"8. c #684836",
"9. c #754C33",
"0. c #784F34",
"q. c #6B523C",
"w. c #655139",
"e. c #76543A",
"r. c #74572D",
"t. c #7A6433",
"y. c #3C3D42",
"u. c #4C3E42",
"i. c #3D464A",
"p. c #494748",
"a. c #544B46",
"s. c #474D53",
"d. c #4E5256",
"f. c #585758",
"g. c #57524E",
"h. c #685647",
"j. c #755944",
"k. c #655B58",
"l. c #6A524C",
"z. c #776859",
"x. c #6F624F",
"c. c #635E62",
"v. c #556A73",
"b. c #686769",
"n. c #756A68",
"m. c #77736D",
"M. c #787B7B",
"N. c #697171",
"B. c #495E66",
"V. c #895328",
"C. c #854D33",
"Z. c #825A39",
"A. c #8E4E2C",
"S. c #87603F",
"D. c #A5663B",
"F. c #8D511D",
"G. c #835D49",
"H. c #86674B",
"J. c #836654",
"K. c #88735D",
"L. c #926C51",
"P. c #AF704A",
"I. c #88726B",
"U. c #877977",
"Y. c #947A76",
"T. c #8F746A",
"R. c #A97865",
"E. c #C56C54",
"W. c #DA7A64",
"Q. c #998A68",
"!. c #95857A",
"~. c #A68574",
"^. c #B7887B",
"/. c #AC9074",
"(. c #DA9E73",
"). c #CB916F",
"_. c #D9976E",
"`. c #54798B",
"'. c #6E7B81",
"]. c #927E80",
"[. c #7E8786",
"{. c #7B99A3",
"}. c #8A8787",
"|. c #968A88",
" X c #9D928C",
".X c #93928D",
"XX c #989897",
"oX c #889299",
"OX c #A78A87",
"+X c #B88D89",
"@X c #A9938B",
"#X c #B79688",
"$X c #A38F91",
"%X c #A79895",
"&X c #BA9C97",
"*X c #92A09D",
"=X c #B8A389",
"-X c #ACA49C",
";X c #ACA499",
":X c #B8A49A",
">X c #AEB194",
",X c #899CA5",
"<X c #959EA7",
"1X c #AD9EA3",
"2X c #96A2A6",
"3X c #92A7B2",
"4X c #ABABA6",
"5X c #A6AAA8",
"6X c #B8AAA6",
"7X c #B7B3AA",
"8X c #A7B6B7",
"9X c #BBB9B5",
"0X c #B7AEB1",
"qX c #C99788",
"wX c #C39C94",
"eX c #C69F96",
"rX c #D5998A",
"tX c #E79C85",
"yX c #C4A689",
"uX c #D3A78E",
"iX c #C7A898",
"pX c #D5A998",
"aX c #C9B398",
"sX c #D1B39C",
"dX c #E7B68E",
"fX c #EDAF93",
"gX c #C7AAA8",
"hX c #C2B5AC",
"jX c #C9B6A7",
"kX c #D6B7AA",
"lX c #C5BAB7",
"zX c #D4B3AC",
"xX c #E8BAA6",
"cX c #B6C6BC",
"vX c #CAC5B8",
"bX c #D7C8B7",
"nX c #DFD1BD",
"mX c #D4C4AD",
"MX c #EEC7B0",
"NX c #AEBDC0",
"BX c #CBBFC2",
"VX c #B6C6C6",
"CX c #D8CCC4",
"ZX c #C9D3CB",
"AX c #D0D3CD",
"SX c #E7DCD4",
"DX c #E6D3C8",
"FX c #F5E8DE",
/* pixels */
"< F Z Z D D D D D D D D D D D 2 F F < F D D D D A A A Z 1 Z D D D F Z Z D D D D D D D D D D D D F F F F D G D D 2 A D 2 1 2 G A ",
"1 v >.>.n n v ` ` O.5.K 5./ { _ ) <. .:.>.' :.s ~ h.v v | ) q.j.e.j.>.AXAXAXAXZXcXZX9XO.3.3.#.C.C.4.} 9.6.XX,X,X<X2X3X,X,X,X{.D ",
"1 >.) n o.>.h.z m ` :.{ =.' { 7.) q.:.7 ; 7 ) N 7 n i 7 _ ' ` q.K.| ;.AXAX>.0.4.A.3.3.$.3.3.! A.#.C.3.0.s 0.5X2X4X3X8X8X2XoX,XA ",
"A d.'.2XXX'.V j >.i +.h.=.=. . .i 5.) ,.n ; $ j z _ 7./ r 6 m  .9.5.' L L 9. . .2.3. .#. . .[ 2.#.] 5.1.#.#.j.5X-X8X8X0XvX5XXX2 ",
"2 ZXVXVXVXZX9X*XV ;.) / s K L U i l c & & ; o.v ) i v 7 c z z 5.Z.2.5 { Y { u u K R  ...]  .{ ' | _ / K | ' ' >XvXvXvX7X4XXX[.2 ",
"2 VXAXVX9XlX:X~.4Xb b j ` ~ u Y Y z ; + 6 r v r V r 6 e j v z  . .R ~ J R @.@.@.@.J #.L E @.@.[  .#.#.[ <.P w.AXCXvXhXhX X|..XZ ",
"2 NX9XAX6XsXCXvX*X8XB j ;.K ] l R Y ' j z 7 5 7 n y :.) r 7 s 6.@.6.)  .2.9.2.2. .I G W I #.0.2.@.9.9.2.2. .' CX7XvXhXhX$X}..XZ ",
"D M.-XiXiXOXmXDXbX2Xb.j j { { 6 O :.=.' 7 $ 7 ; ; ,.7.) w W 5 6.9.{ v  .{ } 6.2.@.6.6. .R E ] 0.e.@.' [  .p h.vXnXvXhX:X%X X}.D ",
"Z %XI.#XI.&XpXuX:X@XU.O.> j 6 6 $ ' ' U 6 ; j 6 ; | 5.o.7 r e <.e.R o.l  ._  .' @.] 9. .#.E _ K ' I 2.u ] ( 2.6XvXvXiXjX X|.U.D ",
"D I. Xu.&XeXkXsXhX#XB v 9 & :.>.7 U ~ r s l i v ; p ] l c.|.n.{  .{ ;.v l $ 3 | E { @.R 2.2. .E L R @. .[ ] E iXnX:XaXjX@X@X|.D ",
"D 6X:X#Xn.x.sXkXDXT.B c ; j $ r 7 _ ` j / v Y s X.v _ | 0XlX-X . .` v I.3 v ; 7 $ L s E E R [ 2.E R E [ 1.1.#.uXiXaX#X#X^.sXjXF ",
"D zXjX!.zXkXk.iXkXg.b.V j z a z.5 u s K Q.{ | y 4X~ 9 w aXvXmXj.K _ >.%XQ.3 + + ; j z e n X.n v w j v | ' [ 7.pXfXeXsXiXuXqXqXF ",
"D :XlX6X:X:X#XV XXV U.z g 7 r Q.r.z $ i / ! -.J kX:.~ c xXMXMX5.q.>.o.iXjX/.- j 6 ; ; r v r n ;.X.z j z K 5.7.gX#XzXzXsXgX~.iXF ",
"F zXuXfXdXmXxX).O.k b.V j ; y i Q.| ~ 6 y U ] p sX| a r uXkXuX| :.y s ^.iXiXV 3 # . & 6 e z v r ) n 9 K K K 5.@XOX6XgX$XY.Y.@XF ",
"< kXiXkXsXsXxXkXL.j k.V p ; i / 6.{ ' 7 ` '  .O.zX' ) 7 wXuX#X` ' i ) eXkXiXT.+ @ & & a ' a a # j j 5 u v L >.6X^.gX|.0XBXBXlXD ",
"F eXeXpXpX#XpXpXrXk l.l v - K s n.' y 7 s 5 ' , qX5.` a #X#XOX>.5.m o.#X#X$Xz.+ + $ r K '  .J R z r 5 p ~ ..#.:XlXOXgX0X1X1X6X1 ",
"G gXwX+XqXqX).qX).p.j 5 7 ; ) / f., U ) ` >.~ +.qX~ v v OX&X~.j.e.=.' &X@X$X].7 6 + @ R J Y s >.; ; u 5.~ P i  XI.6X&X@X&X%X%XD ",
"G $X&X).+X&XeX+X^.I.B 7 w V v 9 b y s 7 a ' i  .&X| p i Y.@XY.J.L.9._ OX~.OXOX) 5 . O ] ' y | ' ; ; > { ~ u ~ 8.&XOX}.n.b.n.U.D ",
"D &XtX@XfXeX+X@X%XY.k r O - ) w b y < # > s a 5 %XY { v  X%XU.P.P.e.) U.OXY.T.j 7 + + '  .2. .) & ; L ..' p v o.p.f.h ; 6 V z D ",
"Z $XK.@X^.OXOXOX|.Y.& r 3 ; s 7 w J J 6 5 5 i v k.@.*.' X.V 7.).).V.7.z i 7 7 l i ; + ] | u ~ l j c R.~ ..v ~ ^ v 6 ; 6 + ; j D ",
"2 p.X.a.p.p.b.v.`.`.+ i 5 + , 7 ` d J O w w > 7 v.V.V.Q r v 7._.(.D.h.7 3 @ 7 i FXSX6 L j.X.k z z i iX7.p _ l 7 @ i 7 ; . . $ Z ",
"D w.n >.B B p.b.N.'.. 5 ; + $ { K W T O w 5 w 5 B.F.D.2.i.s _ (._.P.6.v y i ~ 7 DXjXU.MXSX%Xk 6 V c L.| z i ; + X ; O ; ; + X Z ",
"D U i +.' B p.M.b.c.& 7 $ & @ q R Y K 7 5 , @ 5 f.P.D.V.d.d.H.dXdX(.6.p.p.j p.j rXA.FXMXW.SX|.a.V c Q.J ; > 3 . - ; $ 7 ; . X D ",
"D 7 ; $ & ; & p.U.I.- - 6 . < d U q u > > 3 7 O J V.P.Q / 7 L.(.(.D.r.7 X + / ~.yXjXMXfXtXE.CX}.i ; Z.i ; 6 - g # j , r w + + D ",
"2 j n & 7 & + ; M g + X + & ; +   + O + ; $ $   6.6.G.e.) & G.(.).A.Z.J././.yX;XT.xXfX_.P.xXbXXX_ q O.w w ; ; k # s , X % & 6 D ",
"A S S O 0 8 8 9 & # #   & # 6 g r 6 # c ; j ; ; & 6 7 6 v h.H.Q.yXyXaXuXyXJ.S.G.w.fXfXW.&XSXSX|.c.%.h.a % : r X & ;   U z t.# F ",
"A W > H.5 5 ` , g g 6 . e - g 6 6 M - B d.<.y.s.d.y.X.B k.=XsXaXsXiX#Xw.Z.U.z.>.h.R.fXP.jX=XSXhXn.x.| ; # &.H q.# - # T &.H t.D ",
"A 0.' 9 3 -.s y ;.X.g b N p.f.n.m.M.}.}.XXz.4XXX}.M.}.=XkXp.V @X-X!.h.O.` 5.j.' ; I _.I q.yXCX%Xb.V n & b j.q d ; n ;.,.*.&.Q 1 ",
"2 Z.9 y ! 2 l K X.g 5.d.f.N..X}.XX5X7XCXCXvX6.CXDXSXnX.XM.XX$Xb.s.d.V X.z $ d.b.-XSX:X[ 4Xz.w.m s.s n k v j K ;.w.h.K.$ t 7 7 1 ",
"2 9 < y ; > w ) c n N N B f.d.p.b.M.[.XX4XXX%X:X7X7XhX4X9XvXjXmXnXDXnXmXhX7X6X%X4X$X.Xz.z.$Xj.K.k.N.n.!.N.!.n.z.h.7 X @ 7 < + Z ",
"F a Y O U ` a V V $ < e . j - k V p.b.f.f.U.|.;X.X X|.}.XX.X X}.;X7X-X X|.!.XXm.b.m.k.n.d.g.g.k.f.a.;.a.a.n ;.; #   # b + + 7 F ",
"D D G Z Z Z Z D D D D D D D F F F F Z Z Z D D Z A 2 1 1 1 Z A D D D G Z Z Z Z 2 D D D D D D q F q F Z Z Z D D Z Z 1 1 1 2 Z D D "
};
