/* XPM */
static char *humble_png[] = {
/* columns rows colors chars-per-pixel */
"32 32 170 2 ",
"   c #22180C",
".  c #2B1E0F",
"X  c #3E190C",
"o  c #3A190D",
"O  c #2D1F13",
"+  c #3D291B",
"@  c #3A2A28",
"#  c #411D0D",
"$  c #43200E",
"%  c #4D260D",
"&  c #4D2B0E",
"*  c #4B2312",
"=  c #4C2B13",
"-  c #432E19",
";  c #402214",
":  c #4B3512",
">  c #45321C",
",  c #4B361A",
"<  c #4B3B22",
"1  c #41312F",
"2  c #4E3929",
"3  c #4C3425",
"4  c #583A23",
"5  c #573B2A",
"6  c #453534",
"7  c #4E3A35",
"8  c #4C3C3A",
"9  c #493530",
"0  c #563E38",
"q  c #533B31",
"w  c #154E3E",
"e  c #155E3E",
"r  c #5C432F",
"t  c #5C4A2A",
"y  c #544326",
"u  c #55413E",
"i  c #59433F",
"p  c #584037",
"a  c #65432B",
"s  c #6B4B3A",
"d  c #6C4A35",
"f  c #724D35",
"g  c #6D5C3E",
"h  c #725334",
"j  c #77583B",
"k  c #7E6B3E",
"l  c #79653D",
"z  c #4A4C4F",
"x  c #524241",
"c  c #5B4642",
"v  c #5F4B47",
"b  c #5C4D4B",
"n  c #585A5E",
"m  c #565657",
"M  c #604741",
"N  c #614A45",
"B  c #684F49",
"V  c #645A42",
"C  c #66514D",
"Z  c #6B5A49",
"A  c #7D5640",
"S  c #7A5A4A",
"D  c #745543",
"F  c #6E5752",
"G  c #715B55",
"H  c #7F5D59",
"J  c #765D58",
"K  c #6D6247",
"L  c #7C6E48",
"P  c #786746",
"I  c #7A615B",
"U  c #787050",
"Y  c #795869",
"T  c #7F5F70",
"R  c #6D6C6D",
"E  c #7E7D7E",
"W  c #82583D",
"Q  c #865D44",
"!  c #805F5C",
"~  c #8A6647",
"^  c #906347",
"/  c #936649",
"(  c #857347",
")  c #937D4C",
"_  c #80685E",
"`  c #8B7B51",
"'  c #877856",
"]  c #947F50",
"[  c #987650",
"{  c #A16F52",
"}  c #A77758",
"|  c #AD7E5F",
" . c #866B63",
".. c #87706B",
"X. c #89706A",
"o. c #8E6F78",
"O. c #907870",
"+. c #188239",
"@. c #1B9333",
"#. c #96814E",
"$. c #9E854E",
"%. c #998957",
"&. c #AA8D54",
"*. c #A4875B",
"=. c #AE935C",
"-. c #B09356",
";. c #B99959",
":. c #A4864A",
">. c #9A817B",
",. c #BB8E6D",
"<. c #B38567",
"1. c #AB9D60",
"2. c #A0877D",
"3. c #BF8C79",
"4. c #AD917C",
"5. c #BF9473",
"6. c #BB9C7C",
"7. c #A9A27F",
"8. c #B7A776",
"9. c #C79C7B",
"0. c #C39676",
"q. c #CAA578",
"w. c #D0AE7F",
"e. c #83978E",
"r. c #8D9F93",
"t. c gray57",
"y. c #A68C84",
"u. c #AC9388",
"i. c #AB9586",
"p. c #B59A85",
"a. c #97A799",
"s. c #98A294",
"d. c #BCA187",
"f. c #B3AF8A",
"g. c #BBB080",
"h. c #A1AF9F",
"j. c #B4A79F",
"k. c #B3B898",
"l. c #A9B6A3",
"z. c #B2BBA8",
"x. c #CD9F80",
"c. c #C99684",
"v. c #C2A585",
"b. c #C0A68B",
"n. c #C8AB8B",
"m. c #D0A484",
"M. c #D4AA8A",
"N. c #C7AE92",
"B. c #D7AF92",
"V. c #CDB494",
"C. c #CDB598",
"Z. c #D7B191",
"A. c #DAB395",
"S. c #DBB698",
"D. c #DDB99B",
"F. c #D3B283",
"G. c #E0B89D",
"H. c #C6BAA0",
"J. c #E3BEA1",
"K. c #BAC1A5",
"L. c #B3C3B0",
"P. c #BBCEBB",
"I. c #C1C59E",
"U. c #D0DCB4",
"Y. c #C9CFB8",
"T. c #ECC5AC",
"R. c #EDC8AE",
"E. c #E5C3A5",
"W. c #EFCCB0",
"Q. c #DFCFC5",
/* pixels */
": & = $ $ * * & & & : : : : % % % % % % % % & = : : : X X * : & ",
": r.r.r.r.e.e.e.e.e.e.e.e.e.e.e.e.e.e.r.r.r.r.r.r.r.r.e.e.e.e.* ",
"* a.a.h.h.h.l.=.;.;.-.-.$.$.] ] ] a.a.a.a.h.l.l.h.a.a.a.h.h.l.= ",
"X l.l.l.l.l.7.) ) ( ( l g V V V k 7.l.l.l.l.l.l.l.l.l.l.l.l.l.$ ",
"* P.P.L.L.=.;.;.-.-.:.%.$.] ` U U ( *.l.l.l.L.L.P.P.P.P.P.L.L.# ",
"* U.P.P.f.%.( ( ( K g g V V V V V j k l.L.P.P.P.P.P.P.P.P.P.L.# ",
"* U.U.&.$.-.;.1.1.-.&.) $.#.L ` ` *.M.T.R.W.E.A.M.m.N.H.P.P.P.o ",
"* U.g.) ( ( ' L K K P P g V V V j q.R.E.A.D.Z.M.m.m.m.9.P.P.Y.; ",
"= &.*.-.-.;.;.-.&.#.$.] L U ` ] ( G.A.Z.M.M.q.x.x.x.9.5.z.Y.U.= ",
"= k k k 6.Z.R.R.G.D.M.9.5.*.[ j P S.Z.q.m.x.x.0.,.,.,./ z.U.U.& ",
"= > > z B.W.J.A.Z.M.M.m.m.5.~ z z A.w.x.0.,.,.| { { Q D K.U.U.& ",
"& > < n J.A.Z.F.w.m.m.m.,.,.S z m M.M.B.T.T.A.c.,.| s s K.U.U.% ",
": > t t.S.A.M.M.q.9.5.5.,.| D n n M.^ j f a a a 4 > - s k.U.I.% ",
": < h R A.M.m.9.5.5.<.{ { { s R n ,.h 4 - + O         A k.U.f.% ",
": h < E M.m.B.T.T.A.x.,.| Q s R R ,.j.e w 5 3 O w e j.A k.I.1.: ",
": t y t.m.,.^ j a a 4 4 4 > O E R | Q.@.+.W d + @.+.Q.A k.f.` : ",
"& < t R <.,.h 4 - - - .       t.E { x.x.,.W W 3 { | { s k.8.;.: ",
"& y h E } | j.j.e w 5 3 + e j.R R { <.{ { d W - r ~ | q s.( k : ",
"& h y t.{ } Q.Y.@.+.f f - @.Q.y.v.S | 3.,.a f O D p q 7 x X.>.& ",
"& t < t.{ { | ,.x.| W W - s s v.V.x @ @ r - O   @ @ @ @ b >.J & ",
"& < < R { } ,.x.{ { W f   r { N.V.X.u @ p s s r r 2 @ @ X.u.x & ",
"& i.p.I S | 3.3.,.3.5 5   r { V.n.X.B u 6 7 { ~ B @ 6 6 >.u.x & ",
": C.b.B 0 0 Q / / Q -     2 b d.v.>.B I B 7 ~ j @ 7 i 6 u.u.x & ",
": C.p.B 6 @ r s s r r 2 @ @ b y.d.y.N o.I B 0 0 B I 6 6 u.2.x & ",
": N.p.I i 6 @ @ s r @ @ 6 9 X.y.u.y.N I o.o.B B I C 6 0 >.O.x & ",
"= b.O.I M I B 0 Q j 0 B I 0 I >.y.>.c B _  .G x 8 6 6 0 O.X.8 % ",
"= u.O.I M o.I B 0 0 B I T 6 ! >.>.I I N M 0 6 6 0 0 0 I H C 8 * ",
"= >.O.H B  .o.I B B I I C 6 G  .X.>.6.6.4.J 6 u I 2.2.2.O.b 8 * ",
"* O.X.H N G _ _ I G H C 6 6 C I >.p.p.y.>.X.I 0 T X.2.O.G x 8 * ",
"* I ! F B i 0 6 6 6 6 6 6 0 v G I X.X.X.I H C 6 c Y F c 8 8 1 = ",
": I ..4.4.>.X.I 6 N I ..I 0 8 8 u u v v v v u 6 @ @ 1 6 1 1 6 & ",
"& X X * * * * * * & & & & : : : : : & & & & & & * * = = $ $ : : "
};
