/* XPM */
static char *meditative_png[] = {
/* columns rows colors chars-per-pixel */
"16 16 99 2 ",
"   c #411D0D",
".  c #75020A",
"X  c #43200E",
"o  c #4E230E",
"O  c #4E240F",
"+  c #4C2B0E",
"@  c #4D2C0E",
"#  c #4D2D0E",
"$  c #4E2F0F",
"%  c #4A2212",
"&  c #4B2212",
"*  c #4B2312",
"=  c #4B2412",
"-  c #4C2714",
";  c #4C2F13",
":  c #4D2915",
">  c #4E3010",
",  c #4B3712",
"<  c #4C3713",
"1  c #106300",
"2  c #5B4536",
"3  c #724A3F",
"4  c #7D5142",
"5  c #8E020A",
"6  c #AC0611",
"7  c #B50611",
"8  c #BE0710",
"9  c #CA0810",
"0  c #C90914",
"q  c #D70915",
"w  c #EE0A17",
"e  c #F22E3A",
"r  c #865744",
"t  c #8E5C46",
"y  c #9B664B",
"u  c #B97B54",
"i  c #F4414C",
"p  c #F6555F",
"a  c #168700",
"s  c #DAB16A",
"d  c #F0D579",
"f  c #F6DF7C",
"g  c #F7E07D",
"h  c #295681",
"j  c #2A5784",
"k  c #2A5A88",
"l  c #2A5C8A",
"z  c #2E5F8E",
"x  c #2B608F",
"c  c #2D6294",
"v  c #2B679A",
"b  c #316394",
"n  c #2B6BA1",
"m  c #2B72AA",
"M  c #3076AC",
"N  c #3477AF",
"B  c #2974B0",
"V  c #3078B0",
"C  c #337DB4",
"Z  c #3A7FB3",
"A  c #3D7EB4",
"S  c #317DB8",
"D  c #64719F",
"F  c #737EA7",
"G  c #9A7F9F",
"H  c #AE6984",
"J  c #3E83B4",
"K  c #3E83B7",
"L  c #3983BB",
"P  c #4986B3",
"I  c #4686B8",
"U  c #4986B9",
"Y  c #4389BB",
"T  c #518BBE",
"R  c #629CBE",
"E  c #448CC2",
"W  c #5292C1",
"Q  c #5693C3",
"!  c #5194C0",
"~  c #5D93C4",
"^  c #6B9DCB",
"/  c #6D9ECB",
"(  c #7AA4CA",
")  c #7BA4CA",
"_  c #7CA4CA",
"`  c #88A4B0",
"'  c #92ADB7",
"]  c #9AB0B6",
"[  c #9BB4BC",
"{  c #A1B7BD",
"}  c #D8C780",
"|  c #E3D786",
" . c #E9E38A",
".. c #FFEE82",
"X. c #D0D5AD",
"o. c #D3D5BF",
"O. c #E2DEAA",
"+. c #90ADC3",
"@. c #CBD1CA",
/* pixels */
"> & & & + + > > > + + + & ; X > ",
"X j j j j j j j j j j j j j j X ",
"  k k k k k c v n n n v v x x   ",
"& b I ~ ^ U ~ ^ U m m m n n v ; ",
"+ U ^ _ _ ~ U _ _ ~ U m m m n + ",
"O I T I I A M M A I I S M m m O ",
"O m m m m m F e w H B m m m m O ",
"> m m m m G p 5 7 7 w A m C C > ",
"> J C C P w i . 9 5 q J C C J > ",
"+ R Y L Q 9 w 7 . 5 8 E Y Q R + ",
"+ R R R E Q 9 w 9 6 D R R R R + ",
"+ { [ ' ' ] ` 2 ` ` ` ' ' [ +.+ ",
"O d g ....O.2 a @.@.o.X. .| } O ",
"& 3 y u s s f 1 a f s u u y 3 & ",
"; 3 3 4 r t r 4 a 2 r r 4 3 3 ; ",
"> & & & + + > > > + + + ; ; X > "
};
