/* XPM */
static char *skull_and_roses_png[] = {
/* columns rows colors chars-per-pixel */
"32 32 243 2 ",
"   c #011E34",
".  c #081A23",
"X  c #0A232B",
"o  c #002433",
"O  c #002D35",
"+  c #01253E",
"@  c #012C3B",
"#  c #0C2939",
"$  c #152D3D",
"%  c #1A2933",
"&  c #00333B",
"*  c #063637",
"=  c #182F2B",
"-  c #353038",
";  c #7F373C",
":  c #0C5834",
">  c #214A3C",
",  c #3A7637",
"<  c #137A3B",
"1  c #4D6C3A",
"2  c #002D43",
"3  c #002845",
"4  c #182D4B",
"5  c #003343",
"6  c #003C44",
"7  c #00344A",
"8  c #003B4C",
"9  c #0E364D",
"0  c #163549",
"q  c #153A55",
"w  c #0C3454",
"e  c #273748",
"r  c #2D3A5A",
"t  c #173A65",
"y  c #33386F",
"u  c #55354B",
"i  c #713848",
"p  c #7A387E",
"a  c #004246",
"s  c #06474A",
"d  c #18444B",
"f  c #1C4453",
"g  c #19465B",
"h  c #0F5346",
"j  c #2A414B",
"k  c #2D4C56",
"l  c #254759",
"z  c #384C58",
"x  c #2F545D",
"c  c #3C5159",
"v  c #334E4B",
"b  c #327257",
"n  c #194965",
"m  c #1F526B",
"M  c #185275",
"N  c #264B67",
"B  c #374B67",
"V  c #28586B",
"C  c #395967",
"Z  c #275A75",
"A  c #375C73",
"S  c #2A4874",
"D  c #3B6669",
"F  c #35697A",
"G  c #2E7275",
"H  c #167444",
"J  c #42494A",
"K  c #5A455A",
"L  c #4B5858",
"P  c #424E5A",
"I  c #6B5450",
"U  c #45784B",
"Y  c #497957",
"T  c #4E6E52",
"R  c #736455",
"E  c #464A69",
"W  c #5C4C62",
"Q  c #46586A",
"!  c #565D6A",
"~  c #7A5461",
"^  c #466A6A",
"/  c #526C69",
"(  c #486D7C",
")  c #58757E",
"_  c #4C737A",
"`  c #786865",
"'  c #69746E",
"]  c #6E7076",
"[  c #A32839",
"{  c #A64538",
"}  c #8E4C3D",
"|  c #8D3545",
" . c #A53B51",
".. c #91494E",
"X. c #B0504E",
"o. c #A16D5F",
"O. c #895762",
"+. c #934F77",
"@. c #A65960",
"#. c #8A676A",
"$. c #AA706F",
"%. c #ED5842",
"&. c #C2674F",
"*. c #368833",
"=. c #109D28",
"-. c #7F8E28",
";. c #1BB561",
":. c #2CA76B",
">. c #2DAB74",
",. c #48884B",
"<. c #468758",
"1. c #51974B",
"2. c #618E5C",
"3. c #5BA357",
"4. c #518A71",
"5. c #66866B",
"6. c #858D45",
"7. c #B98470",
"8. c #D18E64",
"9. c #4F3083",
"0. c #1F4C85",
"q. c #1F5890",
"w. c #265787",
"e. c #295E94",
"r. c #346D86",
"t. c #2B788D",
"y. c #3C758B",
"u. c #3B7586",
"i. c #286997",
"p. c #356C9B",
"a. c #28799B",
"s. c #397699",
"d. c #2F6684",
"f. c #2C69A6",
"g. c #2D79A9",
"h. c #3276A3",
"j. c #3A75A4",
"k. c #3A7BA5",
"l. c #357BA9",
"z. c #3B7CAA",
"x. c #3579A7",
"c. c #397AB1",
"v. c #2E71AF",
"b. c #1A6C95",
"n. c #426A8A",
"m. c #487788",
"M. c #5B7A8A",
"N. c #467A94",
"B. c #547B93",
"V. c #5C6B8D",
"C. c #726587",
"Z. c #4278A7",
"A. c #4A7BB2",
"S. c #6C68BB",
"D. c #5079C2",
"F. c #339C96",
"G. c #2D879A",
"H. c #34A38C",
"J. c #3A83AC",
"K. c #3D8BAE",
"L. c #3886A5",
"P. c #3B84B2",
"I. c #3D8BB5",
"U. c #3988B8",
"Y. c #3F91BB",
"T. c #44849A",
"R. c #488898",
"E. c #598799",
"W. c #4B888E",
"Q. c #6A8C96",
"!. c #4C8CA2",
"~. c #4386A9",
"^. c #4D92AB",
"/. c #4793AB",
"(. c #5695A9",
"). c #438BB2",
"_. c #4588B8",
"`. c #4B97B8",
"'. c #549BB3",
"]. c #5C9DBC",
"[. c #599AB7",
"{. c #578BA3",
"}. c #6C9DB5",
"|. c #6E94A8",
" X c #5DA4BB",
".X c #55A0B4",
"XX c #64A4BC",
"oX c #64A9BD",
"OX c #69A5B9",
"+X c #79A5B7",
"@X c #60B8BB",
"#X c #55D3A7",
"$X c #3F96C5",
"%X c #36AAF0",
"&X c #4A99C3",
"*X c #579AC3",
"=X c #529CD0",
"-X c #6792C0",
";X c #5AA8C7",
":X c #5DACD4",
">X c #4FA6CC",
",X c #66A9C6",
"<X c #64B2CC",
"1X c #6FB3CC",
"2X c #74B4CB",
"3X c #67ACD6",
"4X c #6CB3D2",
"5X c #6DB9D3",
"6X c #65B7DA",
"7X c #79BCD8",
"8X c #7AA8C8",
"9X c #53B1E5",
"0X c #67B7E5",
"qX c #77BAE3",
"wX c #77C4DB",
"eX c #79C8E4",
"rX c #6FCBEF",
"tX c #96A09A",
"yX c #B9A69A",
"uX c #C7AC92",
"iX c #80BFD9",
"pX c #85C8DB",
"aX c #8DD0DF",
"sX c #97D3DD",
"dX c #9CCADB",
"fX c #84CAE4",
"gX c #8AD3E7",
"hX c #92D3E3",
"jX c #96D9E8",
"kX c #8ED5F3",
"lX c #A4DCE8",
"zX c #A4DCFC",
"xX c #93E4FE",
"cX c #A6E2ED",
"vX c #B3E6EE",
"bX c #A9E5F7",
"nX c #BBECF5",
"mX c #B6ECF9",
"MX c #B8E9F6",
"NX c #BFF2FF",
"BX c #A6CBD5",
"VX c #C4EEF8",
"CX c #C5F0F1",
/* pixels */
"7 7 8 8 a a 6 & 5 @ @ @ O o o     o @ O O O O o O O & & & & 5 5 ",
"5 4X4XqX7XfXgXgXaXeXwX7X3X3X*X&X$X_.&X).J.P.I.&Xk.j.k.J.I.l.l.5 ",
"@ 4X1X7X5XpX7XpXXXR.u.T.{.R.R.).).K.I.J.K.P.U.I.~.l.~.k.J.J.l.6 ",
"O OX,X,X1X4X1XW.u.F u.N.!.!.'.XXoX^.).).I.U.U.P.).l.s.p.P.l.k.a ",
"& ].].,XXX[.( V F y.T.T.!.'.oXoX1X1XXX(.I.P.I.).J.l.s.s.s.P.J.a ",
"& ].].'.].W.n N y.N.!.(. X,X<X7XpXpXpXfX,X&XI.P.l.h.h.p.l.J.J.a ",
"O *X;X].E.f l V T.R.^.XX,X<X5XwXaXaXjXjXpX=XU.l.h.k.J.j.l.J.l.6 ",
"@ *X,X;XC q g y.R.(. X;X<X5XeX7XaXlXjXjXcXgXl.j.l.l.k.l.k.h.p.6 ",
"5 4X0XK.0 N Z u.T.'. XoX5XwXeXgXhXlXcXvXnXcX+Xp.).j.l.g.i.s.m 7 ",
"7 ;X:Xr.0 l F F R.(.XXoX4XeXfXhXlXcXvXvXMXmXlX!.P.Z.J.s.Z M q 7 ",
"5 qX:Xf 0 q Z r.T.^.^.'.,XwXgXgXlXnXMXNXnXNXnXs.A.c.h.N f N g 5 ",
"2 7X6X# 0 0 Z u.!.[.'./.`.5XaXhXbXNXVXnXnXnXnXs.k.l.d.g N 0 0 2 ",
"+ 7X0XN 0 l V y. X,X'./.L. XgXjXlXvXCXCXVXVXNX~.l.s.n g f 0 @ 2 ",
"+ 4X4XZ # f V N.[.<XoX!.x /.jXjXjXsXsXvXmXlXdX~.J.m g Z h @ 0 3 ",
"+ *X*XP.. f V N.^.;X5Xm.j y.wXOXJ e C hXbX{.|.i.g w g g d h * + ",
"+ *X`._.. $ V V !.2X}.E.J /.,XE.r.S a.eXmXN.v.q + q N   X : * + ",
"2 &XU.~.9 % l k <XN.E.M.^ oXBX`.Z n r.fXVX;XB.M e 4 e - - : * + ",
"7 _.P.h.e.X k ( R.E.( / x eXfX].&Xs.0XeXbX0Xm.q u e i X.~ > : + ",
"7 P.P.c.v.0 l m.- z ( oX^.rXgX9X%XkX6XkXhXrXN.g ` X.$.o.#.I v 2 ",
"5 P.x.x.v.q.$ u.k c e OX;X>XxXgXgX0X1X8XM.kX|.k #.&.uXuX$...v 5 ",
"5 _.>.g.f.v.e._ e B B.j .X6X`.OX2XeXL e.P.-XT R @.7.tXuX..K R 5 ",
"5 H.;.G.a.f.f.x.# k F A Q./ ^ E.<XgX|.l E.q C O.#.8.yXO.i E } 7 ",
"5 ;.K.a.G.f.f.c.% z (.1X}.j c |.5XgXjXVX+Xr E K W +. .K u ; { 7 ",
"5 F.L.K.g.f.f.i.B k m.'.hXh.Z.A (.T.4X8XB.0 y E Q p u r u | { 7 ",
"5 L.V.V.V.l.t.p.) k y.~.;XiXp.F N.n.B.B.A Q ! L T 9.r K .. .| 6 ",
"5 G.C.&.] N.F.D p.j z s.L.0X3X].0XE.,XU.N A A b t y N I I ..[ 6 ",
"5 R.$.%.6.C.:.b.{.z Q ' ~.:X;XwX5XrXkX|.n 9 y < H Y d ! ` R ..6 ",
"& T.+.6.-.2.>.( f.P _ ` ' a.<X:XxXNXzX+X9 4 r h =.1./ 5.` E B 6 ",
"& _.4.3.$.4.H.G.C L C ' w.w.t.;XrXbX9Xm.t b *.,.<.<.4.,.1 ^ ^ 6 ",
"5 H.>.S.W.>.>.G > B _ ) s.0.i.0.w.w.M t C , Y 3.2./ Y , U *.U 6 ",
"7 F.D.A.@X#XH.n.= = D M.$X5X6X0.p.0.t w S ^ <.5.( S 1 U ,.1 U 5 ",
"7 a 8 8 a a 6 & & @ & @ O o o     o @ O O O o o O O O & & & 5 5 "
};
