/* XPM */
static char *tides_png[] = {
/* columns rows colors chars-per-pixel */
"48 48 250 2 ",
"   c #16181B",
".  c #0B1119",
"X  c #341B0B",
"o  c #3D1D0D",
"O  c #34170A",
"+  c #3D1F10",
"@  c #2C1F1A",
"#  c #3D240D",
"$  c #3C2B0E",
"%  c #36220D",
"&  c #392F17",
"*  c #1B1E2C",
"=  c #161B25",
"-  c #151E2E",
";  c #192528",
":  c #1D322C",
">  c #1D2333",
",  c #162837",
"<  c #1B3536",
"1  c #0E2527",
"2  c #252829",
"3  c #26332A",
"4  c #353728",
"5  c #252936",
"6  c #273837",
"7  c #353739",
"8  c #302F34",
"9  c #1B201D",
"0  c #462B13",
"q  c #40250E",
"w  c #304B1E",
"e  c #1B4633",
"r  c #394629",
"t  c #2B4338",
"y  c #384737",
"u  c #3B543B",
"i  c #205737",
"p  c #49572C",
"a  c #46483A",
"s  c #485638",
"d  c #4E4E32",
"f  c #546839",
"g  c #526D29",
"h  c #726938",
"j  c #495A15",
"k  c #18354C",
"l  c #232D41",
"z  c #273648",
"x  c #353947",
"c  c #283C53",
"v  c #373F52",
"b  c #1A435C",
"n  c #1C4741",
"m  c #2A4745",
"M  c #364947",
"N  c #3A5649",
"B  c #2C445D",
"V  c #274559",
"C  c #364759",
"Z  c #395659",
"A  c #2C5654",
"S  c #184C66",
"D  c #18526B",
"F  c #195A73",
"G  c #0D516A",
"H  c #2C4B64",
"J  c #2D4E6A",
"K  c #254A64",
"L  c #334C64",
"P  c #3B4C63",
"I  c #354A65",
"U  c #2C536C",
"Y  c #26566A",
"T  c #3C5265",
"R  c #33536C",
"E  c #3C556C",
"W  c #3B5B6C",
"Q  c #345768",
"!  c #2A5B74",
"~  c #255873",
"^  c #3C5C74",
"/  c #365973",
"(  c #1D6479",
")  c #0F657A",
"_  c #28647B",
"`  c #33627B",
"'  c #3C627C",
"]  c #396375",
"[  c #3A636B",
"{  c #336249",
"}  c #475849",
"|  c #475A58",
" . c #4C504C",
".. c #6E5654",
"X. c #4B6447",
"o. c #55684B",
"O. c #4A6358",
"+. c #556955",
"@. c #577353",
"#. c #746B4E",
"$. c #65754B",
"%. c #666957",
"&. c #687456",
"*. c #767C53",
"=. c #706C4B",
"-. c #465969",
";. c #415C73",
":. c #485D75",
">. c #4B5569",
",. c #4A6769",
"<. c #566B65",
"1. c #44647D",
"2. c #486677",
"3. c #55677A",
"4. c #4A727A",
"5. c #587578",
"6. c #547667",
"7. c #677968",
"8. c #787B65",
"9. c #657670",
"0. c #8F7634",
"q. c #867C4B",
"w. c #837655",
"e. c #9A764F",
"r. c #B56159",
"t. c #BD7370",
"y. c #9A5953",
"u. c #798457",
"i. c #7B866A",
"p. c #788678",
"a. c #668972",
"s. c #588040",
"d. c #99812E",
"f. c #88875D",
"g. c #958450",
"h. c #A99858",
"j. c #B1A455",
"k. c #84846A",
"l. c #96956B",
"z. c #979774",
"x. c #8D916C",
"c. c #A49B6C",
"v. c #97A57B",
"b. c #B0AC72",
"n. c #C4AE5C",
"m. c #C8BA78",
"M. c #CFB96A",
"N. c #CC8A79",
"B. c #D4C566",
"V. c #E0C467",
"C. c #166C84",
"Z. c #276983",
"A. c #396984",
"S. c #2A738C",
"D. c #3A748A",
"F. c #3D7D95",
"G. c #347A92",
"H. c #2E7D94",
"J. c #436C85",
"K. c #476985",
"L. c #48758A",
"P. c #547587",
"I. c #467C93",
"U. c #597A92",
"Y. c #546984",
"T. c #617C83",
"R. c #4B77A1",
"E. c #3C8298",
"W. c #44859B",
"Q. c #488499",
"!. c #57889B",
"~. c #738B87",
"^. c #6E8F90",
"/. c #67A296",
"(. c #478CA3",
"). c #568CA4",
"_. c #4C92A8",
"`. c #5993A8",
"'. c #569AB0",
"]. c #638EA7",
"[. c #6699AB",
"{. c #699EB1",
"}. c #659CB2",
"|. c #789CB2",
" X c #7B98AD",
".X c #6DA3B6",
"XX c #74A4B5",
"oX c #7CABBD",
"OX c #77A7B9",
"+X c #7CADC3",
"@X c #76ABC3",
"#X c #7DB2C8",
"$X c #8E9586",
"%X c #AC9186",
"&X c #AFB48A",
"*X c #8499AA",
"=X c #87A8B7",
"-X c #A0ACA2",
";X c #D7B697",
":X c #BCC494",
">X c #BBC2AB",
",X c #C8C695",
"<X c #D4CB8A",
"1X c #D5CCA8",
"2X c #E9DA92",
"3X c #83B1C5",
"4X c #84B5CB",
"5X c #8AB6CB",
"6X c #8CB9CB",
"7X c #86B7CB",
"8X c #8DB7CA",
"9X c #85CAD9",
"0X c #96C8D5",
"qX c #BAC9CC",
"wX c #ABC9D3",
"eX c #B8D1D7",
"rX c #ADCCD2",
"tX c #89D5E5",
"yX c #96DAE8",
"uX c #94DDF1",
"iX c #B7DDE3",
"pX c #AADCE4",
"aX c #B8E3E7",
"sX c #ADE3ED",
"dX c #98E3F4",
"fX c #C2CCC9",
"gX c #C9D3CE",
"hX c #C8D7D5",
"jX c #D4DCD5",
"kX c #D5DDDA",
"lX c #D9DCD6",
"zX c #D6E2DE",
"xX c #DBE3DD",
"cX c #CFE1DF",
"vX c #E4E6DE",
"bX c #C7E6E9",
"nX c #D5E4E3",
"mX c #DBE6E3",
"MX c #DEE8E5",
"NX c #DAEAEB",
"BX c #D9F0F3",
"VX c #E4EAE6",
"CX c #E4ECEA",
"ZX c #EAEEEB",
"AX c #E9EAE3",
"SX c #EDF1ED",
"DX c #E3F0EE",
"FX c #F3F2EE",
"GX c #E9F3F2",
"HX c #F5F6F3",
/* pixels */
"0 # # # # # # # # $ # $ # o # # # # # # # # # O # # $ # $ $ # $ # # # # % # # # # # + + + % + 0 ",
"o ZXSXZXVXVXSXZXZXFXFXDXbXyXsXbXHXDXDXbXSXFXZXmXVXbXaXbXtXyXtXyXtXuXuXuXuXtXuXuXtX].6X]. XBXaX# ",
"o SXSXVXMXVXVXVXVXZXSXHXGXDXbXNXHXHXFXGXSXFXZXSXSXFXHXBXtXtXyXuXtXyXuXtXdXsXOX5X=X>.P I -.*XeXo ",
"o VXVXVXVXVXVXVXMXmXVXSXSXSXVXVXSXSXZXFXNXaXiXDXVXGXHXbXyX8XpXiXNXbXiX=X XwX*XC :.C ;.>. .-.3.# ",
"o VXVXVXVXmXmXmXmXmXmXMXmXMXVXnXaXiXpXpXtXtXyXaXpXaXbXaX0X^.eXbXZXNXnX2.C 3. XU.D.3.P 3.T.4.4.# ",
"o MXMXMXnXmXmXNXnXmXmXmXnXnXaXyXtXtXtXtXtX9XtXtXtX9XtXuX9XU.#X[.=XnX|.3.;.K.R.A.1.>.P.1.F.!.U.# ",
"o MXmXnXnXnXnXnXnXnXnXmXnXmXVXNXbXiXbXiXtX9XyXyXtXuXuXtX#XY.P -.P.P.A.' K.J.;.K.J.;.:.~ A.K.^ # ",
"# mXzXzXmXmXnXnXnXnXnXmXzXxXVXZXZXZXHXVXpXaXbXbXpXyX7XI -.>.^ R ;.K.1.R / E ;.I Y.:.P :.J.;.2.0 ",
"# VXxXxXmXVXZXnXzXkXmXzXkXnXxXxXVXAXMXcXaXhXeX X).Q.' J.U.! A.! E ;.>.2.2.^ T 2.c ;.V C E E Y.# ",
"# zXxXxXmXvXVXVXAXAXAXAXVXVXVXAXAXvXcXAXhX|.L.A.I.Z.^ ^ Y.P.K.' C E E I / 1.P P C I C P P ;.E # ",
"# xXzXzXxXjXlXxXlXvXvXvXxXxXkXxXxXxXVXAXlXD.1.A.' 2.T E I K.J.J / I / ^ :.2.C E T U T T ;.2.U.# ",
"# lXlXkXkXjXlXlXkXkXjXxXjXjXjXhXjXjXlXAXkXA.^ R ' ` R R U R H K c H B ^ T C C ;.T ^ H 2.E ;.;.$ ",
"# jXkXjXlXjXjXjXjXjXkXgXgXjXkXjXjXlXkXjXhXJ.' ^ 1./ K K F K J J H B B C I B T / I >.;.2.T C C $ ",
"# kXhXqX0XwXqXqXfXqXgXfXgXgXgXfXgXfXfXgXqXJ.R R ^ / J I H H R B z V C I I C H ^ -.E C C C C T $ ",
"# wX6X4X#X#X#X6X6X6X4X6X4X4X4X6X6X8XwXeXwX/ J ^ ' J.H H U R E I B H H H J T I C x C c v P T C # ",
"# 6X5X6X4X3X3X3X6X3X4X6X+X4X4X#X+X4X3X0XwXL./ J.Q.L.E / / ' J H T R I H I c c C P I E 2.C T Y.O ",
"# 5X3X3X4X+X+X+X3X4X4X3X3X4X+X3X#X5X3X0X6XL.2.U.P.] Q V C R I ;.U.! I 2.;.;.E U.L./ W ;.I 1.W # ",
"# 5X5X=X+X+XoX3X4X@X4X+X#X4X4XOX5X3X5XOX).5.5.P.W ^ 4.Z -.T E 1.1.W 2.U.].J.I.!.2.1.C K.x z B # ",
"# wX3X+X+X+XOXOX@X#X5X+XOX@X@X+X+X+X|.!.4.4.L.L.4.^ 4.] T T 2.2.^ ).L.A.K.K.).L.^ C c C 5 - c # ",
"$ 3XoX+X+X#X+X+XoX+XOX5X3X+XoXoX+XoX].!.!.L.L.' J.' R R W ^ ;.;.K.A.! J.R L.1.K.J z C 8 7 5 5 # ",
"# oXoXoXOXOXoX3XXXoXoXOX3X6X3X#X6X[.!.Q.].L.~ ^ J./ ' R H H I K / U ' ;.A.E H H R I 5 > * * - # ",
"% OXXX|.XXOX[..XoXOXXXoXXXoXOXXX.XI.L.I.] _ S./ Y S _ Y Y R B S Y W ^ ^ ^ / B ! / / x 5 l = * # ",
"O .XOXXXXX[.XX.X+XXXoX=XXXXX.X@X).L.' I.A._ ! U ' ! ` Y ! J C R R H -.J / R B J B B l 5 l * 5 # ",
"% +X[.[.oX.X{.[..X[.].[.[.{..X.XL.A.` ` ! A.A.~ K b K b k b B I H U H l z z V I H l 5 V 5 * * # ",
"$ {.{.{.{.[.[.{.[.`.`.`.).`.[.].J./ ! H ! U ~ D S D G H S b k U U ! U l , - z c R c > l l = 5 # ",
"# [.`..X{.{..X`.[.).)._.).)..X_.Q.` U U F F _ _ _ ~ S D Y ` Y S ~ ~ b , > 5 5 I D c > > 5 2 8 # ",
"$ !.`.).`.`.).!.Q.Q._._.E.(._._.'.D.Q R ] ` Z._ ~ _ F _ / ! ~ K S D B c 5 - > - c z = > 2 2 5 O ",
"o ).`.{.).).I.I.Q.D.Q._.Q._.Q.(._.G.` ` ! ] ( ~ ` ` ~ D F F G D D b l > > - > * 1 5 7 7 | M M $ ",
"o ).I.Q.!.Q.E.F.D.F.Q.E.E.E.E.E.W.S.D S b K Z.( ! ( A.~ Z.C.Q ( ! H 6 > * l > v 8 m M  .<.O.,.$ ",
"o Q.Q.I.D.F.E.F.(.Q._.Q._._.E.G.G.H.Z.F U ! K Y ~ _ 5 7 ..] S.( ` b k > * > 5 x N  . .<.| M ~.$ ",
"o L.Q L.D.F.I.D.Q.W.Q.(.G.G.E.G.E.E.G.S._ Z.Y ~ _ C.z y.N.>XP.F D b , > l 5 m y 6 a +.} o.+.i.$ ",
"o Z A L.L.D.D.D.I.Q.F.Q.G.D.S.H.S.(.H.S._ _ ! Y Y F >.r.&X1X>X~ V K < m l 5 y r r X.f *.#.x.z.$ ",
"# Z z M ,.] L.T A.D.F.E.S._ F.C.S.`.G.E.( D F D D E y.;X%Xp.1X<.+.@.o.p X. .%.*.#.#.w.&Xj.n.b.O ",
"o m N Z A | ] L.A.I.(.G.A.I.` Y Q L.2.Y V V Y Z ] ..t.r.qX-X1Xi.$.u.u.*.k.x.x.z.z.b.c.M.j.M.j.$ ",
"o -.<.,.P.,.,.[ 4.P.1.P.5.,.2.,.| ,.5.O.u.~.a.i.z.y.t...=XqX-X/.v.:Xb.:X&X:X,Xc.1X,Xn.g.,Xj.2X# ",
"# >.5.>.W ~.>.>.<.| N >.W T.~.^.7.6.~.^.^.^.~.i.9.y.%XM O.*X~./.^.b.,X<Xb.:XM.,XM.V.n.f d.u.V.# ",
"# -.,.9.T.M * x 8 7 N  .| 7.7.a.p.p.9.^.4.7.O.<.&.*.x.6.6.6.a.b.<Xb.2Xm.<Xd.n.M.h s *.0.} a u.# ",
"# z | [ N M ,.7 x 7 8 8.8.&.} &.<. .|  .o.i.~.z.k.&X&X:X&X2X,Xb.,X&Xb.<XM.l.m.n.X.< o.o.6 7.u.O ",
"# < m [ 9.<.~.%.2 2 a #.i.o.f.$Xv.x.$X$Xf.l.f.k.n.c.$X&Xx.&XB.b.j.u.j.h a =.q.4 t m +.w < } %.O ",
"+ M N n M  .4.,.8 a ..o.w.$X%Xb.l.8.k.b.j.w.l.z.&Xc.l.c.m.m.h.M.1X*.h +.< =.o.t } Z e u m } m # ",
"O } N m ,.m Z 8.%.p.k.#.%.#.z.z.h.f.g.w.#.w.f.g.f.c.b.#.b.h.e.h.8.} :   m 7 < 6 3 < < 3 < } y # ",
"+ 3 7 <.>.M |  .<.&.7.p.5.6.i.9.| %.=.=.g.e.*.w.l.x.&.z V { a 6 : ) u r ; z 6 6 2 1 k N 3  . .# ",
"o 6 A Z M M | | } d @.7.X.o.M +.s s u.&.+.+.X.$.N } : : : 3 ; 1 r p w & 4 2 2 1 ; < e 1 2 s 3 # ",
"O 6 m m < 5 = 5 2 1 y X.X.} X.N +.} M N | | s o.7.m N 6 3 i 6 9 j $.j g r ;.Z 7 u a.t 7 3 t : + ",
"% n M 6 ; = = 1 3 < t 6 o.X.X.M t u $.O.y } $.f X.s s p 4 o.t e s.f g p +.N N y } d : : 6 M = + ",
"O < = ; 1 = 1   1 = 1 : y } N o.m p M Z u O.4 u 4 s p p u p o.p r r 2 4 2 4 y 8 7 < < 6 5 ,   + ",
"O . .   * = = 6 > - , m 8 3 N }  .@ a s 4 6 u +.y } : r p r r r 2 1 < m s t | 8 x t } y 2 2 M + ",
"% # % # # # # # 0 # # # # $ $ $ # $ $ # o # o # 0 # o # # # O # + o o o O O # O O # o o # % # 0 "
};
