/* XPM */
static char *debug[] = {
/* columns rows colors chars-per-pixel */
"16 16 136 2 ",
"   c black",
".  c #FF2F15",
"X  c #FF221A",
"o  c #FF1A22",
"O  c #FF1530",
"+  c #FF3D3E",
"@  c #FF4F12",
"#  c #FF4637",
"$  c #FF5231",
"%  c #FF622D",
"&  c #FF7B29",
"*  c #FF1251",
"=  c #FF3647",
"-  c #FF3153",
";  c #FF2C64",
":  c #FF297D",
">  c #FF6B53",
",  c #FF536B",
"<  c #FF7D7E",
"1  c #FFA426",
"2  c #FFEF10",
"3  c #FFF723",
"4  c #FFFF21",
"5  c #FFFF32",
"6  c #FFF939",
"7  c #FF9544",
"8  c #FF8F70",
"9  c #FFA765",
"0  c #FFC85B",
"q  c #FFFF43",
"w  c #FFFF4D",
"e  c #FFFB54",
"r  c #FFFF65",
"t  c #FFFF6C",
"y  c #FFFB73",
"u  c #FFFF7E",
"i  c #FF26A8",
"p  c #FF4497",
"a  c #FF6F90",
"s  c #FF64A9",
"d  c #FF0FFF",
"f  c #E01FFF",
"g  c #C03FFF",
"h  c #DD31FF",
"j  c #EE20FF",
"k  c #FF23FF",
"l  c #FF39FF",
"z  c #A05FFF",
"x  c #BB53FF",
"c  c #807FFF",
"v  c #9975FF",
"b  c #AA64FF",
"n  c #B66CFF",
"m  c #FF5BCB",
"M  c #CC42FF",
"N  c #DA47FF",
"B  c #EB4DFF",
"V  c #FF53FF",
"C  c #D760FF",
"Z  c #C474FF",
"A  c #D47EFF",
"S  c #FF72FF",
"D  c #609FFF",
"F  c #7797FF",
"G  c #40BFFF",
"H  c #55B9FF",
"J  c #66A8FF",
"K  c #6DB5FF",
"L  c #20DFFF",
"P  c #33DBFF",
"I  c cyan",
"U  c #11FDFF",
"Y  c #1CFFFF",
"T  c #22ECFF",
"R  c #24FDFF",
"E  c #2EFFFF",
"W  c #33FFFF",
"Q  c #3AFDFF",
"!  c #44CAFF",
"~  c #48D9FF",
"^  c #75C2FF",
"/  c #62D6FF",
"(  c #7FD3FF",
")  c #4EEAFF",
"_  c #45FFFF",
"`  c #48FFFF",
"'  c #55FFFF",
"]  c #5CFFFF",
"[  c #66FFFF",
"{  c #6DFFFF",
"}  c #73FDFF",
"|  c #7FFFFF",
" . c #FFB38C",
".. c #FF8BB5",
"X. c #FFBDBE",
"o. c #FFFF87",
"O. c #FFFF8A",
"+. c #FFFF91",
"@. c #FFFC98",
"#. c #FFD8A9",
"$. c #FFFFA1",
"%. c #FFFFA9",
"&. c #FFFFB5",
"*. c #FFFFB9",
"=. c #8886FF",
"-. c #9190FF",
";. c #9C9BFF",
":. c #B088FF",
">. c #89AFFF",
",. c #AAA8FF",
"<. c #B9B8FF",
"1. c #FFA8DA",
"2. c #E789FF",
"3. c #FF97FF",
"4. c #D0A0FF",
"5. c #A2CFFF",
"6. c #8BE6FF",
"7. c #8DFFFF",
"8. c #91FFFF",
"9. c #99FDFF",
"0. c #AAFFFF",
"q. c #B6FFFF",
"w. c #BFFFFF",
"e. c #FFFCC5",
"r. c #FFFFCB",
"t. c #FFFFD7",
"y. c #FFFFDA",
"u. c #CCCAFF",
"i. c #FFC4FF",
"p. c #C6FDFF",
"a. c #CCFFFF",
"s. c #DAFFFF",
"d. c #FFFFE2",
"f. c #FFFFEB",
"g. c #E2E0FF",
"h. c #FFFDFF",
/* pixels */
"I I I I I I I I I I I I I I I I ",
"  U   U   U   Y   R   W   '   h.",
"L T R R E E W Q Q ` ' [ | 0.h.f.",
"  P   Q   _   '   {   9.  h.  y.",
"G ! ~ ) ' ] [ } | 8.0.a.h.f.y.r.",
"  H   /   }   7.  q.  h.  t.  *.",
"D J K ^ ( 6.9.0.w.s.h.d.t.e.&.%.",
"  F   >.  5.  p.  h.  t.  &.  @.",
"c =.-.;.,.<.u.g.h.d.r.*.%.@.+.o.",
"  v   :.  4.  i.  e.  $.  O.  y ",
"z b n Z A 2.3.1.X.#.@.O.u y t r ",
"  x   C   S   ..   .  y   r   e ",
"g M N B V m s a < 8 9 0 e w w q ",
"  h   l   p   ,   >   7   6   5 ",
"f j k i : ; - = + # $ % & 1 3 4 ",
"  d   *   O   o   X   .   @   2 "
};
