/* XPM */
static char *redstone_torch_off[] = {
/* columns rows colors chars-per-pixel */
"16 16 12 1 ",
"  c None",
". c #290000",
"X c #372A17",
"o c #3B2E1B",
"O c #3D301D",
"+ c #480000",
"@ c #560000",
"# c #423522",
"$ c #55452E",
"% c #6D5736",
"& c #957546",
"* c #9F7F50",
/* pixels */
"                ",
"                ",
"                ",
"                ",
"                ",
"                ",
"       @+       ",
"       +.       ",
"       *%       ",
"       &$       ",
"       *#       ",
"       *$       ",
"       &$       ",
"       %O       ",
"       *o       ",
"       %X       "
};
