/* XPM */
static char *redstone_torch[] = {
/* columns rows colors chars-per-pixel */
"16 16 15 1 ",
"  c None",
". c #372A17",
"X c #3B2E1B",
"o c #3D301D",
"O c #423522",
"+ c #55452E",
"@ c #6D5736",
"# c #AF0000",
"$ c #FD0000",
"% c #957546",
"& c #9F7F50",
"* c #FF4E4E",
"= c #FF7777",
"- c #FFB0B0",
"; c #FFD7D7",
/* pixels */
"                ",
"                ",
"                ",
"                ",
"                ",
"      $$$$      ",
"      $=*$      ",
"      $-;$      ",
"      $$#$      ",
"       %+       ",
"       &O       ",
"       &+       ",
"       %+       ",
"       @o       ",
"       &X       ",
"       @.       "
};
