/* XPM */
static char *nether_portal_09[] = {
/* columns rows colors chars-per-pixel */
"16 16 252 2 ",
"   c #37009B",
".  c #37009C",
"X  c #37009D",
"o  c #37009E",
"O  c #37009F",
"+  c #3700A0",
"@  c #3700A1",
"#  c #3800A2",
"$  c #3700A2",
"%  c #3800A3",
"&  c #3800A4",
"*  c #3900A5",
"=  c #3900A6",
"-  c #3A00A7",
";  c #3900A7",
":  c #3A00A8",
">  c #3B00A9",
",  c #3A00A9",
"<  c #3C00AA",
"1  c #3B00AA",
"2  c #3C00AB",
"3  c #3D00AC",
"4  c #3C00AC",
"5  c #3E00AD",
"6  c #3D00AD",
"7  c #3E00AE",
"8  c #3F00AF",
"9  c #4000B0",
"0  c #3F00B0",
"q  c #4100B1",
"w  c #4000B1",
"e  c #4200B2",
"r  c #4100B2",
"t  c #4300B3",
"y  c #4200B3",
"u  c #4401B4",
"i  c #4301B4",
"p  c #4300B4",
"a  c #4501B5",
"s  c #4401B5",
"d  c #4601B6",
"f  c #4501B6",
"g  c #4701B7",
"h  c #4601B7",
"j  c #4802B8",
"k  c #4801B8",
"l  c #4701B8",
"z  c #4A02B9",
"x  c #4902B9",
"c  c #4B02BA",
"v  c #4A02BA",
"b  c #4C03BB",
"n  c #4C02BB",
"m  c #4B02BB",
"M  c #4E03BC",
"N  c #4D03BC",
"B  c #4C03BC",
"V  c #4F03BD",
"C  c #4E03BD",
"Z  c #5004BE",
"A  c #5003BE",
"S  c #4F03BE",
"D  c #5204BF",
"F  c #5104BF",
"G  c #5004BF",
"H  c #5305C0",
"J  c #5204C0",
"K  c #5505C1",
"L  c #5405C1",
"P  c #5305C1",
"I  c #5606C2",
"U  c #5506C2",
"Y  c #5505C2",
"T  c #5807C3",
"R  c #5806C3",
"E  c #5706C3",
"W  c #5A07C4",
"Q  c #5907C4",
"!  c #5807C4",
"~  c #5B08C5",
"^  c #5A08C5",
"/  c #5A07C5",
"(  c #5D09C6",
")  c #5C09C6",
"_  c #5C08C6",
"`  c #5B08C6",
"'  c #5F0AC7",
"]  c #5E0AC7",
"[  c #5E09C7",
"{  c #5D09C7",
"}  c #610BC8",
"|  c #600BC8",
" . c #600AC8",
".. c #5F0AC8",
"X. c #630CC9",
"o. c #620CC9",
"O. c #620BC9",
"+. c #610BC9",
"@. c #650DCA",
"#. c #640DCA",
"$. c #640CCA",
"%. c #630CCA",
"&. c #670ECB",
"*. c #660ECB",
"=. c #650ECB",
"-. c #650DCB",
";. c #680FCC",
":. c #670FCC",
">. c #670ECC",
",. c #6B11CD",
"<. c #6A11CD",
"1. c #6A10CD",
"2. c #6910CD",
"3. c #690FCD",
"4. c #6D12CE",
"5. c #6C12CE",
"6. c #6C11CE",
"7. c #6B11CE",
"8. c #6F14CF",
"9. c #6E13CF",
"0. c #6D13CF",
"q. c #6D12CF",
"w. c #7115D0",
"e. c #7015D0",
"r. c #7014D0",
"t. c #6F14D0",
"y. c #7317D1",
"u. c #7316D1",
"i. c #7216D1",
"p. c #7116D1",
"a. c #7115D1",
"s. c #7519D2",
"d. c #7518D2",
"f. c #7418D2",
"g. c #7417D2",
"h. c #7317D2",
"j. c #771AD3",
"k. c #761AD3",
"l. c #7619D3",
"z. c #7519D3",
"x. c #7A1CD4",
"c. c #791CD4",
"v. c #791BD4",
"b. c #781BD4",
"n. c #781AD4",
"m. c #7C1ED5",
"M. c #7B1ED5",
"N. c #7B1DD5",
"B. c #7A1DD5",
"V. c #7A1CD5",
"C. c #7E21D6",
"Z. c #7E20D6",
"A. c #7D20D6",
"S. c #7D1FD6",
"D. c #7C1FD6",
"F. c #7C1ED6",
"G. c #8123D7",
"H. c #8122D7",
"J. c #8022D7",
"K. c #8021D7",
"L. c #7F21D7",
"P. c #8325D8",
"I. c #8324D8",
"U. c #8224D8",
"Y. c #8223D8",
"T. c #8123D8",
"R. c #8628D9",
"E. c #8627D9",
"W. c #8527D9",
"Q. c #8526D9",
"!. c #8426D9",
"~. c #8425D9",
"^. c #8325D9",
"/. c #882ADA",
"(. c #8829DA",
"). c #8729DA",
"_. c #8728DA",
"`. c #8628DA",
"'. c #8B2DDB",
"]. c #8A2CDB",
"[. c #8A2BDB",
"{. c #892BDB",
"}. c #892ADB",
"|. c #882ADB",
" X c #8E30DC",
".X c #8D30DC",
"XX c #8D2FDC",
"oX c #8C2FDC",
"OX c #8C2EDC",
"+X c #8B2DDC",
"@X c #9033DD",
"#X c #9032DD",
"$X c #8F32DD",
"%X c #8F31DD",
"&X c #8E31DD",
"*X c #8E30DD",
"=X c #9336DE",
"-X c #9235DE",
";X c #9234DE",
":X c #9134DE",
">X c #9133DE",
",X c #9033DE",
"<X c #9639DF",
"1X c #9539DF",
"2X c #9538DF",
"3X c #9438DF",
"4X c #9437DF",
"5X c #9337DF",
"6X c #9336DF",
"7X c #983DE0",
"8X c #983CE0",
"9X c #973BE0",
"0X c #973AE0",
"qX c #963AE0",
"wX c #9639E0",
"eX c #9B40E1",
"rX c #9B3FE1",
"tX c #9A3FE1",
"yX c #9A3EE1",
"uX c #993EE1",
"iX c #993DE1",
"pX c #9E44E2",
"aX c #9E43E2",
"sX c #9D43E2",
"dX c #9D42E2",
"fX c #9C42E2",
"gX c #9C41E2",
"hX c #9B40E2",
"jX c #A148E3",
"kX c #A147E3",
"lX c #A047E3",
"zX c #A046E3",
"xX c #9F45E3",
"cX c #9E44E3",
"vX c #A44CE4",
"bX c #A44BE4",
"nX c #A34BE4",
"mX c #A34AE4",
"MX c #A24AE4",
"NX c #A249E4",
"BX c #A64FE5",
"VX c #A64EE5",
"CX c #A54EE5",
"ZX c #A54DE5",
"AX c #A44CE5",
"SX c #AA54E6",
"DX c #AD59E7",
"FX c #AC57E7",
"GX c #AB56E7",
"HX c #AA55E7",
"JX c None",
"KX c #AE5AE8",
/* pixels */
"- 2 X N {.X.1 - @ i M % i 9.9.t.",
"X.* U #.>.D 9 Q C ( ,.8 > U &Xb.",
"H #.w.H d.-.Z i.g P K.F H ~ 5.8X",
"i.>X#.9.(.C 5 V 3 % D r s 0.#.;.",
"OX( E c.d > r M J q V N , i o.I ",
"m = x z 7 d P E S.0.I M.J = y a ",
"t , Z T x g N N.9.BX-.9.i.c c J ",
"#.T !.;.> 2 ~ 8Xl.>./.e.} g Z J.",
"L g f.#.> % ] f.e Y z ..>X( q ^ ",
"8 # n %.S y 6 a g ; K T.U.8 % z ",
"9.x Z E d w u @ + f Q } ' c B j.",
"t.+._ Z.H h C d q { n -.P.I -.d.",
"e v a 6.S.] _ 4.;. ...XXQ f K q ",
"# 9 v k 2...Q !.j._ d.E 3 2 h & ",
"c 1 d F ( N 6 m i 3 Q a i z k C ",
"{ 9 X Z ].a.9 2 # a 0.F n m K S."
};
