/* XPM */
static char *redstone_lamp_on_png[] = {
/* columns rows colors chars-per-pixel */
"16 16 6 1 ",
"  c #F6DAB4",
". c #F2BD74",
"X c #E6994A",
"o c #946931",
"O c #463714",
"+ c #3B2015",
/* pixels */
"++++++++++++++++",
"+O+oXXo++oXXo+O+",
"++oX .XO+X. Xo++",
"+OX  Xo++oX  XO+",
"+o  Xo+oX+oX  o+",
"+X.Xo+X..X+oX.X+",
"+oXo+X   .X+oXo+",
"++O+o.   ..X+O++",
"++++XX. ..X.++++",
"+XoO+oX..X.+OXo+",
"+X.XO+oXX.+OX.X+",
"+X  XO+oX+OX  X+",
"+oX  XO++OX  Xo+",
"++oX .oO+X. Xo++",
"+O+OoXX++oXoO+O+",
"++++++++++++++++"
};
